<svg width="92" height="92" viewBox="0 0 92 92" fill="none" xmlns="http://www.w3.org/2000/svg">
<rect x="2" y="2" width="88" height="88" rx="14" fill="white"/>
<path fill-rule="evenodd" clip-rule="evenodd" d="M46 32.6667C46.5664 32.6667 47.0256 33.1259 47.0256 33.6923V44.9744H58.3077C58.8741 44.9744 59.3333 45.4336 59.3333 46C59.3333 46.5664 58.8741 47.0256 58.3077 47.0256H47.0256V58.3077C47.0256 58.8741 46.5664 59.3333 46 59.3333C45.4335 59.3333 44.9743 58.8741 44.9743 58.3077V47.0256H33.6923C33.1258 47.0256 32.6666 46.5664 32.6666 46C32.6666 45.4336 33.1258 44.9744 33.6923 44.9744H44.9743V33.6923C44.9743 33.1259 45.4335 32.6667 46 32.6667Z" fill="#7364DB"/>
<rect x="2" y="2" width="88" height="88" rx="14" stroke="#7364DB" stroke-width="4"/>
</svg>
