<svg width="92" height="92" viewBox="0 0 92 92" fill="none" xmlns="http://www.w3.org/2000/svg">
<rect x="2" y="2" width="88" height="88" rx="14" fill="#1F2128"/>
<path fill-rule="evenodd" clip-rule="evenodd" d="M46 32.6666C46.5664 32.6666 47.0256 33.1258 47.0256 33.6923V44.9743H58.3077C58.8741 44.9743 59.3333 45.4335 59.3333 46C59.3333 46.5664 58.8741 47.0256 58.3077 47.0256H47.0256V58.3077C47.0256 58.8741 46.5664 59.3333 46 59.3333C45.4335 59.3333 44.9743 58.8741 44.9743 58.3077V47.0256H33.6923C33.1258 47.0256 32.6666 46.5664 32.6666 46C32.6666 45.4335 33.1258 44.9743 33.6923 44.9743H44.9743V33.6923C44.9743 33.1258 45.4335 32.6666 46 32.6666Z" fill="#7364DB"/>
<rect x="2" y="2" width="88" height="88" rx="14" stroke="#7364DB" stroke-width="4"/>
</svg>
