<svg width="16" height="16" viewBox="0 0 16 16" fill="none" xmlns="http://www.w3.org/2000/svg">
<path opacity="0.4" d="M14.6667 4.16668V7.56666C14.6667 8.41333 14.3867 9.12667 13.8867 9.62001C13.3934 10.12 12.68 10.4 11.8334 10.4V11.6067C11.8334 12.06 11.3267 12.3333 10.9534 12.08L10.3067 11.6533C10.3667 11.4467 10.3934 11.22 10.3934 10.98V8.26669C10.3934 6.90669 9.48671 6.00001 8.12671 6.00001H3.60004C3.5067 6.00001 3.42004 6.00669 3.33337 6.01336V4.16668C3.33337 2.46668 4.46671 1.33334 6.16671 1.33334H11.8334C13.5334 1.33334 14.6667 2.46668 14.6667 4.16668Z" fill="#9A9AAF"/>
<path d="M10.3934 8.26668V10.98C10.3934 11.22 10.3667 11.4467 10.3067 11.6533C10.06 12.6333 9.24671 13.2467 8.12671 13.2467H6.31337L4.30004 14.5867C4.00004 14.7933 3.60004 14.5733 3.60004 14.2133V13.2467C2.92004 13.2467 2.35338 13.02 1.96004 12.6267C1.56004 12.2267 1.33337 11.66 1.33337 10.98V8.26668C1.33337 7.00002 2.12004 6.12668 3.33337 6.01335C3.42004 6.00668 3.5067 6 3.60004 6H8.12671C9.48671 6 10.3934 6.90668 10.3934 8.26668Z" fill="#9A9AAF"/>
</svg>
