<svg width="28" height="28" viewBox="0 0 28 28" fill="none" xmlns="http://www.w3.org/2000/svg">
<circle cx="14" cy="14" r="14" fill="#FC424A" fill-opacity="0.1"/>
<circle cx="14" cy="14" r="11" fill="#FC424A" fill-opacity="0.3"/>
<path d="M18.5303 10.5303C18.8232 10.2374 18.8232 9.76256 18.5303 9.46967C18.2374 9.17678 17.7625 9.17678 17.4696 9.46967L18.5303 10.5303ZM9.46967 17.4697C9.17678 17.7626 9.17678 18.2374 9.46967 18.5303C9.76256 18.8232 10.2374 18.8232 10.5303 18.5303L9.46967 17.4697ZM10.5304 9.46967C10.2375 9.17678 9.76259 9.17678 9.4697 9.46967C9.1768 9.76256 9.1768 10.2374 9.46969 10.5303L10.5304 9.46967ZM17.4697 18.5303C17.7626 18.8232 18.2374 18.8232 18.5303 18.5303C18.8232 18.2374 18.8232 17.7626 18.5303 17.4697L17.4697 18.5303ZM17.4696 9.46967L9.46967 17.4697L10.5303 18.5303L18.5303 10.5303L17.4696 9.46967ZM9.46969 10.5303L17.4697 18.5303L18.5303 17.4697L10.5304 9.46967L9.46969 10.5303Z" fill="#E23738"/>
</svg>
