<svg width="21" height="18" viewBox="0 0 21 18" fill="none" xmlns="http://www.w3.org/2000/svg">
<path d="M16 10C17.6569 10 19 8.65685 19 7C19 5.34315 17.6569 4 16 4C14.3431 4 13 5.34315 13 7C13 8.65685 14.3431 10 16 10Z" fill="#9A9AAF"/>
<path d="M16 11C13.2442 11 11 13.1 11 15.6875C11 15.8625 11.121 16 11.275 16H20.725C20.879 16 21 15.8625 21 15.6875C21 13.1 18.7558 11 16 11Z" fill="#9A9AAF"/>
<path d="M8.00016 8.99999C10.3013 8.99999 12.1668 7.13451 12.1668 4.83332C12.1668 2.53214 10.3013 0.666656 8.00016 0.666656C5.69898 0.666656 3.8335 2.53214 3.8335 4.83332C3.8335 7.13451 5.69898 8.99999 8.00016 8.99999Z" fill="#9A9AAF"/>
<path d="M8.00005 11.0833C3.82505 11.0833 0.425049 13.8833 0.425049 17.3333C0.425049 17.5666 0.608382 17.75 0.841716 17.75H15.1584C15.3917 17.75 15.575 17.5666 15.575 17.3333C15.575 13.8833 12.175 11.0833 8.00005 11.0833Z" fill="#9A9AAF"/>
</svg>
