<svg width="11" height="11" viewBox="0 0 11 11" fill="none" xmlns="http://www.w3.org/2000/svg">
<path d="M5.22478 0.665548C4.23676 0.666536 3.2712 0.960423 2.45017 1.51006C1.62914 2.05969 0.989486 2.84041 0.612069 3.7535C0.234653 4.6666 0.136416 5.6711 0.329775 6.64002C0.523135 7.60894 0.999411 8.49879 1.6984 9.19708C2.39739 9.89537 3.28771 10.3708 4.25682 10.5631C5.22593 10.7555 6.23033 10.6563 7.14305 10.278C8.05578 9.89964 8.83585 9.25921 9.38466 8.43762C9.93348 7.61604 10.2264 6.6502 10.2264 5.66217C10.2267 5.00549 10.0975 4.3552 9.84624 3.74851C9.59493 3.14182 9.22645 2.59064 8.76188 2.12653C8.29731 1.66243 7.74576 1.29449 7.13882 1.0438C6.53188 0.793103 5.88146 0.664568 5.22478 0.665548ZM5.22978 9.54843C4.46115 9.54843 3.70978 9.32051 3.07069 8.89348C2.43159 8.46645 1.93348 7.8595 1.63934 7.14938C1.3452 6.43926 1.26824 5.65786 1.41819 4.904C1.56814 4.15014 1.93827 3.45767 2.48178 2.91417C3.02528 2.37066 3.71775 2.00053 4.47161 1.85058C5.22547 1.70063 6.00686 1.77759 6.71699 2.07173C7.42711 2.36587 8.03406 2.86399 8.46109 3.50308C8.88811 4.14217 9.11604 4.89354 9.11604 5.66217C9.11618 6.17256 9.01575 6.67798 8.8205 7.14954C8.62525 7.62111 8.33899 8.04958 7.97809 8.41048C7.61719 8.77138 7.18872 9.05764 6.71715 9.25289C6.24559 9.44815 5.74017 9.54857 5.22978 9.54843ZM6.95361 6.66149H7.78805C7.58731 7.1767 7.23569 7.61929 6.77922 7.93133C6.32276 8.24337 5.78271 8.41031 5.22978 8.41031C4.67685 8.41031 4.1368 8.24337 3.68033 7.93133C3.22387 7.61929 2.87225 7.1767 2.67151 6.66149H3.50594C3.67982 6.96512 3.9308 7.21744 4.23351 7.39292C4.53621 7.56839 4.87989 7.66081 5.22978 7.66081C5.57967 7.66081 5.92335 7.56839 6.22605 7.39292C6.52875 7.21744 6.77974 6.96512 6.95361 6.66149ZM2.73147 4.41301C2.73147 4.26478 2.77542 4.11987 2.85778 3.99662C2.94014 3.87336 3.05719 3.7773 3.19414 3.72057C3.33109 3.66385 3.48179 3.649 3.62718 3.67792C3.77257 3.70684 3.90611 3.77822 4.01093 3.88304C4.11575 3.98786 4.18713 4.12141 4.21605 4.2668C4.24497 4.41218 4.23013 4.56288 4.1734 4.69983C4.11667 4.83678 4.02061 4.95384 3.89736 5.0362C3.7741 5.11855 3.6292 5.16251 3.48096 5.16251C3.28218 5.16251 3.09155 5.08354 2.95099 4.94299C2.81043 4.80243 2.73147 4.61179 2.73147 4.41301ZM6.2291 4.41301C6.2291 4.26478 6.27306 4.11987 6.35541 3.99662C6.43777 3.87336 6.55482 3.7773 6.69178 3.72057C6.82873 3.66385 6.97943 3.649 7.12481 3.67792C7.2702 3.70684 7.40375 3.77822 7.50857 3.88304C7.61339 3.98786 7.68477 4.12141 7.71369 4.2668C7.74261 4.41218 7.72776 4.56288 7.67104 4.69983C7.61431 4.83678 7.51825 4.95384 7.39499 5.0362C7.27174 5.11855 7.12683 5.16251 6.9786 5.16251C6.77982 5.16251 6.58918 5.08354 6.44862 4.94299C6.30807 4.80243 6.2291 4.61179 6.2291 4.41301Z" fill="#7E7E8F"/>
</svg>
