<svg width="16" height="16" viewBox="0 0 16 16" fill="none" xmlns="http://www.w3.org/2000/svg">
<path d="M2.2624 14.9845L2.2464 15L2.2296 14.9845H0.7936C0.583051 14.9843 0.381197 14.9029 0.232392 14.7582C0.0835856 14.6136 -1.06764e-07 14.4175 0 14.213V1.77148C0.00146404 1.56744 0.0855202 1.37216 0.23401 1.22781C0.3825 1.08345 0.583504 1.00163 0.7936 1H15.2064C15.6448 1 16 1.34573 16 1.77148V14.213C15.9985 14.417 15.9145 14.6123 15.766 14.7567C15.6175 14.901 15.4165 14.9828 15.2064 14.9845H2.2624ZM14.4 10.323V2.55383H1.6V13.4306L9.6 5.66149L14.4 10.323ZM14.4 12.5201L9.6 7.8586L3.8624 13.4306H14.4V12.5201ZM4.8 7.21532C4.37565 7.21532 3.96869 7.05161 3.66863 6.76021C3.36857 6.46881 3.2 6.07359 3.2 5.66149C3.2 5.24939 3.36857 4.85416 3.66863 4.56276C3.96869 4.27136 4.37565 4.10766 4.8 4.10766C5.22435 4.10766 5.63131 4.27136 5.93137 4.56276C6.23143 4.85416 6.4 5.24939 6.4 5.66149C6.4 6.07359 6.23143 6.46881 5.93137 6.76021C5.63131 7.05161 5.22435 7.21532 4.8 7.21532Z" fill="#8B8B93"/>
</svg>
