<svg width="11" height="7" viewBox="0 0 11 7" fill="none" xmlns="http://www.w3.org/2000/svg">
<path d="M7.14751 1.44145V5.88289H1.59571V1.44145H7.14751ZM8.25787 2.8294V0.886265C8.25787 0.739022 8.19938 0.59781 8.09527 0.493694C7.99115 0.389577 7.84994 0.331085 7.70269 0.331085H1.04053C0.893289 0.331085 0.752077 0.389577 0.64796 0.493694C0.543844 0.59781 0.485352 0.739022 0.485352 0.886265V6.43807C0.485352 6.58531 0.543844 6.72652 0.64796 6.83064C0.752077 6.93476 0.893289 6.99325 1.04053 6.99325H7.70269C7.84994 6.99325 7.99115 6.93476 8.09527 6.83064C8.19938 6.72652 8.25787 6.58531 8.25787 6.43807V4.49494L9.52924 5.7663C9.60689 5.8446 9.7061 5.89799 9.81422 5.91968C9.92234 5.94138 10.0345 5.93038 10.1363 5.88809C10.2382 5.8458 10.3251 5.77415 10.3861 5.68225C10.447 5.59036 10.4792 5.48239 10.4786 5.37212V1.94666C10.4792 1.83639 10.447 1.72842 10.3861 1.63653C10.3251 1.54464 10.2382 1.47298 10.1363 1.43069C10.0345 1.3884 9.92234 1.37741 9.81422 1.3991C9.7061 1.42079 9.60689 1.47418 9.52924 1.55248L8.25787 2.8294Z" fill="#7E7E8F"/>
</svg>
