<svg width="43" height="50" viewBox="0 0 43 50" fill="none" xmlns="http://www.w3.org/2000/svg">
<mask id="mask0_1628_44651" style="mask-type:alpha" maskUnits="userSpaceOnUse" x="0" y="0" width="43" height="50">
<path d="M39.2445 49.1072H3.62095C1.72255 49.1072 0.183594 47.5683 0.183594 45.6699V4.42155C0.183594 2.52315 1.72255 0.984192 3.62095 0.984192H26.745L42.6819 16.921V45.6699C42.6819 47.5683 41.1429 49.1072 39.2445 49.1072Z" fill="url(#paint0_linear_1628_44651)"/>
</mask>
<g mask="url(#mask0_1628_44651)">
<path d="M39.2447 49.1072H3.6212C1.7228 49.1072 0.183838 47.5682 0.183838 45.6698V4.42152C0.183838 2.52312 1.7228 0.984161 3.6212 0.984161H26.7453L42.6821 16.921V45.6698C42.6821 47.5682 41.1431 49.1072 39.2447 49.1072Z" fill="url(#paint1_linear_1628_44651)"/>
<g filter="url(#filter0_f_1628_44651)">
<rect x="7.68298" y="24.2645" width="27.8114" height="13.1245" fill="#CC1583" fill-opacity="0.15" style="mix-blend-mode:darken"/>
</g>
<path d="M12.0647 34.7629C11.0196 34.7629 10.0404 34.5654 9.12697 34.1705C9.02823 34.1293 8.94594 34.0635 8.88011 33.973C8.81428 33.8742 8.78136 33.7714 8.78136 33.6644C8.78136 33.5245 8.82662 33.4052 8.91714 33.3064C9.01588 33.1995 9.13932 33.146 9.28743 33.146C9.36972 33.146 9.4479 33.1624 9.52196 33.1953C10.279 33.5327 11.0895 33.7014 11.9536 33.7014C13.3936 33.7014 14.1136 33.2283 14.1136 32.2819C14.1136 32.0351 14.019 31.8294 13.8297 31.6648C13.6487 31.5002 13.4224 31.3727 13.1509 31.2821C12.8793 31.1834 12.4926 31.0682 11.9906 30.9365C11.3241 30.7637 10.7851 30.5991 10.3736 30.4428C9.9622 30.2782 9.60836 30.0355 9.31212 29.7145C9.01588 29.3936 8.86776 28.9657 8.86776 28.4308C8.86776 27.9618 8.9912 27.538 9.23806 27.1595C9.48493 26.7727 9.84699 26.4683 10.3243 26.2461C10.8098 26.0157 11.3899 25.9005 12.0647 25.9005C12.9698 25.9005 13.7886 26.0363 14.521 26.3078C14.7514 26.3901 14.8666 26.5547 14.8666 26.8015C14.8666 26.9332 14.8213 27.0525 14.7308 27.1595C14.6403 27.2665 14.521 27.32 14.3729 27.32C14.3235 27.32 14.2576 27.3035 14.1754 27.2706C13.5335 27.0484 12.8711 26.9373 12.1881 26.9373C11.538 26.9373 11.0073 27.0607 10.5958 27.3076C10.1926 27.5545 9.991 27.9001 9.991 28.3444C9.991 28.6407 10.0856 28.8834 10.2749 29.0727C10.4724 29.2537 10.7151 29.3977 11.0031 29.5047C11.2994 29.6035 11.6985 29.7104 12.2004 29.8256C12.8505 29.982 13.373 30.1383 13.768 30.2947C14.1712 30.451 14.5127 30.6938 14.7925 31.0229C15.0805 31.3521 15.2245 31.7964 15.2245 32.356C15.2245 32.8168 15.0929 33.2324 14.8296 33.6027C14.5662 33.9647 14.1959 34.2486 13.7187 34.4543C13.2414 34.6601 12.6901 34.7629 12.0647 34.7629ZM20.6969 34.7012C20.3595 34.7012 20.1045 34.5119 19.9317 34.1334L16.8829 26.7398C16.8582 26.674 16.8458 26.604 16.8458 26.53C16.8458 26.3572 16.8952 26.2214 16.994 26.1227C17.0927 26.0157 17.2285 25.9622 17.4013 25.9622C17.5165 25.9622 17.6193 25.9992 17.7099 26.0733C17.8086 26.1391 17.8827 26.2296 17.932 26.3448L20.8327 33.578L23.7334 26.3448C23.7827 26.2296 23.8527 26.1391 23.9432 26.0733C24.042 25.9992 24.1489 25.9622 24.2641 25.9622C24.4369 25.9622 24.5727 26.0157 24.6715 26.1227C24.7702 26.2214 24.8196 26.3572 24.8196 26.53C24.8196 26.604 24.8072 26.674 24.7825 26.7398L21.7338 34.1334C21.561 34.5119 21.3059 34.7012 20.9685 34.7012H20.6969ZM30.8386 34.7629C29.9911 34.7629 29.2381 34.5778 28.5798 34.2075C27.9215 33.829 27.4113 33.3064 27.0493 32.6399C26.6872 31.9651 26.5062 31.1998 26.5062 30.344C26.5062 29.4718 26.6954 28.6983 27.074 28.0235C27.4525 27.3488 27.9668 26.8262 28.6169 26.4559C29.2752 26.0856 30.0034 25.9005 30.8016 25.9005C31.4435 25.9005 32.003 25.9787 32.4803 26.135C32.9658 26.2913 33.4307 26.5094 33.8751 26.7892C33.9409 26.8221 33.9985 26.8797 34.0479 26.962C34.0973 27.0443 34.1219 27.1348 34.1219 27.2335C34.1219 27.3734 34.0726 27.4928 33.9738 27.5915C33.8833 27.6902 33.7599 27.7396 33.6035 27.7396C33.513 27.7396 33.4266 27.719 33.3443 27.6779C32.9576 27.4475 32.5708 27.2747 32.1841 27.1595C31.7973 27.0443 31.3776 26.9867 30.925 26.9867C30.2997 26.9867 29.736 27.1183 29.234 27.3817C28.7321 27.645 28.3371 28.0317 28.0491 28.5419C27.7693 29.0439 27.6294 29.6446 27.6294 30.344C27.6294 30.9859 27.7611 31.5619 28.0244 32.0721C28.2959 32.5741 28.6827 32.9732 29.1846 33.2694C29.6948 33.5574 30.2955 33.7014 30.9868 33.7014C31.7603 33.7014 32.4803 33.5204 33.1468 33.1583V30.9242H31.1102C30.9703 30.9242 30.851 30.8748 30.7522 30.7761C30.6535 30.6773 30.6041 30.558 30.6041 30.4181C30.6041 30.2782 30.6535 30.1589 30.7522 30.0602C30.851 29.9614 30.9703 29.912 31.1102 29.912H33.5418C33.7064 29.912 33.8463 29.9696 33.9615 30.0848C34.0767 30.2 34.1343 30.3399 34.1343 30.5045V33.3064C34.1343 33.4792 34.089 33.6356 33.9985 33.7755C33.9162 33.9071 33.8051 34.0059 33.6652 34.0717C32.7436 34.5325 31.8014 34.7629 30.8386 34.7629Z" fill="white"/>
<path d="M9.12697 34.1705L9.25101 33.8836L9.24716 33.882L9.12697 34.1705ZM8.88011 33.973L8.61989 34.1464L8.62739 34.1568L8.88011 33.973ZM8.91714 33.3064L8.68752 33.0945L8.68679 33.0953L8.91714 33.3064ZM9.52196 33.1953L9.64916 32.9099L9.64887 32.9098L9.52196 33.1953ZM13.8297 31.6648L13.6195 31.8961L13.6247 31.9006L13.8297 31.6648ZM13.1509 31.2821L13.044 31.5759L13.0521 31.5786L13.1509 31.2821ZM11.9906 30.9365L12.0699 30.6343L12.069 30.634L11.9906 30.9365ZM10.3736 30.4428L10.2576 30.733L10.2626 30.7349L10.3736 30.4428ZM9.31212 29.7145L9.0825 29.9265H9.0825L9.31212 29.7145ZM9.23806 27.1595L9.49982 27.3302L9.50146 27.3276L9.23806 27.1595ZM10.3243 26.2461L10.4561 26.5294L10.4582 26.5284L10.3243 26.2461ZM14.521 26.3078L14.4123 26.6008L14.4159 26.6021L14.521 26.3078ZM14.7308 27.1595L14.9694 27.3613L14.9694 27.3613L14.7308 27.1595ZM14.1754 27.2706L14.2914 26.9804L14.2846 26.9777L14.2776 26.9753L14.1754 27.2706ZM10.5958 27.3076L10.435 27.0396L10.4327 27.0411L10.5958 27.3076ZM10.2749 29.0727L10.0537 29.2939L10.0637 29.303L10.2749 29.0727ZM11.0031 29.5047L10.8943 29.7978L10.9043 29.8012L11.0031 29.5047ZM12.2004 29.8256L12.2735 29.5218L12.2703 29.5211L12.2004 29.8256ZM13.768 30.2947L13.653 30.5852L13.6551 30.586L13.768 30.2947ZM14.7925 31.0229L14.5544 31.2253L14.5574 31.2287L14.7925 31.0229ZM14.8296 33.6027L15.0823 33.7865L15.0842 33.7838L14.8296 33.6027ZM13.7187 34.4543L13.8424 34.7413L13.7187 34.4543ZM12.0647 34.4504C11.0601 34.4504 10.1233 34.2608 9.251 33.8836L9.00294 34.4573C9.95745 34.87 10.9791 35.0754 12.0647 35.0754V34.4504ZM9.24716 33.882C9.20386 33.864 9.16655 33.8355 9.13283 33.7892L8.62739 34.1568C8.72532 34.2914 8.85259 34.3947 9.00678 34.4589L9.24716 33.882ZM9.14011 33.7996C9.10461 33.7464 9.09385 33.703 9.09385 33.6644H8.46887C8.46887 33.8397 8.52394 34.0021 8.6201 34.1463L9.14011 33.7996ZM9.09385 33.6644C9.09385 33.5989 9.11232 33.5559 9.14749 33.5176L8.68679 33.0953C8.54092 33.2544 8.46887 33.4501 8.46887 33.6644H9.09385ZM9.14675 33.5184C9.18518 33.4767 9.2248 33.4585 9.28743 33.4585V32.8335C9.05383 32.8335 8.84658 32.9222 8.68752 33.0945L9.14675 33.5184ZM9.28743 33.4585C9.32669 33.4585 9.36156 33.466 9.39504 33.4809L9.64887 32.9098C9.53423 32.8588 9.41275 32.8335 9.28743 32.8335V33.4585ZM9.39475 33.4808C10.1935 33.8367 11.0476 34.0139 11.9536 34.0139V33.3889C11.1315 33.3889 10.3645 33.2287 9.64916 32.9099L9.39475 33.4808ZM11.9536 34.0139C12.6979 34.0139 13.3104 33.8934 13.7452 33.6077C14.2029 33.3069 14.4261 32.8481 14.4261 32.2819H13.8012C13.8012 32.6621 13.6643 32.913 13.402 33.0854C13.1168 33.2728 12.6493 33.3889 11.9536 33.3889V34.0139ZM14.4261 32.2819C14.4261 31.943 14.2911 31.6518 14.0348 31.429L13.6247 31.9006C13.747 32.0069 13.8012 32.1272 13.8012 32.2819H14.4261ZM14.0399 31.4336C13.8217 31.2352 13.5556 31.0876 13.2497 30.9857L13.0521 31.5786C13.2893 31.6577 13.4757 31.7652 13.6195 31.896L14.0399 31.4336ZM13.2577 30.9885C12.9727 30.8848 12.5751 30.7668 12.0699 30.6343L11.9113 31.2388C12.41 31.3696 12.786 31.482 13.0441 31.5758L13.2577 30.9885ZM12.069 30.634C11.4081 30.4627 10.8812 30.3014 10.4846 30.1507L10.2626 30.7349C10.6889 30.8969 11.24 31.0647 11.9122 31.239L12.069 30.634ZM10.4897 30.1527C10.1208 30.0051 9.80594 29.7888 9.54174 29.5026L9.0825 29.9265C9.41078 30.2821 9.80359 30.5513 10.2576 30.7329L10.4897 30.1527ZM9.54174 29.5026C9.31015 29.2517 9.18025 28.9057 9.18025 28.4308H8.55528C8.55528 29.0257 8.72161 29.5355 9.0825 29.9265L9.54174 29.5026ZM9.18025 28.4308C9.18025 28.02 9.28735 27.6559 9.4998 27.3302L8.97632 26.9888C8.69504 27.4201 8.55528 27.9036 8.55528 28.4308H9.18025ZM9.50146 27.3276C9.71183 26.998 10.0246 26.7303 10.4561 26.5294L10.1924 25.9628C9.66935 26.2063 9.25802 26.5474 8.97466 26.9914L9.50146 27.3276ZM10.4582 26.5284C10.8926 26.3223 11.4247 26.213 12.0647 26.213V25.588C11.3551 25.588 10.7269 25.7091 10.1903 25.9638L10.4582 26.5284ZM12.0647 26.213C12.9385 26.213 13.7198 26.344 14.4123 26.6008L14.6296 26.0148C13.8574 25.7285 13.0011 25.588 12.0647 25.588V26.213ZM14.4159 26.6021C14.4836 26.6263 14.5112 26.6536 14.5242 26.6722C14.5373 26.6909 14.5541 26.7274 14.5541 26.8015H15.1791C15.1791 26.6288 15.1382 26.4595 15.0362 26.3138C14.934 26.1677 14.7888 26.0716 14.6261 26.0135L14.4159 26.6021ZM14.5541 26.8015C14.5541 26.8543 14.5384 26.9032 14.4923 26.9576L14.9694 27.3613C15.1043 27.2019 15.1791 27.0121 15.1791 26.8015H14.5541ZM14.4923 26.9576C14.4649 26.99 14.435 27.0075 14.3729 27.0075V27.6324C14.6069 27.6324 14.8157 27.5429 14.9694 27.3613L14.4923 26.9576ZM14.3729 27.0075C14.3812 27.0075 14.3789 27.0086 14.3622 27.0045C14.3464 27.0005 14.3232 26.9931 14.2914 26.9804L14.0593 27.5607C14.1539 27.5986 14.2638 27.6324 14.3729 27.6324V27.0075ZM14.2776 26.9753C13.6027 26.7417 12.9057 26.6248 12.1881 26.6248V27.2498C12.8365 27.2498 13.4644 27.3551 14.0731 27.5659L14.2776 26.9753ZM12.1881 26.6248C11.5008 26.6248 10.9093 26.7551 10.435 27.0397L10.7566 27.5756C11.1052 27.3664 11.5753 27.2498 12.1881 27.2498V26.6248ZM10.4327 27.0411C9.94386 27.3404 9.67851 27.7832 9.67851 28.3444H10.3035C10.3035 28.017 10.4414 27.7686 10.759 27.5741L10.4327 27.0411ZM9.67851 28.3444C9.67851 28.7139 9.79954 29.0393 10.0539 29.2937L10.4959 28.8517C10.3717 28.7276 10.3035 28.5675 10.3035 28.3444H9.67851ZM10.0637 29.303C10.295 29.5151 10.574 29.6787 10.8943 29.7976L11.1119 29.2118C10.8563 29.1168 10.6497 28.9924 10.486 28.8423L10.0637 29.303ZM10.9043 29.8012C11.2142 29.9044 11.6242 30.014 12.1305 30.1302L12.2703 29.5211C11.7728 29.4069 11.3846 29.3025 11.102 29.2083L10.9043 29.8012ZM12.1274 30.1295C12.7703 30.2841 13.2771 30.4364 13.653 30.5852L13.883 30.0041C13.469 29.8402 12.9308 29.6799 12.2735 29.5218L12.1274 30.1295ZM13.6551 30.586C14.0099 30.7236 14.3083 30.9358 14.5544 31.2253L15.0306 30.8205C14.7171 30.4517 14.3326 30.1784 13.881 30.0033L13.6551 30.586ZM14.5574 31.2287C14.7829 31.4864 14.912 31.8504 14.912 32.356H15.537C15.537 31.7425 15.3782 31.2177 15.0277 30.8172L14.5574 31.2287ZM14.912 32.356C14.912 32.7529 14.8 33.105 14.5749 33.4216L15.0842 33.7838C15.3857 33.3598 15.537 32.8807 15.537 32.356H14.912ZM14.5768 33.4189C14.3515 33.7287 14.0291 33.9802 13.595 34.1674L13.8424 34.7413C14.3627 34.517 14.781 34.2007 15.0823 33.7865L14.5768 33.4189ZM13.595 34.1674C13.1639 34.3532 12.656 34.4504 12.0647 34.4504V35.0754C12.7241 35.0754 13.3189 34.9669 13.8424 34.7413L13.595 34.1674ZM19.9317 34.1334L19.6426 34.2526L19.6474 34.2632L19.9317 34.1334ZM16.8829 26.7398L16.5901 26.8496L16.594 26.8589L16.8829 26.7398ZM16.994 26.1227L17.2151 26.3438L17.2236 26.3346L16.994 26.1227ZM17.7099 26.0733L17.512 26.3151L17.5238 26.3248L17.5365 26.3333L17.7099 26.0733ZM17.932 26.3448L18.2222 26.2285L18.2193 26.2217L17.932 26.3448ZM20.8327 33.578L20.5427 33.6943L20.8327 34.4175L21.1227 33.6943L20.8327 33.578ZM23.7334 26.3448L23.4461 26.2217L23.4433 26.2285L23.7334 26.3448ZM23.9432 26.0733L24.127 26.326L24.1307 26.3233L23.9432 26.0733ZM24.6715 26.1227L24.4417 26.3348L24.4505 26.3436L24.6715 26.1227ZM24.7825 26.7398L25.0716 26.859L25.0751 26.8495L24.7825 26.7398ZM21.7338 34.1334L22.0182 34.2633L22.0227 34.2525L21.7338 34.1334ZM20.6969 34.3887C20.5909 34.3887 20.509 34.3604 20.4388 34.3083C20.3648 34.2534 20.287 34.1593 20.2159 34.0036L19.6474 34.2632C19.7491 34.4861 19.8853 34.6759 20.0664 34.8102C20.2512 34.9474 20.4656 35.0137 20.6969 35.0137V34.3887ZM20.2205 34.0143L17.1718 26.6207L16.594 26.8589L19.6428 34.2525L20.2205 34.0143ZM17.1755 26.6301C17.1646 26.6012 17.1583 26.5686 17.1583 26.53H16.5334C16.5334 26.6395 16.5517 26.7468 16.5903 26.8495L17.1755 26.6301ZM17.1583 26.53C17.1583 26.4192 17.188 26.3705 17.2149 26.3436L16.773 25.9017C16.6024 26.0723 16.5334 26.2952 16.5334 26.53H17.1583ZM17.2236 26.3346C17.2521 26.3037 17.298 26.2747 17.4013 26.2747V25.6497C17.159 25.6497 16.9333 25.7277 16.7643 25.9107L17.2236 26.3346ZM17.4013 26.2747C17.4432 26.2747 17.4764 26.286 17.512 26.3151L17.9077 25.8314C17.7623 25.7125 17.5898 25.6497 17.4013 25.6497V26.2747ZM17.5365 26.3333C17.5819 26.3636 17.6179 26.4052 17.6448 26.4679L18.2193 26.2217C18.1474 26.0541 18.0353 25.9147 17.8832 25.8133L17.5365 26.3333ZM17.642 26.4611L20.5427 33.6943L21.1227 33.4617L18.2221 26.2285L17.642 26.4611ZM21.1227 33.6943L24.0234 26.4611L23.4433 26.2285L20.5427 33.4617L21.1227 33.6943ZM24.0206 26.4679C24.0505 26.3981 24.0873 26.3549 24.127 26.326L23.7594 25.8206C23.6181 25.9233 23.515 26.0612 23.4461 26.2217L24.0206 26.4679ZM24.1307 26.3233C24.1795 26.2867 24.2215 26.2747 24.2641 26.2747V25.6497C24.0764 25.6497 23.9044 25.7117 23.7557 25.8233L24.1307 26.3233ZM24.2641 26.2747C24.3675 26.2747 24.4133 26.3037 24.4418 26.3346L24.9011 25.9107C24.7321 25.7277 24.5064 25.6497 24.2641 25.6497V26.2747ZM24.4505 26.3436C24.4774 26.3705 24.5071 26.4192 24.5071 26.53H25.1321C25.1321 26.2952 25.063 26.0723 24.8924 25.9017L24.4505 26.3436ZM24.5071 26.53C24.5071 26.5686 24.5008 26.6012 24.49 26.6301L25.0751 26.8495C25.1137 26.7468 25.1321 26.6395 25.1321 26.53H24.5071ZM24.4937 26.6207L21.4449 34.0143L22.0227 34.2525L25.0714 26.8589L24.4937 26.6207ZM21.4495 34.0036C21.3784 34.1593 21.3007 34.2534 21.2266 34.3083C21.1564 34.3604 21.0746 34.3887 20.9685 34.3887V35.0137C21.1998 35.0137 21.4142 34.9474 21.599 34.8102C21.7801 34.6759 21.9163 34.4861 22.018 34.2632L21.4495 34.0036ZM20.9685 34.3887H20.6969V35.0137H20.9685V34.3887ZM28.5798 34.2075L28.4241 34.4784L28.4266 34.4798L28.5798 34.2075ZM27.0493 32.6399L26.7739 32.7876L26.7747 32.7891L27.0493 32.6399ZM27.074 28.0235L27.3465 28.1764L27.074 28.0235ZM28.6169 26.4559L28.4637 26.1836L28.4622 26.1844L28.6169 26.4559ZM32.4803 26.135L32.383 26.432L32.3845 26.4324L32.4803 26.135ZM33.8751 26.7892L33.7086 27.0536L33.7216 27.0618L33.7353 27.0687L33.8751 26.7892ZM34.0479 26.962L33.7799 27.1228L33.7799 27.1228L34.0479 26.962ZM33.9738 27.5915L33.7527 27.3703L33.7435 27.3803L33.9738 27.5915ZM33.3443 27.6779L33.1844 27.9464L33.1943 27.9523L33.2046 27.9574L33.3443 27.6779ZM32.1841 27.1595L32.2733 26.86L32.1841 27.1595ZM29.234 27.3817L29.3792 27.6584V27.6584L29.234 27.3817ZM28.0491 28.5419L27.7769 28.3883L27.7761 28.3898L28.0491 28.5419ZM28.0244 32.0721L27.7466 32.2154L27.7495 32.2208L28.0244 32.0721ZM29.1846 33.2694L29.0258 33.5386L29.031 33.5415L29.1846 33.2694ZM33.1468 33.1583L33.296 33.4329L33.4593 33.3442V33.1583H33.1468ZM33.1468 30.9242H33.4593V30.6117H33.1468V30.9242ZM33.9985 33.7755L33.7361 33.6057L33.7335 33.6098L33.9985 33.7755ZM33.6652 34.0717L33.5322 33.7889L33.5255 33.7922L33.6652 34.0717ZM30.8386 34.4504C30.0381 34.4504 29.3391 34.276 28.733 33.9351L28.4266 34.4798C29.1372 34.8795 29.9441 35.0754 30.8386 35.0754V34.4504ZM28.7356 33.9366C28.1273 33.5868 27.6583 33.1064 27.3239 32.4907L26.7747 32.7891C27.1644 33.5064 27.7157 34.0711 28.4241 34.4784L28.7356 33.9366ZM27.3246 32.4921C26.9897 31.8679 26.8187 31.1544 26.8187 30.344H26.1937C26.1937 31.2452 26.3847 32.0623 26.7739 32.7876L27.3246 32.4921ZM26.8187 30.344C26.8187 29.5184 26.9974 28.7988 27.3465 28.1764L26.8014 27.8706C26.3935 28.5978 26.1937 29.4252 26.1937 30.344H26.8187ZM27.3465 28.1764C27.6982 27.5494 28.1725 27.0687 28.7715 26.7275L28.4622 26.1844C27.761 26.5838 27.2067 27.1481 26.8014 27.8706L27.3465 28.1764ZM28.7701 26.7283C29.3789 26.3858 30.0539 26.213 30.8016 26.213V25.588C29.9529 25.588 29.1714 25.7855 28.4637 26.1836L28.7701 26.7283ZM30.8016 26.213C31.4191 26.213 31.9445 26.2883 32.383 26.432L32.5776 25.838C32.0616 25.669 31.4678 25.588 30.8016 25.588V26.213ZM32.3845 26.4324C32.8444 26.5806 33.2857 26.7874 33.7086 27.0536L34.0416 26.5248C33.5758 26.2315 33.0872 26.0021 32.5761 25.8376L32.3845 26.4324ZM33.7353 27.0687C33.7354 27.0687 33.7363 27.0692 33.7381 27.0705C33.7399 27.0718 33.7428 27.0742 33.7467 27.078C33.7546 27.0859 33.7661 27.0998 33.7799 27.1228L34.3158 26.8012C34.245 26.6832 34.1477 26.5761 34.0148 26.5097L33.7353 27.0687ZM33.7799 27.1228C33.7993 27.155 33.8095 27.1897 33.8095 27.2335H34.4344C34.4344 27.0799 34.3952 26.9335 34.3158 26.8012L33.7799 27.1228ZM33.8095 27.2335C33.8095 27.2907 33.7929 27.3305 33.7529 27.3705L34.1948 27.8125C34.3523 27.655 34.4344 27.4562 34.4344 27.2335H33.8095ZM33.7435 27.3803C33.7222 27.4036 33.6883 27.4271 33.6035 27.4271V28.0521C33.8314 28.0521 34.0444 27.9769 34.2042 27.8027L33.7435 27.3803ZM33.6035 27.4271C33.5623 27.4271 33.5237 27.4182 33.4841 27.3984L33.2046 27.9574C33.3295 28.0199 33.4637 28.0521 33.6035 28.0521V27.4271ZM33.5043 27.4094C33.0978 27.1673 32.6875 26.9834 32.2733 26.86L32.0948 27.459C32.4542 27.566 32.8173 27.7277 33.1844 27.9464L33.5043 27.4094ZM32.2733 26.86C31.8543 26.7352 31.4042 26.6742 30.925 26.6742V27.2992C31.351 27.2992 31.7403 27.3534 32.0948 27.459L32.2733 26.86ZM30.925 26.6742C30.2544 26.6742 29.6401 26.8158 29.0889 27.1049L29.3792 27.6584C29.8319 27.4209 30.3449 27.2992 30.925 27.2992V26.6742ZM29.0889 27.1049C28.5317 27.3972 28.0935 27.8276 27.7769 28.3883L28.3212 28.6955C28.5807 28.2359 28.9324 27.8928 29.3792 27.6584L29.0889 27.1049ZM27.7761 28.3898C27.4653 28.9474 27.3169 29.6028 27.3169 30.344H27.9419C27.9419 29.6864 28.0732 29.1404 28.322 28.6941L27.7761 28.3898ZM27.3169 30.344C27.3169 31.0298 27.4579 31.6559 27.7467 32.2154L28.3021 31.9288C28.0642 31.4679 27.9419 30.942 27.9419 30.344H27.3169ZM27.7495 32.2208C28.0487 32.7738 28.4761 33.2141 29.0258 33.5385L29.3435 33.0003C28.8893 32.7323 28.5432 32.3743 28.2992 31.9234L27.7495 32.2208ZM29.031 33.5415C29.5959 33.8604 30.2514 34.0139 30.9868 34.0139V33.3889C30.3396 33.3889 29.7938 33.2544 29.3383 32.9973L29.031 33.5415ZM30.9868 34.0139C31.8113 34.0139 32.5827 33.8203 33.296 33.4329L32.9977 32.8837C32.3779 33.2204 31.7092 33.3889 30.9868 33.3889V34.0139ZM33.4593 33.1583V30.9242H32.8343V33.1583H33.4593ZM33.1468 30.6117H31.1102V31.2367H33.1468V30.6117ZM31.1102 30.6117C31.053 30.6117 31.0132 30.5951 30.9732 30.5551L30.5313 30.997C30.6887 31.1545 30.8876 31.2367 31.1102 31.2367V30.6117ZM30.9732 30.5551C30.9332 30.5151 30.9166 30.4753 30.9166 30.4181H30.2916C30.2916 30.6407 30.3738 30.8396 30.5313 30.997L30.9732 30.5551ZM30.9166 30.4181C30.9166 30.3609 30.9332 30.3211 30.9732 30.2811L30.5313 29.8392C30.3738 29.9967 30.2916 30.1955 30.2916 30.4181H30.9166ZM30.9732 30.2811C31.0132 30.2411 31.053 30.2245 31.1102 30.2245V29.5995C30.8876 29.5995 30.6887 29.6817 30.5313 29.8392L30.9732 30.2811ZM31.1102 30.2245H33.5418V29.5995H31.1102V30.2245ZM33.5418 30.2245C33.6245 30.2245 33.6846 30.2499 33.7405 30.3058L34.1824 29.8639C34.008 29.6894 33.7883 29.5995 33.5418 29.5995V30.2245ZM33.7405 30.3058C33.7965 30.3617 33.8218 30.4219 33.8218 30.5045H34.4468C34.4468 30.258 34.3569 30.0383 34.1824 29.8639L33.7405 30.3058ZM33.8218 30.5045V33.3064H34.4468V30.5045H33.8218ZM33.8218 33.3064C33.8218 33.4214 33.7927 33.5183 33.7362 33.6057L34.2609 33.9452C34.3854 33.7528 34.4468 33.5371 34.4468 33.3064H33.8218ZM33.7335 33.6098C33.6829 33.6908 33.6175 33.7488 33.5322 33.789L33.7983 34.3545C33.9928 34.2629 34.1495 34.1234 34.2635 33.9411L33.7335 33.6098ZM33.5255 33.7922C32.6441 34.2329 31.7495 34.4504 30.8386 34.4504V35.0754C31.8533 35.0754 32.8431 34.8322 33.805 34.3512L33.5255 33.7922Z" fill="white"/>
<g filter="url(#filter1_d_1628_44651)">
<path d="M42.6827 16.921H30.1832C28.2848 16.921 26.7458 15.382 26.7458 13.4836V0.984161L42.6827 16.921Z" fill="url(#paint2_linear_1628_44651)"/>
</g>
</g>
<defs>
<filter id="filter0_f_1628_44651" x="1.58948" y="18.171" width="39.9984" height="25.3115" filterUnits="userSpaceOnUse" color-interpolation-filters="sRGB">
<feFlood flood-opacity="0" result="BackgroundImageFix"/>
<feBlend mode="normal" in="SourceGraphic" in2="BackgroundImageFix" result="shape"/>
<feGaussianBlur stdDeviation="3.04675" result="effect1_foregroundBlur_1628_44651"/>
</filter>
<filter id="filter1_d_1628_44651" x="23.1522" y="-2.76569" width="23.7491" height="23.749" filterUnits="userSpaceOnUse" color-interpolation-filters="sRGB">
<feFlood flood-opacity="0" result="BackgroundImageFix"/>
<feColorMatrix in="SourceAlpha" type="matrix" values="0 0 0 0 0 0 0 0 0 0 0 0 0 0 0 0 0 0 127 0" result="hardAlpha"/>
<feOffset dx="0.312487" dy="0.156244"/>
<feGaussianBlur stdDeviation="1.95305"/>
<feColorMatrix type="matrix" values="0 0 0 0 0 0 0 0 0 0 0 0 0 0 0 0 0 0 0.33 0"/>
<feBlend mode="normal" in2="BackgroundImageFix" result="effect1_dropShadow_1628_44651"/>
<feBlend mode="normal" in="SourceGraphic" in2="effect1_dropShadow_1628_44651" result="shape"/>
</filter>
<linearGradient id="paint0_linear_1628_44651" x1="21.4327" y1="0.984192" x2="21.4327" y2="49.1072" gradientUnits="userSpaceOnUse">
<stop stop-color="#FF7979"/>
<stop offset="1" stop-color="#E85555"/>
</linearGradient>
<linearGradient id="paint1_linear_1628_44651" x1="21.433" y1="0.984161" x2="21.433" y2="49.1072" gradientUnits="userSpaceOnUse">
<stop stop-color="#FF6AC3"/>
<stop offset="1" stop-color="#DD3C9C"/>
</linearGradient>
<linearGradient id="paint2_linear_1628_44651" x1="34.7143" y1="0.984161" x2="34.7143" y2="16.921" gradientUnits="userSpaceOnUse">
<stop stop-color="#F430A6"/>
<stop offset="1" stop-color="#BF0B77"/>
</linearGradient>
</defs>
</svg>
