<svg width="11" height="9" viewBox="0 0 11 9" fill="none" xmlns="http://www.w3.org/2000/svg">
<path d="M0.949219 4.77476H10.9425V5.60753H8.51867C8.65017 5.88358 8.71654 6.18613 8.71266 6.49188C8.72044 6.78195 8.65818 7.06963 8.53117 7.33054C8.40415 7.59145 8.21612 7.81789 7.983 7.9907C7.42146 8.38581 6.74406 8.58208 6.05827 8.54835C5.55719 8.55173 5.06099 8.44978 4.60184 8.24911C4.18252 8.07516 3.81904 7.78936 3.55108 7.42291C3.30436 7.07305 3.17417 6.65433 3.17902 6.22624V6.1633H3.33849V6.16269H3.52808V6.1633H4.2914V6.22622C4.28271 6.42131 4.32128 6.6156 4.40385 6.79256C4.48641 6.96953 4.61052 7.12392 4.7656 7.24259C5.14168 7.51035 5.59719 7.64324 6.05826 7.6197C6.46528 7.64631 6.86992 7.53988 7.21118 7.31646C7.33769 7.22291 7.43933 7.09977 7.50721 6.95783C7.57509 6.81588 7.60713 6.65946 7.60053 6.50226C7.60938 6.35038 7.58133 6.19863 7.51877 6.05995C7.45622 5.92127 7.36103 5.7998 7.24133 5.70591C7.19228 5.67036 7.14132 5.63751 7.0887 5.60751H0.949219V4.77476ZM8.35795 1.9194C8.12392 1.55576 7.79297 1.26472 7.40241 1.07907C6.96702 0.871659 6.48952 0.767869 6.00731 0.77583C5.33492 0.746973 4.67383 0.955731 4.13995 1.3655C3.91075 1.54252 3.72586 1.77043 3.59991 2.0312C3.47397 2.29198 3.4104 2.57848 3.41425 2.86805C3.41231 3.14248 3.4734 3.41368 3.5928 3.66077H5.03442C4.98813 3.63099 4.93151 3.60205 4.89413 3.57159C4.78118 3.48826 4.68948 3.37945 4.6265 3.25401C4.56352 3.12856 4.53104 2.99002 4.5317 2.84966C4.52332 2.68942 4.55368 2.52954 4.62021 2.38353C4.68674 2.23752 4.78748 2.1097 4.91389 2.01089C5.23373 1.78908 5.61877 1.68107 6.00731 1.70419C6.42976 1.67733 6.84694 1.8098 7.17652 2.07544C7.31435 2.20524 7.42229 2.36347 7.49285 2.53915C7.56341 2.71484 7.5949 2.90378 7.58513 3.09285V3.15582H8.69725V3.09285C8.69912 2.67724 8.58133 2.26988 8.35795 1.9194Z" fill="#7E7E8F"/>
</svg>
