<svg width="32" height="32" viewBox="0 0 32 32" fill="none" xmlns="http://www.w3.org/2000/svg">
<path d="M29.3336 22V26C29.3336 27.84 27.8402 29.3334 26.0002 29.3334H16.4802C15.2936 29.3334 14.7069 27.9067 15.5336 27.0667L23.3602 19.0667C23.6136 18.8134 23.9602 18.6667 24.3069 18.6667H26.0002C27.8402 18.6667 29.3336 20.16 29.3336 22Z" fill="#9A9AAF"/>
<path d="M24.4932 15.0533L20.8798 18.6667L17.5998 21.9333C16.7598 22.7733 15.3198 22.1867 15.3198 21C15.3198 16.72 15.3198 9.68001 15.3198 9.68001C15.3198 9.32001 15.4665 8.98667 15.7065 8.73334L16.9332 7.50667C18.2398 6.20001 20.3465 6.20001 21.6532 7.50667L24.4798 10.3333C25.7998 11.64 25.7998 13.7467 24.4932 15.0533Z" fill="#9A9AAF"/>
<path d="M9.99984 2.66669H5.99984C3.99984 2.66669 2.6665 4.00002 2.6665 6.00002V24C2.6665 24.36 2.7065 24.72 2.77317 25.0667C2.81317 25.24 2.85317 25.4134 2.9065 25.5867C2.97317 25.7867 3.03984 25.9867 3.11984 26.1734C3.13317 26.1867 3.13317 26.2 3.13317 26.2C3.1465 26.2 3.1465 26.2 3.13317 26.2134C3.31984 26.5867 3.53317 26.9467 3.7865 27.28C3.93317 27.4534 4.07984 27.6134 4.2265 27.7734C4.37317 27.9334 4.53317 28.0667 4.7065 28.2L4.71984 28.2134C5.05317 28.4667 5.41317 28.68 5.7865 28.8667C5.79984 28.8534 5.79984 28.8534 5.79984 28.8667C5.99984 28.96 6.19984 29.0267 6.41317 29.0934C6.5865 29.1467 6.75984 29.1867 6.93317 29.2267C7.27984 29.2934 7.63984 29.3334 7.99984 29.3334C8.5465 29.3334 9.1065 29.2534 9.6265 29.08C9.77317 29.0267 9.91984 28.9734 10.0665 28.9067C10.5332 28.72 10.9865 28.4534 11.3865 28.1067C11.5065 28.0134 11.6398 27.8934 11.7598 27.7734L11.8132 27.72C12.7465 26.76 13.3332 25.44 13.3332 24V6.00002C13.3332 4.00002 11.9998 2.66669 9.99984 2.66669ZM7.99984 26C6.89317 26 5.99984 25.1067 5.99984 24C5.99984 22.8934 6.89317 22 7.99984 22C9.1065 22 9.99984 22.8934 9.99984 24C9.99984 25.1067 9.1065 26 7.99984 26Z" fill="#9A9AAF"/>
</svg>
