<svg width="7" height="9" viewBox="0 0 7 9" fill="none" xmlns="http://www.w3.org/2000/svg">
<path d="M5.46644 4.55112C5.73828 4.38559 5.96768 4.15884 6.13636 3.88895C6.30504 3.61906 6.40834 3.3135 6.43801 2.99661C6.44316 2.71008 6.39181 2.42533 6.28689 2.15864C6.18197 1.89196 6.02555 1.64855 5.82654 1.44233C5.62754 1.2361 5.38986 1.07111 5.12707 0.956759C4.86429 0.842411 4.58155 0.780952 4.29501 0.775894H0.691895V8.54842H4.57816C4.85083 8.54552 5.12027 8.48893 5.37108 8.3819C5.62189 8.27486 5.84915 8.11947 6.0399 7.92459C6.23065 7.72972 6.38115 7.49918 6.4828 7.24614C6.58445 6.9931 6.63525 6.72251 6.63232 6.44984V6.38321C6.63251 5.99854 6.52291 5.62179 6.31639 5.29726C6.10986 4.97272 5.815 4.71387 5.46644 4.55112ZM1.80225 1.88625H4.13401C4.37061 1.87893 4.6038 1.94415 4.80227 2.07316C5.00074 2.20216 5.15501 2.38879 5.24437 2.60799C5.3348 2.90101 5.30555 3.2179 5.16303 3.48942C5.02051 3.76094 4.7763 3.965 4.48377 4.05701C4.37018 4.0903 4.25239 4.10713 4.13401 4.10698H1.80225V1.88625ZM4.35608 7.43806H1.80225V5.21734H4.35608C4.59269 5.21001 4.82587 5.27523 5.02434 5.40424C5.22281 5.53325 5.37708 5.71987 5.46644 5.93907C5.55687 6.23209 5.52762 6.54898 5.3851 6.8205C5.24258 7.09202 4.99837 7.29608 4.70585 7.38809C4.59225 7.42138 4.47446 7.43821 4.35608 7.43806Z" fill="#7E7E8F"/>
</svg>
