<svg width="32" height="32" viewBox="0 0 32 32" fill="none" xmlns="http://www.w3.org/2000/svg">
<g clip-path="url(#clip0_1279_13363)">
<path d="M0 16C0 7.16344 7.16344 0 16 0C24.8366 0 32 7.16344 32 16C32 24.8366 24.8366 32 16 32C7.16344 32 0 24.8366 0 16Z" fill="#1769FF"/>
<path d="M18.3721 12.4466H22.8916V11.1517H18.3721V12.4466ZM19.4428 15.2719C19.1548 15.5649 18.9731 15.9619 18.8989 16.4628H22.414C22.3768 15.9282 22.1942 15.5243 21.8711 15.2461C21.544 14.97 21.1416 14.8323 20.6599 14.8323C20.1381 14.8323 19.7307 14.9789 19.4428 15.2719ZM22.4932 13.5335C23.0381 13.7731 23.4867 14.1532 23.8399 14.672C24.162 15.1293 24.3687 15.6599 24.463 16.2628C24.5182 16.6152 24.5403 17.1261 24.5313 17.7903H18.8487C18.8828 18.5615 19.1518 19.103 19.6655 19.4128C19.9766 19.6059 20.3509 19.7029 20.7904 19.7029C21.253 19.7029 21.6313 19.5851 21.9213 19.3505C22.0808 19.2228 22.2213 19.0465 22.3417 18.8208H24.4239C24.3687 19.2762 24.1158 19.7405 23.6683 20.2117C22.9699 20.9591 21.9915 21.3333 20.7342 21.3333C19.6956 21.3333 18.7795 21.0185 17.9877 20.3869C17.192 19.7563 16.7967 18.7288 16.7967 17.3072C16.7967 15.9738 17.1549 14.9511 17.8703 14.2394C18.5878 13.5296 19.516 13.1722 20.6589 13.1722C21.3383 13.1722 21.9494 13.293 22.4932 13.5335ZM9.56878 16.4905V19.2653H12.1296C12.5872 19.2653 12.9444 19.2039 13.1983 19.0822C13.6609 18.8545 13.8917 18.4229 13.8917 17.7834C13.8917 17.2409 13.6689 16.8697 13.2203 16.6667C12.9695 16.5539 12.6173 16.4945 12.1657 16.4905H9.56878ZM9.56878 12.4733V14.769H12.1336C12.5902 14.769 12.9625 14.6829 13.2494 14.5106C13.5344 14.3384 13.6779 14.0335 13.6779 13.5979C13.6779 13.1118 13.4893 12.7921 13.112 12.6357C12.7848 12.5278 12.3694 12.4733 11.8647 12.4733H9.56878ZM15.2965 11.7754C15.6186 12.2179 15.7802 12.7465 15.7802 13.3633C15.7802 13.9978 15.6186 14.5096 15.2925 14.8957C15.1098 15.1115 14.8419 15.3095 14.4877 15.4877C15.0256 15.6817 15.431 15.9876 15.7069 16.4064C15.9798 16.8241 16.1173 17.333 16.1173 17.9309C16.1173 18.5476 15.9608 19.101 15.6467 19.59C15.448 19.9137 15.1992 20.187 14.9001 20.4087C14.564 20.6631 14.1676 20.8364 13.709 20.9314C13.2505 21.0255 12.7547 21.071 12.2189 21.071H7.46655V10.6667H12.5631C13.8495 10.6855 14.7596 11.0547 15.2965 11.7754Z" fill="white"/>
</g>
<defs>
<clipPath id="clip0_1279_13363">
<rect width="32" height="32" fill="white"/>
</clipPath>
</defs>
</svg>
