<svg width="36" height="36" viewBox="0 0 36 36" fill="none" xmlns="http://www.w3.org/2000/svg">
<path d="M8.6198 23.1302L9.32691 23.8373L8.6198 23.1302ZM14.6302 23.1302L13.9231 23.8373H13.9231L14.6302 23.1302ZM14.9948 23.4948L15.7019 22.7877V22.7877L14.9948 23.4948ZM21.0052 23.4948L20.2981 22.7877L21.0052 23.4948ZM25.6198 18.8802L24.9127 18.1731L25.6198 18.8802ZM31.6302 18.8802L32.3373 18.1731L31.6302 18.8802ZM3.125 2H32.875V0H3.125V2ZM34 3.125V32.875H36V3.125H34ZM32.875 34H3.125V36H32.875V34ZM2 32.875V3.125H0V32.875H2ZM3.125 34C2.50368 34 2 33.4963 2 32.875H0C0 34.6009 1.39911 36 3.125 36V34ZM34 32.875C34 33.4963 33.4963 34 32.875 34V36C34.6009 36 36 34.6009 36 32.875H34ZM32.875 2C33.4963 2 34 2.50368 34 3.125H36C36 1.39911 34.6009 0 32.875 0V2ZM3.125 0C1.39911 0 0 1.39911 0 3.125H2C2 2.50368 2.50368 2 3.125 2V0ZM1.70711 31.4571L9.32691 23.8373L7.91269 22.4231L0.292893 30.0429L1.70711 31.4571ZM13.9231 23.8373L14.2877 24.2019L15.7019 22.7877L15.3373 22.4231L13.9231 23.8373ZM21.7123 24.2019L26.3269 19.5873L24.9127 18.1731L20.2981 22.7877L21.7123 24.2019ZM30.9231 19.5873L34.2929 22.9571L35.7071 21.5429L32.3373 18.1731L30.9231 19.5873ZM26.3269 19.5873C27.5961 18.3181 29.6539 18.3181 30.9231 19.5873L32.3373 18.1731C30.2871 16.1228 26.9629 16.1228 24.9127 18.1731L26.3269 19.5873ZM14.2877 24.2019C16.3379 26.2522 19.6621 26.2522 21.7123 24.2019L20.2981 22.7877C19.0289 24.0569 16.9711 24.0569 15.7019 22.7877L14.2877 24.2019ZM9.32691 23.8373C10.5961 22.5681 12.6539 22.5681 13.9231 23.8373L15.3373 22.4231C13.2871 20.3728 9.96295 20.3728 7.91269 22.4231L9.32691 23.8373ZM14.2184 11.2977C14.2184 12.9108 12.9087 14.2205 11.2956 14.2205V16.2205C14.0133 16.2205 16.2184 14.0154 16.2184 11.2977H14.2184ZM11.2956 14.2205C9.68501 14.2205 8.375 12.9112 8.375 11.2977H6.375C6.375 14.0151 8.57974 16.2205 11.2956 16.2205V14.2205ZM8.375 11.2977C8.375 9.68431 9.68501 8.375 11.2956 8.375V6.375C8.57974 6.375 6.375 8.58044 6.375 11.2977H8.375ZM11.2956 8.375C12.9087 8.375 14.2184 9.68466 14.2184 11.2977H16.2184C16.2184 8.58009 14.0133 6.375 11.2956 6.375V8.375Z" fill="#7364DB"/>
</svg>
