<svg width="16" height="20" viewBox="0 0 16 20" fill="none" xmlns="http://www.w3.org/2000/svg">
<path d="M12.3522 1.05923C9.8704 -0.204315 6.823 0.786933 5.55946 3.26875L0.546547 13.115C-0.480098 15.1315 0.325274 17.6075 2.34178 18.6341C4.35829 19.6607 6.83425 18.8554 7.8609 16.8389L12.3009 8.11791C13.0907 6.5667 12.4712 4.66219 10.92 3.87244C9.36875 3.08269 7.46423 3.70218 6.67448 5.25339L2.9506 12.5677C2.7922 12.8789 2.91565 13.2584 3.22679 13.4168C3.53794 13.5752 3.91748 13.4518 4.07589 13.1406L7.79977 5.82629C8.27356 4.89568 9.41644 4.52393 10.347 4.99772C11.2777 5.47151 11.6494 6.6144 11.1756 7.54501L6.73561 16.266C6.02493 17.6619 4.3106 18.2195 2.91469 17.5088C1.51877 16.7981 0.961144 15.0838 1.67183 13.6879L6.68474 3.84165C7.63261 1.97987 9.91753 1.23664 11.7793 2.18451C13.6411 3.13238 14.3843 5.41729 13.4365 7.27908L9.13967 15.7187C8.98126 16.0299 9.10472 16.4094 9.41586 16.5678C9.727 16.7262 10.1065 16.6028 10.265 16.2916L14.5617 7.85198C15.8253 5.37017 14.834 2.32277 12.3522 1.05923Z" fill="#9A9AAF"/>
</svg>
