<svg width="32" height="10" viewBox="0 0 32 10" fill="none" xmlns="http://www.w3.org/2000/svg">
<path d="M11.9775 9.74182L13.524 0.765194H15.9403L14.4422 9.74182H11.9775Z" fill="#3C58BF"/>
<path d="M11.9775 9.74182L13.9589 0.765194H15.9403L14.4422 9.74182H11.9775Z" fill="#293688"/>
<path d="M23.1892 0.864934C22.7059 0.665453 21.9327 0.465973 20.9661 0.465973C18.5498 0.465973 16.81 1.71273 16.81 3.50805C16.81 4.85455 18.0182 5.55273 18.9847 6.00156C19.9513 6.45039 20.2412 6.74961 20.2412 7.14857C20.2412 7.74701 19.468 8.04623 18.7914 8.04623C17.8249 8.04623 17.2933 7.89662 16.4717 7.54753L16.1335 7.39792L15.7952 9.4426C16.3751 9.69195 17.4383 9.9413 18.5498 9.9413C21.1111 9.9413 22.8026 8.69455 22.8026 6.79948C22.8026 5.75221 22.1743 4.95429 20.7245 4.30597C19.8546 3.85714 19.323 3.60779 19.323 3.15896C19.323 2.76 19.758 2.36104 20.7245 2.36104C21.5461 2.36104 22.126 2.51065 22.5609 2.71013L22.8026 2.80987L23.1892 0.864934Z" fill="#3C58BF"/>
<path d="M23.1892 0.864934C22.7059 0.665453 21.9327 0.465973 20.9661 0.465973C18.5498 0.465973 17.245 1.71273 17.245 3.50805C17.245 4.85455 18.0182 5.55273 18.9847 6.00156C19.9513 6.45039 20.2412 6.74961 20.2412 7.14857C20.2412 7.74701 19.468 8.04623 18.7914 8.04623C17.8249 8.04623 17.2933 7.89662 16.4717 7.54753L16.1335 7.39792L15.7952 9.4426C16.3751 9.69195 17.4383 9.9413 18.5498 9.9413C21.1111 9.9413 22.8026 8.69455 22.8026 6.79948C22.8026 5.75221 22.1743 4.95429 20.7245 4.30597C19.8546 3.85714 19.323 3.60779 19.323 3.15896C19.323 2.76 19.758 2.36104 20.7245 2.36104C21.5461 2.36104 22.126 2.51065 22.5609 2.71013L22.8026 2.80987L23.1892 0.864934Z" fill="#293688"/>
<path fill-rule="evenodd" clip-rule="evenodd" d="M26.0889 1.41351C26.3305 0.815064 26.7654 0.765194 27.3454 0.765194H29.2301L31.2598 9.74182H28.9401L28.6502 8.24571H25.5573L25.074 9.74182H22.4644L26.0889 1.41351ZM27.2004 4.10649C27.2004 4.10649 26.3788 6.30078 26.2338 6.74961V6.79948H28.2636C28.1669 6.30078 27.6837 4.05662 27.6837 4.05662L27.5387 3.20883C27.3937 3.55792 27.2004 4.10649 27.2004 4.10649Z" fill="#3C58BF"/>
<path fill-rule="evenodd" clip-rule="evenodd" d="M26.6688 1.41351C26.9104 0.815064 27.3454 0.765194 27.9253 0.765194H29.2301L31.2598 9.74182H28.9401L28.6502 8.24571H25.5573L25.074 9.74182H22.4644L26.6688 1.41351ZM27.2004 4.10649C27.2004 4.10649 26.4272 6.25091 26.2338 6.74961V6.79948H28.2636C28.1669 6.30078 27.6837 4.05662 27.6837 4.05662L27.5387 3.20883C27.3937 3.55792 27.2004 4.10649 27.2004 4.10649Z" fill="#293688"/>
<path d="M7.53149 7.04883L7.28986 5.75221C6.85492 4.2561 5.45344 2.61039 3.90698 1.81247L6.08169 9.79169H8.69134L12.6058 0.815063H9.99616L7.53149 7.04883Z" fill="#3C58BF"/>
<path d="M7.53149 7.04883L7.28986 5.75221C6.85492 4.2561 5.45344 2.61039 3.90698 1.81247L6.08169 9.79169H8.69134L12.6058 0.815063H10.4794L7.53149 7.04883Z" fill="#293688"/>
<path d="M0.813965 0.765194L1.24891 0.864934C4.34182 1.61299 6.4682 3.50805 7.28976 5.75221L6.41988 1.51325C6.27489 0.914804 5.83995 0.765194 5.30836 0.765194H0.813965V0.765194Z" fill="#FFBC00"/>
<path d="M0.813965 0.765194C3.90688 1.51325 6.4682 3.45818 7.28976 5.70234L6.4682 2.16156C6.32322 1.56312 5.83995 1.21403 5.30836 1.21403L0.813965 0.765194Z" fill="#F7981D"/>
<path d="M0.813965 0.765194C3.90688 1.51325 6.4682 3.45818 7.28976 5.70234L6.70984 3.7574C6.56486 3.15896 6.37155 2.56052 5.69497 2.31117L0.813965 0.765194Z" fill="#ED7C00"/>
<path d="M9.94785 6.74961L8.30474 5.05403L7.53151 6.94909L7.3382 5.70234C6.90326 4.20623 5.50178 2.56052 3.95532 1.7626L6.13003 9.74182H8.73968L9.94785 6.74961Z" fill="#051244"/>
<path d="M14.4422 9.74182L12.3642 7.54753L11.9775 9.74182H14.4422Z" fill="#051244"/>
<path d="M19.9998 6.64987C20.1931 6.84935 20.2898 6.99896 20.2415 7.19844C20.2415 7.79688 19.4682 8.0961 18.7917 8.0961C17.8251 8.0961 17.2935 7.94649 16.472 7.5974L16.1337 7.44779L15.7954 9.49247C16.3753 9.74182 17.4385 9.99117 18.55 9.99117C20.0965 9.99117 21.353 9.54234 22.0779 8.74441L19.9998 6.64987Z" fill="#051244"/>
<path d="M22.8027 9.74182H25.0741L25.5574 8.24571H28.6503L28.9402 9.74182H31.2599L30.4384 6.1013L27.5388 3.20883L27.6837 4.00675C27.6837 4.00675 28.167 6.25091 28.2637 6.74961H26.2339C26.4272 6.25091 27.2005 4.10649 27.2005 4.10649C27.2005 4.10649 27.3938 3.55792 27.5388 3.20883" fill="#051244"/>
</svg>
