<svg width="24" height="28" viewBox="0 0 24 28" fill="none" xmlns="http://www.w3.org/2000/svg">
<path d="M20.72 3.49332L13.3866 0.746652C12.6266 0.466652 11.3866 0.466652 10.6266 0.746652L3.29331 3.49332C1.87997 4.02665 0.733307 5.67998 0.733307 7.18665V17.9867C0.733307 19.0667 1.43997 20.4933 2.30664 21.1333L9.63997 26.6133C10.9333 27.5866 13.0533 27.5866 14.3466 26.6133L21.68 21.1333C22.5466 20.48 23.2533 19.0667 23.2533 17.9867V7.18665C23.2666 5.67998 22.12 4.02665 20.72 3.49332ZM16.64 10.96L10.9066 16.6933C10.7066 16.8933 10.4533 16.9867 10.2 16.9867C9.94664 16.9867 9.69331 16.8933 9.49331 16.6933L7.35997 14.5333C6.97331 14.1467 6.97331 13.5067 7.35997 13.12C7.74664 12.7333 8.38664 12.7333 8.77331 13.12L10.2133 14.56L15.24 9.53332C15.6266 9.14665 16.2666 9.14665 16.6533 9.53332C17.04 9.91998 17.04 10.5733 16.64 10.96Z" fill="white"/>
</svg>
