<svg width="16" height="16" viewBox="0 0 16 16" fill="none" xmlns="http://www.w3.org/2000/svg">
<path d="M5.99992 14.6667H9.99992C13.3333 14.6667 14.6666 13.3333 14.6666 10V6C14.6666 2.66667 13.3333 1.33333 9.99992 1.33333H5.99992C2.66659 1.33333 1.33325 2.66667 1.33325 6V10C1.33325 13.3333 2.66659 14.6667 5.99992 14.6667Z" stroke="#656575" stroke-width="1.5" stroke-linecap="round" stroke-linejoin="round"/>
<path d="M6.06665 8V7.01334C6.06665 5.74 6.96665 5.22667 8.06665 5.86L8.91998 6.35333L9.77332 6.84667C10.8733 7.48 10.8733 8.52 9.77332 9.15333L8.91998 9.64667L8.06665 10.14C6.96665 10.7733 6.06665 10.2533 6.06665 8.98667V8Z" stroke="#656575" stroke-width="1.5" stroke-miterlimit="10" stroke-linecap="round" stroke-linejoin="round"/>
</svg>
