<svg width="28" height="28" viewBox="0 0 28 28" fill="none" xmlns="http://www.w3.org/2000/svg">
<g clip-path="url(#clip0_1606_84381)">
<path d="M6.24463 20.1387C6.24463 19.7138 5.90048 19.3696 5.47559 19.3696H1.63037C1.20547 19.3696 0.861328 19.7138 0.861328 20.1387V26.3423C0.861328 26.7672 1.20547 27.1113 1.63037 27.1113H5.47559C5.90048 27.1113 6.24463 26.7672 6.24463 26.3423V20.1387Z" fill="#50D1B2"/>
<path d="M12.4482 14.7554H8.60303C8.17813 14.7554 7.83398 15.0995 7.83398 15.5244V26.3423C7.83398 26.7672 8.17813 27.1113 8.60303 27.1113H12.4482C12.8731 27.1113 13.2173 26.7672 13.2173 26.3423V15.5244C13.2173 15.0995 12.8731 14.7554 12.4482 14.7554Z" fill="#50D1B2"/>
<path d="M19.3696 13.2173H15.5244C15.0995 13.2173 14.7554 13.5614 14.7554 13.9863V26.3423C14.7554 26.7672 15.0995 27.1113 15.5244 27.1113H19.3696C19.7945 27.1113 20.1387 26.7672 20.1387 26.3423V13.9863C20.1387 13.5614 19.7945 13.2173 19.3696 13.2173Z" fill="#50D1B2"/>
<path d="M26.3423 7.06494H22.4971C22.0722 7.06494 21.728 7.40909 21.728 7.83398V26.3423C21.728 26.7672 22.0722 27.1113 22.4971 27.1113H26.3423C26.7672 27.1113 27.1113 26.7672 27.1113 26.3423V7.83398C27.1113 7.40909 26.7672 7.06494 26.3423 7.06494Z" fill="#50D1B2"/>
<path d="M3.60425 17.7803C4.87637 17.7803 5.91138 16.7453 5.91138 15.4731C5.91138 15.257 5.87196 15.0521 5.81621 14.8537L8.81259 12.7386C9.18878 13.0056 9.64572 13.166 10.1411 13.166C11.3083 13.166 12.2654 12.2919 12.4172 11.1655L15.4853 10.5195C15.8915 11.1816 16.6153 11.6279 17.447 11.6279C18.7191 11.6279 19.7542 10.5929 19.7542 9.3208C19.7542 9.01318 19.691 8.72063 19.5814 8.4521L23.2621 5.18047C23.5922 5.36263 23.9655 5.47559 24.3684 5.47559C25.6405 5.47559 26.6755 4.44058 26.6755 3.16846C26.6755 1.89633 25.6405 0.861328 24.3684 0.861328C23.0963 0.861328 22.0613 1.89633 22.0613 3.16846C22.0613 3.47607 22.1244 3.76863 22.234 4.03716L18.5533 7.30879C18.2233 7.12663 17.85 7.01367 17.447 7.01367C16.2798 7.01367 15.3227 7.88782 15.171 9.01414L12.1028 9.66014C11.6967 8.99812 10.9728 8.55176 10.1411 8.55176C8.86899 8.55176 7.83398 9.58676 7.83398 10.8589C7.83398 11.075 7.8734 11.2799 7.92915 11.4783L4.93277 13.5935C4.55658 13.3264 4.09964 13.166 3.60425 13.166C2.33212 13.166 1.29712 14.201 1.29712 15.4731C1.29712 16.7453 2.33212 17.7803 3.60425 17.7803Z" fill="#50D1B2"/>
</g>
<defs>
<clipPath id="clip0_1606_84381">
<rect width="28" height="28" fill="white"/>
</clipPath>
</defs>
</svg>
