<svg width="43" height="49" viewBox="0 0 43 49" fill="none" xmlns="http://www.w3.org/2000/svg">
<mask id="mask0_1628_44729" style="mask-type:alpha" maskUnits="userSpaceOnUse" x="0" y="0" width="43" height="49">
<path d="M39.2436 48.4764H3.6201C1.7217 48.4764 0.182739 46.9374 0.182739 45.039V3.79069C0.182739 1.89229 1.7217 0.353333 3.6201 0.353333H26.7442L42.681 16.2902V45.039C42.681 46.9374 41.142 48.4764 39.2436 48.4764Z" fill="url(#paint0_linear_1628_44729)"/>
</mask>
<g mask="url(#mask0_1628_44729)">
<path d="M39.243 48.4763H3.61949C1.72109 48.4763 0.182129 46.9373 0.182129 45.0389V3.79063C0.182129 1.89223 1.72109 0.353271 3.61949 0.353271H26.7435L42.6804 16.2901V45.0389C42.6804 46.9373 41.1414 48.4763 39.243 48.4763Z" fill="url(#paint1_linear_1628_44729)"/>
<g filter="url(#filter0_f_1628_44729)">
<rect x="7.526" y="22.8524" width="27.8114" height="13.1245" fill="#0F7D56" fill-opacity="0.27" style="mix-blend-mode:darken"/>
</g>
<path d="M12.3966 34.0086C12.1991 34.0086 12.0304 33.9387 11.8905 33.7988C11.7506 33.6589 11.6807 33.4902 11.6807 33.2927C11.6807 33.1117 11.7301 32.9594 11.8288 32.836L16.9883 26.4669H12.2361C12.088 26.4669 11.9605 26.4175 11.8535 26.3188C11.7548 26.2118 11.7054 26.0842 11.7054 25.9361C11.7054 25.788 11.7548 25.6605 11.8535 25.5535C11.9605 25.4465 12.088 25.393 12.2361 25.393H17.5931C17.8235 25.393 18.0046 25.4671 18.1362 25.6152C18.2761 25.7633 18.346 25.9444 18.346 26.1583C18.346 26.2406 18.3255 26.327 18.2843 26.4175C18.2514 26.508 18.2062 26.5862 18.1486 26.652L13.0508 32.9594H17.8893C18.0375 32.9594 18.1609 33.0129 18.2596 33.1199C18.3666 33.2186 18.4201 33.3421 18.4201 33.4902C18.4201 33.6383 18.3666 33.7617 18.2596 33.8605C18.1609 33.9592 18.0375 34.0086 17.8893 34.0086H12.3966ZM21.5886 34.0703C21.4322 34.0703 21.3006 34.0168 21.1936 33.9099C21.0866 33.8029 21.0331 33.6712 21.0331 33.5149V25.8991C21.0331 25.7427 21.0866 25.6111 21.1936 25.5041C21.3006 25.3889 21.4322 25.3313 21.5886 25.3313C21.7449 25.3313 21.8766 25.3889 21.9835 25.5041C22.0987 25.6111 22.1563 25.7427 22.1563 25.8991V33.5149C22.1563 33.6712 22.0987 33.8029 21.9835 33.9099C21.8766 34.0168 21.7449 34.0703 21.5886 34.0703ZM25.9723 34.0703C25.816 34.0703 25.6843 34.0168 25.5774 33.9099C25.4704 33.8029 25.4169 33.6712 25.4169 33.5149V25.9608C25.4169 25.8045 25.4704 25.6728 25.5774 25.5658C25.6843 25.4506 25.816 25.393 25.9723 25.393H28.7866C29.5683 25.393 30.2061 25.5247 30.6998 25.788C31.1935 26.0513 31.5474 26.3887 31.7613 26.8002C31.9753 27.2116 32.0822 27.6559 32.0822 28.1332C32.0822 28.6105 31.9753 29.0549 31.7613 29.4663C31.5474 29.8777 31.1935 30.2151 30.6998 30.4784C30.2061 30.7418 29.5683 30.8734 28.7866 30.8734H26.5401V33.5149C26.5401 33.6712 26.4825 33.8029 26.3673 33.9099C26.2603 34.0168 26.1287 34.0703 25.9723 34.0703ZM28.6755 29.8119C29.5149 29.8119 30.1032 29.6514 30.4406 29.3305C30.7862 29.0096 30.959 28.6105 30.959 28.1332C30.959 27.6559 30.7862 27.2569 30.4406 26.9359C30.1032 26.615 29.5149 26.4545 28.6755 26.4545H26.5401V29.8119H28.6755Z" fill="white"/>
<path d="M11.8905 33.7988L12.1115 33.5778H12.1115L11.8905 33.7988ZM11.8288 32.836L11.586 32.6393L11.5848 32.6408L11.8288 32.836ZM16.9883 26.4669L17.2311 26.6636L17.6436 26.1544H16.9883V26.4669ZM11.8535 26.3188L11.6239 26.5307L11.6324 26.5399L11.6415 26.5484L11.8535 26.3188ZM11.8535 25.5535L11.6324 25.3323L11.6239 25.3415L11.8535 25.5535ZM18.1362 25.6152L17.9026 25.8229L17.909 25.8298L18.1362 25.6152ZM18.2843 26.4175L17.9999 26.2882L17.9948 26.2993L17.9907 26.3107L18.2843 26.4175ZM18.1486 26.652L17.9132 26.4461L17.9055 26.4556L18.1486 26.652ZM13.0508 32.9594L12.8078 32.763L12.3964 33.2719H13.0508V32.9594ZM18.2596 33.1199L18.03 33.3318L18.0385 33.341L18.0477 33.3495L18.2596 33.1199ZM18.2596 33.8605L18.0475 33.6307L18.0387 33.6395L18.2596 33.8605ZM12.3966 33.6961C12.2822 33.6961 12.1929 33.6592 12.1115 33.5778L11.6696 34.0197C11.8679 34.2181 12.1161 34.3211 12.3966 34.3211V33.6961ZM12.1115 33.5778C12.0301 33.4964 11.9932 33.4072 11.9932 33.2927H11.3682C11.3682 33.5732 11.4712 33.8214 11.6696 34.0197L12.1115 33.5778ZM11.9932 33.2927C11.9932 33.1718 12.0247 33.0913 12.0728 33.0312L11.5848 32.6408C11.4354 32.8275 11.3682 33.0515 11.3682 33.2927H11.9932ZM12.0716 33.0327L17.2311 26.6636L16.7455 26.2702L11.586 32.6393L12.0716 33.0327ZM16.9883 26.1544H12.2361V26.7794H16.9883V26.1544ZM12.2361 26.1544C12.1651 26.1544 12.1136 26.1336 12.0655 26.0891L11.6415 26.5484C11.8074 26.7014 12.011 26.7794 12.2361 26.7794V26.1544ZM12.0831 26.1068C12.0387 26.0587 12.0179 26.0072 12.0179 25.9361H11.3929C11.3929 26.1613 11.4708 26.3649 11.6239 26.5307L12.0831 26.1068ZM12.0179 25.9361C12.0179 25.865 12.0387 25.8136 12.0831 25.7654L11.6239 25.3415C11.4708 25.5073 11.3929 25.711 11.3929 25.9361H12.0179ZM12.0745 25.7744C12.1242 25.7247 12.1729 25.7055 12.2361 25.7055V25.0805C12.0032 25.0805 11.7967 25.1683 11.6325 25.3325L12.0745 25.7744ZM12.2361 25.7055H17.5931V25.0805H12.2361V25.7055ZM17.5931 25.7055C17.7503 25.7055 17.8402 25.7525 17.9027 25.8228L18.3698 25.4076C18.169 25.1817 17.8968 25.0805 17.5931 25.0805V25.7055ZM17.909 25.8298C17.9912 25.9167 18.0336 26.0197 18.0336 26.1583H18.6585C18.6585 25.869 18.561 25.6099 18.3634 25.4006L17.909 25.8298ZM18.0336 26.1583C18.0336 26.1877 18.0263 26.23 17.9999 26.2882L18.5688 26.5468C18.6246 26.424 18.6585 26.2935 18.6585 26.1583H18.0336ZM17.9907 26.3107C17.9696 26.3686 17.9431 26.4123 17.9134 26.4463L18.3837 26.8578C18.4692 26.7601 18.5332 26.6475 18.578 26.5243L17.9907 26.3107ZM17.9055 26.4556L12.8078 32.763L13.2938 33.1559L18.3916 26.8485L17.9055 26.4556ZM13.0508 33.2719H17.8893V32.6469H13.0508V33.2719ZM17.8893 33.2719C17.952 33.2719 17.9916 33.2902 18.03 33.3318L18.4893 32.9079C18.3302 32.7356 18.123 32.6469 17.8893 32.6469V33.2719ZM18.0477 33.3495C18.0893 33.3879 18.1076 33.4276 18.1076 33.4902H18.7326C18.7326 33.2566 18.6439 33.0493 18.4716 32.8903L18.0477 33.3495ZM18.1076 33.4902C18.1076 33.5528 18.0893 33.5924 18.0477 33.6309L18.4716 34.0901C18.6439 33.931 18.7326 33.7238 18.7326 33.4902H18.1076ZM18.0387 33.6395C18.0024 33.6758 17.9602 33.6961 17.8893 33.6961V34.3211C18.1148 34.3211 18.3194 34.2426 18.4806 34.0814L18.0387 33.6395ZM17.8893 33.6961H12.3966V34.3211H17.8893V33.6961ZM21.1936 33.9099L21.4145 33.6889L21.1936 33.9099ZM21.1936 25.5041L21.4147 25.7252L21.4226 25.7167L21.1936 25.5041ZM21.9835 25.5041L21.7546 25.7167L21.7624 25.7252L21.7709 25.7331L21.9835 25.5041ZM21.9835 33.9099L21.7708 33.6807L21.7626 33.6889L21.9835 33.9099ZM21.5886 33.7578C21.512 33.7578 21.4608 33.7351 21.4145 33.6889L20.9726 34.1308C21.1403 34.2986 21.3524 34.3828 21.5886 34.3828V33.7578ZM21.4145 33.6889C21.3683 33.6427 21.3456 33.5914 21.3456 33.5149H20.7206C20.7206 33.751 20.8049 33.9631 20.9726 34.1308L21.4145 33.6889ZM21.3456 33.5149V25.8991H20.7206V33.5149H21.3456ZM21.3456 25.8991C21.3456 25.8225 21.3683 25.7713 21.4145 25.7251L20.9726 25.2831C20.8049 25.4509 20.7206 25.663 20.7206 25.8991H21.3456ZM21.4226 25.7167C21.4708 25.6648 21.5197 25.6438 21.5886 25.6438V25.0188C21.3448 25.0188 21.1303 25.113 20.9646 25.2915L21.4226 25.7167ZM21.5886 25.6438C21.6575 25.6438 21.7063 25.6648 21.7546 25.7167L22.2125 25.2915C22.0468 25.113 21.8323 25.0188 21.5886 25.0188V25.6438ZM21.7709 25.7331C21.8228 25.7813 21.8439 25.8302 21.8439 25.8991H22.4688C22.4688 25.6553 22.3747 25.4409 22.1962 25.2751L21.7709 25.7331ZM21.8439 25.8991V33.5149H22.4688V25.8991H21.8439ZM21.8439 33.5149C21.8439 33.5838 21.8228 33.6327 21.7709 33.6809L22.1962 34.1388C22.3747 33.9731 22.4688 33.7587 22.4688 33.5149H21.8439ZM21.7626 33.6889C21.7164 33.7351 21.6651 33.7578 21.5886 33.7578V34.3828C21.8247 34.3828 22.0368 34.2986 22.2045 34.1308L21.7626 33.6889ZM25.5774 33.9099L25.7983 33.6889L25.5774 33.9099ZM25.5774 25.5658L25.7985 25.7869L25.8063 25.7785L25.5774 25.5658ZM31.7613 26.8002L31.4841 26.9443L31.7613 26.8002ZM31.7613 29.4663L31.4841 29.3221V29.3221L31.7613 29.4663ZM26.5401 30.8734V30.5609H26.2276V30.8734H26.5401ZM26.3673 33.9099L26.1545 33.6807L26.1464 33.6889L26.3673 33.9099ZM30.4406 29.3305L30.2279 29.1015L30.2252 29.1041L30.4406 29.3305ZM30.4406 26.9359L30.2252 27.1624L30.228 27.1649L30.4406 26.9359ZM26.5401 26.4545V26.1421H26.2276V26.4545H26.5401ZM26.5401 29.8119H26.2276V30.1244H26.5401V29.8119ZM25.9723 33.7578C25.8958 33.7578 25.8445 33.7351 25.7983 33.6889L25.3564 34.1308C25.5241 34.2986 25.7362 34.3828 25.9723 34.3828V33.7578ZM25.7983 33.6889C25.7521 33.6427 25.7294 33.5914 25.7294 33.5149H25.1044C25.1044 33.751 25.1887 33.9631 25.3564 34.1308L25.7983 33.6889ZM25.7294 33.5149V25.9608H25.1044V33.5149H25.7294ZM25.7294 25.9608C25.7294 25.8842 25.7521 25.833 25.7983 25.7868L25.3564 25.3449C25.1887 25.5126 25.1044 25.7247 25.1044 25.9608H25.7294ZM25.8063 25.7785C25.8546 25.7265 25.9034 25.7055 25.9723 25.7055V25.0805C25.7286 25.0805 25.5141 25.1747 25.3484 25.3532L25.8063 25.7785ZM25.9723 25.7055H28.7866V25.0805H25.9723V25.7055ZM28.7866 25.7055C29.5363 25.7055 30.1187 25.8322 30.5528 26.0637L30.8469 25.5123C30.2935 25.2172 29.6004 25.0805 28.7866 25.0805V25.7055ZM30.5528 26.0637C31.0025 26.3036 31.3048 26.5996 31.4841 26.9443L32.0386 26.656C31.7899 26.1778 31.3846 25.7991 30.8469 25.5123L30.5528 26.0637ZM31.4841 26.9443C31.6742 27.3099 31.7698 27.7046 31.7698 28.1332H32.3947C32.3947 27.6073 32.2764 27.1133 32.0386 26.656L31.4841 26.9443ZM31.7698 28.1332C31.7698 28.5618 31.6742 28.9565 31.4841 29.3221L32.0386 29.6105C32.2764 29.1532 32.3947 28.6592 32.3947 28.1332H31.7698ZM31.4841 29.3221C31.3048 29.6669 31.0025 29.9629 30.5528 30.2027L30.8469 30.7542C31.3846 30.4674 31.7899 30.0886 32.0386 29.6105L31.4841 29.3221ZM30.5528 30.2027C30.1187 30.4342 29.5363 30.5609 28.7866 30.5609V31.1859C29.6004 31.1859 30.2935 31.0493 30.8469 30.7542L30.5528 30.2027ZM28.7866 30.5609H26.5401V31.1859H28.7866V30.5609ZM26.2276 30.8734V33.5149H26.8526V30.8734H26.2276ZM26.2276 33.5149C26.2276 33.5838 26.2066 33.6327 26.1547 33.6809L26.58 34.1388C26.7584 33.9731 26.8526 33.7587 26.8526 33.5149H26.2276ZM26.1464 33.6889C26.1001 33.7351 26.0489 33.7578 25.9723 33.7578V34.3828C26.2085 34.3828 26.4206 34.2986 26.5883 34.1308L26.1464 33.6889ZM28.6755 30.1244C29.5367 30.1244 30.2288 29.9633 30.656 29.5569L30.2252 29.1041C29.9776 29.3396 29.493 29.4994 28.6755 29.4994V30.1244ZM30.6532 29.5595C31.0634 29.1787 31.2715 28.6962 31.2715 28.1332H30.6465C30.6465 28.5248 30.509 28.8405 30.228 29.1015L30.6532 29.5595ZM31.2715 28.1332C31.2715 27.5702 31.0634 27.0878 30.6532 26.7069L30.228 27.1649C30.509 27.4259 30.6465 27.7417 30.6465 28.1332H31.2715ZM30.656 26.7095C30.2288 26.3032 29.5367 26.1421 28.6755 26.1421V26.767C29.493 26.767 29.9776 26.9268 30.2252 27.1623L30.656 26.7095ZM28.6755 26.1421H26.5401V26.767H28.6755V26.1421ZM26.2276 26.4545V29.8119H26.8526V26.4545H26.2276ZM26.5401 30.1244H28.6755V29.4994H26.5401V30.1244Z" fill="white"/>
<g filter="url(#filter1_d_1628_44729)">
<path d="M42.681 16.2901H30.1815C28.2831 16.2901 26.7441 14.7512 26.7441 12.8528V0.353271L42.681 16.2901Z" fill="url(#paint2_linear_1628_44729)"/>
</g>
</g>
<defs>
<filter id="filter0_f_1628_44729" x="1.4325" y="16.7589" width="39.9984" height="25.3115" filterUnits="userSpaceOnUse" color-interpolation-filters="sRGB">
<feFlood flood-opacity="0" result="BackgroundImageFix"/>
<feBlend mode="normal" in="SourceGraphic" in2="BackgroundImageFix" result="shape"/>
<feGaussianBlur stdDeviation="3.04675" result="effect1_foregroundBlur_1628_44729"/>
</filter>
<filter id="filter1_d_1628_44729" x="23.1505" y="-3.39658" width="23.7491" height="23.749" filterUnits="userSpaceOnUse" color-interpolation-filters="sRGB">
<feFlood flood-opacity="0" result="BackgroundImageFix"/>
<feColorMatrix in="SourceAlpha" type="matrix" values="0 0 0 0 0 0 0 0 0 0 0 0 0 0 0 0 0 0 127 0" result="hardAlpha"/>
<feOffset dx="0.312487" dy="0.156244"/>
<feGaussianBlur stdDeviation="1.95305"/>
<feColorMatrix type="matrix" values="0 0 0 0 0 0 0 0 0 0 0 0 0 0 0 0 0 0 0.33 0"/>
<feBlend mode="normal" in2="BackgroundImageFix" result="effect1_dropShadow_1628_44729"/>
<feBlend mode="normal" in="SourceGraphic" in2="effect1_dropShadow_1628_44729" result="shape"/>
</filter>
<linearGradient id="paint0_linear_1628_44729" x1="21.4319" y1="0.353333" x2="21.4319" y2="48.4764" gradientUnits="userSpaceOnUse">
<stop stop-color="#FF7979"/>
<stop offset="1" stop-color="#E85555"/>
</linearGradient>
<linearGradient id="paint1_linear_1628_44729" x1="21.4313" y1="0.353271" x2="21.4313" y2="48.4763" gradientUnits="userSpaceOnUse">
<stop stop-color="#2EBC89"/>
<stop offset="1" stop-color="#1DA473"/>
</linearGradient>
<linearGradient id="paint2_linear_1628_44729" x1="34.7126" y1="0.353271" x2="34.7126" y2="16.2901" gradientUnits="userSpaceOnUse">
<stop stop-color="#23A476"/>
<stop offset="1" stop-color="#11835A"/>
</linearGradient>
</defs>
</svg>
