<svg width="12" height="10" viewBox="0 0 12 10" fill="none" xmlns="http://www.w3.org/2000/svg">
<path d="M7.41968 4.10698L9.52937 6.88288H2.86721L4.53275 4.71768L5.69862 6.21666L7.30865 4.10698H7.41968ZM4.25516 4.10698C4.6993 4.10698 5.08793 3.71835 5.08793 3.27421C5.08793 2.83007 4.6993 2.44144 4.25516 2.44144C3.81101 2.44144 3.42239 2.83007 3.42239 3.27421C3.42239 3.71835 3.81101 4.10698 4.25516 4.10698ZM11.7501 1.33108V7.99324C11.7501 8.60394 11.2504 9.1036 10.6397 9.1036H1.75684C1.14615 9.1036 0.646484 8.60394 0.646484 7.99324V1.33108C0.646484 0.720381 1.14615 0.220718 1.75684 0.220718H10.6397C11.2504 0.220718 11.7501 0.720381 11.7501 1.33108ZM10.6397 2.88558V1.33108H1.75684V7.99324H10.6397V2.88558Z" fill="#7E7E8F"/>
</svg>
