<svg width="22" height="22" viewBox="0 0 22 22" fill="none" xmlns="http://www.w3.org/2000/svg">
<path d="M16.5002 6.5635C16.4452 6.55433 16.3811 6.55433 16.3261 6.5635C15.0611 6.51767 14.0527 5.48183 14.0527 4.1985C14.0527 2.88766 15.1069 1.8335 16.4177 1.8335C17.7286 1.8335 18.7827 2.89683 18.7827 4.1985C18.7736 5.48183 17.7652 6.51767 16.5002 6.5635Z" stroke="#8B8B93" stroke-width="1.5" stroke-linecap="round" stroke-linejoin="round"/>
<path d="M15.5561 13.2369C16.8119 13.4477 18.1961 13.2277 19.1677 12.5769C20.4602 11.7152 20.4602 10.3035 19.1677 9.44186C18.1869 8.79102 16.7844 8.57102 15.5286 8.79102" stroke="#8B8B93" stroke-width="1.5" stroke-linecap="round" stroke-linejoin="round"/>
<path d="M5.47232 6.5635C5.52732 6.55433 5.59149 6.55433 5.64649 6.5635C6.91149 6.51767 7.91982 5.48183 7.91982 4.1985C7.91982 2.88766 6.86565 1.8335 5.55482 1.8335C4.24399 1.8335 3.18982 2.89683 3.18982 4.1985C3.19899 5.48183 4.20732 6.51767 5.47232 6.5635Z" stroke="#8B8B93" stroke-width="1.5" stroke-linecap="round" stroke-linejoin="round"/>
<path d="M6.41649 13.2369C5.16066 13.4477 3.77649 13.2277 2.80482 12.5769C1.51232 11.7152 1.51232 10.3035 2.80482 9.44186C3.78566 8.79102 5.18815 8.57102 6.44399 8.79102" stroke="#8B8B93" stroke-width="1.5" stroke-linecap="round" stroke-linejoin="round"/>
<path d="M11.0001 13.4107C10.9451 13.4015 10.881 13.4015 10.826 13.4107C9.56098 13.3648 8.55264 12.329 8.55264 11.0457C8.55264 9.73483 9.60681 8.68066 10.9176 8.68066C12.2285 8.68066 13.2826 9.744 13.2826 11.0457C13.2735 12.329 12.2651 13.374 11.0001 13.4107Z" stroke="#8B8B93" stroke-width="1.5" stroke-linecap="round" stroke-linejoin="round"/>
<path d="M8.33266 16.2981C7.04016 17.1598 7.04016 18.5715 8.33266 19.4331C9.79932 20.414 12.201 20.414 13.6677 19.4331C14.9602 18.5715 14.9602 17.1598 13.6677 16.2981C12.2102 15.3265 9.79932 15.3265 8.33266 16.2981Z" stroke="#8B8B93" stroke-width="1.5" stroke-linecap="round" stroke-linejoin="round"/>
</svg>
