<svg width="22" height="22" viewBox="0 0 22 22" fill="none" xmlns="http://www.w3.org/2000/svg">
<path d="M8.24998 20.1667H13.75C18.3333 20.1667 20.1666 18.3333 20.1666 13.75V8.25001C20.1666 3.66668 18.3333 1.83334 13.75 1.83334H8.24998C3.66665 1.83334 1.83331 3.66668 1.83331 8.25001V13.75C1.83331 18.3333 3.66665 20.1667 8.24998 20.1667Z" stroke="#7E7E8F" stroke-width="1.5" stroke-linecap="round" stroke-linejoin="round"/>
<path d="M16.0416 11C16.0416 13.7867 13.7866 16.0417 11 16.0417C8.21331 16.0417 6.51747 13.2367 6.51747 13.2367M6.51747 13.2367H8.79081M6.51747 13.2367V15.7575M5.95831 11C5.95831 8.21334 8.19498 5.95834 11 5.95834C14.3641 5.95834 16.0416 8.76334 16.0416 8.76334M16.0416 8.76334V6.24251M16.0416 8.76334H13.805" stroke="#7E7E8F" stroke-width="1.5" stroke-linecap="round" stroke-linejoin="round"/>
</svg>
