<svg width="64" height="64" viewBox="0 0 64 64" fill="none" xmlns="http://www.w3.org/2000/svg">
<g clip-path="url(#clip0_1272_12392)">
<path d="M33.5 39.265H30.5V47.5H33.5V39.265Z" fill="#FBCC88"/>
<path d="M33.5 46H30.5V47.5H33.5V46Z" fill="#F6B756"/>
<path d="M50.5001 27C49.8701 27 47.8101 26.785 47.8101 24.035C47.8101 19.025 63.0001 16.675 63.0001 9C63.0001 4.56 60.4501 2 56.0001 2C52.1951 2 50.0001 4.185 50.0001 8C49.9828 8.93303 50.227 9.85226 50.7051 10.6537C51.1831 11.4552 51.8759 12.1068 52.7051 12.535C52.8284 12.592 52.924 12.6957 52.9709 12.8232C53.0178 12.9507 53.0121 13.0917 52.9551 13.215C52.898 13.3383 52.7944 13.4339 52.6668 13.4808C52.5393 13.5277 52.3984 13.522 52.2751 13.465C47.1401 11.1 47.6951 1 56.0001 1C61.0001 1 64.0001 4 64.0001 9C64.0001 17.315 48.8201 20 48.8201 24.045C48.8201 25.335 49.3851 25.99 50.4901 25.99C51.0351 25.99 51.7851 25.13 52.0651 24.715C52.1406 24.6023 52.2579 24.5242 52.3911 24.498C52.5242 24.4717 52.6623 24.4994 52.7751 24.575C52.8878 24.6506 52.9658 24.7679 52.9921 24.901C53.0184 25.0342 52.9906 25.1723 52.9151 25.285C52.8051 25.46 51.7351 27 50.5001 27Z" fill="#F6B756"/>
<path d="M13.5 27C12.265 27 11.195 25.45 11.075 25.275C10.9994 25.1623 10.9717 25.0242 10.998 24.891C11.0242 24.7579 11.1023 24.6406 11.215 24.565C11.3277 24.4894 11.4658 24.4617 11.599 24.488C11.7321 24.5142 11.8494 24.5923 11.925 24.705C12.205 25.13 12.955 26 13.5 26C14.605 26 15.17 25.345 15.17 24.055C15.17 20 0 17.3 0 9C0 4 3 1 8 1C16.345 1 16.81 11.135 11.715 13.5C11.5917 13.557 11.4507 13.5627 11.3232 13.5158C11.1957 13.4689 11.092 13.3733 11.035 13.25C10.978 13.1267 10.9723 12.9857 11.0192 12.8582C11.0661 12.7307 11.1617 12.627 11.285 12.57C12.1215 12.1406 12.8199 11.484 13.3001 10.6757C13.7803 9.86734 14.0229 8.93996 14 8C14 4.195 11.805 2 8 2C3.56 2 1 4.56 1 9C1 16.66 16.19 19.035 16.19 24.045C16.19 26.795 14.13 27 13.5 27Z" fill="#F6B756"/>
<path d="M44.5999 63.5H19.3999L20.9749 50.55H43.0249L44.5999 63.5Z" fill="#D6AC90"/>
<path d="M44.5999 63.5H19.3999L19.6449 61.5H44.3549L44.5999 63.5Z" fill="#CBA07A"/>
<path d="M32 39.5C22.615 38.455 15.755 29.885 15.33 19.93L14.5 0.5H49.5L48.67 19.93C48.24 29.95 41.325 38.46 32 39.5Z" fill="#FBCC88"/>
<path d="M32 39.5C22.615 38.455 15.755 29.885 15.33 19.93L14.5 0.5H49.5L48.67 19.93C48.24 29.95 41.325 38.46 32 39.5Z" fill="#FBCC88"/>
<path d="M48.67 19.93C48.235 30.155 41.14 38.5 32 39.5C22.86 38.5 15.765 30.155 15.33 19.93C14.33 -3.73 14.24 -7.61001 15.33 17.93C15.765 28.155 22.86 36.5 32 37.5C41.14 36.5 48.235 28.155 48.67 17.93C49.76 -7.59 49.68 -3.75001 48.67 19.93Z" fill="#F6B756"/>
<path d="M46.5 63.5H17.5C17.3674 63.5 17.2402 63.4473 17.1464 63.3536C17.0527 63.2598 17 63.1326 17 63C17 62.8674 17.0527 62.7402 17.1464 62.6464C17.2402 62.5527 17.3674 62.5 17.5 62.5H46.5C46.6326 62.5 46.7598 62.5527 46.8536 62.6464C46.9473 62.7402 47 62.8674 47 63C47 63.1326 46.9473 63.2598 46.8536 63.3536C46.7598 63.4473 46.6326 63.5 46.5 63.5Z" fill="#8A6762"/>
<path d="M35.5 49.5V50.5H28.5V49.5C28.5 48.9696 28.7107 48.4609 29.0858 48.0858C29.4609 47.7107 29.9696 47.5 30.5 47.5H33.5C34.0304 47.5 34.5391 47.7107 34.9142 48.0858C35.2893 48.4609 35.5 48.9696 35.5 49.5Z" fill="#FBCC88"/>
<path d="M35.5 49.68V50.5H28.5V49.68C28.6874 49.4667 28.9181 49.2957 29.1768 49.1785C29.4354 49.0612 29.716 49.0004 30 49C34.07 49 34.72 48.78 35.5 49.68Z" fill="#F6B756"/>
<path d="M38.5 53.5H25.5V60.5H38.5V53.5Z" fill="#DDE1E8"/>
<path d="M38.5 59H25.5V60.5H38.5V59Z" fill="#C7CDD8"/>
<path d="M32 29C38.3513 29 43.5 23.8513 43.5 17.5C43.5 11.1487 38.3513 6 32 6C25.6487 6 20.5 11.1487 20.5 17.5C20.5 23.8513 25.6487 29 32 29Z" fill="#C379DD"/>
<path d="M32 29C30.4057 28.9998 28.8287 28.6681 27.3694 28.0259C25.9101 27.3837 24.6003 26.4451 23.5231 25.2696C22.4459 24.0941 21.6249 22.7075 21.1122 21.1978C20.5995 19.6881 20.4064 18.0883 20.545 16.5C20.799 19.3628 22.1158 22.0267 24.2359 23.9671C26.3561 25.9075 29.126 26.9836 32 26.9836C34.8741 26.9836 37.6439 25.9075 39.7641 23.9671C41.8843 22.0267 43.201 19.3628 43.455 16.5C43.5937 18.0883 43.4005 19.6881 42.8878 21.1978C42.3752 22.7075 41.5542 24.0941 40.477 25.2696C39.3998 26.4451 38.09 27.3837 36.6306 28.0259C35.1713 28.6681 33.5944 28.9998 32 29Z" fill="#A167CE"/>
<path d="M32 31C30.4057 30.9998 28.8287 30.6681 27.3694 30.0259C25.9101 29.3837 24.6003 28.4451 23.5231 27.2696C22.4459 26.0941 21.6249 24.7075 21.1122 23.1978C20.5995 21.6881 20.4064 20.0883 20.545 18.5C20.799 21.3628 22.1158 24.0267 24.2359 25.9671C26.3561 27.9075 29.126 28.9836 32 28.9836C34.8741 28.9836 37.6439 27.9075 39.7641 25.9671C41.8843 24.0267 43.201 21.3628 43.455 18.5C43.5937 20.0883 43.4005 21.6881 42.8878 23.1978C42.3752 24.7075 41.5542 26.0941 40.477 27.2696C39.3998 28.4451 38.09 29.3837 36.6306 30.0259C35.1713 30.6681 33.5944 30.9998 32 31Z" fill="#F6B756"/>
<path d="M30.0001 22C29.7051 22 29.9601 22.17 25.6401 17.85C25.5446 17.7545 25.491 17.625 25.491 17.49C25.491 17.355 25.5446 17.2255 25.6401 17.13C25.7356 17.0345 25.8651 16.9809 26.0001 16.9809C26.1351 16.9809 26.2646 17.0345 26.3601 17.13L30.0001 20.78L37.6401 13.14C37.7356 13.0445 37.8651 12.9909 38.0001 12.9909C38.1351 12.9909 38.2646 13.0445 38.3601 13.14C38.4556 13.2355 38.5092 13.365 38.5092 13.5C38.5092 13.635 38.4556 13.7645 38.3601 13.86C29.6051 22.615 30.3001 22 30.0001 22Z" fill="white"/>
</g>
<defs>
<clipPath id="clip0_1272_12392">
<rect width="64" height="64" fill="white"/>
</clipPath>
</defs>
</svg>
