<svg width="43" height="49" viewBox="0 0 43 49" fill="none" xmlns="http://www.w3.org/2000/svg">
<rect width="42.4983" height="48.123" transform="translate(0.18335 0.123024)" fill="#E5E5E5"/>
<mask id="mask0_1628_44468" style="mask-type:alpha" maskUnits="userSpaceOnUse" x="0" y="0" width="43" height="49">
<path d="M39.2441 48.246H3.62059C1.72219 48.246 0.183228 46.7071 0.183228 44.8087V3.56038C0.183228 1.66198 1.72219 0.123024 3.62059 0.123024H26.7446L42.6815 16.0599V44.8087C42.6815 46.7071 41.1425 48.246 39.2441 48.246Z" fill="url(#paint0_linear_1628_44468)"/>
</mask>
<g mask="url(#mask0_1628_44468)">
<path d="M39.2452 48.246H3.62169C1.72329 48.246 0.184326 46.7071 0.184326 44.8086V3.56035C0.184326 1.66195 1.72328 0.122986 3.62169 0.122986H26.7457L42.6826 16.0598V44.8086C42.6826 46.7071 41.1436 48.246 39.2452 48.246Z" fill="url(#paint1_linear_1628_44468)"/>
<g opacity="0.2" filter="url(#filter0_f_1628_44468)">
<rect x="7.68347" y="23.4033" width="27.8114" height="13.1245" fill="#780AAF" style="mix-blend-mode:darken"/>
</g>
<path d="M11.6132 33.84C11.4487 33.84 11.3129 33.7865 11.2059 33.6796C11.1072 33.5726 11.0578 33.4409 11.0578 33.2846C11.0578 33.2188 11.0784 33.1365 11.1195 33.0377L14.267 25.6071C14.3329 25.459 14.4234 25.3397 14.5386 25.2491C14.662 25.1504 14.8101 25.101 14.9829 25.101H15.1064C15.2792 25.101 15.4232 25.1504 15.5384 25.2491C15.6618 25.3397 15.7565 25.459 15.8223 25.6071L18.9698 33.0377C19.011 33.1365 19.0315 33.2188 19.0315 33.2846C19.0315 33.4409 18.978 33.5726 18.8711 33.6796C18.7723 33.7865 18.6407 33.84 18.4761 33.84C18.3609 33.84 18.2539 33.8112 18.1552 33.7536C18.0646 33.6878 17.9947 33.6014 17.9453 33.4944L17.143 31.5689H12.9463L12.144 33.4944C12.0946 33.6014 12.0206 33.6878 11.9218 33.7536C11.8313 33.8112 11.7284 33.84 11.6132 33.84ZM13.3783 30.5444H16.711L15.0447 26.5328L13.3783 30.5444ZM24.1188 33.84C23.7814 33.84 23.5263 33.6508 23.3535 33.2722L20.3047 25.8786C20.28 25.8128 20.2677 25.7429 20.2677 25.6688C20.2677 25.496 20.3171 25.3602 20.4158 25.2615C20.5145 25.1545 20.6503 25.101 20.8231 25.101C20.9383 25.101 21.0412 25.138 21.1317 25.2121C21.2305 25.2779 21.3045 25.3685 21.3539 25.4837L24.2546 32.7168L27.1552 25.4837C27.2046 25.3685 27.2745 25.2779 27.365 25.2121C27.4638 25.138 27.5708 25.101 27.686 25.101C27.8588 25.101 27.9946 25.1545 28.0933 25.2615C28.192 25.3602 28.2414 25.496 28.2414 25.6688C28.2414 25.7429 28.2291 25.8128 28.2044 25.8786L25.1556 33.2722C24.9828 33.6508 24.7277 33.84 24.3903 33.84H24.1188ZM31.1586 33.84C31.0022 33.84 30.8706 33.7865 30.7636 33.6796C30.6566 33.5726 30.6031 33.4409 30.6031 33.2846V25.6688C30.6031 25.5125 30.6566 25.3808 30.7636 25.2738C30.8706 25.1586 31.0022 25.101 31.1586 25.101C31.3149 25.101 31.4466 25.1586 31.5536 25.2738C31.6688 25.3808 31.7264 25.5125 31.7264 25.6688V33.2846C31.7264 33.4409 31.6688 33.5726 31.5536 33.6796C31.4466 33.7865 31.3149 33.84 31.1586 33.84Z" fill="white"/>
<path d="M11.2059 33.6796L10.9761 33.8917L10.9849 33.9005L11.2059 33.6796ZM11.1195 33.0377L10.8318 32.9158L10.8311 32.9175L11.1195 33.0377ZM14.267 25.6071L13.9814 25.4802L13.9793 25.4852L14.267 25.6071ZM14.5386 25.2491L14.7317 25.4949L14.7338 25.4931L14.5386 25.2491ZM15.5384 25.2491L15.335 25.4864L15.344 25.4941L15.3536 25.5011L15.5384 25.2491ZM15.8223 25.6071L16.1101 25.4852L16.1078 25.4802L15.8223 25.6071ZM18.9698 33.0377L19.2583 32.9175L19.2575 32.9158L18.9698 33.0377ZM18.8711 33.6796L18.6499 33.4584L18.6414 33.4676L18.8711 33.6796ZM18.1552 33.7536L17.9714 34.0064L17.9841 34.0156L17.9977 34.0236L18.1552 33.7536ZM17.9453 33.4944L17.6567 33.6147L17.6616 33.6254L17.9453 33.4944ZM17.143 31.5689L17.4315 31.4487L17.3513 31.2564H17.143V31.5689ZM12.9463 31.5689V31.2564H12.738L12.6579 31.4487L12.9463 31.5689ZM12.144 33.4944L12.4279 33.6255L12.4324 33.6146L12.144 33.4944ZM11.9218 33.7536L12.0896 34.0173L12.0952 34.0136L11.9218 33.7536ZM13.3783 30.5444L13.0897 30.4245L12.9101 30.8569H13.3783V30.5444ZM16.711 30.5444V30.8569H17.1792L16.9996 30.4245L16.711 30.5444ZM15.0447 26.5328L15.3332 26.413L15.0447 25.7182L14.7561 26.413L15.0447 26.5328ZM11.6132 33.5275C11.5235 33.5275 11.4698 33.5015 11.4269 33.4586L10.9849 33.9005C11.156 34.0716 11.3738 34.1525 11.6132 34.1525V33.5275ZM11.4355 33.4676C11.3942 33.4229 11.3703 33.3687 11.3703 33.2846H10.7453C10.7453 33.5131 10.8201 33.7223 10.9763 33.8915L11.4355 33.4676ZM11.3703 33.2846C11.3703 33.2778 11.374 33.2395 11.408 33.1579L10.8311 32.9175C10.7827 33.0335 10.7453 33.1597 10.7453 33.2846H11.3703ZM11.4072 33.1596L14.5548 25.729L13.9793 25.4852L10.8318 32.9158L11.4072 33.1596ZM14.5526 25.734C14.6 25.6274 14.6606 25.5507 14.7316 25.4949L14.3455 25.0034C14.1861 25.1287 14.0658 25.2906 13.9815 25.4802L14.5526 25.734ZM14.7338 25.4931C14.7966 25.4429 14.874 25.4135 14.9829 25.4135V24.7885C14.7462 24.7885 14.5275 24.8578 14.3434 25.0051L14.7338 25.4931ZM14.9829 25.4135H15.1064V24.7885H14.9829V25.4135ZM15.1064 25.4135C15.2156 25.4135 15.2843 25.4429 15.335 25.4864L15.7418 25.0119C15.5621 24.8579 15.3428 24.7885 15.1064 24.7885V25.4135ZM15.3536 25.5011C15.4305 25.5575 15.4917 25.6326 15.5367 25.734L16.1078 25.4802C16.0212 25.2853 15.8931 25.1218 15.7232 24.9971L15.3536 25.5011ZM15.5345 25.729L18.6821 33.1596L19.2575 32.9158L16.11 25.4852L15.5345 25.729ZM18.6814 33.1579C18.7153 33.2395 18.719 33.2778 18.719 33.2846H19.344C19.344 33.1597 19.3066 33.0335 19.2583 32.9175L18.6814 33.1579ZM18.719 33.2846C18.719 33.3612 18.6963 33.4124 18.6501 33.4586L19.092 33.9005C19.2598 33.7328 19.344 33.5207 19.344 33.2846H18.719ZM18.6414 33.4676C18.6099 33.5018 18.566 33.5275 18.4761 33.5275V34.1525C18.7153 34.1525 18.9348 34.0713 19.1007 33.8915L18.6414 33.4676ZM18.4761 33.5275C18.4158 33.5275 18.3632 33.5132 18.3126 33.4837L17.9977 34.0236C18.1446 34.1093 18.306 34.1525 18.4761 34.1525V33.5275ZM18.339 33.5009C18.2939 33.4681 18.2573 33.4246 18.229 33.3635L17.6616 33.6254C17.7321 33.7782 17.8354 33.9075 17.9714 34.0064L18.339 33.5009ZM18.2338 33.3742L17.4315 31.4487L16.8546 31.6891L17.6569 33.6146L18.2338 33.3742ZM17.143 31.2564H12.9463V31.8814H17.143V31.2564ZM12.6579 31.4487L11.8555 33.3742L12.4324 33.6146L13.2348 31.6891L12.6579 31.4487ZM11.8603 33.3635C11.8353 33.4177 11.7996 33.4596 11.7485 33.4936L12.0952 34.0136C12.2415 33.9161 12.354 33.7851 12.4277 33.6254L11.8603 33.3635ZM11.7541 33.49C11.7174 33.5133 11.6736 33.5275 11.6132 33.5275V34.1525C11.7833 34.1525 11.9452 34.1091 12.0896 34.0173L11.7541 33.49ZM13.3783 30.8569H16.711V30.2319H13.3783V30.8569ZM16.9996 30.4245L15.3332 26.413L14.7561 26.6527L16.4224 30.6643L16.9996 30.4245ZM14.7561 26.413L13.0897 30.4245L13.6669 30.6643L15.3332 26.6527L14.7561 26.413ZM23.3535 33.2722L23.0644 33.3915L23.0692 33.402L23.3535 33.2722ZM20.3047 25.8786L20.012 25.9884L20.0158 25.9978L20.3047 25.8786ZM20.4158 25.2615L20.6369 25.4826L20.6454 25.4734L20.4158 25.2615ZM21.1317 25.2121L20.9338 25.454L20.9457 25.4636L20.9584 25.4721L21.1317 25.2121ZM21.3539 25.4837L21.644 25.3673L21.6411 25.3606L21.3539 25.4837ZM24.2546 32.7168L23.9645 32.8331L24.2546 33.5563L24.5446 32.8331L24.2546 32.7168ZM27.1552 25.4837L26.8679 25.3605L26.8652 25.3673L27.1552 25.4837ZM27.365 25.2121L27.5489 25.4649L27.5525 25.4621L27.365 25.2121ZM28.0933 25.2615L27.8635 25.4736L27.8723 25.4824L28.0933 25.2615ZM28.2044 25.8786L28.4934 25.9978L28.497 25.9884L28.2044 25.8786ZM25.1556 33.2722L25.4401 33.4021L25.4445 33.3914L25.1556 33.2722ZM24.1188 33.5275C24.0127 33.5275 23.9308 33.4992 23.8606 33.4471C23.7866 33.3922 23.7088 33.2981 23.6378 33.1425L23.0692 33.402C23.171 33.6249 23.3071 33.8147 23.4882 33.949C23.6731 34.0862 23.8875 34.1525 24.1188 34.1525V33.5275ZM23.6424 33.1531L20.5936 25.7595L20.0158 25.9978L23.0646 33.3914L23.6424 33.1531ZM20.5973 25.7689C20.5865 25.74 20.5802 25.7074 20.5802 25.6688H19.9552C19.9552 25.7783 19.9736 25.8856 20.0121 25.9884L20.5973 25.7689ZM20.5802 25.6688C20.5802 25.558 20.6099 25.5093 20.6368 25.4824L20.1948 25.0405C20.0242 25.2111 19.9552 25.434 19.9552 25.6688H20.5802ZM20.6454 25.4734C20.674 25.4425 20.7198 25.4135 20.8231 25.4135V24.7885C20.5809 24.7885 20.3551 24.8665 20.1862 25.0495L20.6454 25.4734ZM20.8231 25.4135C20.865 25.4135 20.8982 25.4248 20.9338 25.454L21.3296 24.9703C21.1842 24.8513 21.0117 24.7885 20.8231 24.7885V25.4135ZM20.9584 25.4721C21.0038 25.5024 21.0398 25.544 21.0667 25.6068L21.6411 25.3606C21.5693 25.1929 21.4571 25.0535 21.305 24.9521L20.9584 25.4721ZM21.0639 25.6L23.9645 32.8331L24.5446 32.6005L21.6439 25.3673L21.0639 25.6ZM24.5446 32.8331L27.4452 25.6L26.8652 25.3673L23.9645 32.6005L24.5446 32.8331ZM27.4424 25.6068C27.4724 25.5369 27.5091 25.4937 27.5488 25.4648L27.1813 24.9594C27.0399 25.0622 26.9368 25.2 26.868 25.3606L27.4424 25.6068ZM27.5525 25.4621C27.6013 25.4255 27.6433 25.4135 27.686 25.4135V24.7885C27.4982 24.7885 27.3263 24.8506 27.1776 24.9621L27.5525 25.4621ZM27.686 25.4135C27.7893 25.4135 27.8351 25.4425 27.8637 25.4734L28.3229 25.0495C28.154 24.8665 27.9283 24.7885 27.686 24.7885V25.4135ZM27.8723 25.4824C27.8992 25.5093 27.9289 25.558 27.9289 25.6688H28.5539C28.5539 25.434 28.4849 25.2111 28.3143 25.0405L27.8723 25.4824ZM27.9289 25.6688C27.9289 25.7074 27.9226 25.74 27.9118 25.7689L28.497 25.9884C28.5355 25.8856 28.5539 25.7783 28.5539 25.6688H27.9289ZM27.9155 25.7595L24.8667 33.1531L25.4445 33.3914L28.4933 25.9978L27.9155 25.7595ZM24.8713 33.1425C24.8003 33.2981 24.7225 33.3922 24.6485 33.4471C24.5783 33.4992 24.4964 33.5275 24.3903 33.5275V34.1525C24.6216 34.1525 24.836 34.0862 25.0209 33.949C25.202 33.8147 25.3381 33.6249 25.4399 33.402L24.8713 33.1425ZM24.3903 33.5275H24.1188V34.1525H24.3903V33.5275ZM30.7636 33.6796L30.9845 33.4586L30.7636 33.6796ZM30.7636 25.2738L30.9847 25.4949L30.9926 25.4865L30.7636 25.2738ZM31.5536 25.2738L31.3246 25.4865L31.3324 25.4949L31.3409 25.5028L31.5536 25.2738ZM31.5536 33.6796L31.3408 33.4504L31.3326 33.4586L31.5536 33.6796ZM31.1586 33.5275C31.082 33.5275 31.0308 33.5048 30.9845 33.4586L30.5426 33.9005C30.7104 34.0683 30.9224 34.1525 31.1586 34.1525V33.5275ZM30.9845 33.4586C30.9383 33.4124 30.9156 33.3612 30.9156 33.2846H30.2906C30.2906 33.5207 30.3749 33.7328 30.5426 33.9005L30.9845 33.4586ZM30.9156 33.2846V25.6688H30.2906V33.2846H30.9156ZM30.9156 25.6688C30.9156 25.5922 30.9383 25.541 30.9845 25.4948L30.5426 25.0529C30.3749 25.2206 30.2906 25.4327 30.2906 25.6688H30.9156ZM30.9926 25.4865C31.0408 25.4345 31.0897 25.4135 31.1586 25.4135V24.7885C30.9148 24.7885 30.7003 24.8827 30.5346 25.0612L30.9926 25.4865ZM31.1586 25.4135C31.2275 25.4135 31.2763 25.4345 31.3246 25.4865L31.7825 25.0612C31.6168 24.8827 31.4024 24.7885 31.1586 24.7885V25.4135ZM31.3409 25.5028C31.3929 25.551 31.4139 25.5999 31.4139 25.6688H32.0388C32.0388 25.425 31.9447 25.2106 31.7662 25.0448L31.3409 25.5028ZM31.4139 25.6688V33.2846H32.0388V25.6688H31.4139ZM31.4139 33.2846C31.4139 33.3535 31.3929 33.4024 31.3409 33.4506L31.7662 33.9086C31.9447 33.7428 32.0388 33.5284 32.0388 33.2846H31.4139ZM31.3326 33.4586C31.2864 33.5048 31.2351 33.5275 31.1586 33.5275V34.1525C31.3947 34.1525 31.6068 34.0683 31.7745 33.9005L31.3326 33.4586Z" fill="white"/>
<g filter="url(#filter1_d_1628_44468)">
<path d="M42.6832 16.0598H30.1837C28.2853 16.0598 26.7463 14.5209 26.7463 12.6225V0.122986L42.6832 16.0598Z" fill="url(#paint2_linear_1628_44468)"/>
</g>
</g>
<defs>
<filter id="filter0_f_1628_44468" x="1.58997" y="17.3098" width="39.9984" height="25.3115" filterUnits="userSpaceOnUse" color-interpolation-filters="sRGB">
<feFlood flood-opacity="0" result="BackgroundImageFix"/>
<feBlend mode="normal" in="SourceGraphic" in2="BackgroundImageFix" result="shape"/>
<feGaussianBlur stdDeviation="3.04675" result="effect1_foregroundBlur_1628_44468"/>
</filter>
<filter id="filter1_d_1628_44468" x="23.1527" y="-3.62686" width="23.7491" height="23.749" filterUnits="userSpaceOnUse" color-interpolation-filters="sRGB">
<feFlood flood-opacity="0" result="BackgroundImageFix"/>
<feColorMatrix in="SourceAlpha" type="matrix" values="0 0 0 0 0 0 0 0 0 0 0 0 0 0 0 0 0 0 127 0" result="hardAlpha"/>
<feOffset dx="0.312487" dy="0.156244"/>
<feGaussianBlur stdDeviation="1.95305"/>
<feColorMatrix type="matrix" values="0 0 0 0 0 0 0 0 0 0 0 0 0 0 0 0 0 0 0.33 0"/>
<feBlend mode="normal" in2="BackgroundImageFix" result="effect1_dropShadow_1628_44468"/>
<feBlend mode="normal" in="SourceGraphic" in2="effect1_dropShadow_1628_44468" result="shape"/>
</filter>
<linearGradient id="paint0_linear_1628_44468" x1="21.4324" y1="0.123024" x2="21.4324" y2="48.246" gradientUnits="userSpaceOnUse">
<stop stop-color="#FF7979"/>
<stop offset="1" stop-color="#E85555"/>
</linearGradient>
<linearGradient id="paint1_linear_1628_44468" x1="21.4335" y1="0.122986" x2="21.4335" y2="48.246" gradientUnits="userSpaceOnUse">
<stop stop-color="#CB74F4"/>
<stop offset="0.942892" stop-color="#A849F3"/>
</linearGradient>
<linearGradient id="paint2_linear_1628_44468" x1="34.7148" y1="0.122986" x2="34.7148" y2="16.0598" gradientUnits="userSpaceOnUse">
<stop stop-color="#B051E0"/>
<stop offset="1" stop-color="#952BCB"/>
</linearGradient>
</defs>
</svg>
