<svg width="22" height="22" viewBox="0 0 22 22" fill="none" xmlns="http://www.w3.org/2000/svg">
<path d="M15.5469 5.65576C17.3802 6.92993 18.6452 8.95576 18.9019 11.2933" stroke="#8B8B93" stroke-width="1.5" stroke-linecap="round" stroke-linejoin="round"/>
<path d="M3.19922 11.3392C3.43755 9.01083 4.68422 6.98499 6.49922 5.70166" stroke="#8B8B93" stroke-width="1.5" stroke-linecap="round" stroke-linejoin="round"/>
<path d="M7.50732 19.1948C8.57066 19.7357 9.78066 20.0382 11.0548 20.0382C12.2832 20.0382 13.4382 19.7632 14.474 19.259" stroke="#8B8B93" stroke-width="1.5" stroke-linecap="round" stroke-linejoin="round"/>
<path d="M11.0552 7.05809C12.4626 7.05809 13.6035 5.91716 13.6035 4.50976C13.6035 3.10235 12.4626 1.96143 11.0552 1.96143C9.64776 1.96143 8.50684 3.10235 8.50684 4.50976C8.50684 5.91716 9.64776 7.05809 11.0552 7.05809Z" stroke="#8B8B93" stroke-width="1.5" stroke-linecap="round" stroke-linejoin="round"/>
<path d="M4.42773 18.2602C5.83513 18.2602 6.97606 17.1193 6.97606 15.7119C6.97606 14.3045 5.83513 13.1636 4.42773 13.1636C3.02032 13.1636 1.87939 14.3045 1.87939 15.7119C1.87939 17.1193 3.02032 18.2602 4.42773 18.2602Z" stroke="#8B8B93" stroke-width="1.5" stroke-linecap="round" stroke-linejoin="round"/>
<path d="M17.5723 18.2602C18.9797 18.2602 20.1206 17.1193 20.1206 15.7119C20.1206 14.3045 18.9797 13.1636 17.5723 13.1636C16.1649 13.1636 15.0239 14.3045 15.0239 15.7119C15.0239 17.1193 16.1649 18.2602 17.5723 18.2602Z" stroke="#8B8B93" stroke-width="1.5" stroke-linecap="round" stroke-linejoin="round"/>
</svg>
