<svg width="28" height="24" viewBox="0 0 28 24" fill="none" xmlns="http://www.w3.org/2000/svg">
<g clip-path="url(#clip0_1258_12030)">
<path d="M6.12698e-06 8.01388V2.01084C-0.00080264 1.70816 0.0784671 1.40927 0.231848 1.13667C0.385228 0.864062 0.608723 0.624851 0.885506 0.43704C1.1602 0.247801 1.48169 0.1149 1.82543 0.0484879C2.16917 -0.0179244 2.52605 -0.0160919 2.86884 0.0538454C3.96057 0.304482 4.96754 0.773332 5.80727 1.422C6.64701 2.07066 7.29563 2.88069 7.7 3.78574C9.7537 3.30049 11.8702 3.03764 14 3.00334C16.1298 3.03764 18.2463 3.30049 20.3 3.78574C20.7046 2.88031 21.3538 2.07002 22.1942 1.42132C23.0345 0.772624 24.0423 0.303988 25.1347 0.0538454C25.4776 -0.0140447 25.834 -0.0147004 26.1772 0.0519269C26.5205 0.118554 26.8418 0.250747 27.1172 0.438657C27.3926 0.626566 27.615 0.865349 27.7679 1.13721C27.9207 1.40908 28.0001 1.70702 28 2.00884V8.01188C26.0758 8.05244 24.1812 8.42682 22.4303 9.11244C20.1881 9.93165 18.291 11.3185 16.9929 13.0876C15.6949 14.8566 15.0577 16.9234 15.1667 19.0115C15.1667 19.2768 15.0438 19.5313 14.825 19.7189C14.6062 19.9065 14.3094 20.012 14 20.012C13.6906 20.012 13.3938 19.9065 13.175 19.7189C12.9563 19.5313 12.8333 19.2768 12.8333 19.0115C12.9433 16.9225 12.3066 14.8545 11.0085 13.0844C9.71037 11.3143 7.81279 9.92635 5.56967 9.10643C3.81797 8.42402 1.92346 8.05239 6.12698e-06 8.01388ZM23.3333 11.0074C23.1249 11.8449 22.591 12.5969 21.819 13.1402C21.0471 13.6835 20.0829 13.9859 19.0843 13.9979C17.9894 15.4978 17.438 17.2426 17.5 19.0115C17.5 19.8075 17.1313 20.571 16.4749 21.1338C15.8185 21.6967 14.9283 22.013 14 22.013C13.0717 22.013 12.1815 21.6967 11.5251 21.1338C10.8688 20.571 10.5 19.8075 10.5 19.0115C10.562 17.2426 10.0106 15.4978 8.91567 13.9979C7.91714 13.9859 6.95294 13.6835 6.181 13.1402C5.40905 12.5969 4.87513 11.8449 4.66667 11.0074C3.2064 10.4072 1.61815 10.0701 6.12698e-06 10.0169C0.0366995 12.8843 1.38588 15.6245 3.75667 17.6468L9.18984 22.3061C10.47 23.3914 12.1976 24 13.9977 24C15.7978 24 17.5253 23.3914 18.8055 22.3061L24.2387 17.6468C26.6112 15.6252 27.9621 12.8849 28 10.0169C26.3819 10.0701 24.7936 10.4072 23.3333 11.0074Z" fill="url(#paint0_linear_1258_12030)"/>
</g>
<defs>
<linearGradient id="paint0_linear_1258_12030" x1="28" y1="0" x2="10.9849" y2="23.5212" gradientUnits="userSpaceOnUse">
<stop stop-color="#5C8FFF"/>
<stop offset="1" stop-color="#C14BFF"/>
</linearGradient>
<clipPath id="clip0_1258_12030">
<rect width="28" height="24" fill="white"/>
</clipPath>
</defs>
</svg>
