<svg width="32" height="32" viewBox="0 0 32 32" fill="none" xmlns="http://www.w3.org/2000/svg">
<g clip-path="url(#clip0_1606_84695)">
<path d="M16 32C24.8366 32 32 24.8366 32 16C32 7.16344 24.8366 0 16 0C7.16344 0 0 7.16344 0 16C0 24.8366 7.16344 32 16 32Z" fill="#F57D00"/>
<path d="M16.7071 6.3999V6.39991H16.7488H16.7947C19.7139 6.47948 21.8461 8.85149 21.9394 11.3498H21.9477C21.9552 11.4223 21.9541 11.502 21.9602 11.5759C22.0185 12.2803 22.0107 13.0487 21.8268 13.8248C21.9175 13.8281 22.0052 13.8318 22.0936 13.8371C22.8781 13.8843 23.791 13.9906 24.5868 14.7416C25.3826 15.4926 25.5115 16.436 25.5582 17.122C25.6049 17.808 25.5826 18.4839 25.5999 19.379V19.4078V19.4366C25.5812 21.1605 25.0586 22.7706 23.9322 23.9137C22.8059 25.0569 21.1976 25.5856 19.5546 25.5993H19.5463H19.538H12.563C12.5545 25.5994 12.5464 25.5992 12.538 25.5993C10.7804 25.6176 9.07803 25.2173 7.87685 24.0042C6.69573 22.8112 6.32033 21.1171 6.41347 19.3379H6.4093C6.40939 19.3211 6.41321 19.3054 6.41347 19.2886C6.41481 19.2663 6.41205 19.2451 6.41347 19.2228H6.42181L6.54689 11.5842H6.55106C6.58706 10.5938 6.81306 9.51357 7.53498 8.51718C8.45513 7.2472 10.1813 6.46503 12.1586 6.46979H12.2044L16.7071 6.3999ZM12.3586 17.6001C11.757 17.5919 11.1974 17.895 10.894 18.3934C10.5907 18.8917 10.5907 19.5081 10.894 20.0064C11.1974 20.5048 11.757 20.8079 12.3586 20.7997H20.1745C20.7762 20.8079 21.3358 20.5048 21.6391 20.0064C21.9424 19.5081 21.9424 18.8917 21.6391 18.3934C21.3358 17.895 20.7762 17.5919 20.1745 17.6001H12.3586ZM12.9447 10.6667C11.9954 10.6537 11.2143 11.3463 11.2001 12.2136C11.1859 13.0808 11.9439 13.7945 12.8932 13.8075L16.9196 13.8664C17.8689 13.8805 18.6509 13.1888 18.6663 12.3215C18.6818 11.4542 17.9247 10.7397 16.9754 10.7256L12.9447 10.6667Z" fill="white"/>
</g>
<defs>
<clipPath id="clip0_1606_84695">
<rect width="32" height="32" fill="white"/>
</clipPath>
</defs>
</svg>
