<svg width="33" height="30" viewBox="0 0 33 30" fill="none" xmlns="http://www.w3.org/2000/svg">
<g clip-path="url(#clip0_5897_204)">
<path d="M27.2929 12.3999C27.2429 11.403 27.3929 10.5194 26.8929 9.77173C25.6929 7.91392 22.6929 6.82642 16.6929 6.82642V6.98501H16.5679H16.6929V6.82642C10.6929 6.82642 7.54293 7.91392 6.34294 9.79439C5.86794 10.5647 5.91794 11.4256 5.84294 12.4225C5.79294 13.2155 5.39294 14.0538 5.56794 14.96C5.76794 16.1381 5.84294 17.3163 6.04294 18.4038C6.19294 19.2874 7.54293 20.035 7.66793 20.8733C8.01793 23.1842 10.6679 24.2491 16.6679 24.2491V24.4303H16.5179H16.6929V24.2491C22.6929 24.2491 25.2429 23.1842 25.5679 20.8733C25.6929 20.0124 26.9429 19.2874 27.0929 18.4038C27.2929 17.3163 27.3679 16.1381 27.5679 14.96C27.7429 14.0538 27.3429 13.1928 27.2929 12.3999Z" fill="#EFCCA3"/>
<path d="M16.5929 13.2155C17.6679 13.2381 18.4179 13.8498 19.1179 14.4162C19.9429 15.0733 21.3429 15.5264 21.9179 16.0928C22.4929 16.6592 23.2429 17.2256 23.5179 18.1092C23.7929 18.9928 23.8679 20.1256 23.8679 20.4201C23.8679 20.7147 24.0429 20.6467 24.5429 20.4201C25.7179 19.899 27.0179 18.4944 27.0179 18.4944C26.8679 19.378 25.5929 20.1709 25.4679 21.0092C25.1679 23.3201 22.6929 24.4303 16.5679 24.4303H16.5429H16.6929" fill="#CCAC8D"/>
<path d="M20.5429 11.4482C20.7679 12.1506 21.5679 14.5295 20.0179 13.7365C20.0179 13.7365 20.6679 14.0764 21.0679 15.3678C21.4929 16.6592 22.5179 16.8178 22.5179 16.8178C22.5179 16.8178 24.1929 17.1123 25.4429 16.1381C26.4929 15.3225 26.6679 13.8725 26.2179 12.7623C25.7679 11.6748 24.9679 11.335 23.7929 11.1084C22.6179 10.8592 20.2679 10.6553 20.5429 11.4482Z" fill="#CCAC8D"/>
<path d="M23.5179 16.0249C24.7329 16.0249 25.7179 15.1322 25.7179 14.0311C25.7179 12.93 24.7329 12.0374 23.5179 12.0374C22.3029 12.0374 21.3179 12.93 21.3179 14.0311C21.3179 15.1322 22.3029 16.0249 23.5179 16.0249Z" fill="black"/>
<path d="M22.943 13.6686C23.2605 13.6686 23.518 13.4353 23.518 13.1475C23.518 12.8597 23.2605 12.6264 22.943 12.6264C22.6254 12.6264 22.3679 12.8597 22.3679 13.1475C22.3679 13.4353 22.6254 13.6686 22.943 13.6686Z" fill="white"/>
<path d="M20.1679 13.9404C20.1679 13.9404 22.1429 15.1639 23.2179 16.3646C24.2929 17.5654 24.2679 17.792 24.2679 17.792L23.4929 18.1092C23.4929 18.1092 22.3929 16.2287 21.0429 15.5264C19.6679 14.824 19.5179 14.235 19.5179 14.235L20.1679 13.9404Z" fill="#EFCCA3"/>
<path d="M16.6679 13.2155C15.5929 13.2381 14.7929 13.8498 14.0679 14.4162C13.2429 15.0733 11.7929 15.5264 11.2179 16.0928C10.6429 16.6592 9.86793 17.2256 9.59293 18.1092C9.31793 18.9928 9.21793 20.1256 9.21793 20.4201C9.21793 20.7147 9.26793 20.7373 8.54293 20.4201C7.36793 19.9217 6.06793 18.4944 6.06793 18.4944C6.21793 19.378 7.49293 20.1709 7.61793 21.0092C7.96793 23.3201 10.4429 24.4303 16.5679 24.4303H16.6929" fill="#CCAC8D"/>
<path d="M22.468 17.0444C21.268 15.7076 19.343 14.4615 16.668 14.4615H16.643C13.968 14.4615 12.0429 15.7076 10.8429 17.0444C9.59294 18.4264 9.69294 18.9701 9.69294 20.2842C9.69294 25.042 11.5429 23.6826 12.768 24.2717C14.018 24.8381 15.318 24.6568 16.643 24.6568H16.668C18.018 24.6568 19.293 24.8154 20.543 24.249C21.768 23.6826 23.618 25.0873 23.618 20.3295C23.643 19.0154 23.718 18.4264 22.468 17.0444Z" fill="#56332B"/>
<path d="M16.543 15.6396C16.543 15.6396 16.368 17.8374 16.0179 18.2678L16.668 18.1319L16.543 15.6396Z" fill="#442823"/>
<path d="M16.718 15.6396C16.718 15.6396 16.8929 17.8374 17.2429 18.2678L16.593 18.1319L16.718 15.6396Z" fill="#442823"/>
<path d="M14.618 15.1186C14.368 14.5975 15.268 13.7592 16.693 13.7366C18.118 13.7366 19.018 14.5749 18.768 15.1186C18.518 15.6623 17.618 15.8209 16.693 15.8436C15.793 15.8209 14.868 15.6623 14.618 15.1186Z" fill="#56332B"/>
<path d="M16.6929 15.6397C16.6929 15.549 17.5429 15.5264 17.9928 15.2545C17.9928 15.2545 17.0679 15.5264 16.8679 15.4131C16.6679 15.3225 16.6179 15.0506 16.6179 15.0506C16.6179 15.0506 16.5429 15.3225 16.3929 15.4131C16.2179 15.5037 15.1679 15.2545 15.1679 15.2545C15.1679 15.2545 16.5679 15.5717 16.5679 15.6397C16.5679 15.7076 16.5429 15.9342 16.5429 16.0928C16.5429 16.6592 16.5429 18.0639 16.6429 18.1772C16.7929 18.3811 16.7429 16.6592 16.7429 16.0928C16.7179 15.9115 16.7179 15.7303 16.6929 15.6397Z" fill="black"/>
<path d="M16.7429 18.6756C17.1679 18.6756 17.9179 18.9475 18.5929 19.3779C17.9429 18.7209 17.1679 18.2678 16.7429 18.2678C16.2929 18.2678 15.3429 18.7662 14.6679 19.4912C15.3679 18.9928 16.2679 18.6756 16.7429 18.6756Z" fill="#7F4A41"/>
<path d="M16.5679 22.6858C15.6179 22.6858 14.6929 22.4139 13.8429 22.21C13.6679 22.1647 13.4929 22.278 13.3179 22.2327C11.7429 21.7796 10.4679 21.0092 9.69293 20.035V20.2616C9.69293 25.0194 11.5429 23.6827 12.7679 24.2491C14.0179 24.8155 15.3179 24.6343 16.6429 24.6343H16.6679C18.0179 24.6343 19.2929 24.7929 20.5429 24.2265C21.7679 23.66 23.6179 25.0421 23.6179 20.2842C23.6179 20.103 23.6179 19.9217 23.6429 19.7631C22.9179 20.828 21.5929 21.6663 19.9429 22.1647C19.7929 22.21 19.4429 22.0967 19.2929 22.1194C18.3929 22.3913 17.5929 22.6858 16.5679 22.6858Z" fill="#442823"/>
<path d="M14.1929 20.1256C14.1929 20.1256 13.5679 21.8249 13.9929 22.5725L13.4179 22.346C13.4179 22.346 13.8429 20.6241 14.1929 20.1256ZM19.1429 20.1256C19.1429 20.1256 19.7679 21.8249 19.3429 22.5725L19.9179 22.346C19.9179 22.346 19.4679 20.6241 19.1429 20.1256Z" fill="#442823"/>
<path d="M12.5929 11.4482C12.3679 12.1506 11.5679 14.5295 13.1179 13.7365C13.1179 13.7365 12.4679 14.0764 12.0679 15.3678C11.6679 16.6592 10.6179 16.8178 10.6179 16.8178C10.6179 16.8178 8.94293 17.1123 7.69293 16.1381C6.64293 15.3225 6.46793 13.8725 6.91793 12.7623C7.36793 11.6521 8.16793 11.335 9.34293 11.1084C10.5179 10.8592 12.8429 10.6553 12.5929 11.4482Z" fill="#CCAC8D"/>
<path d="M16.6679 18.2678C17.3429 18.2678 19.4429 19.5818 19.4679 21.1904V21.0998C19.4679 19.4233 17.7679 18.0865 16.6679 18.0865C15.5679 18.0865 13.8679 19.4459 13.8679 21.0998V21.1904C13.8929 19.5818 15.9929 18.2678 16.6679 18.2678Z" fill="black"/>
<path d="M17.2137 15.1309C17.3207 15.1059 17.3654 14.9383 17.3137 14.7566C17.262 14.5748 17.1333 14.4478 17.0264 14.4728C16.9194 14.4978 16.8746 14.6654 16.9264 14.8471C16.9781 15.0289 17.1068 15.1559 17.2137 15.1309Z" fill="#331712"/>
<path d="M15.9287 15.1275C16.0342 15.1572 16.1695 15.0359 16.2308 14.8567C16.2922 14.6774 16.2564 14.508 16.1509 14.4784C16.0454 14.4487 15.9102 14.57 15.8488 14.7493C15.7874 14.9285 15.8232 15.0979 15.9287 15.1275Z" fill="#331712"/>
<path d="M9.74291 16.0249C10.9579 16.0249 11.9429 15.1322 11.9429 14.0311C11.9429 12.93 10.9579 12.0374 9.74291 12.0374C8.52788 12.0374 7.54291 12.93 7.54291 14.0311C7.54291 15.1322 8.52788 16.0249 9.74291 16.0249Z" fill="black"/>
<path d="M10.3179 13.6686C10.6355 13.6686 10.8929 13.4353 10.8929 13.1475C10.8929 12.8597 10.6355 12.6264 10.3179 12.6264C10.0004 12.6264 9.74292 12.8597 9.74292 13.1475C9.74292 13.4353 10.0004 13.6686 10.3179 13.6686Z" fill="white"/>
<path d="M17.3179 14.0538C17.3179 14.0311 16.7429 14.2803 16.5929 14.303C16.4429 14.2803 15.8679 14.0311 15.8679 14.0538H17.3179Z" fill="#7F4A41"/>
<path d="M12.9429 13.9404C12.9429 13.9404 10.9679 15.1639 9.89294 16.3646C8.81795 17.5654 8.84294 17.792 8.84294 17.792L9.61794 18.1092C9.61794 18.1092 10.7179 16.2287 12.0679 15.5264C13.4179 14.824 13.5929 14.235 13.5929 14.235L12.9429 13.9404Z" fill="#EFCCA3"/>
<path d="M8.61793 10.3154C8.61793 10.3154 7.94293 11.992 6.44293 12.6943C6.44293 12.6943 8.79293 12.4451 8.61793 10.3154ZM24.3929 10.3154C24.3929 10.3154 25.0679 11.992 26.5679 12.6943C26.5679 12.6943 24.2179 12.4451 24.3929 10.3154ZM20.1179 13.442C20.1179 13.442 18.6429 12.0373 16.6679 11.992H16.6929H16.7179C14.7179 12.0373 13.2679 13.442 13.2679 13.442C14.9929 12.3545 16.4679 12.3771 16.7179 12.3771C16.6929 12.3771 18.3929 12.3545 20.1179 13.442ZM18.3929 10.4967C18.3929 10.4967 17.6429 9.54512 16.6429 9.52246H16.6929C15.9429 9.54512 14.9679 10.4967 14.9679 10.4967C15.8179 9.74902 16.6929 9.77168 16.6929 9.77168C16.6929 9.77168 17.5179 9.74902 18.3929 10.4967ZM9.74293 17.4521C9.74293 17.4521 8.56793 17.9732 7.71793 17.6561H7.69293C6.94293 17.2709 6.56793 16.1154 6.56793 16.1154C6.56793 16.1154 7.31793 18.1545 9.74293 17.4521ZM23.4429 17.4521C23.4429 17.4521 24.6179 17.9732 25.4679 17.6561C26.4679 17.2709 26.6179 16.1154 26.6179 16.1154C26.6179 16.1154 25.8679 18.1545 23.4429 17.4521Z" fill="#CCAC8D"/>
<path d="M11.0929 10.2022C11.7429 10.0889 12.8179 10.0662 13.6679 10.3155C14.7429 10.6553 13.8679 11.9014 14.0929 11.9694C14.3179 12.0373 14.6179 11.1084 16.6179 11.1991C18.6429 11.2897 18.8679 12.1053 19.1429 11.9694C19.4179 11.8334 18.8679 9.70375 21.8929 10.2022C21.8929 10.2022 18.7179 9.43187 18.8679 11.5162C18.8679 11.5162 17.0429 10.2475 14.4929 11.3803C14.5179 11.3803 15.1679 9.43187 11.0929 10.2022ZM22.1679 10.2022C22.2179 10.2022 22.2429 10.2248 22.2679 10.2248C22.2929 10.2248 22.2429 10.2022 22.1679 10.2022ZM10.2179 7.41547C10.2179 7.41547 7.51793 10.4967 7.11793 11.6748C6.71793 12.8756 6.41793 17.792 6.06793 18.4944L4.81793 13.6459L7.11793 8.59359L10.2179 7.41547ZM22.9179 7.41547C22.9179 7.41547 25.6179 10.4967 26.0179 11.6748C26.4179 12.8756 26.7179 17.792 27.0679 18.4944L28.3179 13.6459L26.0179 8.59359L22.9179 7.41547Z" fill="#CCAC8D"/>
<path d="M22.7929 7.41544C22.7929 7.41544 25.693 9.61309 26.543 12.1506C27.393 14.6881 27.043 17.7693 27.693 18.1545C28.618 18.6982 29.668 15.4584 30.018 15.1186C30.568 14.5748 32.3931 13.1928 32.5181 12.9436C32.6431 12.6943 28.818 8.91075 27.143 8.1631C25.118 7.30216 22.6179 7.23419 22.7929 7.41544Z" fill="#56332B"/>
<path d="M25.2679 8.77484C25.2679 8.77484 28.6929 12.7397 28.6429 17.6787L30.0179 15.1412C29.9929 15.1412 28.7929 11.9014 25.2679 8.77484Z" fill="#442823"/>
<path d="M10.2179 7.41544C10.2179 7.41544 7.31792 9.61309 6.46792 12.1506C5.61792 14.6881 5.96792 17.7693 5.31792 18.1545C4.39292 18.6982 3.34292 15.4584 2.99292 15.1186C2.44292 14.5748 0.617921 13.1928 0.492921 12.9436C0.367921 12.6943 4.19292 8.91075 5.86792 8.1631C7.89292 7.30216 10.3929 7.23419 10.2179 7.41544Z" fill="#56332B"/>
<path d="M7.74296 8.77484C7.74296 8.77484 4.31795 12.7397 4.36795 17.6787L3.01794 15.1412C3.01794 15.1412 4.21795 11.9014 7.74296 8.77484Z" fill="#442823"/>
<path d="M5.89294 17.7694C5.89294 17.7694 6.14294 18.9928 6.54294 19.378C6.94294 19.7631 6.66794 19.0834 6.66794 19.0834C6.66794 19.0834 6.24294 18.8795 6.31794 17.3162C6.39294 15.7529 5.89294 17.7694 5.89294 17.7694ZM27.2179 17.7694C27.2179 17.7694 26.9679 18.9928 26.5679 19.378C26.1679 19.7631 26.4429 19.0834 26.4429 19.0834C26.4429 19.0834 26.8679 18.8795 26.7929 17.3162C26.7179 15.7529 27.2179 17.7694 27.2179 17.7694Z" fill="#CCAC8D"/>
<path d="M14.068 17.0218C14.1784 17.0218 14.268 16.9406 14.268 16.8405C14.268 16.7403 14.1784 16.6592 14.068 16.6592C13.9575 16.6592 13.868 16.7403 13.868 16.8405C13.868 16.9406 13.9575 17.0218 14.068 17.0218Z" fill="#442823"/>
<path d="M12.918 18.1092C13.0284 18.1092 13.118 18.028 13.118 17.9279C13.118 17.8278 13.0284 17.7467 12.918 17.7467C12.8075 17.7467 12.718 17.8278 12.718 17.9279C12.718 18.028 12.8075 18.1092 12.918 18.1092Z" fill="#442823"/>
<path d="M12.543 17.0218C12.6534 17.0218 12.743 16.9406 12.743 16.8405C12.743 16.7403 12.6534 16.6592 12.543 16.6592C12.4325 16.6592 12.343 16.7403 12.343 16.8405C12.343 16.9406 12.4325 17.0218 12.543 17.0218Z" fill="#442823"/>
<path d="M18.943 17.0218C19.0534 17.0218 19.143 16.9406 19.143 16.8405C19.143 16.7403 19.0534 16.6592 18.943 16.6592C18.8325 16.6592 18.7429 16.7403 18.7429 16.8405C18.7429 16.9406 18.8325 17.0218 18.943 17.0218Z" fill="#442823"/>
<path d="M20.0929 18.1092C20.2034 18.1092 20.2929 18.028 20.2929 17.9279C20.2929 17.8278 20.2034 17.7467 20.0929 17.7467C19.9825 17.7467 19.8929 17.8278 19.8929 17.9279C19.8929 18.028 19.9825 18.1092 20.0929 18.1092Z" fill="#442823"/>
<path d="M20.4679 17.0218C20.5784 17.0218 20.6679 16.9406 20.6679 16.8405C20.6679 16.7403 20.5784 16.6592 20.4679 16.6592C20.3575 16.6592 20.2679 16.7403 20.2679 16.8405C20.2679 16.9406 20.3575 17.0218 20.4679 17.0218Z" fill="#442823"/>
</g>
<defs>
<clipPath id="clip0_5897_204">
<rect width="32" height="29" fill="white" transform="translate(0.442932 0.867798)"/>
</clipPath>
</defs>
</svg>
