<svg width="32" height="33" viewBox="0 0 32 33" fill="none" xmlns="http://www.w3.org/2000/svg">
<g clip-path="url(#clip0_1484_33182)">
<path d="M16.0002 32.5C24.8368 32.5 32.0002 25.3366 32.0002 16.5C32.0002 7.66344 24.8368 0.5 16.0002 0.5C7.16369 0.5 0.000244141 7.66344 0.000244141 16.5C0.000244141 25.3366 7.16369 32.5 16.0002 32.5Z" fill="#F0F0F0"/>
<path d="M16 0.5C9.65664 0.5 4.17565 4.19156 1.58765 9.5435H30.4123C27.8244 4.19156 22.3433 0.5 16 0.5Z" fill="#FF9811"/>
<path d="M16 32.5C22.3433 32.5 27.8244 28.8084 30.4124 23.4565H1.58765C4.17565 28.8084 9.65664 32.5 16 32.5Z" fill="#6DA544"/>
<path d="M16 22.0652C19.0736 22.0652 21.5652 19.5736 21.5652 16.5C21.5652 13.4264 19.0736 10.9348 16 10.9348C12.9264 10.9348 10.4348 13.4264 10.4348 16.5C10.4348 19.5736 12.9264 22.0652 16 22.0652Z" fill="#0052B4"/>
<path d="M16 19.9782C17.921 19.9782 19.4782 18.421 19.4782 16.5C19.4782 14.579 17.921 13.0217 16 13.0217C14.079 13.0217 12.5217 14.579 12.5217 16.5C12.5217 18.421 14.079 19.9782 16 19.9782Z" fill="#F0F0F0"/>
<path d="M16 12.2079L17.0731 14.6415L19.7171 14.3539L18.1461 16.5L19.7171 18.6461L17.0731 18.3585L16 20.7921L14.927 18.3585L12.283 18.646L13.854 16.5L12.283 14.3539L14.927 14.6415L16 12.2079Z" fill="#0052B4"/>
</g>
<defs>
<clipPath id="clip0_1484_33182">
<rect width="32" height="32" fill="white" transform="translate(0 0.5)"/>
</clipPath>
</defs>
</svg>
