<svg width="15" height="16" viewBox="0 0 15 16" fill="none" xmlns="http://www.w3.org/2000/svg">
<path d="M7.5 2.16042C4.05625 2.16042 1.25 4.96667 1.25 8.41042C1.25 11.8542 4.05625 14.6604 7.5 14.6604C10.9438 14.6604 13.75 11.8542 13.75 8.41042C13.75 4.96667 10.9438 2.16042 7.5 2.16042ZM10.4875 6.97292L6.94375 10.5167C6.85625 10.6042 6.7375 10.6542 6.6125 10.6542C6.4875 10.6542 6.36875 10.6042 6.28125 10.5167L4.5125 8.74792C4.33125 8.56667 4.33125 8.26667 4.5125 8.08542C4.69375 7.90417 4.99375 7.90417 5.175 8.08542L6.6125 9.52292L9.825 6.31042C10.0063 6.12917 10.3063 6.12917 10.4875 6.31042C10.6688 6.49167 10.6688 6.78542 10.4875 6.97292Z" fill="#50D1B2"/>
</svg>
