<svg width="22" height="22" viewBox="0 0 22 22" fill="none" xmlns="http://www.w3.org/2000/svg">
<path d="M9.2124 2.31902L3.69406 5.92152C1.9249 7.07652 1.9249 9.66152 3.69406 10.8165L9.2124 14.419C10.2024 15.0698 11.8341 15.0698 12.8241 14.419L18.3149 10.8165C20.0749 9.66152 20.0749 7.08568 18.3149 5.93068L12.8241 2.32818C11.8341 1.66818 10.2024 1.66818 9.2124 2.31902Z" stroke="#8B8B93" stroke-width="1.5" stroke-linecap="round" stroke-linejoin="round"/>
<path d="M5.16102 11.9902L5.15186 16.2894C5.15186 17.4536 6.05019 18.7002 7.15019 19.0669L10.0744 20.0386C10.5785 20.2036 11.4127 20.2036 11.926 20.0386L14.8502 19.0669C15.9502 18.7002 16.8485 17.4536 16.8485 16.2894V12.0361" stroke="#8B8B93" stroke-width="1.5" stroke-linecap="round" stroke-linejoin="round"/>
<path d="M19.6167 13.75V8.25" stroke="#8B8B93" stroke-width="1.5" stroke-linecap="round" stroke-linejoin="round"/>
</svg>
