<svg width="16" height="16" viewBox="0 0 16 16" fill="none" xmlns="http://www.w3.org/2000/svg">
<path d="M10.0001 15.1667H6.00009C5.12009 15.1667 4.38675 15.08 3.76675 14.8934C3.54009 14.8267 3.39342 14.6067 3.40675 14.3733C3.57342 12.38 5.59342 10.8133 8.00009 10.8133C10.4068 10.8133 12.4201 12.3733 12.5934 14.3733C12.6134 14.6133 12.4668 14.8267 12.2334 14.8934C11.6134 15.08 10.8801 15.1667 10.0001 15.1667ZM4.48009 14.04C4.92009 14.1267 5.42009 14.1667 6.00009 14.1667H10.0001C10.5801 14.1667 11.0801 14.1267 11.5201 14.04C11.1668 12.76 9.70675 11.8133 8.00009 11.8133C6.29342 11.8133 4.83342 12.76 4.48009 14.04Z" fill="white"/>
<path d="M10 1.33334H6.00001C2.66668 1.33334 1.33334 2.66668 1.33334 6.00001V10C1.33334 12.52 2.09334 13.9 3.90668 14.4133C4.05334 12.68 5.83334 11.3133 8.00001 11.3133C10.1667 11.3133 11.9467 12.68 12.0933 14.4133C13.9067 13.9 14.6667 12.52 14.6667 10V6.00001C14.6667 2.66668 13.3333 1.33334 10 1.33334ZM8.00001 9.44667C6.68001 9.44667 5.61334 8.37336 5.61334 7.05336C5.61334 5.73336 6.68001 4.66668 8.00001 4.66668C9.32001 4.66668 10.3867 5.73336 10.3867 7.05336C10.3867 8.37336 9.32001 9.44667 8.00001 9.44667Z" stroke="white" stroke-width="1.5" stroke-linecap="round" stroke-linejoin="round"/>
<path d="M7.99995 9.94665C6.40662 9.94665 5.11328 8.64667 5.11328 7.05333C5.11328 5.46 6.40662 4.16666 7.99995 4.16666C9.59328 4.16666 10.8866 5.46 10.8866 7.05333C10.8866 8.64667 9.59328 9.94665 7.99995 9.94665ZM7.99995 5.16666C6.95995 5.16666 6.11328 6.01333 6.11328 7.05333C6.11328 8.1 6.95995 8.94665 7.99995 8.94665C9.03995 8.94665 9.88662 8.1 9.88662 7.05333C9.88662 6.01333 9.03995 5.16666 7.99995 5.16666Z" fill="white"/>
</svg>
