<svg width="22" height="22" viewBox="0 0 22 22" fill="none" xmlns="http://www.w3.org/2000/svg">
<path d="M8.25016 20.1668H13.7502C18.3335 20.1668 20.1668 18.3335 20.1668 13.7502V8.25016C20.1668 3.66683 18.3335 1.8335 13.7502 1.8335H8.25016C3.66683 1.8335 1.8335 3.66683 1.8335 8.25016V13.7502C1.8335 18.3335 3.66683 20.1668 8.25016 20.1668Z" stroke="#8B8B93" stroke-width="1.5" stroke-linecap="round" stroke-linejoin="round"/>
<path d="M13.1552 10.0012C13.0635 10.652 12.6785 11.202 12.1468 11.532V13.347C12.1468 13.9795 11.6335 14.4929 11.001 14.4929C10.3685 14.4929 9.85517 13.9795 9.85517 13.347V11.532C9.32351 11.202 8.9385 10.652 8.84683 10.0012C8.8285 9.90036 8.81934 9.79035 8.81934 9.68035C8.81934 8.28702 10.1394 7.20535 11.5877 7.59035C12.321 7.78285 12.9168 8.37869 13.1093 9.11202C13.1918 9.41452 13.201 9.71702 13.1552 10.0012Z" stroke="#8B8B93" stroke-width="1.5" stroke-miterlimit="10"/>
<path d="M20.1683 10.001H13.1558" stroke="#8B8B93" stroke-width="1.5" stroke-miterlimit="10"/>
<path d="M8.84599 10.001H1.8335" stroke="#8B8B93" stroke-width="1.5" stroke-miterlimit="10"/>
</svg>
