<svg width="22" height="22" viewBox="0 0 22 22" fill="none" xmlns="http://www.w3.org/2000/svg">
<path d="M8.25008 9.85417C6.85675 9.85417 5.72925 8.72667 5.72925 7.33333C5.72925 5.94 6.85675 4.8125 8.25008 4.8125C9.64342 4.8125 10.7709 5.94 10.7709 7.33333C10.7709 8.72667 9.64342 9.85417 8.25008 9.85417ZM8.25008 6.1875C7.61758 6.1875 7.10425 6.70083 7.10425 7.33333C7.10425 7.96583 7.61758 8.47917 8.25008 8.47917C8.88258 8.47917 9.39592 7.96583 9.39592 7.33333C9.39592 6.70083 8.88258 6.1875 8.25008 6.1875Z" fill="#7E7E8F"/>
<path d="M13.7499 20.8542H8.24992C3.27242 20.8542 1.14575 18.7275 1.14575 13.75V8.25001C1.14575 3.27251 3.27242 1.14584 8.24992 1.14584H10.9999C11.3758 1.14584 11.6874 1.45751 11.6874 1.83334C11.6874 2.20918 11.3758 2.52084 10.9999 2.52084H8.24992C4.02409 2.52084 2.52075 4.02418 2.52075 8.25001V13.75C2.52075 17.9758 4.02409 19.4792 8.24992 19.4792H13.7499C17.9758 19.4792 19.4791 17.9758 19.4791 13.75V10.0833C19.4791 9.70751 19.7908 9.39584 20.1666 9.39584C20.5424 9.39584 20.8541 9.70751 20.8541 10.0833V13.75C20.8541 18.7275 18.7274 20.8542 13.7499 20.8542Z" fill="#7E7E8F"/>
<path d="M17.3617 7.66332C16.5642 7.66332 14.6942 6.68249 14.1167 4.89499C13.7225 3.65749 14.1809 2.03499 15.6109 1.57666C16.2159 1.38416 16.8484 1.46666 17.3525 1.77832C17.8475 1.46666 18.4984 1.37499 19.1125 1.57666C20.5425 2.03499 21.0009 3.65749 20.6067 4.89499C20.0292 6.71916 18.0675 7.66332 17.3617 7.66332ZM15.4275 4.47332C15.8217 5.69249 17.1417 6.26082 17.38 6.28832C17.6459 6.26082 18.9384 5.61916 19.2959 4.47332C19.4884 3.85916 19.2959 3.07999 18.6909 2.87832C18.4342 2.79582 18.095 2.84166 17.9392 3.07999C17.8109 3.27249 17.6 3.39166 17.38 3.39166C17.1692 3.39166 16.94 3.29082 16.8117 3.10749C16.6192 2.84166 16.28 2.80499 16.0417 2.87832C15.4275 3.07999 15.235 3.85916 15.4275 4.47332Z" fill="#7E7E8F"/>
<path d="M2.44762 18.0583C2.22762 18.0583 2.00762 17.9483 1.87928 17.7558C1.66845 17.4442 1.75095 17.0133 2.07178 16.8025L6.59095 13.7683C7.58095 13.0992 8.94678 13.1817 9.84512 13.9425L10.1476 14.2083C10.6059 14.6025 11.3851 14.6025 11.8343 14.2083L15.6476 10.9358C16.6193 10.1017 18.1501 10.1017 19.131 10.9358L20.6251 12.2192C20.9093 12.4667 20.9459 12.8975 20.6985 13.1908C20.4509 13.475 20.0201 13.5117 19.7268 13.2642L18.2326 11.9808C17.7743 11.5867 16.9951 11.5867 16.5368 11.9808L12.7235 15.2533C11.7518 16.0875 10.221 16.0875 9.24012 15.2533L8.93762 14.9875C8.51595 14.63 7.81928 14.5933 7.35178 14.9142L2.83262 17.9483C2.71345 18.0217 2.57595 18.0583 2.44762 18.0583Z" fill="#7E7E8F"/>
</svg>
