<svg width="32" height="32" viewBox="0 0 32 32" fill="none" xmlns="http://www.w3.org/2000/svg">
<path d="M21.3333 2.66666H10.6667C6 2.66666 4 5.33332 4 9.33332V22.6667C4 26.6667 6 29.3333 10.6667 29.3333H21.3333C26 29.3333 28 26.6667 28 22.6667V9.33332C28 5.33332 26 2.66666 21.3333 2.66666ZM14.04 21.96C14.4267 22.3467 14.4267 22.9867 14.04 23.3733C13.84 23.5733 13.5867 23.6667 13.3333 23.6667C13.08 23.6667 12.8267 23.5733 12.6267 23.3733L9.96 20.7067C9.57333 20.32 9.57333 19.68 9.96 19.2933L12.6267 16.6267C13.0133 16.24 13.6533 16.24 14.04 16.6267C14.4267 17.0133 14.4267 17.6533 14.04 18.04L12.08 20L14.04 21.96ZM22.04 20.7067L19.3733 23.3733C19.1733 23.5733 18.92 23.6667 18.6667 23.6667C18.4133 23.6667 18.16 23.5733 17.96 23.3733C17.5733 22.9867 17.5733 22.3467 17.96 21.96L19.92 20L17.96 18.04C17.5733 17.6533 17.5733 17.0133 17.96 16.6267C18.3467 16.24 18.9867 16.24 19.3733 16.6267L22.04 19.2933C22.4267 19.68 22.4267 20.32 22.04 20.7067ZM24.6667 12.3333H22C19.9733 12.3333 18.3333 10.6933 18.3333 8.66666V5.99999C18.3333 5.45332 18.7867 4.99999 19.3333 4.99999C19.88 4.99999 20.3333 5.45332 20.3333 5.99999V8.66666C20.3333 9.58666 21.08 10.3333 22 10.3333H24.6667C25.2133 10.3333 25.6667 10.7867 25.6667 11.3333C25.6667 11.88 25.2133 12.3333 24.6667 12.3333Z" fill="#9A9AAF"/>
</svg>
