<svg width="32" height="32" viewBox="0 0 32 32" fill="none" xmlns="http://www.w3.org/2000/svg">
<g clip-path="url(#clip0_1279_13468)">
<path d="M0 16C0 7.16344 7.16344 0 16 0C24.8366 0 32 7.16344 32 16C32 24.8366 24.8366 32 16 32C7.16344 32 0 24.8366 0 16Z" fill="#FF3366"/>
<path d="M22.2472 24.2804C20.4946 24.2804 19.6567 23.2397 19.6567 21.8168C19.6567 21.4108 19.7073 20.9787 19.8343 20.5469L20.6726 17.5498C20.7741 17.2195 20.7996 16.915 20.7996 16.6354C20.7996 15.6706 20.2155 15.0862 19.2757 15.0862C18.0817 15.0862 17.2944 15.92 16.8881 17.571L15.2624 24.0684H12.4178L12.9284 22.0423C12.0923 23.4159 10.9311 24.2781 9.49846 24.2781C7.77131 24.2781 6.95853 23.2889 6.95853 21.79C6.95853 21.4097 7.00948 20.9593 7.11098 20.5275L8.40632 15.2517H6.3999L7.00948 12.9963H11.8353L9.93017 20.5433C9.80315 21.0263 9.7524 21.4219 9.7524 21.7008C9.7524 22.184 9.99025 22.3228 10.3622 22.4067C10.5887 22.4574 12.3936 22.4339 13.3764 20.2496L14.6275 15.2517H12.5956L13.2052 12.9963H17.5484L16.9898 15.5397C17.7516 14.1171 19.2757 12.7606 20.7741 12.7606C22.3742 12.7606 23.6951 13.8981 23.6951 16.0823C23.6951 16.6409 23.6189 17.2478 23.4157 17.9333L22.6027 20.8527C22.5269 21.1581 22.4757 21.4115 22.4757 21.64C22.4757 22.1478 22.6791 22.4016 23.0602 22.4016C23.441 22.4016 23.9237 22.1215 24.4825 20.5729L25.5999 21.0043C24.9396 23.3157 23.7458 24.2804 22.2472 24.2804ZM10.6922 8C11.6321 8 12.4193 8.7365 12.4193 9.70131C12.4193 10.6668 11.6321 11.4034 10.6922 11.4034C9.7524 11.4034 8.96515 10.6668 8.96515 9.70131C8.96515 8.7365 9.7524 8 10.6922 8Z" fill="white"/>
</g>
<defs>
<clipPath id="clip0_1279_13468">
<rect width="32" height="32" fill="white"/>
</clipPath>
</defs>
</svg>
