<svg width="32" height="33" viewBox="0 0 32 33" fill="none" xmlns="http://www.w3.org/2000/svg">
<g clip-path="url(#clip0_1484_33326)">
<path d="M16 32.5C24.8366 32.5 32 25.3366 32 16.5C32 7.66344 24.8366 0.5 16 0.5C7.16344 0.5 0 7.66344 0 16.5C0 25.3366 7.16344 32.5 16 32.5Z" fill="#6DA544"/>
<path d="M15.9998 6.76086L29.2172 16.5L15.9998 26.2391L2.78247 16.5L15.9998 6.76086Z" fill="#FFDA44"/>
<path d="M16 22.0652C19.0736 22.0652 21.5652 19.5736 21.5652 16.5C21.5652 13.4264 19.0736 10.9348 16 10.9348C12.9264 10.9348 10.4348 13.4264 10.4348 16.5C10.4348 19.5736 12.9264 22.0652 16 22.0652Z" fill="#F0F0F0"/>
<path d="M13.2173 16.1522C12.2496 16.1522 11.3156 16.2994 10.4365 16.5725C10.4755 19.6125 12.9507 22.0653 16 22.0653C17.8855 22.0653 19.5507 21.1267 20.5574 19.6923C18.8351 17.5362 16.185 16.1522 13.2173 16.1522Z" fill="#0052B4"/>
<path d="M21.4621 17.5663C21.5291 17.221 21.5653 16.8648 21.5653 16.5C21.5653 13.4264 19.0737 10.9348 16.0001 10.9348C13.7067 10.9348 11.738 12.3224 10.886 14.3035C11.6391 14.1474 12.4189 14.0653 13.2175 14.0653C16.4499 14.0652 19.374 15.4088 21.4621 17.5663Z" fill="#0052B4"/>
</g>
<defs>
<clipPath id="clip0_1484_33326">
<rect width="32" height="32" fill="white" transform="translate(0 0.5)"/>
</clipPath>
</defs>
</svg>
