<svg width="64" height="64" viewBox="0 0 64 64" fill="none" xmlns="http://www.w3.org/2000/svg">
<path d="M32 63.5C17.35 59.4 7 45.45 7 29.335V7.5C15.8155 7.48841 24.4602 5.06789 32 0.5C39.5396 5.06836 48.1844 7.48892 57 7.5V29.335C57 45.5 46.625 59.405 32 63.5Z" fill="#FBCC88"/>
<path d="M57 27.835V29.335C57 45.335 46.74 59.37 32 63.5C17.26 59.37 7 45.355 7 29.335V27.835C7 43.835 17.26 57.87 32 62C46.74 57.87 57 43.855 57 27.835Z" fill="#A65BC9"/>
<path d="M32 59.325C19.58 55.325 11 43.145 11 29.325V11.325C18.3591 10.7526 25.5147 8.63488 32 5.10999C38.4842 8.64073 45.6397 10.7652 53 11.345V29.345C53 43.145 44.42 55.31 32 59.325Z" fill="#DDE1E8"/>
<path d="M45.5 25.5H18.5V46.5H45.5V25.5Z" fill="#C7CDD8"/>
<path d="M41.5 22V25.5H38.5C38.5 22.055 38.89 19.7 36.595 17.405C32.53 13.34 25.5 16.205 25.5 22V25.5H22.5V22C22.5 19.4804 23.5009 17.0641 25.2825 15.2825C27.0641 13.5009 29.4804 12.5 32 12.5C34.5196 12.5 36.9359 13.5009 38.7175 15.2825C40.4991 17.0641 41.5 19.4804 41.5 22Z" fill="#C7CDD8"/>
<path d="M53 27.835V29.335C53 43.145 44.42 55.335 32 59.335C19.58 55.335 11 43.155 11 29.335V27.835C11 41.645 19.58 53.835 32 57.835C44.42 53.81 53 41.645 53 27.835Z" fill="#C7CDD8"/>
<path d="M53 11.345V12.845C45.6397 12.2652 38.4842 10.1407 32 6.60999C25.5163 10.1418 18.3605 12.2664 11 12.845V11.345C18.3605 10.7664 25.5163 8.64185 32 5.10999C38.4842 8.64073 45.6397 10.7652 53 11.345Z" fill="#C7CDD8"/>
<path d="M45.5 23.5H18.5V44.5H45.5V23.5Z" fill="#949AAF"/>
<path d="M45.5 42.5H18.5V44.5H45.5V42.5Z" fill="#8288A1"/>
<path d="M41.5 20V23.5H38.5C38.5 20.055 38.89 17.7 36.595 15.405C32.53 11.34 25.5 14.205 25.5 20V23.5H22.5V20C22.5 17.4804 23.5009 15.0641 25.2825 13.2825C27.0641 11.5009 29.4804 10.5 32 10.5C34.5196 10.5 36.9359 11.5009 38.7175 13.2825C40.4991 15.0641 41.5 17.4804 41.5 20Z" fill="#949AAF"/>
<path d="M36.8199 39.74C35.8967 40.5165 34.7997 41.0587 33.6222 41.3208C32.4446 41.5829 31.2212 41.5571 30.0558 41.2456C28.8903 40.934 27.8173 40.346 26.9276 39.5312C26.0379 38.7165 25.3578 37.6992 24.9452 36.5656C24.5325 35.4321 24.3993 34.2157 24.557 33.0196C24.7147 31.8236 25.1586 30.6833 25.851 29.6954C26.5434 28.7075 27.4638 27.9012 28.5343 27.345C29.6047 26.7887 30.7936 26.4988 31.9999 26.5C38.9999 26.5 42.1499 35.28 36.8199 39.74Z" fill="#FBCC88"/>
<path d="M36.8198 39.74C31.6498 44.115 23.6498 39.81 24.5798 32.99C24.8268 34.7851 25.7153 36.4301 27.0811 37.6209C28.447 38.8117 30.1977 39.4677 32.0098 39.4677C33.8218 39.4677 35.5726 38.8117 36.9384 37.6209C38.3042 36.4301 39.1928 34.7851 39.4398 32.99C39.6126 34.245 39.4627 35.5234 39.0043 36.7044C38.5459 37.8855 37.794 38.9302 36.8198 39.74Z" fill="#F6B756"/>
<path d="M36.8099 39.745C35.4638 40.8792 33.7602 41.5012 31.9999 41.5012C30.2397 41.5012 28.5361 40.8792 27.1899 39.745C27.7499 37.36 29.5599 35 31.9999 35C34.4399 35 36.2499 37.36 36.8099 39.745Z" fill="#A37AD7"/>
<path d="M32 35C33.3807 35 34.5 33.8807 34.5 32.5C34.5 31.1193 33.3807 30 32 30C30.6193 30 29.5 31.1193 29.5 32.5C29.5 33.8807 30.6193 35 32 35Z" fill="#A37AD7"/>
<path d="M25.5 21.5H22.5V23.5H25.5V21.5Z" fill="#8288A1"/>
<path d="M41.5 21.5H38.5V23.5H41.5V21.5Z" fill="#8288A1"/>
<path d="M36.8099 39.745C35.4638 40.8792 33.7602 41.5013 31.9999 41.5013C30.2397 41.5013 28.5361 40.8792 27.1899 39.745C27.3169 39.2007 27.5048 38.6724 27.7499 38.17C28.9977 39.0367 30.4807 39.5012 31.9999 39.5012C33.5192 39.5012 35.0021 39.0367 36.2499 38.17C36.4951 38.6724 36.683 39.2007 36.8099 39.745Z" fill="#A65BC9"/>
</svg>
