<svg width="46" height="46" viewBox="0 0 46 46" fill="none" xmlns="http://www.w3.org/2000/svg">
<path d="M45.3067 28.5638C42.2349 40.8854 29.7552 48.384 17.4321 45.3114C5.1143 42.2396 -2.38435 29.7591 0.688816 17.4386C3.75928 5.11565 16.239 -2.38357 28.5582 0.68825C40.8803 3.76007 48.3785 16.2419 45.3064 28.564L45.3066 28.5638H45.3067Z" fill="#23292F"/>
<path d="M34.309 9.58334H38.9504L29.2913 19.1471C25.7934 22.6086 20.1221 22.6086 16.6217 19.1471L6.95886 9.58334H11.604L18.9424 16.8483C21.1671 19.041 24.7403 19.041 26.965 16.8483L34.309 9.58334Z" fill="white"/>
<path d="M11.5444 36.1771H6.8999L16.6217 26.5544C20.1196 23.0929 25.7909 23.0929 29.2913 26.5544L39.0131 36.1771H34.3717L26.9707 28.8532C24.7459 26.6605 21.1728 26.6605 18.948 28.8532L11.5444 36.1771Z" fill="white"/>
</svg>
