<svg width="18" height="18" viewBox="0 0 18 18" fill="none" xmlns="http://www.w3.org/2000/svg">
<path d="M15.9374 13.8525L14.6999 14.145C14.4224 14.2125 14.2049 14.4225 14.1449 14.7L13.8824 15.8025C13.7399 16.4025 12.9749 16.59 12.5774 16.1175L10.3349 13.5375C10.1549 13.3275 10.2524 12.9975 10.5224 12.93C11.8499 12.6075 13.0424 11.865 13.9199 10.8075C14.0624 10.635 14.3174 10.6125 14.4749 10.77L16.1399 12.435C16.7099 13.005 16.5074 13.7175 15.9374 13.8525Z" fill="#9A9AAF"/>
<path d="M2.02488 13.8525L3.26238 14.145C3.53988 14.2125 3.75738 14.4225 3.81738 14.7L4.07988 15.8025C4.22238 16.4025 4.98738 16.59 5.38488 16.1175L7.62738 13.5375C7.80738 13.3275 7.70988 12.9975 7.43988 12.93C6.11238 12.6075 4.91988 11.865 4.04238 10.8075C3.89988 10.635 3.64488 10.6125 3.48738 10.77L1.82238 12.435C1.25238 13.005 1.45488 13.7175 2.02488 13.8525Z" fill="#9A9AAF"/>
<path d="M9 1.5C6.0975 1.5 3.75 3.8475 3.75 6.75C3.75 7.8375 4.0725 8.835 4.6275 9.6675C5.4375 10.8675 6.72 11.715 8.2125 11.9325C8.4675 11.9775 8.73 12 9 12C9.27 12 9.5325 11.9775 9.7875 11.9325C11.28 11.715 12.5625 10.8675 13.3725 9.6675C13.9275 8.835 14.25 7.8375 14.25 6.75C14.25 3.8475 11.9025 1.5 9 1.5ZM11.295 6.585L10.6725 7.2075C10.5675 7.3125 10.5075 7.515 10.545 7.665L10.725 8.4375C10.8675 9.045 10.545 9.285 10.005 8.9625L9.255 8.52C9.12 8.4375 8.895 8.4375 8.76 8.52L8.01 8.9625C7.47 9.2775 7.1475 9.045 7.29 8.4375L7.47 7.665C7.5 7.5225 7.4475 7.3125 7.3425 7.2075L6.705 6.585C6.3375 6.2175 6.4575 5.85 6.9675 5.7675L7.77 5.6325C7.905 5.61 8.0625 5.49 8.1225 5.37L8.565 4.485C8.805 4.005 9.195 4.005 9.435 4.485L9.8775 5.37C9.9375 5.49 10.095 5.61 10.2375 5.6325L11.04 5.7675C11.5425 5.85 11.6625 6.2175 11.295 6.585Z" fill="#9A9AAF"/>
</svg>
