<svg width="16" height="16" viewBox="0 0 16 16" fill="none" xmlns="http://www.w3.org/2000/svg">
<path d="M8.35337 13.6133H4.14004C2.03337 13.6133 1.33337 12.2133 1.33337 10.8067V5.19332C1.33337 3.08666 2.03337 2.38666 4.14004 2.38666H8.35337C10.46 2.38666 11.16 3.08666 11.16 5.19332V10.8067C11.16 12.9133 10.4534 13.6133 8.35337 13.6133Z" stroke="#9A9AAF" stroke-width="1.25" stroke-linecap="round" stroke-linejoin="round"/>
<path d="M13.0134 11.4L11.16 10.1V5.89336L13.0134 4.59336C13.92 3.96003 14.6667 4.34669 14.6667 5.46003V10.54C14.6667 11.6534 13.92 12.04 13.0134 11.4Z" stroke="#9A9AAF" stroke-width="1.25" stroke-linecap="round" stroke-linejoin="round"/>
<path d="M7.66663 7.33331C8.21891 7.33331 8.66663 6.8856 8.66663 6.33331C8.66663 5.78103 8.21891 5.33331 7.66663 5.33331C7.11434 5.33331 6.66663 5.78103 6.66663 6.33331C6.66663 6.8856 7.11434 7.33331 7.66663 7.33331Z" stroke="#9A9AAF" stroke-width="1.25" stroke-linecap="round" stroke-linejoin="round"/>
</svg>
