<svg width="20" height="20" viewBox="0 0 20 20" fill="none" xmlns="http://www.w3.org/2000/svg">
<path d="M6.03341 1.66667H4.45008C2.62508 1.66667 1.66675 2.625 1.66675 4.44167V6.025C1.66675 7.84167 2.62508 8.8 4.44175 8.8H6.02508C7.84175 8.8 8.80008 7.84167 8.80008 6.025V4.44167C8.80841 2.625 7.85008 1.66667 6.03341 1.66667Z" fill="#9A9AAF"/>
<path d="M15.5583 1.66667H13.975C12.1583 1.66667 11.2 2.625 11.2 4.44167V6.025C11.2 7.84167 12.1583 8.8 13.975 8.8H15.5583C17.375 8.8 18.3333 7.84167 18.3333 6.025V4.44167C18.3333 2.625 17.375 1.66667 15.5583 1.66667Z" fill="#9A9AAF"/>
<path d="M15.5583 11.1918H13.975C12.1583 11.1918 11.2 12.1501 11.2 13.9668V15.5501C11.2 17.3668 12.1583 18.3251 13.975 18.3251H15.5583C17.375 18.3251 18.3333 17.3668 18.3333 15.5501V13.9668C18.3333 12.1501 17.375 11.1918 15.5583 11.1918Z" fill="#9A9AAF"/>
<path d="M6.03341 11.1918H4.45008C2.62508 11.1918 1.66675 12.1501 1.66675 13.9668V15.5501C1.66675 17.3751 2.62508 18.3335 4.44175 18.3335H6.02508C7.84175 18.3335 8.80008 17.3751 8.80008 15.5585V13.9751C8.80841 12.1501 7.85008 11.1918 6.03341 11.1918Z" fill="#9A9AAF"/>
</svg>
