<svg width="22" height="22" viewBox="0 0 22 22" fill="none" xmlns="http://www.w3.org/2000/svg">
<path d="M11.6052 2.30845L11.5777 2.37262L8.91938 8.54179H6.30688C5.68354 8.54179 5.08771 8.67012 4.54688 8.89929L6.15104 5.06762L6.18771 4.97595L6.25188 4.82929C6.27021 4.77429 6.28854 4.71929 6.31604 4.67345C7.51688 1.89595 8.87354 1.26345 11.6052 2.30845Z" stroke="#8B8B93" stroke-width="1.5" stroke-linecap="round" stroke-linejoin="round"/>
<path d="M16.5456 8.72477C16.1331 8.59644 15.6931 8.54144 15.2531 8.54144H8.91895L11.5773 2.37227L11.6048 2.30811C11.7423 2.35394 11.8706 2.41811 12.0081 2.47311L14.0339 3.32561C15.1614 3.79311 15.9498 4.27894 16.4264 4.86561C16.5181 4.97561 16.5914 5.07644 16.6556 5.19561C16.7381 5.32394 16.8023 5.45227 16.8389 5.58977C16.8756 5.67227 16.9031 5.75477 16.9214 5.82811C17.1689 6.59811 17.0223 7.54227 16.5456 8.72477Z" stroke="#8B8B93" stroke-width="1.5" stroke-linecap="round" stroke-linejoin="round"/>
<path d="M19.7284 13.0153V14.8028C19.7284 14.9862 19.7192 15.1695 19.7101 15.3528C19.5359 18.552 17.7484 20.1653 14.3567 20.1653H7.20674C6.98674 20.1653 6.76674 20.147 6.5559 20.1195C3.6409 19.927 2.08257 18.3687 1.89007 15.4537C1.86257 15.2428 1.84424 15.0228 1.84424 14.8028V13.0153C1.84424 11.1728 2.96257 9.58699 4.55757 8.89949C5.10757 8.67033 5.69424 8.54199 6.31757 8.54199H15.2642C15.7134 8.54199 16.1534 8.60616 16.5567 8.72533C18.3809 9.28449 19.7284 10.9895 19.7284 13.0153Z" stroke="#8B8B93" stroke-width="1.5" stroke-linecap="round" stroke-linejoin="round"/>
<path d="M6.151 5.06738L4.54683 8.89905C2.95183 9.58655 1.8335 11.1724 1.8335 13.0149V10.329C1.8335 7.72572 3.68516 5.55322 6.151 5.06738Z" stroke="#8B8B93" stroke-width="1.5" stroke-linecap="round" stroke-linejoin="round"/>
<path d="M19.7254 10.3285V13.0144C19.7254 10.9977 18.387 9.28352 16.5537 8.73352C17.0304 7.54186 17.1679 6.60686 16.9387 5.82769C16.9204 5.74519 16.8929 5.66269 16.8562 5.58936C18.5612 6.46936 19.7254 8.27519 19.7254 10.3285Z" stroke="#8B8B93" stroke-width="1.5" stroke-linecap="round" stroke-linejoin="round"/>
</svg>
