<svg width="32" height="33" viewBox="0 0 32 33" fill="none" xmlns="http://www.w3.org/2000/svg">
<g clip-path="url(#clip0_1484_33125)">
<path d="M16.0002 32.5C24.8368 32.5 32.0002 25.3366 32.0002 16.5C32.0002 7.66344 24.8368 0.5 16.0002 0.5C7.16369 0.5 0.000244141 7.66344 0.000244141 16.5C0.000244141 25.3366 7.16369 32.5 16.0002 32.5Z" fill="#F0F0F0"/>
<path d="M15.3042 16.5H31.9998C31.9998 15.0559 31.8073 13.6569 31.4486 12.3261H15.3042V16.5Z" fill="#D80027"/>
<path d="M15.3042 8.15221H29.6515C28.672 6.55396 27.4197 5.14127 25.9596 3.97827H15.3042V8.15221Z" fill="#D80027"/>
<path d="M15.9998 32.5C19.7654 32.5 23.2264 31.1985 25.9595 29.0218H6.04004C8.77316 31.1985 12.2342 32.5 15.9998 32.5Z" fill="#D80027"/>
<path d="M2.34821 24.8478H29.6515C30.4378 23.5648 31.0476 22.1623 31.4486 20.6739H0.551025C0.952088 22.1623 1.5619 23.5648 2.34821 24.8478Z" fill="#D80027"/>
<path d="M7.41174 2.99862H8.86981L7.51356 3.98394L8.03162 5.57825L6.67543 4.59294L5.31924 5.57825L5.76674 4.20094C4.57262 5.19562 3.52599 6.361 2.66349 7.6595H3.13068L2.26737 8.28669C2.13287 8.51106 2.00387 8.739 1.88024 8.97031L2.29249 10.2391L1.52337 9.68031C1.33218 10.0854 1.15731 10.4996 1.00012 10.9224L1.45431 12.3204H3.13068L1.77443 13.3057L2.29249 14.9L0.936307 13.9147L0.123932 14.5049C0.0426191 15.1586 0.000244141 15.8243 0.000244141 16.5H16.0002C16.0002 7.6635 16.0002 6.62175 16.0002 0.5C12.8395 0.5 9.89306 1.41687 7.41174 2.99862ZM8.03162 14.9L6.67543 13.9147L5.31924 14.9L5.83731 13.3057L4.48106 12.3204H6.15743L6.67543 10.7261L7.19343 12.3204H8.86981L7.51356 13.3057L8.03162 14.9ZM7.51356 8.64481L8.03162 10.2391L6.67543 9.25381L5.31924 10.2391L5.83731 8.64481L4.48106 7.6595H6.15743L6.67543 6.06519L7.19343 7.6595H8.86981L7.51356 8.64481ZM13.7707 14.9L12.4146 13.9147L11.0584 14.9L11.5764 13.3057L10.2202 12.3204H11.8966L12.4146 10.7261L12.9326 12.3204H14.6089L13.2527 13.3057L13.7707 14.9ZM13.2527 8.64481L13.7707 10.2391L12.4146 9.25381L11.0584 10.2391L11.5764 8.64481L10.2202 7.6595H11.8966L12.4146 6.06519L12.9326 7.6595H14.6089L13.2527 8.64481ZM13.2527 3.98394L13.7707 5.57825L12.4146 4.59294L11.0584 5.57825L11.5764 3.98394L10.2202 2.99862H11.8966L12.4146 1.40431L12.9326 2.99862H14.6089L13.2527 3.98394Z" fill="#0052B4"/>
</g>
<defs>
<clipPath id="clip0_1484_33125">
<rect width="32" height="32" fill="white" transform="translate(0 0.5)"/>
</clipPath>
</defs>
</svg>
