<svg width="120" height="96" viewBox="0 0 120 96" fill="none" xmlns="http://www.w3.org/2000/svg">
<g clip-path="url(#clip0_4869_9799)">
<path d="M119.167 60.3122L60 26.1104L0.8328 60.3122L0 59.8292V60.7928L60 95.4776L120 60.7928V59.8292L119.167 60.3122Z" fill="#8891BB"/>
<path d="M60 94.5139L0 59.8291L60 25.1443L120 59.8291L60 94.5139Z" fill="#F2F5F9"/>
<path d="M75.864 79.8989L59.8656 89.2105L20.1288 65.9471L36.1248 56.6331L75.864 79.8989Z" fill="#B9CC00"/>
<path d="M69.324 36.5753L19.272 65.5073L15.8976 63.5585L65.9496 34.624L69.324 36.5753Z" fill="#3A3A3A"/>
<path d="M17.9976 64.4237L17.6592 64.6208L17.4336 64.4886L17.772 64.2939L17.9976 64.4237Z" fill="white"/>
<path d="M66.7344 36.2509L66.0576 36.6425L65.832 36.5128L66.5088 36.1211L66.7344 36.2509ZM65.3808 37.0342L64.704 37.4259L64.4784 37.2938L65.1552 36.9045L65.3808 37.0342ZM64.0272 37.8176L63.36 38.2045L63.1344 38.0747L63.8112 37.683L64.0272 37.8176ZM62.6736 38.5986L61.9968 38.9903L61.7712 38.8605L62.448 38.4688L62.6736 38.5986ZM61.32 39.382L60.6432 39.7736L60.4176 39.6415L61.0944 39.2522L61.32 39.382ZM59.9664 40.1653L59.28 40.5546L59.052 40.4249L59.7288 40.0332L59.9664 40.1653ZM58.6104 40.9463L57.9336 41.3284L57.708 41.1986L58.3848 40.8069L58.6104 40.9463ZM57.2568 41.7297L56.58 42.1214L56.3544 41.9892L57.0312 41.5999L57.2568 41.7297ZM55.9032 42.5131L55.2264 42.9023L55.0008 42.7726L55.6776 42.3809L55.9032 42.5131ZM54.5496 43.294L53.8728 43.6857L53.6472 43.556L54.324 43.1643L54.5496 43.294ZM53.196 44.0774L52.5192 44.4691L52.2936 44.3369L52.9704 43.9476L53.196 44.0774ZM51.84 44.8608L51.1632 45.2501L50.9376 45.1203L51.6144 44.7286L51.84 44.8608ZM50.4888 45.6538L49.812 46.0455L49.5864 45.9157L50.2632 45.524L50.4888 45.6538ZM49.1352 46.4372L48.4584 46.8288L48.2328 46.6967L48.9096 46.3074L49.1352 46.4372ZM47.7816 47.2205L47.1048 47.6098L46.8792 47.4801L47.556 47.0884L47.7816 47.2205ZM46.428 48.0015L45.7512 48.3932L45.5256 48.2634L46.2024 47.8717L46.428 48.0015ZM45.0744 48.7777L44.4 49.1646L44.1744 49.0324L44.8512 48.6431L45.0744 48.7777ZM43.7208 49.561L43.044 49.9503L42.8184 49.8206L43.4952 49.4289L43.7208 49.561ZM42.3672 50.342L41.6904 50.7337L41.4504 50.6039L42.1296 50.2123L42.3672 50.342ZM41.0136 51.1254L40.3368 51.5171L40.1088 51.3849L40.788 50.9956L41.0136 51.1254ZM39.6576 51.9016L38.9808 52.2908L38.7552 52.1611L39.432 51.7694L39.6576 51.9016ZM38.304 52.6825L37.6272 53.0742L37.4016 52.9445L38.0784 52.5528L38.304 52.6825ZM36.96 53.4683L36.2832 53.86L36.0576 53.7278L36.72 53.3434L36.96 53.4683ZM35.6064 54.2517L34.9296 54.641L34.704 54.5112L35.3808 54.1195L35.6064 54.2517ZM34.2432 55.0255L33.5664 55.4171L33.3408 55.2874L34.0176 54.8957L34.2432 55.0255ZM32.88 55.816L32.2032 56.2077L31.9776 56.0756L32.6544 55.6863L32.88 55.816ZM31.5264 56.5994L30.8496 56.9887L30.624 56.8589L31.3008 56.4673L31.5264 56.5994ZM30.1728 57.3804L29.496 57.7721L29.2704 57.6423L29.9472 57.2506L30.1728 57.3804ZM28.8192 58.1638L28.1424 58.5555L27.9168 58.4233L28.5936 58.034L28.8192 58.1638ZM27.4656 58.9471L26.7888 59.3364L26.5632 59.2067L27.24 58.815L27.4656 58.9471ZM26.112 59.7281L25.44 60.1198L25.2144 59.99L25.896 59.5911L26.112 59.7281ZM24.7584 60.5115L24.0816 60.9032L23.856 60.771L24.5328 60.3817L24.7584 60.5115ZM23.4048 61.2949L22.728 61.6842L22.5024 61.5544L23.1792 61.1627L23.4048 61.2949ZM22.0512 62.0758L21.384 62.4747L21.156 62.345L21.84 61.9461L22.0512 62.0758ZM20.6976 62.8592L20.0208 63.2509L19.7928 63.1187L20.4696 62.7295L20.6976 62.8592ZM19.3416 63.6426L18.6648 64.0319L18.4392 63.9021L19.116 63.5104L19.3416 63.6426Z" fill="white"/>
<path d="M67.7496 35.6647L67.4112 35.8617L67.1856 35.7296L67.524 35.5349L67.7496 35.6647Z" fill="white"/>
<path d="M58.3946 76.9613C59.5014 74.4403 55.1223 70.0743 48.6135 67.2095C42.1048 64.3447 35.9311 64.066 34.8243 66.587C33.7175 69.108 38.0966 73.474 44.6054 76.3388C51.1141 79.2036 57.2878 79.4823 58.3946 76.9613Z" fill="#00E7FF"/>
<path d="M58.9704 37.4789L31.3776 53.5814L23.8224 49.4387L51.4152 33.3362L58.9704 37.4789Z" fill="#B9CC00"/>
<path d="M99.1896 66.4757L75.5928 80.1415L57.4776 69.8423L81.0744 56.1741L99.1896 66.4757Z" fill="#B9CC00"/>
<path d="M31.6224 47.2061H30.8712V49.8493C30.8743 49.8825 30.8862 49.9142 30.9056 49.9412C30.925 49.9683 30.9512 49.9896 30.9816 50.0031C31.0639 50.0446 31.1547 50.0661 31.2468 50.0661C31.3389 50.0661 31.4297 50.0446 31.512 50.0031C31.5421 49.9892 31.5681 49.9678 31.5874 49.9408C31.6068 49.9139 31.6188 49.8823 31.6224 49.8493V47.2061Z" fill="#443D31"/>
<path d="M31.2648 47.2446C32.3517 47.2446 33.2328 46.3624 33.2328 45.2742C33.2328 44.1859 32.3517 43.3037 31.2648 43.3037C30.1779 43.3037 29.2968 44.1859 29.2968 45.2742C29.2968 46.3624 30.1779 47.2446 31.2648 47.2446Z" fill="#C6E800"/>
<path d="M36.2232 44.5605H35.472V47.2038C35.4753 47.2369 35.4873 47.2685 35.5067 47.2955C35.526 47.3225 35.5521 47.3439 35.5824 47.3576C35.6647 47.3991 35.7555 47.4206 35.8476 47.4206C35.9397 47.4206 36.0305 47.3991 36.1128 47.3576C36.1433 47.3443 36.1697 47.323 36.1891 47.296C36.2086 47.2689 36.2203 47.2371 36.2232 47.2038V44.5605Z" fill="#443D31"/>
<path d="M35.8656 44.6013C36.9525 44.6013 37.8336 43.7191 37.8336 42.6309C37.8336 41.5426 36.9525 40.6604 35.8656 40.6604C34.7787 40.6604 33.8976 41.5426 33.8976 42.6309C33.8976 43.7191 34.7787 44.6013 35.8656 44.6013Z" fill="#C6E800"/>
<path d="M45.8016 39.5261H45.0504V42.1694C45.0528 42.2028 45.0643 42.2348 45.0838 42.262C45.1033 42.2892 45.13 42.3104 45.1608 42.3232C45.2428 42.3658 45.3337 42.388 45.426 42.388C45.5183 42.388 45.6093 42.3658 45.6912 42.3232C45.7217 42.3099 45.7481 42.2886 45.7676 42.2615C45.787 42.2345 45.7988 42.2026 45.8016 42.1694V39.5261Z" fill="#443D31"/>
<path d="M45.444 39.5671C46.5309 39.5671 47.412 38.6849 47.412 37.5967C47.412 36.5084 46.5309 35.6262 45.444 35.6262C44.3571 35.6262 43.476 36.5084 43.476 37.5967C43.476 38.6849 44.3571 39.5671 45.444 39.5671Z" fill="#C6E800"/>
<path d="M81.0744 54.2469L74.4096 50.3925V34.3694L81.0744 38.2214V54.2469Z" fill="#E4E7EF"/>
<path d="M81.0744 38.2213L74.4096 34.3693L81.0744 30.5173L87.7368 34.3693L81.0744 38.2213Z" fill="#EDF1F9"/>
<path d="M79.8744 41.5328L75.6096 39.0674V36.9119L79.8744 39.3773V41.5328Z" fill="#6675FF"/>
<path d="M87.7368 50.3949L81.0744 54.2469V38.2214L87.7368 34.3694V50.3949Z" fill="#8891BB"/>
<path d="M83.8728 40.61L82.2744 41.5352V39.3773L83.8728 38.4521V40.61Z" fill="#6675FF"/>
<path d="M86.5392 39.0698L84.9384 39.9949V37.837L86.5392 36.9119V39.0698Z" fill="#6675FF"/>
<path d="M83.8728 43.8469L82.2744 44.7696V42.6141L83.8728 41.689V43.8469Z" fill="#6675FF"/>
<path d="M86.5392 42.3042L84.9384 43.2293V41.0738L86.5392 40.1487V42.3042Z" fill="#6675FF"/>
<path d="M83.8728 47.0813L82.2744 48.0064V45.8485L83.8728 44.9258V47.0813Z" fill="#6675FF"/>
<path d="M86.5392 45.5409L84.9384 46.4661V44.3082L86.5392 43.3831V45.5409Z" fill="#6675FF"/>
<path d="M83.8728 50.4718L82.2744 51.397V49.2391L83.8728 48.314V50.4718Z" fill="#6675FF"/>
<path d="M86.5392 48.9316L84.9384 49.8567V47.6988L86.5392 46.7737V48.9316Z" fill="#6675FF"/>
<path d="M79.8744 44.7696L75.6096 42.3041V40.1462L79.8744 42.6117V44.7696Z" fill="#6675FF"/>
<path d="M79.8744 48.0064L75.6096 45.5409V43.3831L79.8744 45.8485V48.0064Z" fill="#6675FF"/>
<path d="M79.8744 51.3947L75.6096 48.9292V46.7737L79.8744 49.2392V51.3947Z" fill="#6675FF"/>
<path d="M81.0744 36.5272L77.2296 34.3044V33.6172L81.0744 35.84V36.5272Z" fill="#E4E7EF"/>
<path d="M81.0744 36.5272L84.9192 34.3044V33.6172L81.0744 35.84V36.5272Z" fill="#8891BB"/>
<path d="M23.3712 58.2166L16.7064 54.3646V29.0923L23.3712 32.9443V58.2166Z" fill="#E4E7EF"/>
<path d="M23.3712 32.9445L16.7064 29.0925L23.3712 25.2405L30.0336 29.0925L23.3712 32.9445Z" fill="#EDF1F9"/>
<path d="M22.1712 36.2581L17.9064 33.7927V31.6348L22.1712 34.1002V36.2581Z" fill="#84A6F4"/>
<path d="M30.0336 54.3646L23.3712 58.2166V32.9467L30.0336 29.0947V54.3646Z" fill="#8891BB"/>
<path d="M26.1696 35.3354L24.5712 36.2605V34.1026L26.1696 33.1775V35.3354Z" fill="#84A6F4"/>
<path d="M28.836 33.7951L27.2352 34.7178V32.56L28.836 31.6372V33.7951Z" fill="#84A6F4"/>
<path d="M26.1696 38.5698L24.5712 39.4949V37.3371L26.1696 36.4143V38.5698Z" fill="#84A6F4"/>
<path d="M28.836 37.0295L27.2352 37.9546V35.7967L28.836 34.8716V37.0295Z" fill="#84A6F4"/>
<path d="M26.1696 41.8066L24.5712 42.7317V40.5738L26.1696 39.6487V41.8066Z" fill="#84A6F4"/>
<path d="M28.836 40.2663L27.2352 41.189V39.0335L28.836 38.1084V40.2663Z" fill="#84A6F4"/>
<path d="M26.1696 45.1972L24.5712 46.1199V43.9645L26.1696 43.0393V45.1972Z" fill="#84A6F4"/>
<path d="M28.836 43.6545L27.2352 44.5797V42.4218L28.836 41.499V43.6545Z" fill="#84A6F4"/>
<path d="M26.1696 48.8161L24.5712 49.7412V47.5834L26.1696 46.6582V48.8161Z" fill="#84A6F4"/>
<path d="M28.836 47.2758L27.2352 48.1986V46.0431L28.836 45.1179V47.2758Z" fill="#84A6F4"/>
<path d="M26.1696 52.5168L24.5712 53.4419V51.284L26.1696 50.3589V52.5168Z" fill="#84A6F4"/>
<path d="M28.836 50.9765L27.2352 51.8992V49.7438L28.836 48.8186V50.9765Z" fill="#84A6F4"/>
<path d="M22.1712 39.4949L17.9064 37.0295V34.8716L22.1712 37.3371V39.4949Z" fill="#84A6F4"/>
<path d="M22.1712 42.7293L17.9064 40.2638V38.106L22.1712 40.5714V42.7293Z" fill="#84A6F4"/>
<path d="M22.1712 46.1199L17.9064 43.6545V41.4966L22.1712 43.9621V46.1199Z" fill="#84A6F4"/>
<path d="M22.1712 49.7413L17.9064 47.2758V45.1179L22.1712 47.5834V49.7413Z" fill="#84A6F4"/>
<path d="M22.1712 53.442L17.9064 50.9765V48.8186L22.1712 51.2841V53.442Z" fill="#84A6F4"/>
<path d="M23.3712 31.2528L19.5264 29.03V28.3428L23.3712 30.5655V31.2528Z" fill="#E4E7EF"/>
<path d="M23.3712 31.2528L27.216 29.03V28.3428L23.3712 30.5655V31.2528Z" fill="#8891BB"/>
<path d="M23.3712 58.2166L16.7064 54.3646V29.0923L23.3712 32.9443V58.2166Z" fill="#E4E7EF"/>
<path d="M23.3712 32.9445L16.7064 29.0925L23.3712 25.2405L30.036 29.0925L23.3712 32.9445Z" fill="#EDF1F9"/>
<path d="M22.1712 36.2581L17.9064 33.7927V31.6348L22.1712 34.1002V36.2581Z" fill="#6675FF"/>
<path d="M30.036 54.3646L23.3712 58.2166V32.9467L30.036 29.0947V54.3646Z" fill="#8891BB"/>
<path d="M26.1696 35.3354L24.5712 36.2605V34.1026L26.1696 33.1775V35.3354Z" fill="#6675FF"/>
<path d="M28.836 33.7951L27.2352 34.7178V32.56L28.836 31.6372V33.7951Z" fill="#6675FF"/>
<path d="M26.1696 38.5698L24.5712 39.4949V37.3371L26.1696 36.4143V38.5698Z" fill="#6675FF"/>
<path d="M28.836 37.0295L27.2352 37.9546V35.7967L28.836 34.8716V37.0295Z" fill="#6675FF"/>
<path d="M26.1696 41.8066L24.5712 42.7317V40.5738L26.1696 39.6487V41.8066Z" fill="#6675FF"/>
<path d="M28.836 40.2663L27.2352 41.189V39.0335L28.836 38.1084V40.2663Z" fill="#6675FF"/>
<path d="M26.1696 45.1972L24.5712 46.1199V43.9645L26.1696 43.0393V45.1972Z" fill="#6675FF"/>
<path d="M28.836 43.6545L27.2352 44.5797V42.4218L28.836 41.499V43.6545Z" fill="#6675FF"/>
<path d="M26.1696 48.8161L24.5712 49.7412V47.5834L26.1696 46.6582V48.8161Z" fill="#6675FF"/>
<path d="M28.836 47.2758L27.2352 48.1986V46.0431L28.836 45.1179V47.2758Z" fill="#6675FF"/>
<path d="M26.1696 52.5168L24.5712 53.4419V51.284L26.1696 50.3589V52.5168Z" fill="#6675FF"/>
<path d="M28.836 50.9765L27.2352 51.8992V49.7438L28.836 48.8186V50.9765Z" fill="#6675FF"/>
<path d="M22.1712 39.4949L17.9064 37.0295V34.8716L22.1712 37.3371V39.4949Z" fill="#6675FF"/>
<path d="M22.1712 42.7293L17.9064 40.2638V38.106L22.1712 40.5714V42.7293Z" fill="#6675FF"/>
<path d="M22.1712 46.1199L17.9064 43.6545V41.4966L22.1712 43.9621V46.1199Z" fill="#6675FF"/>
<path d="M22.1712 49.7413L17.9064 47.2758V45.1179L22.1712 47.5834V49.7413Z" fill="#6675FF"/>
<path d="M22.1712 53.442L17.9064 50.9765V48.8186L22.1712 51.2841V53.442Z" fill="#6675FF"/>
<path d="M23.3712 31.2528L19.5264 29.03V28.3428L23.3712 30.5655V31.2528Z" fill="#E4E7EF"/>
<path d="M23.3712 31.2528L27.2184 29.03V28.3428L23.3712 30.5655V31.2528Z" fill="#8891BB"/>
<path d="M53.3376 54.4849L46.6752 50.6329V25.363L53.3376 29.215V54.4849Z" fill="#E4E7EF"/>
<path d="M53.3376 29.215L46.6728 25.363L53.3376 21.511L60.0024 25.363L53.3376 29.215Z" fill="#EDF1F9"/>
<path d="M52.14 32.5262L47.8728 30.0608V27.9053L52.14 30.3707V32.5262Z" fill="#6675FF"/>
<path d="M60.0024 50.6329L53.3376 54.4849V29.215L60.0024 25.363V50.6329Z" fill="#8891BB"/>
<path d="M56.136 31.6034L54.5376 32.5286V30.3707L56.136 29.4456V31.6034Z" fill="#6675FF"/>
<path d="M58.8024 30.0632L57.204 30.9883V28.8304L58.8024 27.9053V30.0632Z" fill="#6675FF"/>
<path d="M56.136 34.8403L54.5376 35.763V33.6075L56.136 32.6824V34.8403Z" fill="#6675FF"/>
<path d="M58.8024 33.2976L57.204 34.2227V32.0648L58.8024 31.1421V33.2976Z" fill="#6675FF"/>
<path d="M56.136 38.0749L54.5376 39.0001V36.8422L56.136 35.9194V38.0749Z" fill="#6675FF"/>
<path d="M58.8024 36.5346L57.204 37.4597V35.3019L58.8024 34.3767V36.5346Z" fill="#6675FF"/>
<path d="M56.136 41.4655L54.5376 42.3907V40.2328L56.136 39.3076V41.4655Z" fill="#6675FF"/>
<path d="M58.8024 39.925L57.204 40.8477V38.6922L58.8024 37.7671V39.925Z" fill="#6675FF"/>
<path d="M56.136 45.0844L54.5376 46.0096V43.8517L56.136 42.929V45.0844Z" fill="#6675FF"/>
<path d="M58.8024 43.5441L57.204 44.4693V42.3114L58.8024 41.3862V43.5441Z" fill="#6675FF"/>
<path d="M56.136 48.7849L54.5376 49.71V47.5521L56.136 46.6294V48.7849Z" fill="#6675FF"/>
<path d="M58.8024 47.2446L57.204 48.1697V46.0118L58.8024 45.0867V47.2446Z" fill="#6675FF"/>
<path d="M52.14 35.763L47.8728 33.2975V31.1396L52.14 33.6051V35.763Z" fill="#6675FF"/>
<path d="M52.14 39.0001L47.8728 36.5322V34.3767L52.14 36.8422V39.0001Z" fill="#6675FF"/>
<path d="M52.14 42.3881L47.8728 39.9226V37.7671L52.14 40.2302V42.3881Z" fill="#6675FF"/>
<path d="M52.14 46.0096L47.8728 43.5441V41.3862L52.14 43.8517V46.0096Z" fill="#6675FF"/>
<path d="M52.14 49.71L47.8728 47.2446V45.0867L52.14 47.5521V49.71Z" fill="#6675FF"/>
<path d="M53.3376 27.5209L49.4928 25.2981V24.6108L53.3376 26.8336V27.5209Z" fill="#E4E7EF"/>
<path d="M53.3376 27.5209L57.1848 25.2981V24.6108L53.3376 26.8336V27.5209Z" fill="#8891BB"/>
<path d="M14.7072 63.1476L8.0448 59.2956V43.27L14.7072 47.122V63.1476Z" fill="#E4E7EF"/>
<path d="M14.7072 47.122L8.0448 43.27L14.7072 39.418L21.372 43.27L14.7072 47.122Z" fill="#EDF1F9"/>
<path d="M13.5096 50.4359L9.24481 47.9704V45.8125L13.5096 48.278V50.4359Z" fill="#6675FF"/>
<path d="M21.372 59.2956L14.7072 63.1476V47.1244L21.372 43.27V59.2956Z" fill="#8891BB"/>
<path d="M17.5056 49.5107L15.9072 50.4359V48.278L17.5056 47.3552V49.5107Z" fill="#6675FF"/>
<path d="M20.172 47.9704L18.5736 48.8955V46.7377L20.172 45.8125V47.9704Z" fill="#6675FF"/>
<path d="M17.5056 52.7475L15.9072 53.6726V51.5148L17.5056 50.5896V52.7475Z" fill="#6675FF"/>
<path d="M20.172 51.2072L18.5736 52.13V49.9745L20.172 49.0493V51.2072Z" fill="#6675FF"/>
<path d="M17.5056 55.9843L15.9072 56.9071V54.7516L17.5056 53.8264V55.9843Z" fill="#6675FF"/>
<path d="M20.172 54.4416L18.5736 55.3668V53.2089L20.172 52.2861V54.4416Z" fill="#6675FF"/>
<path d="M17.5056 59.3725L15.9072 60.2977V58.1398L17.5056 57.217V59.3725Z" fill="#6675FF"/>
<path d="M20.172 57.8322L18.5736 58.7574V56.5995L20.172 55.6743V57.8322Z" fill="#6675FF"/>
<path d="M13.5096 53.6703L9.24481 51.2048V49.0493L13.5096 51.5124V53.6703Z" fill="#6675FF"/>
<path d="M13.5096 56.9071L9.24481 54.4416V52.2837L13.5096 54.7492V56.9071Z" fill="#6675FF"/>
<path d="M13.5096 60.2977L9.24481 57.8322V55.6743L13.5096 58.1398V60.2977Z" fill="#6675FF"/>
<path d="M14.7072 45.4278L10.8624 43.2051V42.5178L14.7072 44.7406V45.4278Z" fill="#E4E7EF"/>
<path d="M14.7072 45.4278L18.5544 43.2051V42.5178L14.7072 44.7406V45.4278Z" fill="#8891BB"/>
<path d="M43.8096 59.7883L37.1472 55.9363V39.9131L43.8096 43.7651V59.7883Z" fill="#E4E7EF"/>
<path d="M43.8096 43.765L37.1472 39.9106L43.8096 36.0586L50.4744 39.913L43.8096 43.765Z" fill="#EDF1F9"/>
<path d="M42.6096 47.0765L38.3448 44.6111V42.4556L42.6096 44.921V47.0765Z" fill="#6675FF"/>
<path d="M50.4744 55.9387L43.8096 59.7906V43.7651L50.4744 39.9131V55.9387Z" fill="#8891BB"/>
<path d="M46.608 46.1537L45.0096 47.0789V44.921L46.608 43.9958V46.1537Z" fill="#6675FF"/>
<path d="M49.2744 44.6135L47.676 45.5386V43.3807L49.2744 42.4556V44.6135Z" fill="#6675FF"/>
<path d="M46.608 49.3906L45.0096 50.3133V48.1578L46.608 47.2327V49.3906Z" fill="#6675FF"/>
<path d="M49.2744 47.8479L47.676 48.773V46.6151L49.2744 45.6924V47.8479Z" fill="#6675FF"/>
<path d="M46.608 52.6249L45.0096 53.5501V51.3922L46.608 50.467V52.6249Z" fill="#6675FF"/>
<path d="M49.2744 51.0846L47.676 52.0098V49.8519L49.2744 48.9268V51.0846Z" fill="#6675FF"/>
<path d="M46.608 56.0155L45.0096 56.9407V54.7828L46.608 53.8577V56.0155Z" fill="#6675FF"/>
<path d="M49.2744 54.4753L47.676 55.398V53.2425L49.2744 52.3174V54.4753Z" fill="#6675FF"/>
<path d="M42.6096 50.3133L38.3448 47.8478V45.6899L42.6096 48.1554V50.3133Z" fill="#6675FF"/>
<path d="M42.6096 53.5477L38.3448 51.0822V48.9268L42.6096 51.3922V53.5477Z" fill="#6675FF"/>
<path d="M42.6096 56.9383L38.3448 54.4728V52.3149L42.6096 54.7804V56.9383Z" fill="#6675FF"/>
<path d="M43.8096 42.0709L39.9648 39.8481V39.1609L43.8096 41.3837V42.0709Z" fill="#E4E7EF"/>
<path d="M43.8096 42.0709L47.6568 39.8481V39.1609L43.8096 41.3837V42.0709Z" fill="#8891BB"/>
<path d="M67.896 61.6795L57.4752 55.6576V6.50195L67.896 12.5263V61.6795Z" fill="#E4E7EF"/>
<path d="M66.6528 14.9605L58.7016 10.366V8.3186L66.6528 12.9131V14.9605Z" fill="#6675FF"/>
<path d="M66.6528 17.3081L58.7016 12.7112V10.6638L66.6528 15.2607V17.3081Z" fill="#6675FF"/>
<path d="M66.6528 19.6558L58.7016 15.0588V13.0115L66.6528 17.606V19.6558Z" fill="#6675FF"/>
<path d="M66.6528 22.0013L58.7016 17.4067V15.3594L66.6528 19.9539V22.0013Z" fill="#6675FF"/>
<path d="M66.6528 24.3489L58.7016 19.7543V17.7046L66.6528 22.3015V24.3489Z" fill="#6675FF"/>
<path d="M66.6528 26.6965L58.7016 22.0996V20.0522L66.6528 24.6492V26.6965Z" fill="#6675FF"/>
<path d="M66.6528 29.0444L58.7016 24.4475V22.4001L66.6528 26.9947V29.0444Z" fill="#6675FF"/>
<path d="M66.6528 31.3897L58.7016 26.7952V24.7478L66.6528 29.3423V31.3897Z" fill="#6675FF"/>
<path d="M66.6528 33.7373L58.7016 29.1428V27.093L66.6528 31.6899V33.7373Z" fill="#6675FF"/>
<path d="M66.6528 36.0852L58.7016 31.4883V29.4409L66.6528 34.0378V36.0852Z" fill="#6675FF"/>
<path d="M66.6528 38.4305L58.7016 33.8359V31.7886L66.6528 36.3831V38.4305Z" fill="#6675FF"/>
<path d="M66.6528 40.7781L58.7016 36.1835V34.1338L66.6528 38.7307V40.7781Z" fill="#6675FF"/>
<path d="M66.6528 43.126L58.7016 38.529V36.4817L66.6528 41.0786V43.126Z" fill="#6675FF"/>
<path d="M66.6528 45.4736L58.7016 40.8767V38.8293L66.6528 43.4239V45.4736Z" fill="#6675FF"/>
<path d="M66.6528 47.8189L58.7016 43.2244V41.177L66.6528 45.7715V47.8189Z" fill="#6675FF"/>
<path d="M66.6528 50.1667L58.7016 45.5722V43.5225L66.6528 48.1194V50.1667Z" fill="#6675FF"/>
<path d="M66.6528 52.5144L58.7016 47.9175V45.8701L66.6528 50.467V52.5144Z" fill="#6675FF"/>
<path d="M60.66 49.0493L60.5208 48.97V9.36865L60.66 9.45035V49.0493Z" fill="#8891BB"/>
<path d="M62.6568 50.2051L62.52 50.1234V10.5244L62.6568 10.6037V50.2051Z" fill="#8891BB"/>
<path d="M64.656 51.3586L64.5168 51.2793V11.678L64.656 11.7597V51.3586Z" fill="#8891BB"/>
<path d="M67.896 12.5262L57.4776 6.50185L67.896 0.477539L78.3168 6.50185L67.896 12.5262Z" fill="#EDF1F9"/>
<path d="M78.3168 55.6576L67.896 61.6795V12.5263L78.3168 6.50195V55.6576Z" fill="#8891BB"/>
<path d="M77.0736 10.3755L69.1224 14.9724V12.9226L77.0736 8.32812V10.3755Z" fill="#6675FF"/>
<path d="M77.0736 12.7231L69.1224 17.3177V15.2703L77.0736 10.6758V12.7231Z" fill="#6675FF"/>
<path d="M77.0736 15.071L69.1224 19.6655V17.6182L77.0736 13.0212V15.071Z" fill="#6675FF"/>
<path d="M77.0736 17.4162L69.1224 22.0132V19.9634L77.0736 15.3689V17.4162Z" fill="#6675FF"/>
<path d="M77.0736 19.7639L69.1224 24.3584V22.3111L77.0736 17.7166V19.7639Z" fill="#6675FF"/>
<path d="M77.0736 22.1118L69.1224 26.7063V24.6589L77.0736 20.062V22.1118Z" fill="#6675FF"/>
<path d="M77.0736 24.457L69.1224 29.0539V27.0066L77.0736 22.4097V24.457Z" fill="#6675FF"/>
<path d="M77.0736 26.8047L69.1224 31.4016V29.3519L77.0736 24.7573V26.8047Z" fill="#6675FF"/>
<path d="M77.0736 29.1526L69.1224 33.7471V31.6997L77.0736 27.1052V29.1526Z" fill="#6675FF"/>
<path d="M77.0736 31.5002L69.1224 36.0947V34.0474L77.0736 29.4504V31.5002Z" fill="#6675FF"/>
<path d="M77.0736 33.8454L69.1224 38.4424V36.395L77.0736 31.7981V33.8454Z" fill="#6675FF"/>
<path d="M77.0736 36.1933L69.1224 40.7879V38.7405L77.0736 34.146V36.1933Z" fill="#6675FF"/>
<path d="M77.0736 38.541L69.1224 43.1355V41.0882L77.0736 36.4937V38.541Z" fill="#6675FF"/>
<path d="M77.0736 40.8862L69.1224 45.4831V43.4358L77.0736 38.8389V40.8862Z" fill="#6675FF"/>
<path d="M77.0736 43.2341L69.1224 47.831V45.7813L77.0736 41.1868V43.2341Z" fill="#6675FF"/>
<path d="M77.0736 45.5818L69.1224 50.1763V48.129L77.0736 43.5344V45.5818Z" fill="#6675FF"/>
<path d="M77.0736 47.9294L69.1224 52.5239V50.4766L77.0736 45.8796V47.9294Z" fill="#6675FF"/>
<path d="M71.0808 51.3921L70.944 51.4738V11.8725L71.0808 11.7908V51.3921Z" fill="#8891BB"/>
<path d="M73.08 50.2388L72.9408 50.3181V10.7168L73.08 10.6375V50.2388Z" fill="#8891BB"/>
<path d="M75.0768 49.0828L74.9376 49.1645V9.56315L75.0768 9.48145V49.0828Z" fill="#8891BB"/>
<path d="M51.0456 63.9599L46.7568 61.48V56.1189L51.0456 58.5988V63.9599Z" fill="#E4E7EF"/>
<path d="M51.0432 58.6036L46.7544 56.1237L50.5464 53.8408L54.8328 56.3207L51.0432 58.6036Z" fill="#EDF1F9"/>
<path d="M57.7104 67.8095L51.0456 63.9575V47.9343L57.7104 51.7863V67.8095Z" fill="#E4E7EF"/>
<path d="M57.708 51.7863L51.0456 47.9343L57.708 44.0823L64.3728 47.9343L57.708 51.7863Z" fill="#EDF1F9"/>
<path d="M56.5104 55.0975L52.2456 52.6321V50.4766L56.5104 52.942V55.0975Z" fill="#6675FF"/>
<path d="M64.3728 63.9599L57.708 67.8119V51.7863L64.3728 47.9343V63.9599Z" fill="#8891BB"/>
<path d="M60.5088 54.175L58.908 55.1001V52.9422L60.5088 52.0171V54.175Z" fill="#6675FF"/>
<path d="M63.1728 52.6345L61.5744 53.5596V51.4017L63.1728 50.4766V52.6345Z" fill="#6675FF"/>
<path d="M60.5088 57.4118L58.908 58.3346V56.1791L60.5088 55.2539V57.4118Z" fill="#6675FF"/>
<path d="M63.1728 55.8688L61.5744 56.794V54.6361L63.1728 53.7134V55.8688Z" fill="#6675FF"/>
<path d="M60.5088 60.6462L58.908 61.5713V59.4134L60.5088 58.4883V60.6462Z" fill="#6675FF"/>
<path d="M63.1728 59.1059L61.5744 60.0311V57.8732L63.1728 56.948V59.1059Z" fill="#6675FF"/>
<path d="M60.5088 64.0368L58.908 64.9619V62.8041L60.5088 61.8789V64.0368Z" fill="#6675FF"/>
<path d="M63.1728 62.4965L61.5744 63.4193V61.2638L63.1728 60.3386V62.4965Z" fill="#6675FF"/>
<path d="M56.5104 58.3345L52.2456 55.8691V53.7112L56.5104 56.1767V58.3345Z" fill="#6675FF"/>
<path d="M56.5104 61.5714L52.2456 59.1035V56.948L56.5104 59.4135V61.5714Z" fill="#6675FF"/>
<path d="M56.5104 64.9595L52.2456 62.4941V60.3362L56.5104 62.8041V64.9595Z" fill="#6675FF"/>
<path d="M50.388 61.5714L47.4624 59.8845V57.729L50.388 59.4135V61.5714Z" fill="#6675FF"/>
<path d="M57.7104 50.0921L53.8632 47.8694V47.1821L57.7104 49.4049V50.0921Z" fill="#E4E7EF"/>
<path d="M57.7104 50.0921L61.5552 47.8694V47.1821L57.7104 49.4049V50.0921Z" fill="#8891BB"/>
<path d="M90.5376 59.7161L83.8728 55.8641V30.5942L90.5376 34.4462V59.7161Z" fill="#E4E7EF"/>
<path d="M90.5376 34.4462L83.8728 30.5942L90.5376 26.7422L97.2 30.5942L90.5376 34.4462Z" fill="#EDF1F9"/>
<path d="M89.3376 37.7601L85.0728 35.2946V33.1367L89.3376 35.6022V37.7601Z" fill="#6675FF"/>
<path d="M97.2 55.8665L90.5376 59.7185V34.4486L97.2 30.5942V55.8665Z" fill="#8891BB"/>
<path d="M93.336 36.8349L91.7352 37.7601V35.6022L93.336 34.6794V36.8349Z" fill="#6675FF"/>
<path d="M96 35.2946L94.4016 36.2198V34.0619L96 33.1367V35.2946Z" fill="#6675FF"/>
<path d="M93.336 40.0717L91.7352 40.9969V38.839L93.336 37.9138V40.0717Z" fill="#6675FF"/>
<path d="M96 38.5314L94.4016 39.4566V37.2987L96 36.3735V38.5314Z" fill="#6675FF"/>
<path d="M93.336 43.3085L91.7352 44.2313V42.0758L93.336 41.1506V43.3085Z" fill="#6675FF"/>
<path d="M96 41.7658L94.4016 42.691V40.5331L96 39.6104V41.7658Z" fill="#6675FF"/>
<path d="M93.336 46.6967L91.7352 47.6219V45.464L93.336 44.5413V46.6967Z" fill="#6675FF"/>
<path d="M96 45.1564L94.4016 46.0816V43.9237L96 42.9985V45.1564Z" fill="#6675FF"/>
<path d="M93.336 50.3181L91.7352 51.2408V49.0853L93.336 48.1602V50.3181Z" fill="#6675FF"/>
<path d="M96 48.7754L94.4016 49.7005V47.5426L96 46.6199V48.7754Z" fill="#6675FF"/>
<path d="M93.336 54.0187L91.7352 54.9415V52.786L93.336 51.8608V54.0187Z" fill="#6675FF"/>
<path d="M96 52.476L94.4016 53.4012V51.2433L96 50.3206V52.476Z" fill="#6675FF"/>
<path d="M89.3376 40.9945L85.0728 38.529V36.3735L89.3376 38.8366V40.9945Z" fill="#6675FF"/>
<path d="M89.3376 44.2313L85.0728 41.7658V39.6079L89.3376 42.0734V44.2313Z" fill="#6675FF"/>
<path d="M89.3376 47.6219L85.0728 45.1564V42.9985L89.3376 45.464V47.6219Z" fill="#6675FF"/>
<path d="M89.3376 51.2408L85.0728 48.7754V46.6199L89.3376 49.0854V51.2408Z" fill="#6675FF"/>
<path d="M89.3376 54.9415L85.0728 52.476V50.3206L89.3376 52.786V54.9415Z" fill="#6675FF"/>
<path d="M90.5376 32.7545L86.6904 30.5293V29.842L90.5376 32.0648V32.7545Z" fill="#E4E7EF"/>
<path d="M90.5376 32.7545L94.3824 30.5293V29.842L90.5376 32.0648V32.7545Z" fill="#8891BB"/>
<path d="M101.066 65.4137L94.4016 61.5617V45.5361L101.066 49.3881V65.4137Z" fill="#E4E7EF"/>
<path d="M101.066 49.3881L94.4016 45.5361L101.066 41.6841L107.729 45.5361L101.066 49.3881Z" fill="#EDF1F9"/>
<path d="M99.8664 52.7017L95.6016 50.2363V48.0784L99.8664 50.5439V52.7017Z" fill="#6675FF"/>
<path d="M107.729 61.5641L101.066 65.4161V49.3906L107.729 45.5386V61.5641Z" fill="#8891BB"/>
<path d="M103.865 51.779L102.266 52.7041V50.5462L103.865 49.6211V51.779Z" fill="#6675FF"/>
<path d="M106.531 50.2387L104.93 51.1614V49.006L106.531 48.0808V50.2387Z" fill="#6675FF"/>
<path d="M103.865 55.0134L102.266 55.9386V53.7807L103.865 52.8579V55.0134Z" fill="#6675FF"/>
<path d="M106.531 53.4731L104.93 54.3982V52.2403L106.531 51.3152V53.4731Z" fill="#6675FF"/>
<path d="M103.865 58.2504L102.266 59.1756V57.0177L103.865 56.0925V58.2504Z" fill="#6675FF"/>
<path d="M106.531 56.7101L104.93 57.6329V55.4774L106.531 54.5522V56.7101Z" fill="#6675FF"/>
<path d="M103.865 61.6411L102.266 62.5638V60.4083L103.865 59.4832V61.6411Z" fill="#6675FF"/>
<path d="M106.531 60.0981L104.93 61.0233V58.8654L106.531 57.9426V60.0981Z" fill="#6675FF"/>
<path d="M99.8664 55.9386L95.6016 53.4731V51.3152L99.8664 53.7807V55.9386Z" fill="#6675FF"/>
<path d="M99.8664 59.1732L95.6016 56.7077V54.5522L99.8664 57.0153V59.1732Z" fill="#6675FF"/>
<path d="M99.8664 62.5638L95.6016 60.0983V57.9404L99.8664 60.4059V62.5638Z" fill="#6675FF"/>
<path d="M101.066 47.6964L97.2192 45.4736V44.7864L101.066 47.0091V47.6964Z" fill="#E4E7EF"/>
<path d="M101.066 47.6964L104.911 45.4736V44.7864L101.066 47.0091V47.6964Z" fill="#8891BB"/>
<path d="M82.6728 56.9744H81.9216V59.6177C81.9247 59.6508 81.9366 59.6825 81.956 59.7095C81.9754 59.7366 82.0016 59.7579 82.032 59.7714C82.1143 59.8129 82.2051 59.8344 82.2972 59.8344C82.3893 59.8344 82.4801 59.8129 82.5624 59.7714C82.5928 59.7579 82.6191 59.7366 82.6385 59.7095C82.6579 59.6825 82.6697 59.6508 82.6728 59.6177V56.9744Z" fill="#443D31"/>
<path d="M82.3152 57.0127C83.4021 57.0127 84.2832 56.1305 84.2832 55.0422C84.2832 53.954 83.4021 53.0718 82.3152 53.0718C81.2283 53.0718 80.3472 53.954 80.3472 55.0422C80.3472 56.1305 81.2283 57.0127 82.3152 57.0127Z" fill="#C6E800"/>
<path d="M78.1176 59.6104H77.3664V62.2536C77.3692 62.2866 77.3809 62.3181 77.4004 62.3448C77.4199 62.3715 77.4463 62.3924 77.4768 62.405C77.5587 62.4476 77.6497 62.4698 77.742 62.4698C77.8343 62.4698 77.9253 62.4476 78.0072 62.405C78.0377 62.3924 78.0641 62.3715 78.0836 62.3448C78.1031 62.3181 78.1148 62.2866 78.1176 62.2536V59.6104Z" fill="#443D31"/>
<path d="M77.76 59.6514C78.8469 59.6514 79.728 58.7692 79.728 57.6809C79.728 56.5927 78.8469 55.7104 77.76 55.7104C76.6731 55.7104 75.792 56.5927 75.792 57.6809C75.792 58.7692 76.6731 59.6514 77.76 59.6514Z" fill="#C6E800"/>
<path d="M73.2432 62.4004H72.492V65.0437C72.4951 65.0768 72.507 65.1085 72.5264 65.1356C72.5458 65.1626 72.572 65.184 72.6024 65.1975C72.6847 65.2389 72.7755 65.2605 72.8676 65.2605C72.9597 65.2605 73.0505 65.2389 73.1328 65.1975C73.1632 65.184 73.1894 65.1626 73.2088 65.1356C73.2282 65.1085 73.2401 65.0768 73.2432 65.0437V62.4004Z" fill="#443D31"/>
<path d="M72.8856 62.4387C73.9725 62.4387 74.8536 61.5565 74.8536 60.4683C74.8536 59.38 73.9725 58.4978 72.8856 58.4978C71.7987 58.4978 70.9176 59.38 70.9176 60.4683C70.9176 61.5565 71.7987 62.4387 72.8856 62.4387Z" fill="#C6E800"/>
<path d="M68.4336 65.3584H67.68V68.0017C67.6831 68.0348 67.695 68.0665 67.7144 68.0936C67.7338 68.1206 67.76 68.142 67.7904 68.1555C67.8727 68.1969 67.9635 68.2185 68.0556 68.2185C68.1477 68.2185 68.2385 68.1969 68.3208 68.1555C68.3512 68.142 68.3774 68.1206 68.3968 68.0936C68.4162 68.0665 68.4281 68.0348 68.4312 68.0017L68.4336 65.3584Z" fill="#443D31"/>
<path d="M68.076 65.3945C69.1629 65.3945 70.044 64.5123 70.044 63.4241C70.044 62.3358 69.1629 61.4536 68.076 61.4536C66.9891 61.4536 66.108 62.3358 66.108 63.4241C66.108 64.5123 66.9891 65.3945 68.076 65.3945Z" fill="#C6E800"/>
<path d="M36.3288 58.4641H35.5776V61.1074C35.5807 61.1405 35.5925 61.1723 35.6119 61.1993C35.6314 61.2263 35.6576 61.2477 35.688 61.2612C35.7703 61.3026 35.8611 61.3242 35.9532 61.3242C36.0453 61.3242 36.1361 61.3026 36.2184 61.2612C36.2488 61.2477 36.275 61.2263 36.2944 61.1993C36.3138 61.1723 36.3257 61.1405 36.3288 61.1074V58.4641Z" fill="#443D31"/>
<path d="M35.9712 58.5027C37.0581 58.5027 37.9392 57.6205 37.9392 56.5322C37.9392 55.444 37.0581 54.5618 35.9712 54.5618C34.8843 54.5618 34.0032 55.444 34.0032 56.5322C34.0032 57.6205 34.8843 58.5027 35.9712 58.5027Z" fill="#C6E800"/>
<path d="M31.7736 61.1003H31.0224V63.7436C31.0247 63.777 31.0363 63.809 31.0558 63.8362C31.0753 63.8634 31.102 63.8846 31.1328 63.8974C31.2147 63.94 31.3057 63.9622 31.398 63.9622C31.4903 63.9622 31.5813 63.94 31.6632 63.8974C31.694 63.8846 31.7207 63.8634 31.7402 63.8362C31.7597 63.809 31.7713 63.777 31.7736 63.7436V61.1003Z" fill="#443D31"/>
<path d="M31.416 61.1411C32.5029 61.1411 33.384 60.2589 33.384 59.1707C33.384 58.0824 32.5029 57.2002 31.416 57.2002C30.3291 57.2002 29.448 58.0824 29.448 59.1707C29.448 60.2589 30.3291 61.1411 31.416 61.1411Z" fill="#C6E800"/>
<path d="M26.8992 63.9165H26.16V66.5598C26.1627 66.5927 26.1745 66.6243 26.194 66.651C26.2134 66.6777 26.2399 66.6985 26.2704 66.7112C26.3523 66.7537 26.4433 66.776 26.5356 66.776C26.6279 66.776 26.7188 66.7537 26.8008 66.7112C26.8313 66.6985 26.8577 66.6777 26.8772 66.651C26.8966 66.6243 26.9084 66.5927 26.9112 66.5598L26.8992 63.9165Z" fill="#443D31"/>
<path d="M26.5416 63.9622C27.6285 63.9622 28.5096 63.08 28.5096 61.9917C28.5096 60.9034 27.6285 60.0212 26.5416 60.0212C25.4547 60.0212 24.5736 60.9034 24.5736 61.9917C24.5736 63.08 25.4547 63.9622 26.5416 63.9622Z" fill="#C6E800"/>
<path d="M86.8032 60.0237H86.052V62.667C86.0549 62.7002 86.0666 62.732 86.0861 62.7591C86.1055 62.7862 86.1319 62.8075 86.1624 62.8208C86.2443 62.8633 86.3353 62.8855 86.4276 62.8855C86.5199 62.8855 86.6109 62.8633 86.6928 62.8208C86.7237 62.8079 86.7503 62.7867 86.7698 62.7596C86.7893 62.7324 86.8009 62.7003 86.8032 62.667V60.0237Z" fill="#443D31"/>
<path d="M86.4456 60.0647C87.5325 60.0647 88.4136 59.1825 88.4136 58.0942C88.4136 57.006 87.5325 56.1238 86.4456 56.1238C85.3587 56.1238 84.4776 57.006 84.4776 58.0942C84.4776 59.1825 85.3587 60.0647 86.4456 60.0647Z" fill="#C6E800"/>
<path d="M82.248 62.6624H81.4968V65.3056C81.5004 65.3386 81.5125 65.3701 81.5318 65.3971C81.5511 65.4241 81.5771 65.4455 81.6072 65.4594C81.6895 65.5009 81.7803 65.5224 81.8724 65.5224C81.9645 65.5224 82.0553 65.5009 82.1376 65.4594C82.168 65.4459 82.1942 65.4246 82.2137 65.3975C82.2331 65.3705 82.2449 65.3388 82.248 65.3056V62.6624Z" fill="#443D31"/>
<path d="M81.8904 62.7007C82.9773 62.7007 83.8584 61.8185 83.8584 60.7302C83.8584 59.642 82.9773 58.7598 81.8904 58.7598C80.8035 58.7598 79.9224 59.642 79.9224 60.7302C79.9224 61.8185 80.8035 62.7007 81.8904 62.7007Z" fill="#C6E800"/>
<path d="M77.6136 65.4834H76.8648V68.1267C76.8679 68.1595 76.8795 68.191 76.8985 68.2179C76.9174 68.2449 76.943 68.2665 76.9728 68.2805C77.0555 68.3219 77.1467 68.3435 77.2392 68.3435C77.3317 68.3435 77.4229 68.3219 77.5056 68.2805C77.5354 68.2665 77.561 68.2449 77.58 68.2179C77.5989 68.191 77.6105 68.1595 77.6136 68.1267V65.4834Z" fill="#443D31"/>
<path d="M77.2584 65.5217C78.3453 65.5217 79.2264 64.6395 79.2264 63.5513C79.2264 62.463 78.3453 61.5808 77.2584 61.5808C76.1715 61.5808 75.2904 62.463 75.2904 63.5513C75.2904 64.6395 76.1715 65.5217 77.2584 65.5217Z" fill="#C6E800"/>
<path d="M73.224 68.0017H72.48V70.645C72.4836 70.678 72.4956 70.7095 72.515 70.7365C72.5343 70.7634 72.5603 70.7849 72.5904 70.7988C72.6731 70.8402 72.7643 70.8618 72.8568 70.8618C72.9493 70.8618 73.0405 70.8402 73.1232 70.7988C73.153 70.7848 73.1786 70.7632 73.1975 70.7362C73.2165 70.7093 73.2281 70.6778 73.2312 70.645L73.224 68.0017Z" fill="#443D31"/>
<path d="M72.8688 68.033C73.9557 68.033 74.8368 67.1507 74.8368 66.0625C74.8368 64.9742 73.9557 64.092 72.8688 64.092C71.7819 64.092 70.9008 64.9742 70.9008 66.0625C70.9008 67.1507 71.7819 68.033 72.8688 68.033Z" fill="#C6E800"/>
<path d="M68.2728 70.8853H67.5216V73.5285C67.5247 73.5617 67.5366 73.5934 67.556 73.6204C67.5754 73.6475 67.6016 73.6688 67.632 73.6823C67.7143 73.7238 67.8051 73.7453 67.8972 73.7453C67.9893 73.7453 68.0801 73.7238 68.1624 73.6823C68.1928 73.6688 68.219 73.6475 68.2384 73.6204C68.2578 73.5934 68.2697 73.5617 68.2728 73.5285V70.8853Z" fill="#443D31"/>
<path d="M67.9152 70.9189C69.0021 70.9189 69.8832 70.0367 69.8832 68.9485C69.8832 67.8602 69.0021 66.978 67.9152 66.978C66.8283 66.978 65.9472 67.8602 65.9472 68.9485C65.9472 70.0367 66.8283 70.9189 67.9152 70.9189Z" fill="#C6E800"/>
<path d="M68.2728 76.6526H67.5216V79.2959C67.5239 79.3293 67.5355 79.3613 67.555 79.3885C67.5745 79.4156 67.6012 79.4368 67.632 79.4497C67.7139 79.4922 67.8049 79.5144 67.8972 79.5144C67.9895 79.5144 68.0805 79.4922 68.1624 79.4497C68.1932 79.4368 68.2199 79.4156 68.2394 79.3885C68.2589 79.3613 68.2705 79.3293 68.2728 79.2959V76.6526Z" fill="#443D31"/>
<path d="M67.9152 76.6909C69.0021 76.6909 69.8832 75.8087 69.8832 74.7205C69.8832 73.6322 69.0021 72.75 67.9152 72.75C66.8283 72.75 65.9472 73.6322 65.9472 74.7205C65.9472 75.8087 66.8283 76.6909 67.9152 76.6909Z" fill="#C6E800"/>
<path d="M63.7176 79.2957H62.9664V81.9389C62.9695 81.9721 62.9813 82.0038 63.0007 82.0308C63.0201 82.0579 63.0464 82.0792 63.0768 82.0927C63.1591 82.1342 63.2499 82.1557 63.342 82.1557C63.4341 82.1557 63.5249 82.1342 63.6072 82.0927C63.6376 82.0792 63.6638 82.0579 63.6832 82.0308C63.7026 82.0038 63.7145 81.9721 63.7176 81.9389V79.2957Z" fill="#443D31"/>
<path d="M63.36 79.3271C64.4469 79.3271 65.328 78.4449 65.328 77.3567C65.328 76.2684 64.4469 75.3862 63.36 75.3862C62.2731 75.3862 61.392 76.2684 61.392 77.3567C61.392 78.4449 62.2731 79.3271 63.36 79.3271Z" fill="#C6E800"/>
<path d="M58.8432 82.1096H58.092V84.7529C58.0951 84.7861 58.1069 84.8178 58.1264 84.8448C58.1458 84.8718 58.172 84.8932 58.2024 84.9067C58.2847 84.9481 58.3755 84.9697 58.4676 84.9697C58.5597 84.9697 58.6505 84.9481 58.7328 84.9067C58.7632 84.8932 58.7894 84.8718 58.8088 84.8448C58.8282 84.8178 58.8401 84.7861 58.8432 84.7529V82.1096Z" fill="#443D31"/>
<path d="M58.4856 82.1482C59.5725 82.1482 60.4536 81.266 60.4536 80.1777C60.4536 79.0895 59.5725 78.2073 58.4856 78.2073C57.3987 78.2073 56.5176 79.0895 56.5176 80.1777C56.5176 81.266 57.3987 82.1482 58.4856 82.1482Z" fill="#C6E800"/>
<path d="M82.6728 68.2419H81.9216V70.8852C81.9247 70.9184 81.9366 70.9501 81.956 70.9771C81.9754 71.0042 82.0016 71.0255 82.032 71.039C82.1143 71.0805 82.2051 71.102 82.2972 71.102C82.3893 71.102 82.4801 71.0805 82.5624 71.039C82.5928 71.0255 82.6191 71.0042 82.6385 70.9771C82.6579 70.9501 82.6697 70.9184 82.6728 70.8852V68.2419Z" fill="#443D31"/>
<path d="M82.3152 68.2805C83.4021 68.2805 84.2832 67.3983 84.2832 66.31C84.2832 65.2218 83.4021 64.3396 82.3152 64.3396C81.2283 64.3396 80.3472 65.2218 80.3472 66.31C80.3472 67.3983 81.2283 68.2805 82.3152 68.2805Z" fill="#C6E800"/>
<path d="M78.1176 70.8853H77.3664V73.5285C77.3695 73.5617 77.3814 73.5934 77.4008 73.6204C77.4202 73.6475 77.4464 73.6688 77.4768 73.6823C77.5591 73.7238 77.6499 73.7453 77.742 73.7453C77.8341 73.7453 77.9249 73.7238 78.0072 73.6823C78.0376 73.6688 78.0638 73.6475 78.0832 73.6204C78.1026 73.5934 78.1145 73.5617 78.1176 73.5285V70.8853Z" fill="#443D31"/>
<path d="M77.76 70.9189C78.8469 70.9189 79.728 70.0367 79.728 68.9485C79.728 67.8602 78.8469 66.978 77.76 66.978C76.6731 66.978 75.792 67.8602 75.792 68.9485C75.792 70.0367 76.6731 70.9189 77.76 70.9189Z" fill="#C6E800"/>
<path d="M73.2432 73.7017H72.492V76.345C72.4951 76.3781 72.507 76.4098 72.5264 76.4368C72.5458 76.4639 72.572 76.4852 72.6024 76.4987C72.6847 76.5402 72.7755 76.5617 72.8676 76.5617C72.9597 76.5617 73.0505 76.5402 73.1328 76.4987C73.1632 76.4852 73.1894 76.4639 73.2088 76.4368C73.2282 76.4098 73.2401 76.3781 73.2432 76.345V73.7017Z" fill="#443D31"/>
<path d="M72.8856 73.74C73.9725 73.74 74.8536 72.8578 74.8536 71.7695C74.8536 70.6813 73.9725 69.7991 72.8856 69.7991C71.7987 69.7991 70.9176 70.6813 70.9176 71.7695C70.9176 72.8578 71.7987 73.74 72.8856 73.74Z" fill="#C6E800"/>
<path d="M91.7616 62.9553H91.0104V65.5986C91.0131 65.6316 91.0249 65.6631 91.0444 65.6898C91.0638 65.7165 91.0903 65.7373 91.1208 65.75C91.2027 65.7926 91.2937 65.8148 91.386 65.8148C91.4783 65.8148 91.5692 65.7926 91.6512 65.75C91.6817 65.7373 91.7081 65.7165 91.7276 65.6898C91.7471 65.6631 91.7588 65.6316 91.7616 65.5986V62.9553Z" fill="#443D31"/>
<path d="M91.404 63.0034C92.4909 63.0034 93.372 62.1212 93.372 61.033C93.372 59.9447 92.4909 59.0625 91.404 59.0625C90.3171 59.0625 89.436 59.9447 89.436 61.033C89.436 62.1212 90.3171 63.0034 91.404 63.0034Z" fill="#C6E800"/>
<path d="M87.2064 65.5986H86.4552V68.2419C86.4583 68.2751 86.4702 68.3068 86.4896 68.3338C86.509 68.3608 86.5352 68.3822 86.5656 68.3957C86.6479 68.4371 86.7387 68.4587 86.8308 68.4587C86.9229 68.4587 87.0137 68.4371 87.096 68.3957C87.1264 68.3822 87.1526 68.3608 87.172 68.3338C87.1914 68.3068 87.2033 68.2751 87.2064 68.2419V65.5986Z" fill="#443D31"/>
<path d="M86.8488 65.6396C87.9357 65.6396 88.8168 64.7574 88.8168 63.6692C88.8168 62.5809 87.9357 61.6987 86.8488 61.6987C85.7619 61.6987 84.8808 62.5809 84.8808 63.6692C84.8808 64.7574 85.7619 65.6396 86.8488 65.6396Z" fill="#C6E800"/>
</g>
<defs>
<clipPath id="clip0_4869_9799">
<rect width="120" height="95" fill="white" transform="translate(0 0.477539)"/>
</clipPath>
</defs>
</svg>
