<svg width="33" height="30" viewBox="0 0 33 30" fill="none" xmlns="http://www.w3.org/2000/svg">
<g clip-path="url(#clip0_5897_1645)">
<path fill-rule="evenodd" clip-rule="evenodd" d="M7.08943 2.62204C5.26356 2.62204 3.91249 4.22017 3.97299 5.95329C4.03106 7.61835 3.95562 9.77485 3.41274 11.5335C2.86793 13.297 1.94718 14.4146 0.442932 14.558V16.1775C1.94718 16.3213 2.86793 17.4383 3.41268 19.2021C3.95562 20.9607 4.03099 23.1172 3.97293 24.7823C3.91243 26.5152 5.26349 28.1135 7.08968 28.1135H25.7989C27.6247 28.1135 28.9756 26.5154 28.9151 24.7823C28.857 23.1172 28.9324 20.9607 29.4753 19.2021C30.0201 17.4383 30.9386 16.3209 32.4429 16.1775V14.558C30.9387 14.4143 30.0202 13.2973 29.4753 11.5335C28.9324 9.7751 28.857 7.61835 28.9151 5.95329C28.9756 4.22041 27.6247 2.62204 25.7989 2.62204H7.08918H7.08943ZM22.1379 18.3137C22.1379 20.7002 20.3578 22.1475 17.4037 22.1475H12.3751C12.2313 22.1475 12.0933 22.0903 11.9916 21.9886C11.8899 21.8869 11.8327 21.749 11.8327 21.6051V9.13054C11.8327 8.98669 11.8899 8.84874 11.9916 8.74702C12.0933 8.64531 12.2313 8.58817 12.3751 8.58817H17.3751C19.8383 8.58817 21.4549 9.92242 21.4549 11.9709C21.4549 13.4087 20.3674 14.6959 18.9819 14.9214V14.9964C20.8679 15.2033 22.1379 16.5095 22.1379 18.3137ZM16.8554 10.3075H13.9882V14.3575H16.4031C18.27 14.3575 19.2994 13.6057 19.2994 12.262C19.2992 11.0028 18.4142 10.3075 16.8554 10.3075ZM13.9882 15.9644V20.4276H16.9609C18.9047 20.4276 19.9342 19.6477 19.9342 18.1819C19.9342 16.7162 18.8758 15.9642 16.8359 15.9642H13.9882V15.9644Z" fill="#7952B3"/>
</g>
<defs>
<clipPath id="clip0_5897_1645">
<rect width="32" height="29" fill="white" transform="translate(0.442932 0.867798)"/>
</clipPath>
</defs>
</svg>
