<svg width="46" height="46" viewBox="0 0 46 46" fill="none" xmlns="http://www.w3.org/2000/svg">
<path d="M45.3067 28.5638C42.2349 40.8854 29.7552 48.384 17.4321 45.3114C5.1143 42.2396 -2.38435 29.7591 0.688816 17.4385C3.75928 5.11564 16.239 -2.38358 28.5582 0.688239C40.8803 3.76005 48.3785 16.2419 45.3064 28.564L45.3066 28.5638H45.3067Z" fill="#50AF95"/>
<path fill-rule="evenodd" clip-rule="evenodd" d="M25.9105 25.6075C25.7479 25.6197 24.9076 25.6699 23.0333 25.6699C21.5425 25.6699 20.484 25.6252 20.1127 25.6075C14.3515 25.3541 10.0513 24.3512 10.0513 23.1505C10.0513 21.9497 14.3515 20.9482 20.1127 20.6907V24.6087C20.4895 24.6358 21.5682 24.6995 23.059 24.6995C24.848 24.6995 25.7438 24.625 25.9051 24.6101V20.6934C31.6541 20.9495 35.9448 21.9524 35.9448 23.1505C35.9448 24.3485 31.6554 25.3514 25.9051 25.6062L25.9105 25.6075ZM25.9103 20.2881V16.7821H33.9335V11.4356H12.0894V16.7821H20.1112V20.2868C13.5911 20.5863 8.68774 21.8778 8.68774 23.4255C8.68774 24.9733 13.5911 26.2635 20.1112 26.5643V37.7994H25.909V26.5603C32.4142 26.2607 37.3094 24.9705 37.3094 23.4242C37.3094 21.8778 32.4183 20.5876 25.909 20.2868L25.9103 20.2881Z" fill="white"/>
</svg>
