<svg width="22" height="22" viewBox="0 0 22 22" fill="none" xmlns="http://www.w3.org/2000/svg">
<path d="M20.1666 11.9167V8.25001C20.1666 3.66668 18.3333 1.83334 13.75 1.83334H8.24998C3.66665 1.83334 1.83331 3.66668 1.83331 8.25001V13.75C1.83331 18.3333 3.66665 20.1667 8.24998 20.1667H11.9166" stroke="#7E7E8F" stroke-width="1.5" stroke-linecap="round" stroke-linejoin="round"/>
<path d="M20.1666 11.9167V8.25001C20.1666 3.66668 18.3333 1.83334 13.75 1.83334H8.24998C3.66665 1.83334 1.83331 3.66668 1.83331 8.25001V13.75C1.83331 18.3333 3.66665 20.1667 8.24998 20.1667H11.9166" stroke="#7E7E8F" stroke-width="1.5" stroke-linecap="round" stroke-linejoin="round"/>
<path d="M20.1666 11.9167V8.25001C20.1666 3.66668 18.3333 1.83334 13.75 1.83334H8.24998C3.66665 1.83334 1.83331 3.66668 1.83331 8.25001V13.75C1.83331 18.3333 3.66665 20.1667 8.24998 20.1667H11.9166" stroke="#7E7E8F" stroke-width="1.5" stroke-linecap="round" stroke-linejoin="round"/>
<path d="M14.6667 17.8108L16.115 19.25L19.25 15.5833" stroke="#7E7E8F" stroke-width="1.5" stroke-linecap="round" stroke-linejoin="round"/>
<path d="M6.41669 9.625V12.375" stroke="#7E7E8F" stroke-width="1.5" stroke-linecap="round" stroke-linejoin="round"/>
<path d="M11 9.625V12.375" stroke="#7E7E8F" stroke-width="1.5" stroke-linecap="round" stroke-linejoin="round"/>
<path d="M15.5833 9.625V12.375" stroke="#7E7E8F" stroke-width="1.5" stroke-linecap="round" stroke-linejoin="round"/>
</svg>
