<svg width="16" height="16" viewBox="0 0 16 16" fill="none" xmlns="http://www.w3.org/2000/svg">
<path d="M12.6667 10.6667V4.33333C12.6667 3.6 12.0667 3 11.3334 3H7.66675" stroke="#7E7E8F" stroke-width="1.5" stroke-linecap="round" stroke-linejoin="round"/>
<path d="M9.33325 1.33334L7.33325 3L9.33325 4.66667" stroke="#7E7E8F" stroke-width="1.5" stroke-linecap="round" stroke-linejoin="round"/>
<path d="M12.6667 14.6667C13.7713 14.6667 14.6667 13.7712 14.6667 12.6667C14.6667 11.5621 13.7713 10.6667 12.6667 10.6667C11.5622 10.6667 10.6667 11.5621 10.6667 12.6667C10.6667 13.7712 11.5622 14.6667 12.6667 14.6667Z" stroke="#7E7E8F" stroke-width="1.5" stroke-linecap="round" stroke-linejoin="round"/>
<path d="M3.33325 5.33334V11.6667C3.33325 12.4 3.93325 13 4.66659 13H8.33325" stroke="#7E7E8F" stroke-width="1.5" stroke-linecap="round" stroke-linejoin="round"/>
<path d="M6.66675 14.6667L8.66675 13L6.66675 11.3333" stroke="#7E7E8F" stroke-width="1.5" stroke-linecap="round" stroke-linejoin="round"/>
<path d="M3.33325 5.33334C4.43782 5.33334 5.33325 4.43791 5.33325 3.33334C5.33325 2.22877 4.43782 1.33334 3.33325 1.33334C2.22868 1.33334 1.33325 2.22877 1.33325 3.33334C1.33325 4.43791 2.22868 5.33334 3.33325 5.33334Z" stroke="#7E7E8F" stroke-width="1.5" stroke-linecap="round" stroke-linejoin="round"/>
</svg>
