<svg width="113" height="30" viewBox="0 0 113 30" fill="none" xmlns="http://www.w3.org/2000/svg">
<g clip-path="url(#clip0_1105_1569)">
<path d="M6.12698e-06 10.0139V4.01084C-0.00080264 3.70816 0.0784671 3.40927 0.231848 3.13667C0.385228 2.86406 0.608723 2.62485 0.885506 2.43704C1.1602 2.2478 1.48169 2.1149 1.82543 2.04849C2.16917 1.98208 2.52605 1.98391 2.86884 2.05385C3.96057 2.30448 4.96754 2.77333 5.80727 3.422C6.64701 4.07066 7.29563 4.88069 7.7 5.78574C9.7537 5.30049 11.8702 5.03764 14 5.00334C16.1298 5.03764 18.2463 5.30049 20.3 5.78574C20.7046 4.88031 21.3538 4.07002 22.1942 3.42132C23.0345 2.77262 24.0423 2.30399 25.1347 2.05385C25.4776 1.98596 25.834 1.9853 26.1772 2.05193C26.5205 2.11855 26.8418 2.25075 27.1172 2.43866C27.3926 2.62657 27.615 2.86535 27.7679 3.13721C27.9207 3.40908 28.0001 3.70702 28 4.00884V10.0119C26.0758 10.0524 24.1812 10.4268 22.4303 11.1124C20.1881 11.9316 18.291 13.3185 16.9929 15.0876C15.6949 16.8566 15.0577 18.9234 15.1667 21.0115C15.1667 21.2768 15.0438 21.5313 14.825 21.7189C14.6062 21.9065 14.3094 22.012 14 22.012C13.6906 22.012 13.3938 21.9065 13.175 21.7189C12.9563 21.5313 12.8333 21.2768 12.8333 21.0115C12.9433 18.9225 12.3066 16.8545 11.0085 15.0844C9.71037 13.3143 7.81279 11.9264 5.56967 11.1064C3.81797 10.424 1.92346 10.0524 6.12698e-06 10.0139ZM23.3333 13.0074C23.1249 13.8449 22.591 14.5969 21.819 15.1402C21.0471 15.6835 20.0829 15.9859 19.0843 15.9979C17.9894 17.4978 17.438 19.2426 17.5 21.0115C17.5 21.8075 17.1313 22.571 16.4749 23.1338C15.8185 23.6967 14.9283 24.013 14 24.013C13.0717 24.013 12.1815 23.6967 11.5251 23.1338C10.8688 22.571 10.5 21.8075 10.5 21.0115C10.562 19.2426 10.0106 17.4978 8.91567 15.9979C7.91714 15.9859 6.95294 15.6835 6.181 15.1402C5.40905 14.5969 4.87513 13.8449 4.66667 13.0074C3.2064 12.4072 1.61815 12.0701 6.12698e-06 12.0169C0.0366995 14.8843 1.38588 17.6245 3.75667 19.6468L9.18984 24.3061C10.47 25.3914 12.1976 26 13.9977 26C15.7978 26 17.5253 25.3914 18.8055 24.3061L24.2387 19.6468C26.6112 17.6252 27.9621 14.8849 28 12.0169C26.3819 12.0701 24.7936 12.4072 23.3333 13.0074Z" fill="url(#paint0_linear_1105_1569)"/>
</g>
<path d="M43 7.436V9.47H37.762V12.692H41.776V14.69H37.762V20H35.242V7.436H43ZM47.3069 11.576C47.6309 11.048 48.0509 10.634 48.5669 10.334C49.0949 10.034 49.6949 9.884 50.3669 9.884V12.53H49.7009C48.9089 12.53 48.3089 12.716 47.9009 13.088C47.5049 13.46 47.3069 14.108 47.3069 15.032V20H44.7869V10.028H47.3069V11.576ZM56.4923 20.162C55.5323 20.162 54.6683 19.952 53.9003 19.532C53.1323 19.1 52.5263 18.494 52.0823 17.714C51.6503 16.934 51.4343 16.034 51.4343 15.014C51.4343 13.994 51.6563 13.094 52.1003 12.314C52.5563 11.534 53.1743 10.934 53.9543 10.514C54.7343 10.082 55.6043 9.866 56.5643 9.866C57.5243 9.866 58.3943 10.082 59.1743 10.514C59.9543 10.934 60.5663 11.534 61.0103 12.314C61.4663 13.094 61.6943 13.994 61.6943 15.014C61.6943 16.034 61.4603 16.934 60.9923 17.714C60.5363 18.494 59.9123 19.1 59.1203 19.532C58.3403 19.952 57.4643 20.162 56.4923 20.162ZM56.4923 17.966C56.9483 17.966 57.3743 17.858 57.7703 17.642C58.1783 17.414 58.5023 17.078 58.7423 16.634C58.9823 16.19 59.1023 15.65 59.1023 15.014C59.1023 14.066 58.8503 13.34 58.3463 12.836C57.8543 12.32 57.2483 12.062 56.5283 12.062C55.8083 12.062 55.2023 12.32 54.7103 12.836C54.2303 13.34 53.9903 14.066 53.9903 15.014C53.9903 15.962 54.2243 16.694 54.6923 17.21C55.1723 17.714 55.7723 17.966 56.4923 17.966ZM69.0508 20L66.9988 16.904L65.1808 20H62.4808L65.7388 14.996L62.4448 10.028H65.2888L67.3228 13.106L69.1588 10.028H71.8588L68.5828 14.996L71.8948 20H69.0508Z" fill="#9A9AAF"/>
<defs>
<linearGradient id="paint0_linear_1105_1569" x1="28" y1="2" x2="10.9849" y2="25.5212" gradientUnits="userSpaceOnUse">
<stop stop-color="#5C8FFF"/>
<stop offset="1" stop-color="#C14BFF"/>
</linearGradient>
<clipPath id="clip0_1105_1569">
<rect width="28" height="24" fill="white" transform="translate(0 2)"/>
</clipPath>
</defs>
</svg>
