<svg width="32" height="32" viewBox="0 0 32 32" fill="none" xmlns="http://www.w3.org/2000/svg">
<path d="M21.5865 2.66666H10.4132C5.55984 2.66666 2.6665 5.55999 2.6665 10.4133V21.5733C2.6665 26.44 5.55984 29.3333 10.4132 29.3333H21.5732C26.4265 29.3333 29.3198 26.44 29.3198 21.5867V10.4133C29.3332 5.55999 26.4398 2.66666 21.5865 2.66666ZM13.9865 22.2933C13.5332 22.7467 12.9332 23.0533 12.1998 23.1467L10.3998 23.3467C9.41317 23.4533 8.57317 22.6133 8.67984 21.6133L8.87984 19.8C9.05317 18.1867 10.3998 17.16 11.8265 17.1333C11.9598 17.12 12.1198 17.1333 12.2665 17.1467C12.8932 17.2267 13.4932 17.52 13.9998 18.0133C14.4932 18.5067 14.7732 19.0933 14.8532 19.6933C14.8665 19.84 14.8798 19.9867 14.8798 20.12C14.8798 20.9467 14.5732 21.7067 13.9865 22.2933ZM23.2532 10.0667C22.2932 12.4667 20.0932 15.6133 17.9998 17.6667C17.6932 15.7733 16.1865 14.28 14.2665 14.0133C16.3198 11.9067 19.4932 9.67999 21.9065 8.70666C22.3332 8.54666 22.7598 8.66666 23.0265 8.93332C23.2932 9.22666 23.4265 9.63999 23.2532 10.0667Z" fill="#9A9AAF"/>
</svg>
