<svg width="16" height="16" viewBox="0 0 16 16" fill="none" xmlns="http://www.w3.org/2000/svg">
<path d="M11.1111 0L15 4V15.1944C15 15.6392 14.6539 16 14.2277 16H1.77233C1.34611 16 1 15.636 1 15.2064V0.7936C1 0.3552 1.34767 0 1.777 0H11.1111ZM10.5 1.5H2.5V14.5H13.5V4.5H10.5V1.5ZM8.77778 6.4V10.4H8V6.4H8.77778ZM7.22222 6.4V7.2H5.66667C5.23733 7.2 4.88889 7.5584 4.88889 8V8.8C4.88889 9.2416 5.23733 9.6 5.66667 9.6H6.44444V8.8H5.66667V8H7.22222V9.6C7.22222 10.0416 6.87378 10.4 6.44444 10.4H5.66667C4.80722 10.4 4.11111 9.684 4.11111 8.8V8C4.11111 7.116 4.80722 6.4 5.66667 6.4H7.22222ZM11.8889 6.4V7.2H10.3333V8H11.8889V8.8H10.3333V10.4H9.55556V6.4H11.8889Z" fill="#7E7E8F"/>
</svg>
