<svg width="16" height="16" viewBox="0 0 16 16" fill="none" xmlns="http://www.w3.org/2000/svg">
<path d="M7.80488 10.4706L6.2439 10.4706C4.96359 10.4701 3.7075 10.8388 2.61141 11.537C1.51533 12.2351 0.620957 13.2361 0.0249767 14.4318C0.00822477 14.2099 -0.000107147 13.9873 1.04009e-06 13.7647C1.04009e-06 9.21635 3.49424 5.52941 7.80488 5.52941L7.80488 1L16 8L7.80488 15L7.80488 10.4706ZM6.2439 8.82353H9.36585V11.5478L13.5188 8L9.36585 4.45224V7.17647H7.80488C6.90751 7.17541 6.02052 7.37891 5.2046 7.77305C4.38867 8.1672 3.66308 8.74268 3.07746 9.46012C4.08532 9.03865 5.15978 8.82264 6.2439 8.82353Z" fill="#7E7E8F"/>
</svg>
