<svg width="25" height="24" viewBox="0 0 25 24" fill="none" xmlns="http://www.w3.org/2000/svg">
<path fill-rule="evenodd" clip-rule="evenodd" d="M12.6692 23.8483C6.17541 23.8483 0.862306 18.5353 0.862306 11.9826C0.92134 5.48895 6.17541 0.175951 12.7282 0.234984C19.222 0.294018 24.4761 5.54798 24.4761 12.1597C24.4171 18.5943 19.163 23.8483 12.6692 23.8483Z" fill="#FC070C"/>
<path fill-rule="evenodd" clip-rule="evenodd" d="M21.0815 9.54349C20.7593 9.24597 20.3857 8.88324 19.9964 8.50526C19.4496 7.97434 18.8718 7.41334 18.3619 6.96073L18.3102 6.92458C18.2243 6.85556 18.1274 6.80143 18.0236 6.76445L17.63 6.69103L17.6299 6.691L17.6299 6.69099C14.9141 6.18427 6.11218 4.54192 5.93111 4.56394C5.87756 4.57144 5.82637 4.59086 5.78131 4.62076L5.73224 4.6595C5.67182 4.72087 5.62592 4.795 5.59794 4.87645L5.58503 4.91003V5.0934V5.12181C6.18263 6.78586 7.73502 10.5021 9.16841 13.9334C10.3802 16.8344 11.507 19.5317 11.8999 20.6132L11.9 20.6136C11.9517 20.7739 12.0498 21.0781 12.233 21.0936H12.2744C12.3725 21.0936 12.7909 20.5408 12.7909 20.5408C12.7909 20.5408 20.2706 11.4702 21.0273 10.5043C21.1253 10.3853 21.2117 10.2573 21.2856 10.122C21.3239 9.90672 21.2465 9.6871 21.0815 9.54349ZM14.7098 10.5998L17.9021 7.95247L19.7746 9.67775L14.7098 10.5998ZM7.97406 5.92243L13.4702 10.4268L16.8665 7.56248L7.97406 5.92243ZM13.9659 11.6071L19.5912 10.7005L13.1601 18.4488L13.9659 11.6071ZM13.0104 11.2791L7.22757 6.37184L12.1735 18.454L13.0104 11.2791Z" fill="white"/>
</svg>
