<svg width="28" height="28" viewBox="0 0 28 28" fill="none" xmlns="http://www.w3.org/2000/svg">
<path d="M18.9766 9.95312C14.001 9.95312 9.95312 14.001 9.95312 18.9766C9.95312 23.9521 14.001 28 18.9766 28C23.9521 28 28 23.9521 28 18.9766C28 14.001 23.9521 9.95312 18.9766 9.95312ZM18.9766 18.1562C20.3336 18.1562 21.4375 19.2602 21.4375 20.6172C21.4375 21.6852 20.7496 22.5872 19.7969 22.927V24.7188H18.1562V22.927C17.2035 22.5872 16.5156 21.6852 16.5156 20.6172H18.1562C18.1562 21.0698 18.524 21.4375 18.9766 21.4375C19.4292 21.4375 19.7969 21.0698 19.7969 20.6172C19.7969 20.1646 19.4292 19.7969 18.9766 19.7969C17.6195 19.7969 16.5156 18.693 16.5156 17.3359C16.5156 16.2679 17.2035 15.3659 18.1562 15.0261V13.2344H19.7969V15.0261C20.7496 15.3659 21.4375 16.2679 21.4375 17.3359H19.7969C19.7969 16.8833 19.4292 16.5156 18.9766 16.5156C18.524 16.5156 18.1562 16.8833 18.1562 17.3359C18.1562 17.7885 18.524 18.1562 18.9766 18.1562Z" fill="#E23738"/>
<path d="M9.13281 9.95312C14.1925 9.95312 18.1562 7.791 18.1562 5.03125C18.1562 2.2715 14.1925 0 9.13281 0C4.07313 0 0 2.2715 0 5.03125C0 7.791 4.07313 9.95312 9.13281 9.95312Z" fill="#E23738"/>
<path d="M0 18.4602V19.7968C0 22.5566 4.07313 24.7187 9.13281 24.7187C9.41981 24.7187 9.6979 24.6923 9.98047 24.6784C9.35123 23.6891 8.88196 22.5913 8.60563 21.4177C4.94676 21.3167 1.7698 20.1924 0 18.4602Z" fill="#E23738"/>
<path d="M8.35193 19.755C8.33312 19.497 8.3125 19.2393 8.3125 18.9765C8.3125 18.1214 8.42455 17.2937 8.61563 16.4963C4.95223 16.397 1.77138 15.2721 0 13.5383V14.8749C0 17.4883 3.67839 19.5421 8.35193 19.755Z" fill="#E23738"/>
<path d="M9.13281 14.8749C9.13369 14.8749 9.1344 14.8748 9.13533 14.8748C9.67635 13.5818 10.4628 12.4162 11.4395 11.4396C10.6986 11.5332 9.933 11.5937 9.13281 11.5937C5.23813 11.5937 1.85533 10.4323 0 8.61646V9.95307C0 12.7128 4.07313 14.8749 9.13281 14.8749Z" fill="#E23738"/>
</svg>
