<svg width="16" height="16" viewBox="0 0 16 16" fill="none" xmlns="http://www.w3.org/2000/svg">
<path d="M8.95348 10.5H2.93348C2.18681 10.5 1.50681 10.1133 1.12681 9.46667C0.746809 8.82001 0.733476 8.04666 1.09348 7.38666L4.10014 1.91333C4.47348 1.23333 5.16014 0.82666 5.94014 0.82666C6.72014 0.82666 7.40681 1.23333 7.78014 1.91333L10.7935 7.38666C11.1535 8.03999 11.1401 8.82001 10.7601 9.46667C10.3801 10.1133 9.70014 10.5 8.95348 10.5ZM5.94014 1.83333C5.53348 1.83333 5.17348 2.04667 4.98014 2.4L1.97348 7.87333C1.78681 8.22 1.79348 8.62 1.98681 8.96C2.18681 9.3 2.54014 9.5 2.93348 9.5H8.95348C9.34681 9.5 9.70014 9.3 9.90014 8.96C10.1001 8.62 10.1068 8.22 9.91348 7.87333L6.90014 2.4C6.70681 2.04667 6.34681 1.83333 5.94014 1.83333Z" fill="white"/>
<path d="M10.3333 15.1667C7.66667 15.1667 5.5 13 5.5 10.3333C5.5 10.2133 5.50667 10.0933 5.51333 9.97333C5.52667 9.70666 5.74667 9.5 6.01333 9.5H8.95333C9.34667 9.5 9.7 9.3 9.9 8.96C10.1 8.62 10.1067 8.22 9.91333 7.87333L9.06 6.32001C8.98 6.18001 8.98 6.01333 9.04667 5.86666C9.11333 5.71999 9.24667 5.62 9.4 5.58667C9.7 5.52667 10.0133 5.5 10.3333 5.5C13 5.5 15.1667 7.66667 15.1667 10.3333C15.1667 13 13 15.1667 10.3333 15.1667ZM6.50667 10.5C6.59333 12.54 8.28 14.1667 10.3333 14.1667C12.4467 14.1667 14.1667 12.4467 14.1667 10.3333C14.1667 8.22 12.4467 6.5 10.3333 6.5C10.32 6.5 10.3133 6.5 10.3 6.5L10.7933 7.39333C11.1533 8.04666 11.14 8.82666 10.76 9.47333C10.38 10.12 9.70667 10.5067 8.95333 10.5067H6.50667V10.5Z" fill="white"/>
</svg>
