<svg width="14" height="16" viewBox="0 0 14 16" fill="none" xmlns="http://www.w3.org/2000/svg">
<path d="M12.2383 1.75H11.5V0.238281H9.98828V1.75H4.01172V0.238281H2.5V1.75H1.76172C0.917969 1.75 0.25 2.41797 0.25 3.26172V13.7383C0.25 14.582 0.917969 15.25 1.76172 15.25H12.2383C13.082 15.25 13.75 14.582 13.75 13.7383V3.26172C13.75 2.41797 13.082 1.75 12.2383 1.75ZM12.2383 13.7383H1.76172V6.25H12.2383V13.7383ZM1.76172 4.73828V3.26172H12.2383V4.73828H1.76172ZM3.23828 7.76172H10.7617V9.23828H3.23828V7.76172ZM3.23828 10.75H8.51172V12.2617H3.23828V10.75Z" fill="#9A9AAF"/>
</svg>
