<svg width="60" height="60" viewBox="0 0 60 60" fill="none" xmlns="http://www.w3.org/2000/svg">
<rect width="60" height="60" rx="30" fill="#50D1B2"/>
<path d="M38.72 19.4933L31.3866 16.7467C30.6266 16.4667 29.3866 16.4667 28.6266 16.7467L21.2933 19.4933C19.88 20.0267 18.7333 21.68 18.7333 23.1867V33.9867C18.7333 35.0667 19.44 36.4933 20.3066 37.1333L27.64 42.6133C28.9333 43.5866 31.0533 43.5866 32.3466 42.6133L39.68 37.1333C40.5466 36.48 41.2533 35.0667 41.2533 33.9867V23.1867C41.2666 21.68 40.12 20.0267 38.72 19.4933ZM34.64 26.96L28.9066 32.6933C28.7066 32.8933 28.4533 32.9867 28.2 32.9867C27.9466 32.9867 27.6933 32.8933 27.4933 32.6933L25.36 30.5333C24.9733 30.1467 24.9733 29.5067 25.36 29.12C25.7466 28.7333 26.3866 28.7333 26.7733 29.12L28.2133 30.56L33.24 25.5333C33.6266 25.1467 34.2666 25.1467 34.6533 25.5333C35.04 25.92 35.04 26.5733 34.64 26.96Z" fill="white"/>
</svg>
