<svg width="9" height="11" viewBox="0 0 9 11" fill="none" xmlns="http://www.w3.org/2000/svg">
<path d="M8.40436 9.1036V10.214H0.631836V9.1036H8.40436ZM6.73882 5.3367C6.72054 5.70311 6.61176 6.05928 6.42222 6.37339C6.23268 6.6875 5.96827 6.94976 5.65262 7.13673C5.33697 7.3237 4.97992 7.42955 4.61337 7.44484C4.24682 7.46012 3.8822 7.38435 3.55208 7.22431C3.17159 7.0597 2.8489 6.78524 2.62536 6.43608C2.40182 6.08693 2.28762 5.67899 2.29738 5.26453V0.77867H1.18702V5.3367C1.2058 5.85935 1.34738 6.37024 1.6003 6.828C1.85322 7.28576 2.21038 7.67754 2.64285 7.97163C3.07532 8.26571 3.57096 8.45383 4.08965 8.52076C4.60834 8.58769 5.1355 8.53155 5.62846 8.35688C6.28419 8.13832 6.8531 7.71629 7.25249 7.15216C7.65187 6.58803 7.8609 5.91121 7.84918 5.22011V0.77867H6.73882V5.3367ZM6.73882 0.775894H7.84918H6.73882ZM2.29738 0.775894H1.18702H2.29738Z" fill="#7E7E8F"/>
</svg>
