<svg width="24" height="24" viewBox="0 0 24 24" fill="none" xmlns="http://www.w3.org/2000/svg">
<path opacity="0.4" d="M16.19 2L7.81 2C4.17 2 2 4.17 2 7.81L2 16.18C2 19.83 4.17 22 7.81 22H16.18C19.82 22 21.99 19.83 21.99 16.19V7.81C22 4.17 19.83 2 16.19 2Z" fill="#9A9AAF"/>
<path d="M15.3588 14.2981L13.0607 12L15.3588 9.70189C15.6487 9.41197 15.6487 8.93114 15.3588 8.64123C15.0688 8.35131 14.588 8.35131 14.2981 8.64123L12 10.9393L9.7019 8.64123C9.41199 8.35131 8.93116 8.35131 8.64124 8.64123C8.35133 8.93114 8.35133 9.41197 8.64124 9.70189L10.9393 12L8.64124 14.2981C8.35133 14.588 8.35133 15.0688 8.64124 15.3587C8.93116 15.6487 9.41199 15.6487 9.7019 15.3587L12 13.0606L14.2981 15.3587C14.588 15.6487 15.0688 15.6487 15.3588 15.3587C15.6487 15.0688 15.6487 14.588 15.3588 14.2981Z" fill="#9A9AAF"/>
</svg>
