<svg width="16" height="17" viewBox="0 0 16 17" fill="none" xmlns="http://www.w3.org/2000/svg">
<path d="M6 14.9333H10C13.3333 14.9333 14.6667 13.6 14.6667 10.2666V6.26664C14.6667 2.93331 13.3333 1.59998 10 1.59998H6C2.66666 1.59998 1.33333 2.93331 1.33333 6.26664V10.2666C1.33333 13.6 2.66666 14.9333 6 14.9333Z" stroke="#F1F1F1" stroke-width="1.5" stroke-linecap="round" stroke-linejoin="round"/>
<path d="M10.3333 12.5999C11.0667 12.5999 11.6667 11.9999 11.6667 11.2666V5.26656C11.6667 4.53323 11.0667 3.93323 10.3333 3.93323C9.6 3.93323 9 4.53323 9 5.26656V11.2666C9 11.9999 9.59333 12.5999 10.3333 12.5999Z" stroke="#F1F1F1" stroke-width="1.5" stroke-linecap="round" stroke-linejoin="round"/>
<path d="M5.66666 12.6C6.39999 12.6 6.99999 12 6.99999 11.2666V8.93331C6.99999 8.19998 6.39999 7.59998 5.66666 7.59998C4.93333 7.59998 4.33333 8.19998 4.33333 8.93331V11.2666C4.33333 12 4.92666 12.6 5.66666 12.6Z" stroke="#F1F1F1" stroke-width="1.5" stroke-linecap="round" stroke-linejoin="round"/>
</svg>
