<svg width="20" height="20" viewBox="0 0 20 20" fill="none" xmlns="http://www.w3.org/2000/svg">
<path d="M15.5752 9.60817C15.1002 9.48317 14.5419 9.4165 13.8752 9.4165C12.9502 9.4165 12.6086 9.6415 12.1336 9.99984C12.1086 10.0165 12.0836 10.0415 12.0586 10.0665L11.2669 10.9082C10.6002 11.6082 9.40023 11.6165 8.73356 10.8998L7.94189 10.0665C7.91689 10.0415 7.89189 10.0165 7.86689 9.99984C7.39189 9.6415 7.05023 9.4165 6.12523 9.4165C5.45856 9.4165 4.90023 9.48317 4.42523 9.60817C2.44189 10.1415 2.44189 11.7165 2.44189 13.0998V13.8748C2.44189 15.9665 2.44189 18.3332 6.90023 18.3332H13.1002C16.0586 18.3332 17.5586 16.8332 17.5586 13.8748V13.0998C17.5586 11.7165 17.5586 10.1415 15.5752 9.60817ZM11.9419 15.3332H8.05856C7.74189 15.3332 7.48356 15.0748 7.48356 14.7498C7.48356 14.4248 7.74189 14.1665 8.05856 14.1665H11.9419C12.2586 14.1665 12.5169 14.4248 12.5169 14.7498C12.5169 15.0748 12.2586 15.3332 11.9419 15.3332Z" fill="#9A9AAF"/>
<path d="M16.0084 5.34999V8.43332C15.975 8.41666 15.9334 8.40832 15.9 8.39999C15.3167 8.24166 14.6584 8.16666 13.875 8.16666C12.5917 8.16666 11.9917 8.54166 11.375 9.00832C11.2917 9.06666 11.2167 9.14166 11.15 9.20832L10.35 10.05C10.275 10.1333 10.1417 10.1833 10 10.1833C9.85837 10.1833 9.72503 10.1333 9.6417 10.0417L8.85837 9.21666C8.78337 9.13332 8.70003 9.05832 8.6167 8.99999C8.0167 8.54166 7.40837 8.16666 6.12503 8.16666C5.3417 8.16666 4.68337 8.24166 4.10003 8.39999C4.0667 8.40832 4.02503 8.41666 3.9917 8.43332V5.34999C3.9917 3.62499 3.9917 1.66666 7.67503 1.66666H12.325C16.0084 1.66666 16.0084 3.62499 16.0084 5.34999Z" fill="#9A9AAF"/>
</svg>
