<svg width="16" height="16" viewBox="0 0 16 16" fill="none" xmlns="http://www.w3.org/2000/svg">
<path d="M11.3067 4.11334C12.64 5.04001 13.56 6.51334 13.7467 8.21334" stroke="white" stroke-width="1.5" stroke-linecap="round" stroke-linejoin="round"/>
<path d="M2.32667 8.24667C2.5 6.55333 3.40667 5.08 4.72667 4.14667" stroke="white" stroke-width="1.5" stroke-linecap="round" stroke-linejoin="round"/>
<path d="M5.46 13.96C6.23333 14.3533 7.11333 14.5733 8.04 14.5733C8.93333 14.5733 9.77333 14.3733 10.5267 14.0067" stroke="white" stroke-width="1.5" stroke-linecap="round" stroke-linejoin="round"/>
<path d="M8.04 5.13333C9.06357 5.13333 9.89334 4.30357 9.89334 3.28C9.89334 2.25643 9.06357 1.42667 8.04 1.42667C7.01643 1.42667 6.18667 2.25643 6.18667 3.28C6.18667 4.30357 7.01643 5.13333 8.04 5.13333Z" stroke="white" stroke-width="1.5" stroke-linecap="round" stroke-linejoin="round"/>
<path d="M3.22 13.28C4.24357 13.28 5.07334 12.4502 5.07334 11.4267C5.07334 10.4031 4.24357 9.57333 3.22 9.57333C2.19643 9.57333 1.36667 10.4031 1.36667 11.4267C1.36667 12.4502 2.19643 13.28 3.22 13.28Z" stroke="white" stroke-width="1.5" stroke-linecap="round" stroke-linejoin="round"/>
<path d="M12.78 13.28C13.8036 13.28 14.6333 12.4502 14.6333 11.4267C14.6333 10.4031 13.8036 9.57333 12.78 9.57333C11.7564 9.57333 10.9267 10.4031 10.9267 11.4267C10.9267 12.4502 11.7564 13.28 12.78 13.28Z" stroke="white" stroke-width="1.5" stroke-linecap="round" stroke-linejoin="round"/>
</svg>
