<svg width="22" height="22" viewBox="0 0 22 22" fill="none" xmlns="http://www.w3.org/2000/svg">
<path d="M9.2676 10.2207H6.83844C6.26094 10.2207 5.79346 10.6882 5.79346 11.2657V15.959H9.2676V10.2207V10.2207Z" stroke="#8B8B93" stroke-width="1.5" stroke-miterlimit="10" stroke-linecap="round" stroke-linejoin="round"/>
<path d="M11.6979 6.0498H10.3046C9.7271 6.0498 9.25961 6.51732 9.25961 7.09482V15.9498H12.7338V7.09482C12.7338 6.51732 12.2754 6.0498 11.6979 6.0498Z" stroke="#8B8B93" stroke-width="1.5" stroke-miterlimit="10" stroke-linecap="round" stroke-linejoin="round"/>
<path d="M15.1692 11.779H12.7401V15.9499H16.2143V12.824C16.2051 12.2465 15.7376 11.779 15.1692 11.779Z" stroke="#8B8B93" stroke-width="1.5" stroke-miterlimit="10" stroke-linecap="round" stroke-linejoin="round"/>
<path d="M8.25016 20.1668H13.7502C18.3335 20.1668 20.1668 18.3335 20.1668 13.7502V8.25016C20.1668 3.66683 18.3335 1.8335 13.7502 1.8335H8.25016C3.66683 1.8335 1.8335 3.66683 1.8335 8.25016V13.7502C1.8335 18.3335 3.66683 20.1668 8.25016 20.1668Z" stroke="#8B8B93" stroke-width="1.5" stroke-linecap="round" stroke-linejoin="round"/>
</svg>
