<svg width="23" height="23" viewBox="0 0 23 23" fill="none" xmlns="http://www.w3.org/2000/svg">
<path d="M20.2688 5.91284C19.8759 5.702 19.0517 5.48159 17.9305 6.26742L16.5217 7.26409C16.4163 4.28367 15.1225 3.1145 11.9792 3.1145H6.22921C2.95171 3.1145 1.67712 4.38909 1.67712 7.66659V15.3333C1.67712 17.5374 2.87504 19.8853 6.22921 19.8853H11.9792C15.1225 19.8853 16.4163 18.7162 16.5217 15.7358L17.9305 16.7324C18.5246 17.1541 19.0421 17.2883 19.4542 17.2883C19.8088 17.2883 20.0867 17.1828 20.2688 17.087C20.6617 16.8858 21.323 16.3395 21.323 14.9691V8.03075C21.323 6.66034 20.6617 6.11409 20.2688 5.91284ZM10.5417 10.9058C9.55462 10.9058 8.74004 10.1008 8.74004 9.10409C8.74004 8.10742 9.55462 7.30242 10.5417 7.30242C11.5288 7.30242 12.3434 8.10742 12.3434 9.10409C12.3434 10.1008 11.5288 10.9058 10.5417 10.9058Z" fill="url(#paint0_linear_6432_5055)"/>
<defs>
<linearGradient id="paint0_linear_6432_5055" x1="21.323" y1="3.1145" x2="9.4483" y2="19.5967" gradientUnits="userSpaceOnUse">
<stop stop-color="#5C8FFF"/>
<stop offset="1" stop-color="#C14BFF"/>
</linearGradient>
</defs>
</svg>
