<svg width="16" height="17" viewBox="0 0 16 17" fill="none" xmlns="http://www.w3.org/2000/svg">
<path opacity="0.4" d="M6.00004 1.83334C4.25337 1.83334 2.83337 3.25334 2.83337 5.00001C2.83337 6.71334 4.17337 8.10001 5.92004 8.16001C5.97337 8.15334 6.02671 8.15334 6.06671 8.16001C6.08004 8.16001 6.08671 8.16001 6.10004 8.16001C6.10671 8.16001 6.10671 8.16001 6.11337 8.16001C7.82004 8.10001 9.16004 6.71334 9.16671 5.00001C9.16671 3.25334 7.74671 1.83334 6.00004 1.83334Z" fill="#9A9AAF"/>
<path d="M9.38664 9.93333C7.52664 8.69333 4.49331 8.69333 2.61997 9.93333C1.77331 10.5 1.30664 11.2667 1.30664 12.0867C1.30664 12.9067 1.77331 13.6667 2.61331 14.2267C3.54664 14.8533 4.77331 15.1667 5.99997 15.1667C7.22664 15.1667 8.45331 14.8533 9.38664 14.2267C10.2266 13.66 10.6933 12.9 10.6933 12.0733C10.6866 11.2533 10.2266 10.4933 9.38664 9.93333Z" fill="#9A9AAF"/>
<path opacity="0.4" d="M13.3266 5.39332C13.4333 6.68665 12.5133 7.81999 11.24 7.97332C11.2333 7.97332 11.2333 7.97332 11.2266 7.97332H11.2066C11.1666 7.97332 11.1266 7.97332 11.0933 7.98665C10.4466 8.01998 9.85328 7.81332 9.40662 7.43332C10.0933 6.81998 10.4866 5.89999 10.4066 4.89999C10.3599 4.35998 10.1733 3.86665 9.89328 3.44665C10.1466 3.31999 10.44 3.23999 10.74 3.21332C12.0466 3.09999 13.2133 4.07332 13.3266 5.39332Z" fill="#9A9AAF"/>
<path d="M14.66 11.56C14.6067 12.2067 14.1933 12.7667 13.5 13.1467C12.8333 13.5133 11.9933 13.6867 11.16 13.6667C11.64 13.2333 11.92 12.6933 11.9733 12.12C12.04 11.2933 11.6467 10.5 10.86 9.86667C10.4133 9.51333 9.89333 9.23333 9.32666 9.02667C10.8 8.6 12.6533 8.88667 13.7933 9.80667C14.4067 10.3 14.72 10.92 14.66 11.56Z" fill="#9A9AAF"/>
</svg>
