<svg width="32" height="32" viewBox="0 0 32 32" fill="none" xmlns="http://www.w3.org/2000/svg">
<g clip-path="url(#clip0_1606_84627)">
<path d="M0 16C0 7.16344 7.16344 0 16 0C24.8366 0 32 7.16344 32 16C32 24.8366 24.8366 32 16 32C7.16344 32 0 24.8366 0 16Z" fill="#1769FF"/>
<path d="M18.3721 12.4467H22.8916V11.1518H18.3721V12.4467ZM19.4428 15.272C19.1548 15.565 18.9731 15.962 18.8989 16.4629H22.414C22.3768 15.9283 22.1942 15.5244 21.8711 15.2462C21.544 14.97 21.1416 14.8324 20.6599 14.8324C20.1381 14.8324 19.7307 14.979 19.4428 15.272ZM22.4932 13.5336C23.0381 13.7732 23.4867 14.1533 23.8399 14.6721C24.162 15.1294 24.3687 15.66 24.463 16.2629C24.5182 16.6153 24.5403 17.1261 24.5313 17.7904H18.8487C18.8828 18.5616 19.1518 19.1031 19.6655 19.4129C19.9766 19.606 20.3509 19.703 20.7904 19.703C21.253 19.703 21.6313 19.5852 21.9213 19.3506C22.0808 19.2228 22.2213 19.0466 22.3417 18.8209H24.4239C24.3687 19.2763 24.1158 19.7406 23.6683 20.2118C22.9699 20.9592 21.9915 21.3334 20.7342 21.3334C19.6956 21.3334 18.7795 21.0186 17.9877 20.387C17.192 19.7564 16.7967 18.7289 16.7967 17.3073C16.7967 15.9738 17.1549 14.9512 17.8703 14.2395C18.5878 13.5297 19.516 13.1723 20.6589 13.1723C21.3383 13.1723 21.9494 13.2931 22.4932 13.5336ZM9.56878 16.4906V19.2654H12.1296C12.5872 19.2654 12.9444 19.204 13.1983 19.0823C13.6609 18.8546 13.8917 18.423 13.8917 17.7835C13.8917 17.241 13.6689 16.8697 13.2203 16.6668C12.9695 16.554 12.6173 16.4946 12.1657 16.4906H9.56878ZM9.56878 12.4734V14.7691H12.1336C12.5902 14.7691 12.9625 14.683 13.2494 14.5107C13.5344 14.3385 13.6779 14.0336 13.6779 13.598C13.6779 13.1119 13.4893 12.7922 13.112 12.6357C12.7848 12.5278 12.3694 12.4734 11.8647 12.4734H9.56878ZM15.2965 11.7755C15.6186 12.218 15.7802 12.7466 15.7802 13.3634C15.7802 13.9979 15.6186 14.5097 15.2925 14.8958C15.1098 15.1116 14.8419 15.3096 14.4877 15.4878C15.0256 15.6818 15.431 15.9877 15.7069 16.4065C15.9798 16.8242 16.1173 17.333 16.1173 17.931C16.1173 18.5477 15.9608 19.1011 15.6467 19.5901C15.448 19.9138 15.1992 20.1871 14.9001 20.4088C14.564 20.6632 14.1676 20.8365 13.709 20.9315C13.2505 21.0255 12.7547 21.0711 12.2189 21.0711H7.46655V10.6667H12.5631C13.8495 10.6856 14.7596 11.0548 15.2965 11.7755Z" fill="white"/>
</g>
<defs>
<clipPath id="clip0_1606_84627">
<rect width="32" height="32" fill="white"/>
</clipPath>
</defs>
</svg>
