<svg width="16" height="16" viewBox="0 0 16 16" fill="none" xmlns="http://www.w3.org/2000/svg">
<path opacity="0.4" d="M14.4333 6.68667C14.1733 6.31333 13.7133 6.1 13.1866 6.1H10.4533C10.2733 6.1 10.1066 6.02667 9.99329 5.89333C9.87329 5.76 9.82663 5.57333 9.85329 5.38L10.1933 3.19333C10.34 2.54 9.90663 1.80667 9.2533 1.58667C8.64663 1.36 7.9333 1.66667 7.64663 2.1L4.8333 6.28L4.7533 6.41333V12.3067L4.8533 12.4067L6.96663 14.04C7.24663 14.32 7.87996 14.4733 8.32663 14.4733H10.9266C11.82 14.4733 12.72 13.8 12.92 12.98L14.56 7.98667C14.7333 7.51333 14.6866 7.05333 14.4333 6.68667Z" fill="#2775FF"/>
<path d="M3.47337 4.25333H2.78671C1.75337 4.25333 1.33337 4.65333 1.33337 5.64V12.3467C1.33337 13.3333 1.75337 13.7333 2.78671 13.7333H3.47337C4.50671 13.7333 4.92671 13.3333 4.92671 12.3467V5.64C4.92671 4.65333 4.50671 4.25333 3.47337 4.25333Z" fill="#2775FF"/>
</svg>
