<svg width="43" height="49" viewBox="0 0 43 49" fill="none" xmlns="http://www.w3.org/2000/svg">
<mask id="mask0_1628_44520" style="mask-type:alpha" maskUnits="userSpaceOnUse" x="0" y="0" width="43" height="49">
<path d="M39.2452 48.4921H3.62169C1.72329 48.4921 0.184326 46.9531 0.184326 45.0547V3.80644C0.184326 1.90804 1.72328 0.36908 3.62169 0.36908H26.7457L42.6826 16.3059V45.0547C42.6826 46.9531 41.1436 48.4921 39.2452 48.4921Z" fill="url(#paint0_linear_1628_44520)"/>
</mask>
<g mask="url(#mask0_1628_44520)">
<path d="M39.2461 48.4921H3.62254C1.72414 48.4921 0.185181 46.9531 0.185181 45.0547V3.80644C0.185181 1.90804 1.72414 0.36908 3.62254 0.36908H26.7466L42.6834 16.3059V45.0547C42.6834 46.9531 41.1445 48.4921 39.2461 48.4921Z" fill="url(#paint1_linear_1628_44520)"/>
<g opacity="0.27" filter="url(#filter0_f_1628_44520)">
<rect x="7.68433" y="23.6494" width="27.8114" height="13.1245" fill="#0072A2" style="mix-blend-mode:darken"/>
</g>
<path d="M8.54553 34.0244C8.38919 34.0244 8.25753 33.9709 8.15055 33.8639C8.04358 33.7569 7.99009 33.6253 7.99009 33.4689V25.9766C7.99009 25.8202 8.04358 25.6886 8.15055 25.5816C8.25753 25.4664 8.38919 25.4088 8.54553 25.4088H11.0265C11.9646 25.4088 12.7587 25.6186 13.4088 26.0383C14.0671 26.4497 14.5608 26.9846 14.89 27.6429C15.2191 28.3012 15.3837 28.9924 15.3837 29.7166C15.3837 30.4407 15.2191 31.1319 14.89 31.7902C14.5608 32.4485 14.0671 32.9875 13.4088 33.4072C12.7587 33.8186 11.9646 34.0244 11.0265 34.0244H8.54553ZM10.8908 32.9752C11.5655 32.9752 12.158 32.8394 12.6682 32.5679C13.1784 32.2881 13.5733 31.9054 13.8531 31.4199C14.1329 30.9262 14.2728 30.3584 14.2728 29.7166C14.2728 29.0747 14.1329 28.5111 13.8531 28.0256C13.5733 27.5318 13.1784 27.1492 12.6682 26.8776C12.158 26.5978 11.5655 26.458 10.8908 26.458H9.11332V32.9752H10.8908ZM21.9377 34.1478C21.0736 34.1478 20.3166 33.9585 19.6665 33.58C19.0164 33.2015 18.5145 32.679 18.1606 32.0124C17.8068 31.3459 17.6216 30.5806 17.6052 29.7166C17.6216 28.8525 17.8068 28.0873 18.1606 27.4207C18.5145 26.7542 19.0164 26.2317 19.6665 25.8531C20.3166 25.4746 21.0736 25.2854 21.9377 25.2854C22.8017 25.2854 23.5546 25.4746 24.1965 25.8531C24.8466 26.2317 25.3485 26.7583 25.7024 27.4331C26.0644 28.0996 26.2537 28.8608 26.2701 29.7166C26.2537 30.5724 26.0644 31.3377 25.7024 32.0124C25.3485 32.679 24.8466 33.2015 24.1965 33.58C23.5546 33.9585 22.8017 34.1478 21.9377 34.1478ZM21.9377 33.0986C22.596 33.0986 23.1679 32.9505 23.6534 32.6543C24.1389 32.358 24.5092 31.9548 24.7643 31.4446C25.0194 30.9344 25.1469 30.3584 25.1469 29.7166C25.1469 29.0747 25.0194 28.4987 24.7643 27.9885C24.5092 27.4783 24.1389 27.0751 23.6534 26.7789C23.1679 26.4826 22.596 26.3345 21.9377 26.3345C21.2711 26.3345 20.6951 26.4826 20.2096 26.7789C19.7323 27.0751 19.3662 27.4783 19.1111 27.9885C18.856 28.4987 18.7284 29.0747 18.7284 29.7166C18.7284 30.3584 18.856 30.9344 19.1111 31.4446C19.3662 31.9548 19.7323 32.358 20.2096 32.6543C20.6951 32.9505 21.2711 33.0986 21.9377 33.0986ZM32.8062 34.1478C31.9833 34.1478 31.2427 33.9709 30.5844 33.617C29.9343 33.255 29.42 32.7407 29.0415 32.0741C28.6712 31.3994 28.486 30.6135 28.486 29.7166C28.486 28.8196 28.6712 28.0379 29.0415 27.3714C29.42 26.6966 29.9343 26.1823 30.5844 25.8285C31.2427 25.4664 31.9833 25.2854 32.8062 25.2854C33.3657 25.2854 33.8636 25.3512 34.2997 25.4828C34.7441 25.6145 35.1843 25.8038 35.6204 26.0506C35.8015 26.1494 35.892 26.3057 35.892 26.5197C35.892 26.6431 35.8467 26.7542 35.7562 26.8529C35.6657 26.9435 35.5464 26.9887 35.3983 26.9887C35.316 26.9887 35.2419 26.9723 35.1761 26.9393C34.814 26.7501 34.4602 26.6061 34.1146 26.5073C33.769 26.4086 33.3699 26.3592 32.9173 26.3592C32.2096 26.3592 31.6048 26.5073 31.1028 26.8036C30.6091 27.0916 30.2347 27.4907 29.9796 28.0009C29.7327 28.5028 29.6093 29.0747 29.6093 29.7166C29.6093 30.3584 29.7327 30.9344 29.9796 31.4446C30.2347 31.9466 30.6091 32.3457 31.1028 32.6419C31.6048 32.9299 32.2096 33.0739 32.9173 33.0739C33.3699 33.0739 33.769 33.0246 34.1146 32.9258C34.4602 32.8271 34.814 32.6831 35.1761 32.4938C35.2419 32.4609 35.316 32.4444 35.3983 32.4444C35.5464 32.4444 35.6657 32.4897 35.7562 32.5802C35.8467 32.6707 35.892 32.7818 35.892 32.9135C35.892 33.1274 35.8015 33.2838 35.6204 33.3825C35.1843 33.6294 34.7441 33.8186 34.2997 33.9503C33.8636 34.082 33.3657 34.1478 32.8062 34.1478Z" fill="white"/>
<path d="M8.15055 33.8639L8.37151 33.6429H8.37151L8.15055 33.8639ZM8.15055 25.5816L8.37166 25.8027L8.37954 25.7942L8.15055 25.5816ZM13.4088 26.0383L13.2393 26.3009L13.2432 26.3033L13.4088 26.0383ZM14.89 27.6429L14.6105 27.7827L14.89 27.6429ZM14.89 31.7902L14.6105 31.6505L14.89 31.7902ZM13.4088 33.4072L13.5759 33.6713L13.5768 33.6707L13.4088 33.4072ZM12.6682 32.5679L12.815 32.8437L12.8184 32.8419L12.6682 32.5679ZM13.8531 31.4199L14.1239 31.576L14.125 31.574L13.8531 31.4199ZM13.8531 28.0256L13.5813 28.1796L13.5824 28.1816L13.8531 28.0256ZM12.6682 26.8776L12.5179 27.1516L12.5214 27.1535L12.6682 26.8776ZM9.11332 26.458V26.1455H8.80084V26.458H9.11332ZM9.11332 32.9752H8.80084V33.2877H9.11332V32.9752ZM8.54553 33.7119C8.46896 33.7119 8.41773 33.6892 8.37151 33.6429L7.92959 34.0849C8.09732 34.2526 8.30941 34.3369 8.54553 34.3369V33.7119ZM8.37151 33.6429C8.3253 33.5967 8.30258 33.5455 8.30258 33.4689H7.6776C7.6776 33.705 7.76186 33.9171 7.92959 34.0849L8.37151 33.6429ZM8.30258 33.4689V25.9766H7.6776V33.4689H8.30258ZM8.30258 25.9766C8.30258 25.9 8.3253 25.8488 8.37151 25.8026L7.92959 25.3606C7.76186 25.5284 7.6776 25.7404 7.6776 25.9766H8.30258ZM8.37954 25.7942C8.42776 25.7423 8.47662 25.7213 8.54553 25.7213V25.0963C8.30175 25.0963 8.08729 25.1905 7.92156 25.369L8.37954 25.7942ZM8.54553 25.7213H11.0265V25.0963H8.54553V25.7213ZM11.0265 25.7213C11.9174 25.7213 12.6495 25.9201 13.2393 26.3008L13.5783 25.7758C12.8678 25.3171 12.0119 25.0963 11.0265 25.0963V25.7213ZM13.2432 26.3033C13.8555 26.686 14.3085 27.1786 14.6105 27.7827L15.1695 27.5032C14.8132 26.7906 14.2787 26.2135 13.5744 25.7733L13.2432 26.3033ZM14.6105 27.7827C14.9183 28.3983 15.0712 29.0418 15.0712 29.7166H15.6962C15.6962 28.9431 15.5199 28.2041 15.1695 27.5032L14.6105 27.7827ZM15.0712 29.7166C15.0712 30.3914 14.9183 31.0348 14.6105 31.6505L15.1695 31.93C15.5199 31.229 15.6962 30.49 15.6962 29.7166H15.0712ZM14.6105 31.6505C14.3082 32.2551 13.8544 32.7525 13.2408 33.1437L13.5768 33.6707C14.2797 33.2226 14.8135 32.642 15.1695 31.93L14.6105 31.6505ZM13.2417 33.1432C12.6516 33.5166 11.9185 33.7119 11.0265 33.7119V34.3369C12.0107 34.3369 12.8658 34.1207 13.5759 33.6713L13.2417 33.1432ZM11.0265 33.7119H8.54553V34.3369H11.0265V33.7119ZM10.8908 33.2877C11.6081 33.2877 12.2526 33.1431 12.815 32.8437L12.5214 32.292C12.0634 32.5358 11.5229 32.6627 10.8908 32.6627V33.2877ZM12.8184 32.8419C13.3768 32.5356 13.8144 32.1131 14.1239 31.576L13.5824 31.2639C13.3323 31.6978 12.9799 32.0405 12.5179 32.2939L12.8184 32.8419ZM14.125 31.574C14.4347 31.0274 14.5853 30.4052 14.5853 29.7166H13.9603C13.9603 30.3116 13.8311 30.825 13.5813 31.2659L14.125 31.574ZM14.5853 29.7166C14.5853 29.028 14.4348 28.409 14.1239 27.8695L13.5824 28.1816C13.831 28.6131 13.9603 29.1214 13.9603 29.7166H14.5853ZM14.125 27.8715C13.8154 27.3251 13.3766 26.9007 12.815 26.6018L12.5214 27.1535C12.9802 27.3977 13.3313 27.7385 13.5813 28.1796L14.125 27.8715ZM12.8184 26.6036C12.2553 26.2948 11.6096 26.1455 10.8908 26.1455V26.7704C11.5214 26.7704 12.0607 26.9009 12.5179 27.1516L12.8184 26.6036ZM10.8908 26.1455H9.11332V26.7704H10.8908V26.1455ZM8.80084 26.458V32.9752H9.42581V26.458H8.80084ZM9.11332 33.2877H10.8908V32.6627H9.11332V33.2877ZM19.6665 33.58L19.8237 33.31L19.6665 33.58ZM18.1606 32.0124L17.8846 32.1589L18.1606 32.0124ZM17.6052 29.7166L17.2925 29.7106L17.2928 29.7225L17.6052 29.7166ZM18.1606 27.4207L18.4366 27.5673L18.1606 27.4207ZM19.6665 25.8531L19.5093 25.5831L19.6665 25.8531ZM24.1965 25.8531L24.0377 26.1223L24.0392 26.1232L24.1965 25.8531ZM25.7024 27.4331L25.4256 27.5782L25.4278 27.5822L25.7024 27.4331ZM26.2701 29.7166L26.5828 29.7226L26.5826 29.7106L26.2701 29.7166ZM25.7024 32.0124L25.427 31.8647L25.4263 31.8659L25.7024 32.0124ZM24.1965 33.58L24.0392 33.31L24.0377 33.3108L24.1965 33.58ZM23.6534 32.6543L23.4906 32.3875L23.6534 32.6543ZM24.7643 31.4446L25.0438 31.5844L24.7643 31.4446ZM24.7643 27.9885L25.0438 27.8488L24.7643 27.9885ZM23.6534 26.7789L23.4906 27.0456L23.6534 26.7789ZM20.2096 26.7789L20.0468 26.5121L20.0448 26.5134L20.2096 26.7789ZM19.1111 27.9885L18.8316 27.8488L19.1111 27.9885ZM19.1111 31.4446L18.8316 31.5844L19.1111 31.4446ZM20.2096 32.6543L20.0448 32.9198L20.0468 32.921L20.2096 32.6543ZM21.9377 33.8353C21.1205 33.8353 20.4194 33.6568 19.8237 33.31L19.5093 33.8501C20.2138 34.2603 21.0267 34.4603 21.9377 34.4603V33.8353ZM19.8237 33.31C19.2242 32.9608 18.7633 32.4812 18.4366 31.8659L17.8846 32.1589C18.2657 32.8767 18.8087 33.4421 19.5093 33.8501L19.8237 33.31ZM18.4366 31.8659C18.1089 31.2486 17.9333 30.5327 17.9176 29.7106L17.2928 29.7225C17.31 30.6285 17.5046 31.4432 17.8846 32.1589L18.4366 31.8659ZM17.9176 29.7225C17.9333 28.9004 18.1089 28.1845 18.4366 27.5673L17.8846 27.2742C17.5046 27.99 17.31 28.8047 17.2928 29.7106L17.9176 29.7225ZM18.4366 27.5673C18.7633 26.952 19.2242 26.4723 19.8237 26.1232L19.5093 25.5831C18.8087 25.991 18.2657 26.5564 17.8846 27.2742L18.4366 27.5673ZM19.8237 26.1232C20.4194 25.7764 21.1205 25.5978 21.9377 25.5978V24.9729C21.0267 24.9729 20.2138 25.1729 19.5093 25.5831L19.8237 26.1232ZM21.9377 25.5978C22.7549 25.5978 23.4512 25.7764 24.0377 26.1223L24.3552 25.584C23.6581 25.1728 22.8485 24.9729 21.9377 24.9729V25.5978ZM24.0392 26.1232C24.6378 26.4717 25.0987 26.9548 25.4256 27.5782L25.9791 27.288C25.5983 26.5618 25.0553 25.9916 24.3537 25.5831L24.0392 26.1232ZM25.4278 27.5822C25.763 28.1994 25.9421 28.9103 25.9577 29.7226L26.5826 29.7106C26.5653 28.8112 26.3658 27.9998 25.9769 27.2839L25.4278 27.5822ZM25.9577 29.7106C25.9421 30.5228 25.763 31.2385 25.427 31.8647L25.9777 32.1602C26.3658 31.4368 26.5653 30.622 26.5826 29.7226L25.9577 29.7106ZM25.4263 31.8659C25.0997 32.4812 24.6388 32.9608 24.0392 33.31L24.3537 33.8501C25.0543 33.4421 25.5973 32.8767 25.9784 32.1589L25.4263 31.8659ZM24.0377 33.3108C23.4512 33.6568 22.7549 33.8353 21.9377 33.8353V34.4603C22.8485 34.4603 23.6581 34.2603 24.3552 33.8492L24.0377 33.3108ZM21.9377 33.4111C22.6442 33.4111 23.2743 33.2516 23.8161 32.921L23.4906 32.3875C23.0614 32.6494 22.5477 32.7861 21.9377 32.7861V33.4111ZM23.8161 32.921C24.3519 32.5941 24.7625 32.1469 25.0438 31.5844L24.4848 31.3049C24.2558 31.7628 23.9259 32.1219 23.4906 32.3875L23.8161 32.921ZM25.0438 31.5844C25.3231 31.0256 25.4594 30.4008 25.4594 29.7166H24.8344C24.8344 30.316 24.7156 30.8433 24.4848 31.3049L25.0438 31.5844ZM25.4594 29.7166C25.4594 29.0323 25.3231 28.4075 25.0438 27.8488L24.4848 28.1283C24.7156 28.5899 24.8344 29.1171 24.8344 29.7166H25.4594ZM25.0438 27.8488C24.7625 27.2863 24.3519 26.839 23.8161 26.5121L23.4906 27.0456C23.9259 27.3112 24.2558 27.6704 24.4848 28.1283L25.0438 27.8488ZM23.8161 26.5121C23.2743 26.1815 22.6442 26.022 21.9377 26.022V26.647C22.5477 26.647 23.0614 26.7838 23.4906 27.0456L23.8161 26.5121ZM21.9377 26.022C21.2237 26.022 20.5893 26.1812 20.0468 26.5121L20.3724 27.0456C20.801 26.7841 21.3186 26.647 21.9377 26.647V26.022ZM20.0448 26.5134C19.5176 26.8406 19.1121 27.2877 18.8316 27.8488L19.3906 28.1283C19.6202 27.669 19.9471 27.3096 20.3744 27.0444L20.0448 26.5134ZM18.8316 27.8488C18.5522 28.4075 18.4159 29.0323 18.4159 29.7166H19.0409C19.0409 29.1171 19.1597 28.5899 19.3906 28.1283L18.8316 27.8488ZM18.4159 29.7166C18.4159 30.4008 18.5522 31.0256 18.8316 31.5844L19.3906 31.3049C19.1597 30.8433 19.0409 30.316 19.0409 29.7166H18.4159ZM18.8316 31.5844C19.1121 32.1454 19.5176 32.5925 20.0448 32.9198L20.3744 32.3888C19.9471 32.1235 19.6202 31.7642 19.3906 31.3049L18.8316 31.5844ZM20.0468 32.921C20.5893 33.252 21.2237 33.4111 21.9377 33.4111V32.7861C21.3186 32.7861 20.801 32.649 20.3724 32.3875L20.0468 32.921ZM30.5844 33.617L30.4323 33.8901L30.4365 33.8923L30.5844 33.617ZM29.0415 32.0741L28.7675 32.2245L28.7698 32.2284L29.0415 32.0741ZM29.0415 27.3714L28.769 27.2185L28.7683 27.2196L29.0415 27.3714ZM30.5844 25.8285L30.7338 26.1029L30.735 26.1023L30.5844 25.8285ZM34.2997 25.4828L34.2094 25.782L34.2109 25.7825L34.2997 25.4828ZM35.6204 26.0506L35.4665 26.3226L35.4708 26.325L35.6204 26.0506ZM35.7562 26.8529L35.9774 27.0741L35.9866 27.0641L35.7562 26.8529ZM35.1761 26.9393L35.0313 27.2163L35.0363 27.2188L35.1761 26.9393ZM34.1146 26.5073L34.2004 26.2069L34.1146 26.5073ZM31.1028 26.8036L31.2603 27.0735L31.2616 27.0727L31.1028 26.8036ZM29.9796 28.0009L29.7001 27.8611L29.6992 27.863L29.9796 28.0009ZM29.9796 31.4446L29.6982 31.5808L29.701 31.5862L29.9796 31.4446ZM31.1028 32.6419L30.942 32.9099L30.9473 32.913L31.1028 32.6419ZM34.1146 32.9258L34.2004 33.2263L34.1146 32.9258ZM35.1761 32.4938L35.0363 32.2143L35.0313 32.2169L35.1761 32.4938ZM35.7562 32.5802L35.9772 32.3592V32.3592L35.7562 32.5802ZM35.6204 33.3825L35.4708 33.1082L35.4665 33.1106L35.6204 33.3825ZM34.2997 33.9503L34.2109 33.6507L34.2094 33.6512L34.2997 33.9503ZM32.8062 33.8353C32.0296 33.8353 31.3407 33.6688 30.7323 33.3418L30.4365 33.8923C31.1447 34.273 31.937 34.4603 32.8062 34.4603V33.8353ZM30.7364 33.344C30.1379 33.0107 29.6644 32.5382 29.3132 31.9198L28.7698 32.2284C29.1757 32.9432 29.7307 33.4993 30.4323 33.89L30.7364 33.344ZM29.3154 31.9238C28.9743 31.3022 28.7985 30.5697 28.7985 29.7166H28.1736C28.1736 30.6573 28.3681 31.4965 28.7675 32.2245L29.3154 31.9238ZM28.7985 29.7166C28.7985 28.8633 28.9744 28.1357 29.3147 27.5231L28.7683 27.2196C28.368 27.9401 28.1736 28.7759 28.1736 29.7166H28.7985ZM29.314 27.5242C29.6651 26.8983 30.1378 26.4273 30.7338 26.1029L30.435 25.554C29.7308 25.9373 29.1749 26.4948 28.769 27.2185L29.314 27.5242ZM30.735 26.1023C31.3429 25.7679 32.0308 25.5978 32.8062 25.5978V24.9729C31.9358 24.9729 31.1425 25.1648 30.4338 25.5546L30.735 26.1023ZM32.8062 25.5978C33.3418 25.5978 33.8083 25.6609 34.2094 25.782L34.39 25.1837C33.9188 25.0414 33.3896 24.9729 32.8062 24.9729V25.5978ZM34.2109 25.7825C34.6308 25.9069 35.0493 26.0864 35.4665 26.3226L35.7744 25.7787C35.3193 25.5211 34.8573 25.3221 34.3885 25.1832L34.2109 25.7825ZM35.4708 26.325C35.5183 26.3509 35.541 26.3766 35.5537 26.3985C35.5667 26.421 35.5795 26.4575 35.5795 26.5197H36.2045C36.2045 26.3679 36.172 26.2192 36.0945 26.0854C36.0167 25.9509 35.9036 25.8491 35.7701 25.7763L35.4708 26.325ZM35.5795 26.5197C35.5795 26.558 35.5685 26.5953 35.5259 26.6418L35.9866 27.0641C36.125 26.9131 36.2045 26.7283 36.2045 26.5197H35.5795ZM35.5353 26.632C35.5126 26.6546 35.4776 26.6762 35.3983 26.6762V27.3012C35.6152 27.3012 35.8188 27.2323 35.9772 27.0739L35.5353 26.632ZM35.3983 26.6762C35.3587 26.6762 35.3334 26.6686 35.3158 26.6598L35.0363 27.2188C35.1505 27.2759 35.2733 27.3012 35.3983 27.3012V26.6762ZM35.3208 26.6624C34.9425 26.4646 34.569 26.3122 34.2004 26.2069L34.0287 26.8078C34.3514 26.9 34.6855 27.0355 35.0313 27.2163L35.3208 26.6624ZM34.2004 26.2069C33.8208 26.0984 33.3917 26.0467 32.9173 26.0467V26.6717C33.348 26.6717 33.7172 26.7188 34.0287 26.8078L34.2004 26.2069ZM32.9173 26.0467C32.1657 26.0467 31.5034 26.2043 30.944 26.5345L31.2616 27.0727C31.7061 26.8104 32.2535 26.6717 32.9173 26.6717V26.0467ZM30.9454 26.5336C30.3993 26.8522 29.9824 27.2965 29.7001 27.8611L30.2591 28.1406C30.4869 27.6849 30.8189 27.331 31.2603 27.0735L30.9454 26.5336ZM29.6992 27.863C29.4283 28.4137 29.2968 29.034 29.2968 29.7166H29.9218C29.9218 29.1155 30.0371 28.5919 30.26 28.1388L29.6992 27.863ZM29.2968 29.7166C29.2968 30.3993 29.4283 31.0228 29.6983 31.5807L30.2609 31.3085C30.0371 30.8461 29.9218 30.3176 29.9218 29.7166H29.2968ZM29.701 31.5862C29.9833 32.1418 30.3991 32.5841 30.942 32.9099L31.2636 32.374C30.819 32.1072 30.486 31.7514 30.2582 31.3031L29.701 31.5862ZM30.9473 32.913C31.5061 33.2336 32.1671 33.3864 32.9173 33.3864V32.7615C32.2521 32.7615 31.7035 32.6263 31.2583 32.3709L30.9473 32.913ZM32.9173 33.3864C33.3917 33.3864 33.8208 33.3348 34.2004 33.2263L34.0287 32.6254C33.7172 32.7144 33.348 32.7615 32.9173 32.7615V33.3864ZM34.2004 33.2263C34.569 33.121 34.9425 32.9685 35.3208 32.7707L35.0313 32.2169C34.6855 32.3976 34.3514 32.5332 34.0287 32.6254L34.2004 33.2263ZM35.3158 32.7733C35.3334 32.7645 35.3587 32.7569 35.3983 32.7569V32.1319C35.2733 32.1319 35.1505 32.1573 35.0363 32.2143L35.3158 32.7733ZM35.3983 32.7569C35.4776 32.7569 35.5126 32.7785 35.5353 32.8012L35.9772 32.3592C35.8188 32.2009 35.6152 32.1319 35.3983 32.1319V32.7569ZM35.5353 32.8012C35.5653 32.8312 35.5795 32.862 35.5795 32.9135H36.2045C36.2045 32.7016 36.1281 32.5102 35.9772 32.3592L35.5353 32.8012ZM35.5795 32.9135C35.5795 32.9757 35.5667 33.0121 35.5537 33.0346C35.541 33.0565 35.5183 33.0823 35.4708 33.1082L35.7701 33.6569C35.9036 33.584 36.0167 33.4822 36.0945 33.3478C36.172 33.2139 36.2045 33.0652 36.2045 32.9135H35.5795ZM35.4665 33.1106C35.0493 33.3467 34.6308 33.5263 34.2109 33.6507L34.3885 34.2499C34.8573 34.111 35.3193 33.9121 35.7744 33.6545L35.4665 33.1106ZM34.2094 33.6512C33.8083 33.7722 33.3418 33.8353 32.8062 33.8353V34.4603C33.3896 34.4603 33.9188 34.3917 34.39 34.2495L34.2094 33.6512Z" fill="white"/>
<g filter="url(#filter1_d_1628_44520)">
<path d="M42.684 16.3059H30.1845C28.2861 16.3059 26.7472 14.767 26.7472 12.8686V0.36908L42.684 16.3059Z" fill="url(#paint2_linear_1628_44520)"/>
</g>
</g>
<defs>
<filter id="filter0_f_1628_44520" x="1.59083" y="17.5559" width="39.9984" height="25.3115" filterUnits="userSpaceOnUse" color-interpolation-filters="sRGB">
<feFlood flood-opacity="0" result="BackgroundImageFix"/>
<feBlend mode="normal" in="SourceGraphic" in2="BackgroundImageFix" result="shape"/>
<feGaussianBlur stdDeviation="3.04675" result="effect1_foregroundBlur_1628_44520"/>
</filter>
<filter id="filter1_d_1628_44520" x="23.1536" y="-3.38077" width="23.7491" height="23.749" filterUnits="userSpaceOnUse" color-interpolation-filters="sRGB">
<feFlood flood-opacity="0" result="BackgroundImageFix"/>
<feColorMatrix in="SourceAlpha" type="matrix" values="0 0 0 0 0 0 0 0 0 0 0 0 0 0 0 0 0 0 127 0" result="hardAlpha"/>
<feOffset dx="0.312487" dy="0.156244"/>
<feGaussianBlur stdDeviation="1.95305"/>
<feColorMatrix type="matrix" values="0 0 0 0 0 0 0 0 0 0 0 0 0 0 0 0 0 0 0.33 0"/>
<feBlend mode="normal" in2="BackgroundImageFix" result="effect1_dropShadow_1628_44520"/>
<feBlend mode="normal" in="SourceGraphic" in2="effect1_dropShadow_1628_44520" result="shape"/>
</filter>
<linearGradient id="paint0_linear_1628_44520" x1="21.4335" y1="0.36908" x2="21.4335" y2="48.4921" gradientUnits="userSpaceOnUse">
<stop stop-color="#FF7979"/>
<stop offset="1" stop-color="#E85555"/>
</linearGradient>
<linearGradient id="paint1_linear_1628_44520" x1="21.4343" y1="0.36908" x2="21.4343" y2="48.4921" gradientUnits="userSpaceOnUse">
<stop stop-color="#6ABDF8"/>
<stop offset="1" stop-color="#008BD6"/>
</linearGradient>
<linearGradient id="paint2_linear_1628_44520" x1="34.7156" y1="0.36908" x2="34.7156" y2="16.3059" gradientUnits="userSpaceOnUse">
<stop stop-color="#009FE3"/>
<stop offset="1" stop-color="#0087C1"/>
</linearGradient>
</defs>
</svg>
