<svg width="27" height="26" viewBox="0 0 27 26" fill="none" xmlns="http://www.w3.org/2000/svg">
<g clip-path="url(#clip0_1453_24110)">
<path opacity="0.8" d="M15.741 12.766C15.741 14.1155 14.647 15.2094 13.2975 15.2094C11.948 15.2094 10.854 14.1155 10.854 12.766C10.854 11.4164 11.948 10.3225 13.2975 10.3225C14.647 10.3225 15.741 11.4164 15.741 12.766Z" fill="#9A9AAF"/>
<path opacity="0.8" d="M19.0123 8.44272C18.8948 8.12442 18.7074 7.83633 18.4639 7.59985C18.2275 7.35636 17.9396 7.16897 17.6211 7.0515C17.3628 6.95119 16.9748 6.83178 16.2601 6.79925C15.4869 6.76399 15.2551 6.75639 13.2978 6.75639C11.3404 6.75639 11.1086 6.7638 10.3356 6.79905C9.62093 6.83178 9.2327 6.95119 8.9746 7.0515C8.65612 7.16897 8.36802 7.35636 8.13173 7.59985C7.88824 7.83633 7.70085 8.12423 7.5832 8.44272C7.48288 8.70101 7.36347 9.08923 7.33094 9.80393C7.29568 10.5769 7.28809 10.8087 7.28809 12.7661C7.28809 14.7234 7.29568 14.9552 7.33094 15.7284C7.36347 16.4431 7.48288 16.8311 7.5832 17.0894C7.70085 17.4079 7.88805 17.6958 8.13154 17.9323C8.36802 18.1757 8.65592 18.3631 8.97441 18.4806C9.2327 18.5811 9.62093 18.7005 10.3356 18.733C11.1086 18.7683 11.3402 18.7757 13.2976 18.7757C15.2553 18.7757 15.4871 18.7683 16.2599 18.733C16.9746 18.7005 17.3628 18.5811 17.6211 18.4806C18.2604 18.234 18.7657 17.7287 19.0123 17.0894C19.1126 16.8311 19.232 16.4431 19.2647 15.7284C19.3 14.9552 19.3074 14.7234 19.3074 12.7661C19.3074 10.8087 19.3 10.5769 19.2647 9.80393C19.2322 9.08923 19.1128 8.70101 19.0123 8.44272ZM13.2978 16.5301C11.2188 16.5301 9.53347 14.845 9.53347 12.766C9.53347 10.6869 11.2188 9.00177 13.2978 9.00177C15.3767 9.00177 17.062 10.6869 17.062 12.766C17.062 14.845 15.3767 16.5301 13.2978 16.5301ZM17.2108 9.73264C16.725 9.73264 16.3312 9.33876 16.3312 8.85295C16.3312 8.36714 16.725 7.97327 17.2108 7.97327C17.6967 7.97327 18.0905 8.36714 18.0905 8.85295C18.0903 9.33876 17.6967 9.73264 17.2108 9.73264Z" fill="#9A9AAF"/>
<path opacity="0.8" d="M13.2977 0C6.24833 0 0.531738 5.71659 0.531738 12.766C0.531738 19.8153 6.24833 25.5319 13.2977 25.5319C20.3471 25.5319 26.0637 19.8153 26.0637 12.766C26.0637 5.71659 20.3471 0 13.2977 0ZM20.5839 15.7882C20.5485 16.5685 20.4244 17.1013 20.2432 17.5676C19.8624 18.5523 19.084 19.3307 18.0993 19.7115C17.6332 19.8927 17.1003 20.0165 16.3201 20.0522C15.5384 20.0878 15.2887 20.0964 13.2979 20.0964C11.3069 20.0964 11.0574 20.0878 10.2755 20.0522C9.49534 20.0165 8.96238 19.8927 8.49624 19.7115C8.00692 19.5274 7.56396 19.2389 7.19775 18.8659C6.82492 18.4999 6.53643 18.0567 6.35235 17.5676C6.17119 17.1015 6.04711 16.5685 6.01166 15.7884C5.97562 15.0065 5.96724 14.7567 5.96724 12.766C5.96724 10.7752 5.97562 10.5254 6.01146 9.74374C6.04691 8.9634 6.1708 8.43064 6.35196 7.96431C6.53604 7.47518 6.82472 7.03203 7.19775 6.66601C7.56377 6.29298 8.00692 6.0045 8.49605 5.82042C8.96238 5.63926 9.49514 5.51537 10.2755 5.47972C11.0572 5.44408 11.3069 5.43551 13.2977 5.43551C15.2885 5.43551 15.5382 5.44408 16.3199 5.47992C17.1003 5.51537 17.633 5.63926 18.0993 5.82022C18.5885 6.0043 19.0316 6.29298 19.3978 6.66601C19.7707 7.03222 20.0594 7.47518 20.2432 7.96431C20.4246 8.43064 20.5485 8.9634 20.5841 9.74374C20.6198 10.5254 20.6281 10.7752 20.6281 12.766C20.6281 14.7567 20.6198 15.0065 20.5839 15.7882Z" fill="#9A9AAF"/>
</g>
<defs>
<clipPath id="clip0_1453_24110">
<rect width="25.5319" height="25.5319" fill="white" transform="translate(0.531738)"/>
</clipPath>
</defs>
</svg>
