<svg width="43" height="49" viewBox="0 0 43 49" fill="none" xmlns="http://www.w3.org/2000/svg">
<mask id="mask0_1628_44573" style="mask-type:alpha" maskUnits="userSpaceOnUse" x="0" y="0" width="43" height="49">
<path d="M39.2444 48.7381H3.62083C1.72243 48.7381 0.183472 47.1992 0.183472 45.3008V4.05247C0.183472 2.15407 1.72243 0.615112 3.62083 0.615112H26.7449L42.6817 16.552V45.3008C42.6817 47.1992 41.1428 48.7381 39.2444 48.7381Z" fill="url(#paint0_linear_1628_44573)"/>
</mask>
<g mask="url(#mask0_1628_44573)">
<path d="M39.2434 48.7381H3.61986C1.72145 48.7381 0.182495 47.1991 0.182495 45.3007V4.05244C0.182495 2.15404 1.72145 0.615082 3.61985 0.615082H26.7439L42.6808 16.5519V45.3007C42.6808 47.1991 41.1418 48.7381 39.2434 48.7381Z" fill="url(#paint1_linear_1628_44573)"/>
<g filter="url(#filter0_f_1628_44573)">
<rect x="7.68164" y="23.8954" width="27.8114" height="13.1245" fill="#0B07C6" fill-opacity="0.16" style="mix-blend-mode:darken"/>
</g>
<path d="M8.49463 34.3321C8.33828 34.3321 8.20662 34.2786 8.09965 34.1717C7.99267 34.0647 7.93919 33.933 7.93919 33.7767V26.4078C7.93919 26.1856 8.01736 25.9963 8.17371 25.84C8.33006 25.6754 8.51932 25.5931 8.7415 25.5931H9.14882C9.3134 25.5931 9.46152 25.6425 9.59318 25.7412C9.73307 25.84 9.83593 25.9634 9.90176 26.1115L12.7037 33.0978L15.5056 26.1115C15.5714 25.9634 15.6702 25.84 15.8018 25.7412C15.9417 25.6425 16.094 25.5931 16.2585 25.5931H16.6659C16.888 25.5931 17.0773 25.6754 17.2337 25.84C17.39 25.9963 17.4682 26.1856 17.4682 26.4078V33.7767C17.4682 33.933 17.4147 34.0647 17.3077 34.1717C17.2007 34.2786 17.0691 34.3321 16.9127 34.3321C16.7564 34.3321 16.6206 34.2786 16.5054 34.1717C16.3984 34.0647 16.3449 33.933 16.3449 33.7767V26.7657L13.4936 33.8137C13.4278 33.9701 13.3208 34.0976 13.1727 34.1964C13.0328 34.2869 12.8765 34.3321 12.7037 34.3321C12.5309 34.3321 12.3704 34.2869 12.2223 34.1964C12.0824 34.0976 11.9795 33.9701 11.9137 33.8137L9.06242 26.7657V33.7767C9.06242 33.933 9.00482 34.0647 8.88962 34.1717C8.78264 34.2786 8.65098 34.3321 8.49463 34.3321ZM21.28 34.3321C21.1237 34.3321 20.992 34.2786 20.885 34.1717C20.7781 34.0647 20.7246 33.933 20.7246 33.7767V26.2226C20.7246 26.0663 20.7781 25.9346 20.885 25.8276C20.992 25.7124 21.1237 25.6548 21.28 25.6548H24.0943C24.876 25.6548 25.5137 25.7865 26.0075 26.0498C26.5012 26.3131 26.855 26.6505 27.069 27.062C27.2829 27.4734 27.3899 27.9178 27.3899 28.395C27.3899 28.8723 27.2829 29.3167 27.069 29.7281C26.855 30.1395 26.5012 30.4769 26.0075 30.7402C25.5137 31.0036 24.876 31.1352 24.0943 31.1352H21.8478V33.7767C21.8478 33.933 21.7902 34.0647 21.675 34.1717C21.568 34.2786 21.4364 34.3321 21.28 34.3321ZM23.9832 30.0737C24.8225 30.0737 25.4109 29.9133 25.7483 29.5923C26.0939 29.2714 26.2667 28.8723 26.2667 28.395C26.2667 27.9178 26.0939 27.5187 25.7483 27.1977C25.4109 26.8768 24.8225 26.7163 23.9832 26.7163H21.8478V30.0737H23.9832ZM32.3133 34.3938C31.3999 34.3938 30.54 34.2293 29.7336 33.9001C29.6348 33.859 29.5567 33.8014 29.4991 33.7273C29.4415 33.645 29.4127 33.5463 29.4127 33.4311C29.4127 33.2912 29.4579 33.1719 29.5484 33.0731C29.6472 32.9661 29.7665 32.9127 29.9064 32.9127C29.9805 32.9127 30.0586 32.9291 30.1409 32.962C30.7334 33.2007 31.3876 33.32 32.1035 33.32C32.7453 33.32 33.2843 33.2171 33.7205 33.0114C34.1648 32.7975 34.387 32.4436 34.387 31.9499C34.387 30.9131 33.4777 30.3946 31.6591 30.3946H31.4616C31.3218 30.3946 31.1983 30.3453 31.0914 30.2465C30.9926 30.1395 30.9432 30.0161 30.9432 29.8762C30.9432 29.7363 30.9926 29.617 31.0914 29.5183C31.1983 29.4113 31.3218 29.3578 31.4616 29.3578H31.5357C32.3586 29.3578 32.9881 29.2344 33.4242 28.9875C33.8604 28.7324 34.0784 28.358 34.0784 27.8643C34.0784 27.4693 33.9138 27.1566 33.5847 26.9262C33.2555 26.6958 32.77 26.5806 32.1282 26.5806C31.437 26.5806 30.7992 26.7164 30.215 26.9879C30.1327 27.0208 30.0586 27.0373 29.9928 27.0373C29.8694 27.0373 29.7624 26.9961 29.6719 26.9138C29.5814 26.8233 29.5361 26.7122 29.5361 26.5806C29.5361 26.3913 29.6184 26.2514 29.783 26.1609C30.5729 25.7412 31.3876 25.5314 32.2269 25.5314C33.1732 25.5314 33.9056 25.7248 34.424 26.1115C34.9424 26.4983 35.2017 27.0455 35.2017 27.7532C35.2017 28.321 35.0576 28.7694 34.7696 29.0986C34.4899 29.4195 34.136 29.6582 33.7081 29.8145C34.1772 29.9215 34.5927 30.1478 34.9548 30.4934C35.3251 30.8308 35.5102 31.3368 35.5102 32.0116C35.5102 32.7687 35.2099 33.357 34.6092 33.7767C34.0167 34.1881 33.2514 34.3938 32.3133 34.3938Z" fill="white"/>
<path d="M8.09965 34.1717L8.32061 33.9507H8.32061L8.09965 34.1717ZM8.17371 25.84L8.39474 26.061L8.40026 26.0552L8.17371 25.84ZM9.59318 25.7412L9.40561 25.9913L9.41298 25.9965L9.59318 25.7412ZM9.90176 26.1115L10.192 25.9951L10.1873 25.9846L9.90176 26.1115ZM12.7037 33.0978L12.4136 33.2141L12.7037 33.9373L12.9937 33.2141L12.7037 33.0978ZM15.5056 26.1115L15.2198 25.9845L15.2156 25.9952L15.5056 26.1115ZM15.8018 25.7412L15.6216 25.4858L15.6143 25.4912L15.8018 25.7412ZM17.2337 25.84L17.007 26.0553L17.0127 26.0609L17.2337 25.84ZM17.3077 34.1717L17.5287 34.3926V34.3926L17.3077 34.1717ZM16.5054 34.1717L16.2843 34.3928L16.2928 34.4007L16.5054 34.1717ZM16.3449 26.7657H16.6574L16.0553 26.6485L16.3449 26.7657ZM13.4936 33.8137L13.7817 33.935L13.7833 33.9309L13.4936 33.8137ZM13.1727 34.1964L13.3425 34.4587L13.3461 34.4564L13.1727 34.1964ZM12.2223 34.1964L12.0421 34.4516L12.0505 34.4576L12.0593 34.463L12.2223 34.1964ZM11.9137 33.8137L11.624 33.9309L11.6257 33.935L11.9137 33.8137ZM9.06242 26.7657L9.3521 26.6485L8.74993 26.7657H9.06242ZM8.88962 34.1717L8.67684 33.9425L8.66865 33.9507L8.88962 34.1717ZM8.49463 34.0196C8.41806 34.0196 8.36683 33.9969 8.32061 33.9507L7.87869 34.3926C8.04642 34.5604 8.25851 34.6446 8.49463 34.6446V34.0196ZM8.32061 33.9507C8.27439 33.9045 8.25167 33.8533 8.25167 33.7767H7.6267C7.6267 34.0128 7.71095 34.2249 7.87869 34.3926L8.32061 33.9507ZM8.25167 33.7767V26.4078H7.6267V33.7767H8.25167ZM8.25167 26.4078C8.25167 26.268 8.29724 26.1584 8.39467 26.0609L7.95275 25.619C7.73748 25.8343 7.6267 26.1032 7.6267 26.4078H8.25167ZM8.40026 26.0552C8.49906 25.9512 8.60705 25.9056 8.7415 25.9056V25.2806C8.43158 25.2806 8.16105 25.3996 7.94716 25.6248L8.40026 26.0552ZM8.7415 25.9056H9.14882V25.2806H8.7415V25.9056ZM9.14882 25.9056C9.24579 25.9056 9.32812 25.933 9.40569 25.9912L9.78067 25.4912C9.59492 25.3519 9.38101 25.2806 9.14882 25.2806V25.9056ZM9.41298 25.9965C9.50952 26.0647 9.57458 26.1448 9.61621 26.2384L10.1873 25.9846C10.0973 25.782 9.95662 25.6153 9.77339 25.4859L9.41298 25.9965ZM9.61173 26.2279L12.4136 33.2141L12.9937 32.9815L10.1918 25.9952L9.61173 26.2279ZM12.9937 33.2141L15.7956 26.2279L15.2156 25.9952L12.4136 32.9815L12.9937 33.2141ZM15.7912 26.2384C15.835 26.1398 15.8996 26.0585 15.9893 25.9912L15.6143 25.4912C15.4407 25.6215 15.3079 25.787 15.22 25.9846L15.7912 26.2384ZM15.982 25.9965C16.0715 25.9334 16.1612 25.9056 16.2585 25.9056V25.2806C16.0267 25.2806 15.812 25.3516 15.6216 25.4859L15.982 25.9965ZM16.2585 25.9056H16.6659V25.2806H16.2585V25.9056ZM16.6659 25.9056C16.8003 25.9056 16.9083 25.9512 17.0071 26.0552L17.4602 25.6248C17.2463 25.3996 16.9758 25.2806 16.6659 25.2806V25.9056ZM17.0127 26.0609C17.1101 26.1584 17.1557 26.268 17.1557 26.4078H17.7807C17.7807 26.1032 17.6699 25.8343 17.4546 25.619L17.0127 26.0609ZM17.1557 26.4078V33.7767H17.7807V26.4078H17.1557ZM17.1557 33.7767C17.1557 33.8533 17.133 33.9045 17.0867 33.9507L17.5287 34.3926C17.6964 34.2249 17.7807 34.0128 17.7807 33.7767H17.1557ZM17.0867 33.9507C17.0405 33.9969 16.9893 34.0196 16.9127 34.0196V34.6446C17.1489 34.6446 17.3609 34.5604 17.5287 34.3926L17.0867 33.9507ZM16.9127 34.0196C16.8357 34.0196 16.7758 33.9963 16.718 33.9427L16.2928 34.4007C16.4654 34.561 16.677 34.6446 16.9127 34.6446V34.0196ZM16.7264 33.9507C16.6801 33.9045 16.6574 33.8533 16.6574 33.7767H16.0324C16.0324 34.0128 16.1167 34.2249 16.2844 34.3926L16.7264 33.9507ZM16.6574 33.7767V26.7657H16.0324V33.7767H16.6574ZM16.0553 26.6485L13.204 33.6965L13.7833 33.9309L16.6346 26.8829L16.0553 26.6485ZM13.2056 33.6925C13.1648 33.7894 13.0992 33.8698 12.9994 33.9364L13.3461 34.4564C13.5425 34.3254 13.6908 34.1507 13.7816 33.935L13.2056 33.6925ZM13.003 33.934C12.9156 33.9905 12.8186 34.0196 12.7037 34.0196V34.6446C12.9344 34.6446 13.1501 34.5832 13.3425 34.4587L13.003 33.934ZM12.7037 34.0196C12.5886 34.0196 12.4845 33.9904 12.3852 33.9297L12.0593 34.463C12.2563 34.5834 12.4731 34.6446 12.7037 34.6446V34.0196ZM12.4025 33.9411C12.3099 33.8757 12.2446 33.7944 12.2017 33.6925L11.6257 33.935C11.7145 34.1457 11.8549 34.3195 12.0421 34.4516L12.4025 33.9411ZM12.2034 33.6965L9.3521 26.6485L8.77274 26.8829L11.624 33.9309L12.2034 33.6965ZM8.74993 26.7657V33.7767H9.37491V26.7657H8.74993ZM8.74993 33.7767C8.74993 33.8456 8.72891 33.8945 8.67698 33.9427L9.10225 34.4007C9.28073 34.2349 9.37491 34.0205 9.37491 33.7767H8.74993ZM8.66865 33.9507C8.62244 33.9969 8.5712 34.0196 8.49463 34.0196V34.6446C8.73076 34.6446 8.94285 34.5604 9.11058 34.3926L8.66865 33.9507ZM20.885 34.1717L21.106 33.9507L20.885 34.1717ZM20.885 25.8276L21.1061 26.0488L21.114 26.0403L20.885 25.8276ZM27.069 27.062L26.7918 27.2061L27.069 27.062ZM27.069 29.7281L26.7918 29.5839V29.5839L27.069 29.7281ZM21.8478 31.1352V30.8227H21.5353V31.1352H21.8478ZM21.675 34.1717L21.4622 33.9425L21.454 33.9507L21.675 34.1717ZM25.7483 29.5923L25.5356 29.3633L25.5329 29.3659L25.7483 29.5923ZM25.7483 27.1977L25.5329 27.4242L25.5356 27.4267L25.7483 27.1977ZM21.8478 26.7164V26.4039H21.5353V26.7164H21.8478ZM21.8478 30.0737H21.5353V30.3862H21.8478V30.0737ZM21.28 34.0196C21.2034 34.0196 21.1522 33.9969 21.106 33.9507L20.6641 34.3926C20.8318 34.5604 21.0439 34.6446 21.28 34.6446V34.0196ZM21.106 33.9507C21.0598 33.9045 21.0371 33.8533 21.0371 33.7767H20.4121C20.4121 34.0128 20.4963 34.2249 20.6641 34.3926L21.106 33.9507ZM21.0371 33.7767V26.2226H20.4121V33.7767H21.0371ZM21.0371 26.2226C21.0371 26.1461 21.0598 26.0948 21.106 26.0486L20.6641 25.6067C20.4963 25.7744 20.4121 25.9865 20.4121 26.2226H21.0371ZM21.114 26.0403C21.1622 25.9883 21.2111 25.9673 21.28 25.9673V25.3423C21.0362 25.3423 20.8218 25.4365 20.656 25.615L21.114 26.0403ZM21.28 25.9673H24.0943V25.3423H21.28V25.9673ZM24.0943 25.9673C24.844 25.9673 25.4263 26.094 25.8604 26.3255L26.1545 25.7741C25.6012 25.479 24.9081 25.3423 24.0943 25.3423V25.9673ZM25.8604 26.3255C26.3102 26.5654 26.6125 26.8614 26.7918 27.2061L27.3462 26.9178C27.0976 26.4397 26.6923 26.0609 26.1545 25.7741L25.8604 26.3255ZM26.7918 27.2061C26.9819 27.5717 27.0774 27.9664 27.0774 28.395H27.7024C27.7024 27.8691 27.584 27.3751 27.3462 26.9178L26.7918 27.2061ZM27.0774 28.395C27.0774 28.8236 26.9819 29.2183 26.7918 29.5839L27.3462 29.8723C27.584 29.415 27.7024 28.921 27.7024 28.395H27.0774ZM26.7918 29.5839C26.6125 29.9287 26.3102 30.2247 25.8604 30.4645L26.1545 31.016C26.6923 30.7292 27.0976 30.3504 27.3462 29.8723L26.7918 29.5839ZM25.8604 30.4645C25.4263 30.696 24.844 30.8227 24.0943 30.8227V31.4477C24.9081 31.4477 25.6012 31.3111 26.1545 31.016L25.8604 30.4645ZM24.0943 30.8227H21.8478V31.4477H24.0943V30.8227ZM21.5353 31.1352V33.7767H22.1603V31.1352H21.5353ZM21.5353 33.7767C21.5353 33.8456 21.5143 33.8945 21.4624 33.9427L21.8876 34.4007C22.0661 34.2349 22.1603 34.0205 22.1603 33.7767H21.5353ZM21.454 33.9507C21.4078 33.9969 21.3566 34.0196 21.28 34.0196V34.6446C21.5161 34.6446 21.7282 34.5604 21.896 34.3926L21.454 33.9507ZM23.9832 30.3862C24.8444 30.3862 25.5365 30.2251 25.9636 29.8187L25.5329 29.3659C25.2853 29.6014 24.8007 29.7612 23.9832 29.7612V30.3862ZM25.9609 29.8213C26.371 29.4405 26.5792 28.958 26.5792 28.395H25.9542C25.9542 28.7866 25.8167 29.1023 25.5356 29.3633L25.9609 29.8213ZM26.5792 28.395C26.5792 27.832 26.371 27.3496 25.9609 26.9687L25.5356 27.4267C25.8167 27.6877 25.9542 28.0035 25.9542 28.395H26.5792ZM25.9636 26.9713C25.5365 26.565 24.8444 26.4039 23.9832 26.4039V27.0288C24.8007 27.0288 25.2853 27.1886 25.5329 27.4242L25.9636 26.9713ZM23.9832 26.4039H21.8478V27.0288H23.9832V26.4039ZM21.5353 26.7164V30.0737H22.1603V26.7164H21.5353ZM21.8478 30.3862H23.9832V29.7612H21.8478V30.3862ZM29.7336 33.9001L29.6134 34.1886L29.6155 34.1894L29.7336 33.9001ZM29.4991 33.7273L29.2431 33.9065L29.2476 33.913L29.2524 33.9192L29.4991 33.7273ZM29.5484 33.0731L29.3188 32.8612L29.3181 32.862L29.5484 33.0731ZM30.1409 32.962L30.2577 32.6722L30.257 32.6719L30.1409 32.962ZM33.7205 33.0114L33.8538 33.294L33.856 33.293L33.7205 33.0114ZM31.0914 30.2465L30.8617 30.4585L30.8702 30.4677L30.8794 30.4761L31.0914 30.2465ZM31.0914 29.5183L31.3123 29.7392L31.0914 29.5183ZM33.4242 28.9875L33.5782 29.2595L33.582 29.2572L33.4242 28.9875ZM30.215 26.9879L30.331 27.278L30.339 27.2749L30.3467 27.2713L30.215 26.9879ZM29.6719 26.9138L29.4509 27.1348L29.4562 27.1401L29.4617 27.1451L29.6719 26.9138ZM29.783 26.1609L29.6363 25.8849L29.6324 25.8871L29.783 26.1609ZM34.424 26.1115L34.6109 25.8611L34.424 26.1115ZM34.7696 29.0986L34.5345 28.8928L34.5341 28.8932L34.7696 29.0986ZM33.7081 29.8145L33.6009 29.521L32.6074 29.884L33.6386 30.1192L33.7081 29.8145ZM34.9548 30.4934L34.739 30.7195L34.7443 30.7244L34.9548 30.4934ZM34.6092 33.7767L34.7874 34.0334L34.7881 34.0329L34.6092 33.7767ZM32.3133 34.0814C31.4384 34.0814 30.6188 33.9239 29.8517 33.6108L29.6155 34.1894C30.4612 34.5346 31.3614 34.7063 32.3133 34.7063V34.0814ZM29.8538 33.6117C29.7977 33.5883 29.7658 33.5613 29.7457 33.5355L29.2524 33.9192C29.3475 34.0415 29.472 34.1296 29.6134 34.1886L29.8538 33.6117ZM29.7551 33.5481C29.7395 33.5258 29.7252 33.4919 29.7252 33.4311H29.1002C29.1002 33.6006 29.1435 33.7642 29.2431 33.9065L29.7551 33.5481ZM29.7252 33.4311C29.7252 33.3656 29.7436 33.3226 29.7788 33.2843L29.3181 32.862C29.1722 33.0211 29.1002 33.2168 29.1002 33.4311H29.7252ZM29.7781 33.2851C29.8204 33.2392 29.8577 33.2251 29.9064 33.2251V32.6002C29.6754 32.6002 29.474 32.6931 29.3188 32.8612L29.7781 33.2851ZM29.9064 33.2251C29.9337 33.2251 29.9724 33.2312 30.0249 33.2522L30.257 32.6719C30.1449 32.6271 30.0272 32.6002 29.9064 32.6002V33.2251ZM30.0242 33.2519C30.658 33.5072 31.3524 33.6325 32.1035 33.6325V33.0075C31.4228 33.0075 30.8088 32.8942 30.2577 32.6722L30.0242 33.2519ZM32.1035 33.6325C32.7769 33.6325 33.3645 33.5248 33.8538 33.294L33.5872 32.7288C33.2041 32.9095 32.7138 33.0075 32.1035 33.0075V33.6325ZM33.856 33.293C34.1215 33.1651 34.3373 32.9869 34.485 32.7517C34.6327 32.5166 34.6995 32.2447 34.6995 31.9499H34.0745C34.0745 32.1488 34.0303 32.3007 33.9557 32.4194C33.8812 32.5381 33.7637 32.6437 33.5849 32.7299L33.856 33.293ZM34.6995 31.9499C34.6995 31.3179 34.4108 30.8261 33.8598 30.512C33.3349 30.2127 32.5879 30.0821 31.6591 30.0821V30.7071C32.549 30.7071 33.1659 30.8358 33.5503 31.0549C33.9085 31.2592 34.0745 31.545 34.0745 31.9499H34.6995ZM31.6591 30.0821H31.4616V30.7071H31.6591V30.0821ZM31.4616 30.0821C31.4038 30.0821 31.3551 30.0648 31.3033 30.0169L30.8794 30.4761C31.0415 30.6258 31.2397 30.7071 31.4616 30.7071V30.0821ZM31.321 30.0346C31.2731 29.9827 31.2557 29.9341 31.2557 29.8762H30.6307C30.6307 30.0981 30.7121 30.2964 30.8617 30.4585L31.321 30.0346ZM31.2557 29.8762C31.2557 29.819 31.2723 29.7793 31.3123 29.7392L30.8704 29.2973C30.7129 29.4548 30.6307 29.6536 30.6307 29.8762H31.2557ZM31.3123 29.7392C31.366 29.6856 31.4118 29.6703 31.4616 29.6703V29.0453C31.2317 29.0453 31.0307 29.137 30.8704 29.2973L31.3123 29.7392ZM31.4616 29.6703H31.5357V29.0453H31.4616V29.6703ZM31.5357 29.6703C32.3817 29.6703 33.074 29.5448 33.5782 29.2595L33.2703 28.7156C32.9022 28.9239 32.3355 29.0453 31.5357 29.0453V29.6703ZM33.582 29.2572C34.1112 28.9477 34.3909 28.4722 34.3909 27.8643H33.7659C33.7659 28.2438 33.6095 28.5171 33.2665 28.7178L33.582 29.2572ZM34.3909 27.8643C34.3909 27.3652 34.1749 26.9579 33.7639 26.6702L33.4055 27.1822C33.6528 27.3553 33.7659 27.5733 33.7659 27.8643H34.3909ZM33.7639 26.6702C33.3593 26.387 32.7989 26.2681 32.1282 26.2681V26.8931C32.7411 26.8931 33.1518 27.0046 33.4055 27.1822L33.7639 26.6702ZM32.1282 26.2681C31.3948 26.2681 30.7117 26.4124 30.0833 26.7045L30.3467 27.2713C30.8867 27.0203 31.4791 26.8931 32.1282 26.8931V26.2681ZM30.0989 26.6978C30.0415 26.7207 30.0077 26.7248 29.9928 26.7248V27.3498C30.1096 27.3498 30.2239 27.3209 30.331 27.278L30.0989 26.6978ZM29.9928 26.7248C29.9463 26.7248 29.9145 26.7121 29.8821 26.6826L29.4617 27.1451C29.6103 27.2802 29.7924 27.3498 29.9928 27.3498V26.7248ZM29.8928 26.6929C29.8628 26.6628 29.8486 26.632 29.8486 26.5806H29.2236C29.2236 26.7925 29.3 26.9838 29.4509 27.1348L29.8928 26.6929ZM29.8486 26.5806C29.8486 26.5323 29.8587 26.5066 29.8672 26.4921C29.8756 26.4778 29.8927 26.4572 29.9336 26.4347L29.6324 25.8871C29.5087 25.9551 29.4023 26.0497 29.3285 26.1753C29.2547 26.3007 29.2236 26.4396 29.2236 26.5806H29.8486ZM29.9296 26.4369C30.6775 26.0396 31.4421 25.8439 32.2269 25.8439V25.2189C31.3331 25.2189 30.4684 25.4429 29.6364 25.8849L29.9296 26.4369ZM32.2269 25.8439C33.1358 25.8439 33.7926 26.0303 34.2372 26.362L34.6109 25.8611C34.0186 25.4192 33.2107 25.2189 32.2269 25.2189V25.8439ZM34.2372 26.362C34.6683 26.6836 34.8892 27.1334 34.8892 27.7532H35.5141C35.5141 26.9576 35.2166 26.3129 34.6109 25.8611L34.2372 26.362ZM34.8892 27.7532C34.8892 28.2684 34.7593 28.6359 34.5345 28.8928L35.0048 29.3044C35.356 28.903 35.5141 28.3736 35.5141 27.7532H34.8892ZM34.5341 28.8932C34.2914 29.1717 33.9828 29.3814 33.6009 29.521L33.8154 30.108C34.2892 29.9349 34.6883 29.6674 35.0052 29.3039L34.5341 28.8932ZM33.6386 30.1192C34.0504 30.2131 34.416 30.4111 34.739 30.7194L35.1706 30.2673C34.7694 29.8845 34.3039 29.6299 33.7776 29.5098L33.6386 30.1192ZM34.7443 30.7244C35.0293 30.984 35.1977 31.3929 35.1977 32.0116H35.8227C35.8227 31.2808 35.6209 30.6775 35.1652 30.2624L34.7443 30.7244ZM35.1977 32.0116C35.1977 32.6706 34.944 33.1616 34.4302 33.5205L34.7881 34.0329C35.4758 33.5525 35.8227 32.8667 35.8227 32.0116H35.1977ZM34.4309 33.52C33.9045 33.8856 33.2067 34.0814 32.3133 34.0814V34.7063C33.2961 34.7063 34.1289 34.4907 34.7874 34.0334L34.4309 33.52Z" fill="white"/>
<g filter="url(#filter1_d_1628_44573)">
<path d="M42.6814 16.5519H30.1819C28.2835 16.5519 26.7445 15.013 26.7445 13.1146V0.615082L42.6814 16.5519Z" fill="url(#paint2_linear_1628_44573)"/>
</g>
</g>
<defs>
<filter id="filter0_f_1628_44573" x="1.58814" y="17.8019" width="39.9984" height="25.3115" filterUnits="userSpaceOnUse" color-interpolation-filters="sRGB">
<feFlood flood-opacity="0" result="BackgroundImageFix"/>
<feBlend mode="normal" in="SourceGraphic" in2="BackgroundImageFix" result="shape"/>
<feGaussianBlur stdDeviation="3.04675" result="effect1_foregroundBlur_1628_44573"/>
</filter>
<filter id="filter1_d_1628_44573" x="23.1509" y="-3.13477" width="23.7491" height="23.749" filterUnits="userSpaceOnUse" color-interpolation-filters="sRGB">
<feFlood flood-opacity="0" result="BackgroundImageFix"/>
<feColorMatrix in="SourceAlpha" type="matrix" values="0 0 0 0 0 0 0 0 0 0 0 0 0 0 0 0 0 0 127 0" result="hardAlpha"/>
<feOffset dx="0.312487" dy="0.156244"/>
<feGaussianBlur stdDeviation="1.95305"/>
<feColorMatrix type="matrix" values="0 0 0 0 0 0 0 0 0 0 0 0 0 0 0 0 0 0 0.33 0"/>
<feBlend mode="normal" in2="BackgroundImageFix" result="effect1_dropShadow_1628_44573"/>
<feBlend mode="normal" in="SourceGraphic" in2="effect1_dropShadow_1628_44573" result="shape"/>
</filter>
<linearGradient id="paint0_linear_1628_44573" x1="21.4326" y1="0.615112" x2="21.4326" y2="48.7381" gradientUnits="userSpaceOnUse">
<stop stop-color="#FF7979"/>
<stop offset="1" stop-color="#E85555"/>
</linearGradient>
<linearGradient id="paint1_linear_1628_44573" x1="21.4316" y1="0.615082" x2="21.4316" y2="48.7381" gradientUnits="userSpaceOnUse">
<stop stop-color="#7CA9FF"/>
<stop offset="1" stop-color="#4377DC"/>
</linearGradient>
<linearGradient id="paint2_linear_1628_44573" x1="34.7129" y1="0.615082" x2="34.7129" y2="16.5519" gradientUnits="userSpaceOnUse">
<stop stop-color="#4B7BF7"/>
<stop offset="1" stop-color="#1A4DD1"/>
</linearGradient>
</defs>
</svg>
