<svg width="32" height="32" viewBox="0 0 32 32" fill="none" xmlns="http://www.w3.org/2000/svg">
<g clip-path="url(#clip0_1606_84604)">
<path d="M0 16C0 7.16344 7.16344 0 16 0C24.8366 0 32 7.16344 32 16C32 24.8366 24.8366 32 16 32C7.16344 32 0 24.8366 0 16Z" fill="#F26798"/>
<path d="M24.5332 15.9881C24.5332 16.5652 24.4745 17.1414 24.3591 17.7032C24.2465 18.2516 24.0799 18.79 23.8615 19.3047C23.6482 19.8103 23.3836 20.2975 23.0744 20.7518C22.7698 21.2033 22.419 21.6269 22.0335 22.013C21.6473 22.3975 21.2222 22.7474 20.771 23.0532C20.3151 23.3603 19.8272 23.6245 19.3213 23.8388C18.8059 24.056 18.2662 24.2224 17.7183 24.3348C17.1558 24.4505 16.5774 24.5095 15.9995 24.5095C15.4211 24.5095 14.8428 24.4505 14.2811 24.3348C13.7323 24.2224 13.1927 24.056 12.6777 23.8388C12.1718 23.6245 11.6834 23.3603 11.2276 23.0532C10.7763 22.7474 10.3513 22.3975 9.96587 22.013C9.58003 21.6269 9.22916 21.2033 8.92414 20.7518C8.61663 20.2975 8.35159 19.8102 8.13743 19.3047C7.91906 18.79 7.75199 18.2516 7.63907 17.7032C7.5249 17.1414 7.46655 16.5652 7.46655 15.9881C7.46655 15.4105 7.52487 14.833 7.6391 14.2725C7.75203 13.7241 7.91909 13.1848 8.13747 12.671C8.35163 12.165 8.61666 11.6774 8.92418 11.223C9.22919 10.7711 9.58006 10.3484 9.9659 9.96183C10.3513 9.57734 10.7764 9.22828 11.2276 8.92287C11.6835 8.61453 12.1719 8.35035 12.6777 8.13563C13.1927 7.91797 13.7323 7.75115 14.2811 7.63965C14.8428 7.52482 15.4212 7.46655 15.9995 7.46655C16.5775 7.46655 17.1558 7.52482 17.7184 7.63965C18.2663 7.75118 18.8059 7.91801 19.3214 8.13563C19.8272 8.35032 20.3152 8.61453 20.771 8.92287C21.2223 9.22828 21.6473 9.57734 22.0336 9.96183C22.419 10.3484 22.7699 10.7711 23.0745 11.223C23.3836 11.6774 23.6482 12.1651 23.8615 12.671C24.0799 13.1848 24.2465 13.7241 24.3591 14.2725C24.4745 14.833 24.5332 15.4105 24.5332 15.9881ZM12.8902 9.40595C10.858 10.3642 9.34121 12.2341 8.86826 14.4876C9.06038 14.4893 12.0972 14.5276 15.5961 13.5993C14.3348 11.3615 12.9873 9.53539 12.8902 9.40595ZM16.1999 14.7198C12.4476 15.8416 8.84702 15.7609 8.71786 15.7559C8.71576 15.8341 8.71202 15.9098 8.71202 15.9881C8.71202 17.8575 9.4183 19.5618 10.5792 20.8505C10.5767 20.8467 12.571 17.3137 16.5037 16.0438C16.5987 16.0122 16.6954 15.9839 16.7912 15.9564C16.6083 15.5429 16.4087 15.1284 16.1999 14.7198ZM20.8123 10.5265C19.5292 9.39677 17.8446 8.71152 15.9995 8.71152C15.4074 8.71152 14.8328 8.7831 14.2823 8.9154C14.3915 9.06189 15.7603 10.8752 17.0066 13.1603C19.7564 12.1309 20.7943 10.5531 20.8123 10.5265ZM17.2879 17.1623C17.2717 17.1676 17.2554 17.1723 17.2396 17.1781C12.9398 18.6749 11.5357 21.6913 11.5205 21.7242C12.7577 22.685 14.3094 23.2646 15.9995 23.2646C17.0087 23.2646 17.97 23.0594 18.8446 22.6879C18.7367 22.0521 18.3133 19.8236 17.2879 17.1623ZM20.0718 22.023C21.7081 20.9204 22.8702 19.1695 23.1944 17.1414C23.0444 17.0931 21.0056 16.4486 18.6534 16.8252C19.6092 19.4482 19.9976 21.5844 20.0718 22.023ZM17.5675 14.2446C17.7367 14.5917 17.9004 14.9449 18.0517 15.2998C18.1055 15.4272 18.158 15.552 18.2092 15.6768C20.7127 15.3622 23.179 15.8915 23.2845 15.9131C23.2678 14.188 22.6498 12.6048 21.6273 11.3653C21.6136 11.3848 20.4448 13.0712 17.5675 14.2446Z" fill="white"/>
</g>
<defs>
<clipPath id="clip0_1606_84604">
<rect width="32" height="32" fill="white"/>
</clipPath>
</defs>
</svg>
