<svg width="28" height="28" viewBox="0 0 28 28" fill="none" xmlns="http://www.w3.org/2000/svg">
<circle cx="14" cy="14" r="14" fill="#02BD84" fill-opacity="0.1"/>
<circle cx="14" cy="14" r="11" fill="#02BD84" fill-opacity="0.3"/>
<path d="M18.5483 11.5117C18.8309 11.2089 18.8146 10.7343 18.5117 10.4517C18.2089 10.1691 17.7343 10.1854 17.4517 10.4883L18.5483 11.5117ZM12.4 17L11.8517 17.5117C11.9936 17.6637 12.1921 17.75 12.4 17.75C12.6079 17.75 12.8065 17.6637 12.9483 17.5117L12.4 17ZM10.5483 13.9168C10.2657 13.614 9.79107 13.5976 9.48826 13.8803C9.18545 14.1629 9.16908 14.6375 9.45171 14.9403L10.5483 13.9168ZM17.4517 10.4883L11.8517 16.4883L12.9483 17.5117L18.5483 11.5117L17.4517 10.4883ZM9.45171 14.9403L11.8517 17.5117L12.9483 16.4883L10.5483 13.9168L9.45171 14.9403Z" fill="#50D1B2"/>
</svg>
