<svg width="43" height="49" viewBox="0 0 43 49" fill="none" xmlns="http://www.w3.org/2000/svg">
<rect width="42.4983" height="48.123" transform="translate(0.18335 0.492096)" fill="#E5E5E5"/>
<mask id="mask0_1628_44547" style="mask-type:alpha" maskUnits="userSpaceOnUse" x="0" y="0" width="43" height="49">
<path d="M39.2445 48.6151H3.62095C1.72255 48.6151 0.183594 47.0762 0.183594 45.1778V3.92946C0.183594 2.03106 1.72255 0.492096 3.62095 0.492096H26.745L42.6819 16.4289V45.1778C42.6819 47.0762 41.1429 48.6151 39.2445 48.6151Z" fill="url(#paint0_linear_1628_44547)"/>
</mask>
<g mask="url(#mask0_1628_44547)">
<path d="M39.2449 48.6151H3.62132C1.72292 48.6151 0.18396 47.0761 0.18396 45.1777V3.92942C0.18396 2.03102 1.72292 0.492058 3.62132 0.492058H26.7454L42.6822 16.4289V45.1777C42.6822 47.0761 41.1433 48.6151 39.2449 48.6151Z" fill="url(#paint1_linear_1628_44547)"/>
<g opacity="0.2" filter="url(#filter0_f_1628_44547)">
<rect x="7.68311" y="23.7724" width="27.8114" height="13.1245" fill="#780AAF" style="mix-blend-mode:darken"/>
</g>
<path d="M8.12944 34.2091C7.9731 34.2091 7.84144 34.1556 7.73446 34.0487C7.62749 33.9417 7.574 33.81 7.574 33.6537V26.2848C7.574 26.0626 7.65217 25.8733 7.80852 25.717C7.96487 25.5524 8.15413 25.4701 8.37631 25.4701H8.78364C8.94821 25.4701 9.09633 25.5195 9.22799 25.6182C9.36788 25.717 9.47074 25.8404 9.53657 25.9885L12.3385 32.9748L15.1404 25.9885C15.2062 25.8404 15.305 25.717 15.4366 25.6182C15.5765 25.5195 15.7288 25.4701 15.8933 25.4701H16.3007C16.5229 25.4701 16.7121 25.5524 16.8685 25.717C17.0248 25.8733 17.103 26.0626 17.103 26.2848V33.6537C17.103 33.81 17.0495 33.9417 16.9425 34.0487C16.8355 34.1556 16.7039 34.2091 16.5475 34.2091C16.3912 34.2091 16.2554 34.1556 16.1402 34.0487C16.0332 33.9417 15.9797 33.81 15.9797 33.6537V26.6427L13.1285 33.6907C13.0626 33.847 12.9557 33.9746 12.8075 34.0733C12.6676 34.1639 12.5113 34.2091 12.3385 34.2091C12.1657 34.2091 12.0052 34.1639 11.8571 34.0733C11.7172 33.9746 11.6144 33.847 11.5485 33.6907L8.69723 26.6427V33.6537C8.69723 33.81 8.63963 33.9417 8.52443 34.0487C8.41745 34.1556 8.28579 34.2091 8.12944 34.2091ZM20.9148 34.2091C20.7585 34.2091 20.6268 34.1556 20.5198 34.0487C20.4129 33.9417 20.3594 33.81 20.3594 33.6537V26.0379C20.3594 25.8815 20.4129 25.7499 20.5198 25.6429C20.6268 25.5277 20.7585 25.4701 20.9148 25.4701C21.0712 25.4701 21.2028 25.5277 21.3098 25.6429C21.425 25.7499 21.4826 25.8815 21.4826 26.0379V29.963L25.704 25.6676C25.8192 25.5359 25.9591 25.4701 26.1237 25.4701C26.2636 25.4701 26.3829 25.5195 26.4816 25.6182C26.5886 25.7087 26.6421 25.8239 26.6421 25.9638C26.6421 26.1284 26.5968 26.256 26.5063 26.3465L23.655 29.1854L26.926 33.3081C27.0165 33.4233 27.0618 33.5426 27.0618 33.666C27.07 33.8141 27.0206 33.9417 26.9136 34.0487C26.8067 34.1556 26.675 34.2091 26.5187 34.2091C26.3294 34.2091 26.1813 34.1351 26.0743 33.9869L22.8897 29.926L21.4826 31.3455V33.6537C21.4826 33.81 21.425 33.9417 21.3098 34.0487C21.2028 34.1556 21.0712 34.2091 20.9148 34.2091ZM32.4425 34.2091C32.1051 34.2091 31.85 34.0199 31.6772 33.6413L28.6284 26.2477C28.6037 26.1819 28.5914 26.1119 28.5914 26.0379C28.5914 25.8651 28.6407 25.7293 28.7395 25.6306C28.8382 25.5236 28.974 25.4701 29.1468 25.4701C29.262 25.4701 29.3649 25.5071 29.4554 25.5812C29.5541 25.647 29.6282 25.7375 29.6776 25.8527L32.5782 33.0859L35.4789 25.8527C35.5283 25.7375 35.5982 25.647 35.6887 25.5812C35.7875 25.5071 35.8944 25.4701 36.0097 25.4701C36.1825 25.4701 36.3182 25.5236 36.417 25.6306C36.5157 25.7293 36.5651 25.8651 36.5651 26.0379C36.5651 26.1119 36.5528 26.1819 36.5281 26.2477L33.4793 33.6413C33.3065 34.0199 33.0514 34.2091 32.714 34.2091H32.4425Z" fill="white"/>
<path d="M7.73446 34.0487L7.95542 33.8277H7.95542L7.73446 34.0487ZM7.80852 25.717L8.02956 25.938L8.03507 25.9322L7.80852 25.717ZM9.22799 25.6182L9.04042 25.8683L9.04779 25.8735L9.22799 25.6182ZM9.53658 25.9885L9.8268 25.8721L9.82213 25.8616L9.53658 25.9885ZM12.3385 32.9748L12.0485 33.0911L12.3385 33.8143L12.6285 33.0911L12.3385 32.9748ZM15.1404 25.9885L14.8547 25.8615L14.8504 25.8722L15.1404 25.9885ZM15.4366 25.6182L15.2564 25.3628L15.2492 25.3682L15.4366 25.6182ZM16.8685 25.717L16.6418 25.9323L16.6475 25.9379L16.8685 25.717ZM16.9425 34.0487L17.1635 34.2696V34.2696L16.9425 34.0487ZM16.1402 34.0487L15.9191 34.2698L15.9276 34.2776L16.1402 34.0487ZM15.9797 26.6427H16.2922L15.6901 26.5255L15.9797 26.6427ZM13.1285 33.6907L13.4165 33.812L13.4181 33.8079L13.1285 33.6907ZM12.8075 34.0733L12.9773 34.3357L12.9809 34.3333L12.8075 34.0733ZM11.8571 34.0733L11.6769 34.3286L11.6853 34.3346L11.6942 34.34L11.8571 34.0733ZM11.5485 33.6907L11.2588 33.8079L11.2605 33.812L11.5485 33.6907ZM8.69723 26.6427L8.98691 26.5255L8.38475 26.6427H8.69723ZM8.52443 34.0487L8.31165 33.8195L8.30347 33.8277L8.52443 34.0487ZM8.12945 33.8966C8.05287 33.8966 8.00164 33.8739 7.95542 33.8277L7.5135 34.2696C7.68123 34.4373 7.89332 34.5216 8.12945 34.5216V33.8966ZM7.95542 33.8277C7.90921 33.7815 7.88649 33.7302 7.88649 33.6537H7.26151C7.26151 33.8898 7.34577 34.1019 7.5135 34.2696L7.95542 33.8277ZM7.88649 33.6537V26.2848H7.26151V33.6537H7.88649ZM7.88649 26.2848C7.88649 26.145 7.93206 26.0354 8.02948 25.9379L7.58756 25.496C7.37229 25.7113 7.26151 25.9801 7.26151 26.2848H7.88649ZM8.03507 25.9322C8.13387 25.8282 8.24187 25.7826 8.37631 25.7826V25.1576C8.0664 25.1576 7.79586 25.2766 7.58197 25.5017L8.03507 25.9322ZM8.37631 25.7826H8.78364V25.1576H8.37631V25.7826ZM8.78364 25.7826C8.8806 25.7826 8.96293 25.81 9.0405 25.8682L9.41549 25.3682C9.22973 25.2289 9.01583 25.1576 8.78364 25.1576V25.7826ZM9.04779 25.8735C9.14433 25.9417 9.20939 26.0218 9.25102 26.1154L9.82213 25.8616C9.7321 25.659 9.59144 25.4923 9.4082 25.3629L9.04779 25.8735ZM9.24654 26.1048L12.0485 33.0911L12.6285 32.8585L9.82661 25.8722L9.24654 26.1048ZM12.6285 33.0911L15.4304 26.1048L14.8504 25.8722L12.0485 32.8585L12.6285 33.0911ZM15.426 26.1154C15.4698 26.0168 15.5344 25.9355 15.6241 25.8682L15.2492 25.3682C15.0755 25.4984 14.9427 25.664 14.8549 25.8616L15.426 26.1154ZM15.6169 25.8735C15.7063 25.8104 15.796 25.7826 15.8933 25.7826V25.1576C15.6615 25.1576 15.4468 25.2286 15.2564 25.3629L15.6169 25.8735ZM15.8933 25.7826H16.3007V25.1576H15.8933V25.7826ZM16.3007 25.7826C16.4351 25.7826 16.5431 25.8282 16.6419 25.9322L17.095 25.5017C16.8811 25.2766 16.6106 25.1576 16.3007 25.1576V25.7826ZM16.6475 25.9379C16.7449 26.0354 16.7905 26.145 16.7905 26.2848H17.4155C17.4155 25.9801 17.3047 25.7113 17.0894 25.496L16.6475 25.9379ZM16.7905 26.2848V33.6537H17.4155V26.2848H16.7905ZM16.7905 33.6537C16.7905 33.7302 16.7678 33.7815 16.7216 33.8277L17.1635 34.2696C17.3312 34.1019 17.4155 33.8898 17.4155 33.6537H16.7905ZM16.7216 33.8277C16.6753 33.8739 16.6241 33.8966 16.5475 33.8966V34.5216C16.7837 34.5216 16.9958 34.4373 17.1635 34.2696L16.7216 33.8277ZM16.5475 33.8966C16.4705 33.8966 16.4106 33.8733 16.3528 33.8197L15.9276 34.2776C16.1002 34.438 16.3118 34.5216 16.5475 34.5216V33.8966ZM16.3612 33.8277C16.315 33.7815 16.2922 33.7302 16.2922 33.6537H15.6673C15.6673 33.8898 15.7515 34.1019 15.9192 34.2696L16.3612 33.8277ZM16.2922 33.6537V26.6427H15.6673V33.6537H16.2922ZM15.6901 26.5255L12.8388 33.5735L13.4181 33.8079L16.2694 26.7599L15.6901 26.5255ZM12.8405 33.5694C12.7996 33.6664 12.734 33.7468 12.6342 33.8133L12.9809 34.3333C13.1773 34.2024 13.3256 34.0277 13.4165 33.812L12.8405 33.5694ZM12.6378 33.811C12.5504 33.8675 12.4534 33.8966 12.3385 33.8966V34.5216C12.5692 34.5216 12.7849 34.4602 12.9773 34.3357L12.6378 33.811ZM12.3385 33.8966C12.2235 33.8966 12.1193 33.8674 12.0201 33.8067L11.6942 34.34C11.8911 34.4603 12.1079 34.5216 12.3385 34.5216V33.8966ZM12.0373 33.818C11.9447 33.7527 11.8794 33.6714 11.8365 33.5694L11.2605 33.812C11.3493 34.0227 11.4897 34.1965 11.6769 34.3286L12.0373 33.818ZM11.8382 33.5735L8.98691 26.5255L8.40755 26.7599L11.2588 33.8079L11.8382 33.5735ZM8.38475 26.6427V33.6537H9.00972V26.6427H8.38475ZM8.38475 33.6537C8.38475 33.7226 8.36373 33.7714 8.3118 33.8197L8.73706 34.2776C8.91554 34.1119 9.00972 33.8975 9.00972 33.6537H8.38475ZM8.30347 33.8277C8.25725 33.8739 8.20602 33.8966 8.12945 33.8966V34.5216C8.36557 34.5216 8.57766 34.4373 8.74539 34.2696L8.30347 33.8277ZM20.5198 34.0487L20.7408 33.8277L20.5198 34.0487ZM20.5198 25.6429L20.741 25.864L20.7488 25.8555L20.5198 25.6429ZM21.3098 25.6429L21.0808 25.8555L21.0887 25.864L21.0972 25.8719L21.3098 25.6429ZM21.4826 29.963H21.1701V30.7268L21.7055 30.1821L21.4826 29.963ZM25.704 25.6676L25.9269 25.8866L25.9332 25.8802L25.9392 25.8734L25.704 25.6676ZM26.4816 25.6182L26.2607 25.8392L26.2699 25.8484L26.2798 25.8568L26.4816 25.6182ZM26.5063 26.3465L26.7268 26.5679L26.7273 26.5674L26.5063 26.3465ZM23.655 29.1854L23.4345 28.964L23.2367 29.1609L23.4102 29.3796L23.655 29.1854ZM26.926 33.3081L27.1717 33.115L27.1708 33.1138L26.926 33.3081ZM27.0618 33.666H26.7493V33.6747L26.7498 33.6833L27.0618 33.666ZM26.9136 34.0487L27.1346 34.2696L26.9136 34.0487ZM26.0743 33.9869L26.3278 33.8038L26.3202 33.7941L26.0743 33.9869ZM22.8897 29.926L23.1356 29.7332L22.9171 29.4545L22.6678 29.706L22.8897 29.926ZM21.4826 31.3455L21.2607 31.1255L21.1701 31.2168V31.3455H21.4826ZM21.3098 34.0487L21.097 33.8195L21.0889 33.8277L21.3098 34.0487ZM20.9148 33.8966C20.8383 33.8966 20.787 33.8739 20.7408 33.8277L20.2989 34.2696C20.4666 34.4373 20.6787 34.5216 20.9148 34.5216V33.8966ZM20.7408 33.8277C20.6946 33.7815 20.6719 33.7302 20.6719 33.6537H20.0469C20.0469 33.8898 20.1311 34.1019 20.2989 34.2696L20.7408 33.8277ZM20.6719 33.6537V26.0379H20.0469V33.6537H20.6719ZM20.6719 26.0379C20.6719 25.9613 20.6946 25.9101 20.7408 25.8639L20.2989 25.4219C20.1311 25.5897 20.0469 25.8018 20.0469 26.0379H20.6719ZM20.7488 25.8555C20.7971 25.8036 20.8459 25.7826 20.9148 25.7826V25.1576C20.671 25.1576 20.4566 25.2518 20.2909 25.4303L20.7488 25.8555ZM20.9148 25.7826C20.9837 25.7826 21.0326 25.8036 21.0808 25.8555L21.5388 25.4303C21.3731 25.2518 21.1586 25.1576 20.9148 25.1576V25.7826ZM21.0972 25.8719C21.1491 25.9201 21.1701 25.969 21.1701 26.0379H21.7951C21.7951 25.7941 21.7009 25.5796 21.5224 25.4139L21.0972 25.8719ZM21.1701 26.0379V29.963H21.7951V26.0379H21.1701ZM21.7055 30.1821L25.9269 25.8866L25.4811 25.4486L21.2597 29.744L21.7055 30.1821ZM25.9392 25.8734C25.9993 25.8047 26.0555 25.7826 26.1237 25.7826V25.1576C25.8627 25.1576 25.6391 25.2672 25.4688 25.4618L25.9392 25.8734ZM26.1237 25.7826C26.1809 25.7826 26.2206 25.7992 26.2607 25.8392L26.7026 25.3973C26.5451 25.2398 26.3463 25.1576 26.1237 25.1576V25.7826ZM26.2798 25.8568C26.3167 25.888 26.3296 25.916 26.3296 25.9638H26.9546C26.9546 25.7318 26.8605 25.5294 26.6835 25.3797L26.2798 25.8568ZM26.3296 25.9638C26.3296 26.0703 26.3018 26.109 26.2854 26.1255L26.7273 26.5674C26.8919 26.4029 26.9546 26.1865 26.9546 25.9638H26.3296ZM26.2858 26.125L23.4345 28.964L23.8755 29.4069L26.7268 26.5679L26.2858 26.125ZM23.4102 29.3796L26.6812 33.5023L27.1708 33.1138L23.8998 28.9912L23.4102 29.3796ZM26.6803 33.5011C26.7359 33.572 26.7493 33.6251 26.7493 33.666H27.3743C27.3743 33.4601 27.2971 33.2746 27.1717 33.115L26.6803 33.5011ZM26.7498 33.6833C26.7529 33.7407 26.7382 33.7822 26.6927 33.8277L27.1346 34.2696C27.303 34.1012 27.387 33.8876 27.3738 33.6487L26.7498 33.6833ZM26.6927 33.8277C26.6465 33.8739 26.5952 33.8966 26.5187 33.8966V34.5216C26.7548 34.5216 26.9669 34.4373 27.1346 34.2696L26.6927 33.8277ZM26.5187 33.8966C26.4255 33.8966 26.3734 33.8674 26.3276 33.804L25.821 34.1699C25.9891 34.4027 26.2333 34.5216 26.5187 34.5216V33.8966ZM26.3202 33.7941L23.1356 29.7332L22.6439 30.1188L25.8284 34.1798L26.3202 33.7941ZM22.6678 29.706L21.2607 31.1255L21.7045 31.5655L23.1117 30.146L22.6678 29.706ZM21.1701 31.3455V33.6537H21.7951V31.3455H21.1701ZM21.1701 33.6537C21.1701 33.7226 21.1491 33.7714 21.0972 33.8197L21.5224 34.2776C21.7009 34.1119 21.7951 33.8975 21.7951 33.6537H21.1701ZM21.0889 33.8277C21.0426 33.8739 20.9914 33.8966 20.9148 33.8966V34.5216C21.151 34.5216 21.363 34.4373 21.5308 34.2696L21.0889 33.8277ZM31.6772 33.6413L31.3881 33.7605L31.3929 33.7711L31.6772 33.6413ZM28.6284 26.2477L28.3356 26.3575L28.3395 26.3668L28.6284 26.2477ZM28.7395 25.6306L28.9606 25.8517L28.9691 25.8425L28.7395 25.6306ZM29.4554 25.5812L29.2575 25.823L29.2693 25.8327L29.2821 25.8412L29.4554 25.5812ZM29.6776 25.8527L29.9677 25.7364L29.9648 25.7296L29.6776 25.8527ZM32.5782 33.0859L32.2882 33.2022L32.5782 33.9254L32.8683 33.2022L32.5782 33.0859ZM35.4789 25.8527L35.1916 25.7296L35.1889 25.7364L35.4789 25.8527ZM35.6887 25.5812L35.8725 25.8339L35.8762 25.8312L35.6887 25.5812ZM36.417 25.6306L36.1872 25.8427L36.196 25.8515L36.417 25.6306ZM36.5281 26.2477L36.8171 26.3669L36.8207 26.3574L36.5281 26.2477ZM33.4793 33.6413L33.7638 33.7712L33.7682 33.7605L33.4793 33.6413ZM32.4425 33.8966C32.3364 33.8966 32.2545 33.8683 32.1843 33.8162C32.1103 33.7613 32.0325 33.6672 31.9614 33.5116L31.3929 33.7711C31.4946 33.994 31.6308 34.1838 31.8119 34.3181C31.9968 34.4553 32.2111 34.5216 32.4425 34.5216V33.8966ZM31.9661 33.5222L28.9173 26.1286L28.3395 26.3668L31.3883 33.7605L31.9661 33.5222ZM28.921 26.138C28.9101 26.1091 28.9038 26.0765 28.9038 26.0379H28.2789C28.2789 26.1474 28.2973 26.2547 28.3358 26.3574L28.921 26.138ZM28.9038 26.0379C28.9038 25.9271 28.9336 25.8784 28.9604 25.8515L28.5185 25.4096C28.3479 25.5802 28.2789 25.8031 28.2789 26.0379H28.9038ZM28.9691 25.8425C28.9976 25.8116 29.0435 25.7826 29.1468 25.7826V25.1576C28.9045 25.1576 28.6788 25.2356 28.5099 25.4186L28.9691 25.8425ZM29.1468 25.7826C29.1887 25.7826 29.2219 25.7939 29.2575 25.823L29.6533 25.3393C29.5078 25.2204 29.3353 25.1576 29.1468 25.1576V25.7826ZM29.2821 25.8412C29.3275 25.8715 29.3634 25.9131 29.3903 25.9758L29.9648 25.7296C29.8929 25.562 29.7808 25.4226 29.6287 25.3212L29.2821 25.8412ZM29.3875 25.969L32.2882 33.2022L32.8683 32.9696L29.9676 25.7364L29.3875 25.969ZM32.8683 33.2022L35.7689 25.969L35.1889 25.7364L32.2882 32.9696L32.8683 33.2022ZM35.7661 25.9758C35.796 25.906 35.8328 25.8628 35.8725 25.8339L35.5049 25.3285C35.3636 25.4312 35.2605 25.5691 35.1917 25.7296L35.7661 25.9758ZM35.8762 25.8312C35.925 25.7946 35.967 25.7826 36.0097 25.7826V25.1576C35.8219 25.1576 35.65 25.2197 35.5012 25.3312L35.8762 25.8312ZM36.0097 25.7826C36.113 25.7826 36.1588 25.8116 36.1874 25.8425L36.6466 25.4186C36.4776 25.2356 36.2519 25.1576 36.0097 25.1576V25.7826ZM36.196 25.8515C36.2229 25.8784 36.2526 25.9271 36.2526 26.0379H36.8776C36.8776 25.8031 36.8086 25.5802 36.6379 25.4096L36.196 25.8515ZM36.2526 26.0379C36.2526 26.0765 36.2463 26.1091 36.2355 26.138L36.8207 26.3574C36.8592 26.2547 36.8776 26.1474 36.8776 26.0379H36.2526ZM36.2392 26.1286L33.1904 33.5222L33.7682 33.7605L36.817 26.3668L36.2392 26.1286ZM33.195 33.5116C33.124 33.6672 33.0462 33.7613 32.9722 33.8162C32.9019 33.8683 32.8201 33.8966 32.714 33.8966V34.5216C32.9453 34.5216 33.1597 34.4553 33.3446 34.3181C33.5256 34.1838 33.6618 33.994 33.7636 33.7711L33.195 33.5116ZM32.714 33.8966H32.4425V34.5216H32.714V33.8966Z" fill="white"/>
<g filter="url(#filter1_d_1628_44547)">
<path d="M42.6828 16.4289H30.1833C28.2849 16.4289 26.746 14.8899 26.746 12.9915V0.492058L42.6828 16.4289Z" fill="url(#paint2_linear_1628_44547)"/>
</g>
</g>
<defs>
<filter id="filter0_f_1628_44547" x="1.5896" y="17.6789" width="39.9984" height="25.3115" filterUnits="userSpaceOnUse" color-interpolation-filters="sRGB">
<feFlood flood-opacity="0" result="BackgroundImageFix"/>
<feBlend mode="normal" in="SourceGraphic" in2="BackgroundImageFix" result="shape"/>
<feGaussianBlur stdDeviation="3.04675" result="effect1_foregroundBlur_1628_44547"/>
</filter>
<filter id="filter1_d_1628_44547" x="23.1524" y="-3.25779" width="23.7491" height="23.749" filterUnits="userSpaceOnUse" color-interpolation-filters="sRGB">
<feFlood flood-opacity="0" result="BackgroundImageFix"/>
<feColorMatrix in="SourceAlpha" type="matrix" values="0 0 0 0 0 0 0 0 0 0 0 0 0 0 0 0 0 0 127 0" result="hardAlpha"/>
<feOffset dx="0.312487" dy="0.156244"/>
<feGaussianBlur stdDeviation="1.95305"/>
<feColorMatrix type="matrix" values="0 0 0 0 0 0 0 0 0 0 0 0 0 0 0 0 0 0 0.33 0"/>
<feBlend mode="normal" in2="BackgroundImageFix" result="effect1_dropShadow_1628_44547"/>
<feBlend mode="normal" in="SourceGraphic" in2="effect1_dropShadow_1628_44547" result="shape"/>
</filter>
<linearGradient id="paint0_linear_1628_44547" x1="21.4327" y1="0.492096" x2="21.4327" y2="48.6151" gradientUnits="userSpaceOnUse">
<stop stop-color="#FF7979"/>
<stop offset="1" stop-color="#E85555"/>
</linearGradient>
<linearGradient id="paint1_linear_1628_44547" x1="21.4331" y1="0.492058" x2="21.4331" y2="48.6151" gradientUnits="userSpaceOnUse">
<stop stop-color="#CB74F4"/>
<stop offset="0.942892" stop-color="#A849F3"/>
</linearGradient>
<linearGradient id="paint2_linear_1628_44547" x1="34.7144" y1="0.492058" x2="34.7144" y2="16.4289" gradientUnits="userSpaceOnUse">
<stop stop-color="#B051E0"/>
<stop offset="1" stop-color="#952BCB"/>
</linearGradient>
</defs>
</svg>
