<svg width="36" height="18" viewBox="0 0 36 18" fill="none" xmlns="http://www.w3.org/2000/svg">
<path d="M36 3.22045V10.2782C36 12.0568 34.5582 13.4986 32.7796 13.4986H4.93844C3.9646 13.4986 3.04298 13.9392 2.43167 14.6973L0.2045 17.4589C0.136411 17.5433 0 17.4951 0 17.3866V3.22045C0 1.44184 1.44184 0 3.22045 0H32.7796C34.5582 0 36 1.44184 36 3.22045Z" fill="#2C2C35"/>
<path fill-rule="evenodd" clip-rule="evenodd" d="M7.82097 10.3514C9.98074 10.3514 11.7315 8.60061 11.7315 6.44084C11.7315 4.28107 9.98074 2.5303 7.82097 2.5303C5.6612 2.5303 3.91043 4.28107 3.91043 6.44084C3.91043 8.60061 5.6612 10.3514 7.82097 10.3514ZM7.82097 10.4664C10.0442 10.4664 11.8465 8.6641 11.8465 6.44084C11.8465 4.21758 10.0442 2.41528 7.82097 2.41528C5.59771 2.41528 3.79541 4.21758 3.79541 6.44084C3.79541 8.6641 5.59771 10.4664 7.82097 10.4664Z" fill="white"/>
<path fill-rule="evenodd" clip-rule="evenodd" d="M4.62695 8.89118C5.36283 7.93332 6.51989 7.31592 7.82106 7.31592C9.12235 7.31592 10.2793 7.93332 11.0152 8.89118C10.2793 9.84903 9.12235 10.4664 7.82106 10.4664C6.51989 10.4664 5.36283 9.84903 4.62695 8.89118Z" fill="white"/>
<path d="M9.39657 5.44871C9.39657 6.28649 8.7174 6.96555 7.87962 6.96555C7.04185 6.96555 6.36279 6.28649 6.36279 5.44871C6.36279 4.61094 7.04185 3.93188 7.87962 3.93188C8.7174 3.93188 9.39657 4.61094 9.39657 5.44871Z" fill="white"/>
<path d="M31.4569 5.40586H15.4122C15.2851 5.40586 15.1821 5.30293 15.1821 5.17583C15.1821 5.04874 15.2851 4.9458 15.4122 4.9458H31.4569C31.584 4.9458 31.6869 5.04874 31.6869 5.17583C31.6869 5.30293 31.584 5.40586 31.4569 5.40586Z" fill="white"/>
<path d="M28.0064 8.28111H15.4122C15.2851 8.28111 15.1821 8.17817 15.1821 8.05108C15.1821 7.92398 15.2851 7.82104 15.4122 7.82104H28.0064C28.1335 7.82104 28.2364 7.92398 28.2364 8.05108C28.2364 8.17817 28.1335 8.28111 28.0064 8.28111Z" fill="white"/>
</svg>
