<svg width="16" height="16" viewBox="0 0 16 16" fill="none" xmlns="http://www.w3.org/2000/svg">
<path d="M1.33337 5.66666H8.66671" stroke="#7E7E8F" stroke-width="1.5" stroke-miterlimit="10" stroke-linecap="round" stroke-linejoin="round"/>
<path d="M4 11H5.33333" stroke="#7E7E8F" stroke-width="1.5" stroke-miterlimit="10" stroke-linecap="round" stroke-linejoin="round"/>
<path d="M7 11H9.66667" stroke="#7E7E8F" stroke-width="1.5" stroke-miterlimit="10" stroke-linecap="round" stroke-linejoin="round"/>
<path d="M14.6667 7.55336V10.74C14.6667 13.08 14.0734 13.6667 11.7067 13.6667H4.29337C1.92671 13.6667 1.33337 13.08 1.33337 10.74V5.26002C1.33337 2.92002 1.92671 2.33334 4.29337 2.33334H8.85337" stroke="#7E7E8F" stroke-width="1.5" stroke-linecap="round" stroke-linejoin="round"/>
<path d="M11.3333 2.16669H13.4199C13.8799 2.16669 14.2533 2.58669 14.2533 3.00002C14.2533 3.46002 13.8799 3.83335 13.4199 3.83335H11.3333V2.16669Z" stroke="#7E7E8F" stroke-width="1.5" stroke-miterlimit="10" stroke-linecap="round" stroke-linejoin="round"/>
<path d="M11.3333 3.83334H13.7133C14.2399 3.83334 14.6666 4.20668 14.6666 4.66668C14.6666 5.12668 14.2399 5.50001 13.7133 5.50001H11.3333V3.83334Z" stroke="#7E7E8F" stroke-width="1.5" stroke-miterlimit="10" stroke-linecap="round" stroke-linejoin="round"/>
<path d="M12.5066 5.5V6.33333" stroke="#7E7E8F" stroke-width="1.5" stroke-miterlimit="10" stroke-linecap="round" stroke-linejoin="round"/>
<path d="M12.5066 1.33334V2.16668" stroke="#7E7E8F" stroke-width="1.5" stroke-miterlimit="10" stroke-linecap="round" stroke-linejoin="round"/>
<path d="M12.1266 2.16669H10.6666" stroke="#7E7E8F" stroke-width="1.5" stroke-miterlimit="10" stroke-linecap="round" stroke-linejoin="round"/>
<path d="M12.1266 5.5H10.6666" stroke="#7E7E8F" stroke-width="1.5" stroke-miterlimit="10" stroke-linecap="round" stroke-linejoin="round"/>
</svg>
