<svg width="32" height="32" viewBox="0 0 32 32" fill="none" xmlns="http://www.w3.org/2000/svg">
<path d="M12.4269 17.7067H16.5469V27.3067C16.5469 28.72 18.3069 29.3867 19.2402 28.32L29.3336 16.8533C30.2136 15.8533 29.5069 14.2933 28.1736 14.2933H24.0536V4.69332C24.0536 3.27999 22.2936 2.61332 21.3602 3.67999L11.2669 15.1467C10.4002 16.1467 11.1069 17.7067 12.4269 17.7067Z" fill="#9A9AAF"/>
<path d="M11.3333 6.33334H2C1.45333 6.33334 1 5.88001 1 5.33334C1 4.78668 1.45333 4.33334 2 4.33334H11.3333C11.88 4.33334 12.3333 4.78668 12.3333 5.33334C12.3333 5.88001 11.88 6.33334 11.3333 6.33334Z" fill="#9A9AAF"/>
<path d="M10 27.6667H2C1.45333 27.6667 1 27.2133 1 26.6667C1 26.12 1.45333 25.6667 2 25.6667H10C10.5467 25.6667 11 26.12 11 26.6667C11 27.2133 10.5467 27.6667 10 27.6667Z" fill="#9A9AAF"/>
<path d="M6 17H2C1.45333 17 1 16.5467 1 16C1 15.4533 1.45333 15 2 15H6C6.54667 15 7 15.4533 7 16C7 16.5467 6.54667 17 6 17Z" fill="#9A9AAF"/>
</svg>
