<svg width="43" height="49" viewBox="0 0 43 49" fill="none" xmlns="http://www.w3.org/2000/svg">
<mask id="mask0_1628_44442" style="mask-type:alpha" maskUnits="userSpaceOnUse" x="0" y="0" width="43" height="49">
<path d="M39.2443 48.123H3.62071C1.72231 48.123 0.18335 46.5841 0.18335 44.6857V3.43736C0.18335 1.53896 1.72231 0 3.62071 0H26.7448L42.6816 15.9368V44.6857C42.6816 46.5841 41.1427 48.123 39.2443 48.123Z" fill="url(#paint0_linear_1628_44442)"/>
</mask>
<g mask="url(#mask0_1628_44442)">
<path d="M39.2443 48.123H3.62071C1.72231 48.123 0.18335 46.5841 0.18335 44.6857V3.43736C0.18335 1.53896 1.72231 0 3.62071 0H26.7448L42.6816 15.9368V44.6857C42.6816 46.5841 41.1427 48.123 39.2443 48.123Z" fill="url(#paint1_linear_1628_44442)"/>
<path d="M9.90411 33.717C9.74776 33.717 9.6161 33.6635 9.50912 33.5565C9.40215 33.4496 9.34866 33.3179 9.34866 33.1616V25.6075C9.34866 25.4511 9.40215 25.3195 9.50912 25.2125C9.6161 25.0973 9.74776 25.0397 9.90411 25.0397H12.7184C13.5001 25.0397 14.1378 25.1714 14.6316 25.4347C15.1253 25.698 15.4791 26.0354 15.6931 26.4468C15.907 26.8583 16.014 27.3026 16.014 27.7799C16.014 28.2572 15.907 28.7015 15.6931 29.113C15.4791 29.5244 15.1253 29.8618 14.6316 30.1251C14.1378 30.3884 13.5001 30.5201 12.7184 30.5201H10.4719V33.1616C10.4719 33.3179 10.4143 33.4496 10.2991 33.5565C10.1921 33.6635 10.0605 33.717 9.90411 33.717ZM12.6073 29.4586C13.4466 29.4586 14.035 29.2981 14.3724 28.9772C14.718 28.6563 14.8908 28.2572 14.8908 27.7799C14.8908 27.3026 14.718 26.9035 14.3724 26.5826C14.035 26.2617 13.4466 26.1012 12.6073 26.1012H10.4719V29.4586H12.6073ZM19.0613 33.6553C18.9049 33.6553 18.7732 33.6018 18.6663 33.4948C18.5593 33.3879 18.5058 33.2562 18.5058 33.0998V25.6075C18.5058 25.4511 18.5593 25.3195 18.6663 25.2125C18.7732 25.0973 18.9049 25.0397 19.0613 25.0397H21.5422C22.4803 25.0397 23.2744 25.2495 23.9245 25.6692C24.5828 26.0807 25.0765 26.6155 25.4057 27.2738C25.7348 27.9321 25.8994 28.6234 25.8994 29.3475C25.8994 30.0716 25.7348 30.7629 25.4057 31.4212C25.0765 32.0795 24.5828 32.6185 23.9245 33.0381C23.2744 33.4496 22.4803 33.6553 21.5422 33.6553H19.0613ZM21.4065 32.6061C22.0812 32.6061 22.6737 32.4703 23.1839 32.1988C23.6941 31.919 24.0891 31.5364 24.3688 31.0509C24.6486 30.5571 24.7885 29.9893 24.7885 29.3475C24.7885 28.7056 24.6486 28.142 24.3688 27.6565C24.0891 27.1627 23.6941 26.7801 23.1839 26.5085C22.6737 26.2288 22.0812 26.0889 21.4065 26.0889H19.629V32.6061H21.4065ZM29.1948 33.717C29.0384 33.717 28.9068 33.6635 28.7998 33.5565C28.6928 33.4496 28.6393 33.3179 28.6393 33.1616V25.6075C28.6393 25.4511 28.6928 25.3195 28.7998 25.2125C28.9068 25.0973 29.0384 25.0397 29.1948 25.0397H33.9963C34.1444 25.0397 34.2678 25.0932 34.3666 25.2002C34.4736 25.2989 34.527 25.4223 34.527 25.5705C34.527 25.7186 34.4736 25.842 34.3666 25.9408C34.2678 26.0395 34.1444 26.0889 33.9963 26.0889H29.7626V28.8167H33.5643C33.7124 28.8167 33.8358 28.8702 33.9346 28.9772C34.0415 29.0759 34.095 29.1994 34.095 29.3475C34.095 29.4956 34.0415 29.619 33.9346 29.7178C33.8358 29.8165 33.7124 29.8659 33.5643 29.8659H29.7626V33.1616C29.7626 33.3179 29.705 33.4496 29.5898 33.5565C29.4828 33.6635 29.3511 33.717 29.1948 33.717Z" fill="white"/>
<path d="M9.50912 33.5565L9.73009 33.3356H9.73009L9.50912 33.5565ZM9.50912 25.2125L9.73024 25.4336L9.73811 25.4251L9.50912 25.2125ZM15.6931 26.4468L15.4158 26.591L15.6931 26.4468ZM15.6931 29.113L15.4158 28.9688L15.4158 28.9688L15.6931 29.113ZM10.4719 30.5201V30.2076H10.1594V30.5201H10.4719ZM10.2991 33.5565L10.0863 33.3274L10.0781 33.3356L10.2991 33.5565ZM14.3724 28.9772L14.1597 28.7482L14.157 28.7508L14.3724 28.9772ZM14.3724 26.5826L14.157 26.809L14.1597 26.8116L14.3724 26.5826ZM10.4719 26.1012V25.7887H10.1594V26.1012H10.4719ZM10.4719 29.4586H10.1594V29.7711H10.4719V29.4586ZM9.90411 33.4045C9.82754 33.4045 9.7763 33.3818 9.73009 33.3356L9.28816 33.7775C9.4559 33.9452 9.66798 34.0295 9.90411 34.0295V33.4045ZM9.73009 33.3356C9.68387 33.2894 9.66115 33.2381 9.66115 33.1616H9.03617C9.03617 33.3977 9.12043 33.6098 9.28816 33.7775L9.73009 33.3356ZM9.66115 33.1616V25.6075H9.03617V33.1616H9.66115ZM9.66115 25.6075C9.66115 25.5309 9.68387 25.4797 9.73009 25.4335L9.28816 24.9915C9.12043 25.1593 9.03617 25.3714 9.03617 25.6075H9.66115ZM9.73811 25.4251C9.78633 25.3732 9.8352 25.3522 9.90411 25.3522V24.7272C9.66032 24.7272 9.44586 24.8214 9.28014 24.9999L9.73811 25.4251ZM9.90411 25.3522H12.7184V24.7272H9.90411V25.3522ZM12.7184 25.3522C13.4681 25.3522 14.0504 25.4789 14.4845 25.7104L14.7786 25.159C14.2253 24.8638 13.5322 24.7272 12.7184 24.7272V25.3522ZM14.4845 25.7104C14.9343 25.9503 15.2366 26.2463 15.4158 26.591L15.9703 26.3027C15.7217 25.8245 15.3163 25.4457 14.7786 25.159L14.4845 25.7104ZM15.4158 26.591C15.606 26.9566 15.7015 27.3513 15.7015 27.7799H16.3265C16.3265 27.254 16.2081 26.76 15.9703 26.3027L15.4158 26.591ZM15.7015 27.7799C15.7015 28.2085 15.606 28.6032 15.4158 28.9688L15.9703 29.2571C16.2081 28.7998 16.3265 28.3058 16.3265 27.7799H15.7015ZM15.4158 28.9688C15.2366 29.3136 14.9343 29.6095 14.4845 29.8494L14.7786 30.4008C15.3163 30.1141 15.7217 29.7353 15.9703 29.2571L15.4158 28.9688ZM14.4845 29.8494C14.0504 30.0809 13.4681 30.2076 12.7184 30.2076V30.8326C13.5322 30.8326 14.2253 30.696 14.7786 30.4008L14.4845 29.8494ZM12.7184 30.2076H10.4719V30.8326H12.7184V30.2076ZM10.1594 30.5201V33.1616H10.7844V30.5201H10.1594ZM10.1594 33.1616C10.1594 33.2305 10.1384 33.2793 10.0865 33.3276L10.5117 33.7855C10.6902 33.6198 10.7844 33.4053 10.7844 33.1616H10.1594ZM10.0781 33.3356C10.0319 33.3818 9.98068 33.4045 9.90411 33.4045V34.0295C10.1402 34.0295 10.3523 33.9452 10.5201 33.7775L10.0781 33.3356ZM12.6073 29.7711C13.4685 29.7711 14.1606 29.6099 14.5877 29.2036L14.157 28.7508C13.9094 28.9863 13.4247 29.1461 12.6073 29.1461V29.7711ZM14.585 29.2062C14.9951 28.8253 15.2033 28.3429 15.2033 27.7799H14.5783C14.5783 28.1715 14.4408 28.4872 14.1597 28.7482L14.585 29.2062ZM15.2033 27.7799C15.2033 27.2169 14.9951 26.7345 14.585 26.3536L14.1597 26.8116C14.4408 27.0726 14.5783 27.3883 14.5783 27.7799H15.2033ZM14.5877 26.3562C14.1606 25.9499 13.4685 25.7887 12.6073 25.7887V26.4137C13.4247 26.4137 13.9094 26.5735 14.157 26.809L14.5877 26.3562ZM12.6073 25.7887H10.4719V26.4137H12.6073V25.7887ZM10.1594 26.1012V29.4586H10.7844V26.1012H10.1594ZM10.4719 29.7711H12.6073V29.1461H10.4719V29.7711ZM18.6663 33.4948L18.8872 33.2739L18.6663 33.4948ZM18.6663 25.2125L18.8874 25.4336L18.8953 25.4251L18.6663 25.2125ZM23.9245 25.6692L23.755 25.9318L23.7589 25.9342L23.9245 25.6692ZM25.4057 27.2738L25.1262 27.4136L25.4057 27.2738ZM25.4057 31.4212L25.1262 31.2814L25.4057 31.4212ZM23.9245 33.0381L24.0916 33.3022L24.0925 33.3016L23.9245 33.0381ZM23.1839 32.1988L23.3307 32.4747L23.3342 32.4728L23.1839 32.1988ZM24.3688 31.0509L24.6396 31.2069L24.6407 31.2049L24.3688 31.0509ZM24.3688 27.6565L24.097 27.8105L24.0981 27.8125L24.3688 27.6565ZM23.1839 26.5085L23.0336 26.7826L23.0371 26.7844L23.1839 26.5085ZM19.629 26.0889V25.7764H19.3166V26.0889H19.629ZM19.629 32.6061H19.3166V32.9186H19.629V32.6061ZM19.0613 33.3428C18.9847 33.3428 18.9334 33.3201 18.8872 33.2739L18.4453 33.7158C18.613 33.8835 18.8251 33.9678 19.0613 33.9678V33.3428ZM18.8872 33.2739C18.841 33.2276 18.8183 33.1764 18.8183 33.0998H18.1933C18.1933 33.336 18.2776 33.5481 18.4453 33.7158L18.8872 33.2739ZM18.8183 33.0998V25.6075H18.1933V33.0998H18.8183ZM18.8183 25.6075C18.8183 25.5309 18.841 25.4797 18.8872 25.4335L18.4453 24.9915C18.2776 25.1593 18.1933 25.3714 18.1933 25.6075H18.8183ZM18.8953 25.4251C18.9435 25.3732 18.9923 25.3522 19.0613 25.3522V24.7272C18.8175 24.7272 18.603 24.8214 18.4373 24.9999L18.8953 25.4251ZM19.0613 25.3522H21.5422V24.7272H19.0613V25.3522ZM21.5422 25.3522C22.4331 25.3522 23.1653 25.551 23.755 25.9317L24.094 25.4067C23.3836 24.9481 22.5276 24.7272 21.5422 24.7272V25.3522ZM23.7589 25.9342C24.3712 26.3169 24.8242 26.8096 25.1262 27.4136L25.6852 27.1341C25.3289 26.4215 24.7944 25.8444 24.0901 25.4042L23.7589 25.9342ZM25.1262 27.4136C25.434 28.0292 25.5869 28.6727 25.5869 29.3475H26.2119C26.2119 28.574 26.0357 27.835 25.6852 27.1341L25.1262 27.4136ZM25.5869 29.3475C25.5869 30.0223 25.434 30.6658 25.1262 31.2814L25.6852 31.5609C26.0357 30.86 26.2119 30.121 26.2119 29.3475H25.5869ZM25.1262 31.2814C24.8239 31.886 24.3701 32.3834 23.7565 32.7746L24.0925 33.3016C24.7954 32.8535 25.3292 32.2729 25.6852 31.5609L25.1262 31.2814ZM23.7574 32.7741C23.1673 33.1476 22.4342 33.3428 21.5422 33.3428V33.9678C22.5265 33.9678 23.3816 33.7516 24.0916 33.3022L23.7574 32.7741ZM21.5422 33.3428H19.0613V33.9678H21.5422V33.3428ZM21.4065 32.9186C22.1238 32.9186 22.7683 32.774 23.3307 32.4746L23.0371 31.9229C22.5791 32.1667 22.0386 32.2936 21.4065 32.2936V32.9186ZM23.3342 32.4728C23.8925 32.1666 24.3301 31.744 24.6396 31.2069L24.0981 30.8948C23.848 31.3288 23.4956 31.6714 23.0336 31.9248L23.3342 32.4728ZM24.6407 31.2049C24.9505 30.6583 25.101 30.0361 25.101 29.3475H24.476C24.476 29.9425 24.3468 30.4559 24.097 30.8968L24.6407 31.2049ZM25.101 29.3475C25.101 28.659 24.9505 28.0399 24.6396 27.5004L24.0981 27.8125C24.3468 28.244 24.476 28.7523 24.476 29.3475H25.101ZM24.6407 27.5024C24.3311 26.956 23.8923 26.5316 23.3307 26.2327L23.0371 26.7844C23.4959 27.0286 23.847 27.3695 24.097 27.8105L24.6407 27.5024ZM23.3342 26.2346C22.771 25.9258 22.1253 25.7764 21.4065 25.7764V26.4014C22.0372 26.4014 22.5764 26.5318 23.0336 26.7825L23.3342 26.2346ZM21.4065 25.7764H19.629V26.4014H21.4065V25.7764ZM19.3166 26.0889V32.6061H19.9415V26.0889H19.3166ZM19.629 32.9186H21.4065V32.2936H19.629V32.9186ZM28.7998 33.5565L29.0207 33.3356L28.7998 33.5565ZM28.7998 25.2125L29.0209 25.4336L29.0288 25.4251L28.7998 25.2125ZM34.3666 25.2002L34.137 25.4121L34.1454 25.4213L34.1546 25.4298L34.3666 25.2002ZM34.3666 25.9408L34.1545 25.711L34.1456 25.7198L34.3666 25.9408ZM29.7626 26.0889V25.7764H29.4501V26.0889H29.7626ZM29.7626 28.8167H29.4501V29.1292H29.7626V28.8167ZM33.9346 28.9772L33.705 29.1892L33.7134 29.1983L33.7226 29.2068L33.9346 28.9772ZM33.9346 29.7178L33.7225 29.488L33.7136 29.4968L33.9346 29.7178ZM29.7626 29.8659V29.5534H29.4501V29.8659H29.7626ZM29.5898 33.5565L29.377 33.3274L29.3688 33.3356L29.5898 33.5565ZM29.1948 33.4045C29.1182 33.4045 29.067 33.3818 29.0207 33.3356L28.5788 33.7775C28.7466 33.9452 28.9586 34.0295 29.1948 34.0295V33.4045ZM29.0207 33.3356C28.9745 33.2894 28.9518 33.2381 28.9518 33.1616H28.3268C28.3268 33.3977 28.4111 33.6098 28.5788 33.7775L29.0207 33.3356ZM28.9518 33.1616V25.6075H28.3268V33.1616H28.9518ZM28.9518 25.6075C28.9518 25.5309 28.9745 25.4797 29.0207 25.4335L28.5788 24.9915C28.4111 25.1593 28.3268 25.3714 28.3268 25.6075H28.9518ZM29.0288 25.4251C29.077 25.3732 29.1259 25.3522 29.1948 25.3522V24.7272C28.951 24.7272 28.7365 24.8214 28.5708 24.9999L29.0288 25.4251ZM29.1948 25.3522H33.9963V24.7272H29.1948V25.3522ZM33.9963 25.3522C34.0589 25.3522 34.0985 25.3705 34.137 25.4121L34.5962 24.9882C34.4371 24.8159 34.2299 24.7272 33.9963 24.7272V25.3522ZM34.1546 25.4298C34.1963 25.4682 34.2146 25.5078 34.2146 25.5705H34.8395C34.8395 25.3369 34.7509 25.1296 34.5785 24.9705L34.1546 25.4298ZM34.2146 25.5705C34.2146 25.6331 34.1963 25.6727 34.1546 25.7111L34.5785 26.1704C34.7509 26.0113 34.8395 25.8041 34.8395 25.5705H34.2146ZM34.1456 25.7198C34.1093 25.7561 34.0671 25.7764 33.9963 25.7764V26.4014C34.2217 26.4014 34.4264 26.3229 34.5875 26.1617L34.1456 25.7198ZM33.9963 25.7764H29.7626V26.4014H33.9963V25.7764ZM29.4501 26.0889V28.8167H30.075V26.0889H29.4501ZM29.7626 29.1292H33.5643V28.5042H29.7626V29.1292ZM33.5643 29.1292C33.6269 29.1292 33.6665 29.1475 33.705 29.1892L34.1642 28.7652C34.0051 28.5929 33.7979 28.5042 33.5643 28.5042V29.1292ZM33.7226 29.2068C33.7642 29.2452 33.7825 29.2849 33.7825 29.3475H34.4075C34.4075 29.1139 34.3188 28.9066 34.1465 28.7476L33.7226 29.2068ZM33.7825 29.3475C33.7825 29.4101 33.7642 29.4497 33.7226 29.4882L34.1465 29.9474C34.3188 29.7883 34.4075 29.5811 34.4075 29.3475H33.7825ZM33.7136 29.4968C33.6773 29.5331 33.6351 29.5534 33.5643 29.5534V30.1784C33.7897 30.1784 33.9944 30.0999 34.1555 29.9388L33.7136 29.4968ZM33.5643 29.5534H29.7626V30.1784H33.5643V29.5534ZM29.4501 29.8659V33.1616H30.075V29.8659H29.4501ZM29.4501 33.1616C29.4501 33.2305 29.429 33.2793 29.3771 33.3276L29.8024 33.7855C29.9809 33.6198 30.075 33.4053 30.075 33.1616H29.4501ZM29.3688 33.3356C29.3226 33.3818 29.2713 33.4045 29.1948 33.4045V34.0295C29.4309 34.0295 29.643 33.9452 29.8107 33.7775L29.3688 33.3356Z" fill="white"/>
<g filter="url(#filter0_d_1628_44442)">
<path d="M42.6822 15.9368H30.1827C28.2843 15.9368 26.7454 14.3979 26.7454 12.4995V0L42.6822 15.9368Z" fill="url(#paint2_linear_1628_44442)"/>
</g>
</g>
<defs>
<filter id="filter0_d_1628_44442" x="23.1518" y="-3.74985" width="23.7491" height="23.749" filterUnits="userSpaceOnUse" color-interpolation-filters="sRGB">
<feFlood flood-opacity="0" result="BackgroundImageFix"/>
<feColorMatrix in="SourceAlpha" type="matrix" values="0 0 0 0 0 0 0 0 0 0 0 0 0 0 0 0 0 0 127 0" result="hardAlpha"/>
<feOffset dx="0.312487" dy="0.156244"/>
<feGaussianBlur stdDeviation="1.95305"/>
<feColorMatrix type="matrix" values="0 0 0 0 0 0 0 0 0 0 0 0 0 0 0 0 0 0 0.33 0"/>
<feBlend mode="normal" in2="BackgroundImageFix" result="effect1_dropShadow_1628_44442"/>
<feBlend mode="normal" in="SourceGraphic" in2="effect1_dropShadow_1628_44442" result="shape"/>
</filter>
<linearGradient id="paint0_linear_1628_44442" x1="21.4325" y1="0" x2="21.4325" y2="48.123" gradientUnits="userSpaceOnUse">
<stop stop-color="#FF7979"/>
<stop offset="1" stop-color="#E85555"/>
</linearGradient>
<linearGradient id="paint1_linear_1628_44442" x1="21.4325" y1="0" x2="21.4325" y2="48.123" gradientUnits="userSpaceOnUse">
<stop stop-color="#FF7981"/>
<stop offset="1" stop-color="#E85567"/>
</linearGradient>
<linearGradient id="paint2_linear_1628_44442" x1="34.7138" y1="0" x2="34.7138" y2="15.9368" gradientUnits="userSpaceOnUse">
<stop stop-color="#D03954"/>
<stop offset="1" stop-color="#C02A3C"/>
</linearGradient>
</defs>
</svg>
