<svg width="17" height="20" viewBox="0 0 17 20" fill="none" xmlns="http://www.w3.org/2000/svg">
<path d="M8.32101 19.9459L8.03616 19.8195C7.71913 19.6803 0.316406 16.337 0.316406 10.2829V5.03339C0.316688 4.52821 0.476356 4.036 0.772672 3.62685C1.06899 3.2177 1.48684 2.91247 1.96673 2.75464L8.36285 0.634399L14.759 2.75464C15.2389 2.91247 15.6567 3.2177 15.953 3.62685C16.2493 4.036 16.409 4.52821 16.4093 5.03339V10.2829C16.4093 17.1843 8.93576 19.7415 8.61712 19.8477L8.32101 19.9459ZM8.36285 2.32174L2.47607 4.27381C2.3159 4.32612 2.1764 4.42778 2.07753 4.56422C1.97867 4.70067 1.92552 4.86489 1.92569 5.03339V10.2829C1.92569 14.7036 7.1076 17.5714 8.40067 18.2175C9.69132 17.6985 14.8 15.3224 14.8 10.2829V5.03339C14.8002 4.86489 14.747 4.70067 14.6482 4.56422C14.5493 4.42778 14.4098 4.32612 14.2496 4.27381L8.36285 2.32174Z" fill="#7E7E8F"/>
<path d="M7.64742 12.3283H7.62086C7.4172 12.3252 7.21628 12.2808 7.03027 12.1978C6.84425 12.1148 6.67699 11.995 6.53862 11.8455L4.68311 9.91437L5.8426 8.80235L7.64822 10.6852L11.8171 6.51636L12.9549 7.65412L8.72162 11.8874C8.58062 12.0282 8.41307 12.1398 8.22869 12.2154C8.0443 12.2911 7.84673 12.3295 7.64742 12.3283Z" fill="#7E7E8F"/>
</svg>
