<svg width="46" height="46" viewBox="0 0 46 46" fill="none" xmlns="http://www.w3.org/2000/svg">
<path d="M45.3118 28.5638C42.24 40.8854 29.7603 48.384 17.4373 45.3114C5.11943 42.2396 -2.37922 29.7591 0.693943 17.4385C3.76441 5.11564 16.2441 -2.38358 28.5633 0.688239C40.8854 3.76005 48.3837 16.2419 45.3115 28.564L45.3117 28.5638H45.3118Z" fill="#F7931A"/>
<path fill-rule="evenodd" clip-rule="evenodd" d="M33.1447 19.7231C33.6024 16.6623 31.2722 15.017 28.0857 13.9194L29.1194 9.77329L26.5955 9.1444L25.5892 13.1814C24.9257 13.0159 24.2443 12.8599 23.5671 12.7054L24.5807 8.64177L22.0584 8.01288L21.0241 12.1576C20.475 12.0326 19.9358 11.9091 19.4126 11.7789L19.4155 11.7659L15.935 10.8967L15.2636 13.5924C15.2636 13.5924 17.1361 14.0216 17.0967 14.048C18.1187 14.3031 18.3035 14.9797 18.2728 15.5159L17.0953 20.2393C17.1657 20.2572 17.257 20.2831 17.3577 20.3235L17.2844 20.3052L17.2842 20.3052C17.222 20.2896 17.1573 20.2734 17.0909 20.2575L15.4405 26.8744C15.3156 27.1849 14.9985 27.6508 14.284 27.4739C14.3093 27.5105 12.4496 27.0161 12.4496 27.0161L11.1965 29.9051L14.4809 30.7239C14.8406 30.8141 15.1959 30.9067 15.5477 30.9984L15.5479 30.9985C15.7938 31.0626 16.0378 31.1262 16.2804 31.1882L15.236 35.3819L17.7569 36.0108L18.7912 31.8616C19.4799 32.0486 20.1482 32.221 20.8025 32.3836L19.7717 36.5132L22.2957 37.1421L23.34 32.9563C27.6437 33.7708 30.8798 33.4424 32.2419 29.5497C33.3395 26.4156 32.1873 24.6078 29.9231 23.429C31.5722 23.0486 32.8144 21.964 33.1456 19.7234L33.1448 19.7229L33.1447 19.7231ZM27.3782 27.8091C26.6626 30.6846 22.1617 29.4958 20.1024 28.9519C19.9172 28.903 19.7517 28.8593 19.6105 28.8242L20.9964 23.2683C21.1685 23.3113 21.3787 23.3584 21.6169 23.4119L21.617 23.4119C23.7471 23.89 28.1114 24.8694 27.3783 27.8091H27.3782ZM22.0442 20.8334C23.761 21.2916 27.5063 22.2911 28.1586 19.6777H28.1588C28.8248 17.0048 25.185 16.199 23.4074 15.8054C23.2074 15.7611 23.031 15.7221 22.8869 15.6862L21.6304 20.725C21.749 20.7546 21.8882 20.7917 22.0442 20.8334Z" fill="white"/>
</svg>
