<svg width="25" height="25" viewBox="0 0 25 25" fill="none" xmlns="http://www.w3.org/2000/svg">
<path d="M23.7659 15.3266L23.7521 15.382C22.2043 21.4632 16.0305 25.1572 9.93396 23.6371C3.8216 22.1128 0.100539 15.9196 1.62552 9.80582L1.62555 9.80573C3.1492 3.69075 9.34199 -0.0305168 15.455 1.49378L15.455 1.49379C21.5696 3.01809 25.2904 9.21194 23.7659 15.3266Z" fill="url(#paint0_linear_1577_45653)" stroke="#FFD9EC" stroke-width="0.787127"/>
<path d="M10.8335 8.05092C10.6737 8.02808 10.666 8.02047 10.7422 8.01286C10.8868 7.99002 11.2217 8.02047 11.4576 8.07375C12.0057 8.20315 12.5004 8.53805 13.0256 9.12413L13.1626 9.28397L13.3605 9.25353C14.2054 9.11652 15.0731 9.22308 15.7962 9.55799C15.9941 9.64932 16.3061 9.832 16.3442 9.87767C16.3594 9.89289 16.3823 9.99184 16.3975 10.0908C16.4508 10.4485 16.4279 10.7149 16.3138 10.9204C16.2529 11.0346 16.2529 11.0651 16.2909 11.164C16.3214 11.2401 16.4127 11.2934 16.4964 11.2934C16.6791 11.2934 16.8694 11.0042 16.9607 10.6008L16.9988 10.4409L17.0673 10.517C17.4555 10.9509 17.7599 11.5522 17.8056 11.9784L17.8208 12.0926L17.7523 11.9937C17.6381 11.8186 17.5316 11.7044 17.387 11.6055C17.1282 11.4304 16.8542 11.3771 16.1311 11.3391C15.4765 11.301 15.1035 11.2477 14.7382 11.1259C14.114 10.9204 13.7944 10.654 13.056 9.67216C12.7288 9.2383 12.5232 9.00235 12.3177 8.80445C11.8687 8.3706 11.4196 8.14225 10.8335 8.05092Z" fill="#FF007A"/>
<path d="M16.5041 9.01756C16.5193 8.72833 16.5573 8.53804 16.6411 8.36298C16.6715 8.29447 16.702 8.23358 16.7096 8.23358C16.7172 8.23358 16.702 8.28686 16.6791 8.34775C16.6182 8.51521 16.6106 8.75116 16.6487 9.01756C16.702 9.36008 16.7248 9.40575 17.0901 9.77871C17.2576 9.95377 17.4555 10.1745 17.5316 10.2658L17.661 10.4333L17.5316 10.3115C17.3718 10.1593 17.0064 9.87005 16.9227 9.83199C16.8694 9.80154 16.8618 9.80154 16.8237 9.8396C16.7933 9.87005 16.7857 9.91572 16.7857 10.1364C16.7781 10.479 16.7324 10.6921 16.6182 10.9128C16.5573 11.027 16.5497 11.0042 16.603 10.8748C16.6411 10.7758 16.6487 10.7301 16.6487 10.4028C16.6487 9.74065 16.5726 9.58081 16.1083 9.31441C15.9941 9.24591 15.7962 9.14696 15.682 9.09368C15.5602 9.0404 15.4689 8.99473 15.4765 8.99473C15.4917 8.97951 15.9408 9.1089 16.1159 9.18501C16.3823 9.29158 16.428 9.29919 16.4584 9.29158C16.4812 9.26874 16.4965 9.20785 16.5041 9.01756Z" fill="#FF007A"/>
<path d="M11.1456 10.1517C10.8259 9.71019 10.6204 9.02516 10.666 8.51519L10.6813 8.35535L10.7574 8.37057C10.8944 8.3934 11.1303 8.48474 11.2445 8.55324C11.549 8.73592 11.686 8.9871 11.8154 9.61124C11.8534 9.79391 11.9067 10.007 11.9295 10.0755C11.9676 10.1897 12.1122 10.4561 12.234 10.6236C12.3177 10.7453 12.2644 10.8062 12.0742 10.791C11.7849 10.7606 11.3967 10.4942 11.1456 10.1517Z" fill="#FF007A"/>
<path d="M16.1158 13.4626C14.6088 12.8537 14.076 12.3285 14.076 11.438C14.076 11.3086 14.0836 11.202 14.0836 11.202C14.0912 11.202 14.1445 11.2477 14.213 11.301C14.5174 11.5445 14.86 11.6511 15.8114 11.7881C16.367 11.8718 16.6867 11.9327 16.9759 12.0317C17.8969 12.3361 18.4678 12.9603 18.6048 13.8051C18.6429 14.0487 18.62 14.513 18.5591 14.7566C18.5058 14.9469 18.3536 15.297 18.3156 15.3046C18.3079 15.3046 18.2927 15.2665 18.2927 15.2057C18.2775 14.886 18.1177 14.5815 17.8513 14.3456C17.5316 14.0715 17.1206 13.866 16.1158 13.4626Z" fill="#FF007A"/>
<path d="M15.0502 13.7138C15.035 13.5996 14.9969 13.455 14.9741 13.3941L14.936 13.28L15.0045 13.3637C15.1035 13.4779 15.1796 13.6149 15.2481 13.8052C15.3014 13.9498 15.3014 13.9954 15.3014 14.2314C15.3014 14.4597 15.2938 14.513 15.2481 14.6424C15.172 14.8479 15.0806 14.9925 14.9284 15.1524C14.6544 15.434 14.2967 15.5862 13.7867 15.6547C13.6954 15.6624 13.4366 15.6852 13.2082 15.7004C12.6374 15.7309 12.2568 15.7918 11.9143 15.9135C11.8686 15.9288 11.8229 15.944 11.8153 15.9364C11.8001 15.9211 12.0361 15.7841 12.2263 15.6928C12.4927 15.5634 12.7668 15.4949 13.3681 15.3883C13.6649 15.3427 13.9694 15.2818 14.0455 15.2513C14.799 15.0154 15.172 14.4293 15.0502 13.7138Z" fill="#FF007A"/>
<path d="M15.7429 14.9393C15.545 14.5054 15.4993 14.0944 15.6059 13.7062C15.6211 13.6682 15.6363 13.6301 15.6516 13.6301C15.6668 13.6301 15.7124 13.653 15.7581 13.6834C15.8495 13.7443 16.0397 13.8509 16.5269 14.1173C17.1434 14.4522 17.4935 14.711 17.7371 15.0078C17.9502 15.2666 18.0796 15.5634 18.1405 15.9288C18.1786 16.1343 18.1557 16.629 18.1024 16.8346C17.935 17.4815 17.5544 17.9991 16.9988 18.296C16.9151 18.3416 16.8466 18.3721 16.8389 18.3721C16.8313 18.3721 16.8618 18.296 16.9074 18.2046C17.0901 17.8164 17.113 17.4435 16.976 17.0248C16.8922 16.7661 16.7172 16.454 16.367 15.9288C15.9484 15.3199 15.8495 15.16 15.7429 14.9393Z" fill="#FF007A"/>
<path d="M10.0723 17.2684C10.6356 16.7965 11.3282 16.4616 11.9676 16.355C12.2416 16.3094 12.6983 16.3246 12.9495 16.3931C13.3529 16.4996 13.7182 16.728 13.9085 17.0096C14.0912 17.2836 14.1749 17.5196 14.2586 18.0448C14.2891 18.2503 14.3271 18.4634 14.3348 18.5091C14.3956 18.7831 14.5174 18.9962 14.6697 19.1104C14.9056 19.2854 15.3166 19.293 15.72 19.1408C15.7885 19.118 15.8494 19.0952 15.8494 19.1028C15.8647 19.118 15.6591 19.255 15.5221 19.3235C15.3319 19.4224 15.1796 19.4529 14.9741 19.4529C14.6088 19.4529 14.2967 19.2626 14.0455 18.882C13.9922 18.8059 13.8857 18.5852 13.7943 18.3797C13.5279 17.7631 13.3909 17.5805 13.0789 17.375C12.8048 17.1999 12.4547 17.1618 12.1883 17.2912C11.8382 17.4587 11.7469 17.9078 11.9904 18.1818C12.0894 18.2959 12.272 18.3873 12.4243 18.4101C12.7059 18.4482 12.9495 18.2274 12.9495 17.9458C12.9495 17.7631 12.881 17.6566 12.6983 17.5729C12.4547 17.4663 12.1883 17.5881 12.1959 17.824C12.1959 17.923 12.2416 17.9839 12.3405 18.0295C12.4014 18.06 12.4014 18.06 12.3558 18.0524C12.135 18.0067 12.0818 17.7327 12.2568 17.5576C12.4699 17.3445 12.919 17.4359 13.0712 17.7327C13.1321 17.8545 13.1398 18.098 13.0865 18.2503C12.9571 18.5852 12.5917 18.7602 12.2188 18.6613C11.9676 18.5928 11.861 18.5243 11.5566 18.2122C11.0238 17.6642 10.8183 17.5576 10.0571 17.4435L9.91249 17.4206L10.0723 17.2684Z" fill="#FF007A"/>
<path fill-rule="evenodd" clip-rule="evenodd" d="M6.06876 5.02157C7.84223 7.17561 10.5747 10.5247 10.7118 10.7073C10.8259 10.8596 10.7803 11.0042 10.59 11.1107C10.4834 11.1716 10.2627 11.2325 10.1561 11.2325C10.0343 11.2325 9.88972 11.1716 9.79077 11.0727C9.72226 11.0042 9.42542 10.5703 8.75561 9.52756C8.24564 8.72835 7.81179 8.06615 7.80417 8.05854C7.77373 8.04332 7.77373 8.04332 8.70233 9.70262C9.28841 10.7454 9.4787 11.1184 9.4787 11.164C9.4787 11.263 9.44825 11.3163 9.32647 11.4533C9.12096 11.6816 9.02962 11.9404 8.96112 12.4808C8.885 13.0821 8.67949 13.5084 8.09341 14.2314C7.75089 14.6577 7.69761 14.7338 7.61389 14.9089C7.50733 15.122 7.47688 15.2438 7.46166 15.5178C7.44644 15.807 7.47688 15.9897 7.56061 16.2637C7.63672 16.5073 7.72045 16.6671 7.92596 16.9792C8.10102 17.2532 8.20758 17.4587 8.20758 17.5348C8.20758 17.5957 8.2228 17.5957 8.49682 17.5348C9.1514 17.3826 9.69182 17.1238 9.98867 16.8041C10.1713 16.6062 10.217 16.4997 10.217 16.2256C10.217 16.0506 10.2094 16.0125 10.1637 15.906C10.0876 15.7385 9.943 15.6015 9.63093 15.3884C9.21991 15.1068 9.04484 14.8784 8.99917 14.574C8.96112 14.3152 9.00679 14.1401 9.23513 13.6606C9.47109 13.1658 9.53198 12.9603 9.57003 12.458C9.59287 12.1383 9.63093 12.0089 9.72226 11.9099C9.82121 11.8034 9.90494 11.7653 10.1409 11.7349C10.5291 11.6816 10.7803 11.5827 10.9782 11.3924C11.1532 11.2325 11.2293 11.0727 11.2369 10.8367L11.2446 10.6617L11.1456 10.5551C10.7879 10.1441 5.8328 4.69427 5.80997 4.69427C5.80236 4.69427 5.92414 4.83889 6.06876 5.02157ZM8.40615 15.8458C8.49002 15.7009 8.44427 15.518 8.30704 15.4265C8.17743 15.3426 7.97921 15.3807 7.97921 15.4951C7.97921 15.5256 7.99446 15.5561 8.0402 15.5713C8.10882 15.6094 8.11644 15.6476 8.06307 15.7314C8.0097 15.8153 8.0097 15.8915 8.07832 15.9449C8.18506 16.0288 8.32991 15.983 8.40615 15.8458Z" fill="#FF007A"/>
<path fill-rule="evenodd" clip-rule="evenodd" d="M11.4881 11.8414C11.3054 11.8947 11.1304 12.0926 11.0771 12.2905C11.0466 12.4123 11.0618 12.633 11.1151 12.7015C11.1989 12.8081 11.275 12.8385 11.4881 12.8385C11.9067 12.8385 12.2645 12.6558 12.3025 12.4351C12.3406 12.2524 12.1807 12.0013 11.96 11.8871C11.8458 11.8262 11.6099 11.8034 11.4881 11.8414ZM11.9753 12.222C12.0362 12.1306 12.0133 12.0317 11.8992 11.9632C11.6936 11.8338 11.3816 11.9403 11.3816 12.1382C11.3816 12.2372 11.5414 12.3437 11.6936 12.3437C11.7926 12.3437 11.9296 12.2829 11.9753 12.222Z" fill="#FF007A"/>
<defs>
<linearGradient id="paint0_linear_1577_45653" x1="0.89006" y1="0.758606" x2="0.89006" y2="24.3724" gradientUnits="userSpaceOnUse">
<stop stop-color="#FEF3F9"/>
<stop offset="1" stop-color="#FDE5F2"/>
</linearGradient>
</defs>
</svg>
