<svg width="32" height="33" viewBox="0 0 32 33" fill="none" xmlns="http://www.w3.org/2000/svg">
<g clip-path="url(#clip0_1484_33146)">
<path d="M16 32.5C24.8366 32.5 32 25.3366 32 16.5C32 7.66348 24.8366 0.500031 16 0.500031C7.16344 0.500031 0 7.66348 0 16.5C0 25.3366 7.16344 32.5 16 32.5Z" fill="#F0F0F0"/>
<path d="M32 16.5C32 9.62058 27.658 3.7559 21.5652 1.49521V31.5049C27.658 29.2441 32 23.3795 32 16.5Z" fill="#D80027"/>
<path d="M0 16.5C0 23.3795 4.34206 29.2441 10.4348 31.5048V1.49521C4.34206 3.7559 0 9.62058 0 16.5Z" fill="#0052B4"/>
</g>
<defs>
<clipPath id="clip0_1484_33146">
<rect width="32" height="32" fill="white" transform="translate(0 0.5)"/>
</clipPath>
</defs>
</svg>
