<svg width="28" height="28" viewBox="0 0 28 28" fill="none" xmlns="http://www.w3.org/2000/svg">
<path d="M7 2.1875H5.6875V2.8C6.11857 2.70139 6.55806 2.64411 7 2.62894V2.1875Z" fill="#EC8C56"/>
<path d="M7.43753 5.68744C7.55357 5.68744 7.66485 5.73353 7.74689 5.81558C7.82894 5.89763 7.87503 6.00891 7.87503 6.12494V7.40288L11.137 4.79275L7.87503 1.85669V3.06244C7.87503 3.17847 7.82894 3.28975 7.74689 3.3718C7.66485 3.45385 7.55357 3.49994 7.43753 3.49994H7.24635C6.22077 3.49214 5.21092 3.7522 4.31669 4.25441C3.42245 4.75662 2.67481 5.48358 2.14772 6.36338C1.44655 7.51886 1.17631 8.88496 1.38472 10.2204C1.75008 8.91336 2.53401 7.76223 3.61632 6.94346C4.69863 6.12469 6.0196 5.68347 7.37672 5.68744H7.43753Z" fill="#EC8C56"/>
<path d="M21 23.6206V25.375C21 25.4596 20.9754 25.5423 20.9294 25.6132C20.8833 25.6841 20.8177 25.7402 20.7404 25.7746C20.6632 25.809 20.5776 25.8202 20.4941 25.807C20.4106 25.7938 20.3327 25.7566 20.2698 25.7001L15.8948 21.7626C15.8476 21.7201 15.8101 21.6679 15.7851 21.6095C15.7601 21.5511 15.7481 21.488 15.7499 21.4245C15.7517 21.361 15.7674 21.2987 15.7957 21.2419C15.8241 21.185 15.8644 21.135 15.9141 21.0954L20.2891 17.5954C20.3534 17.5438 20.4311 17.5115 20.513 17.5022C20.595 17.4929 20.6779 17.5069 20.7522 17.5427C20.8265 17.5784 20.8892 17.6345 20.9331 17.7043C20.9769 17.7742 21.0001 17.855 21 17.9375V19.6748C21.4465 19.6434 21.8874 19.5567 22.3125 19.4167V5.6875H19.25C19.134 5.6875 19.0227 5.64141 18.9406 5.55936C18.8586 5.47731 18.8125 5.36603 18.8125 5.25V2.1875H9.55019L12.1052 4.48744C12.1524 4.52989 12.1897 4.58209 12.2147 4.64043C12.2397 4.69876 12.2517 4.76183 12.2498 4.82527C12.248 4.8887 12.2324 4.95097 12.2041 5.00777C12.1758 5.06457 12.1355 5.11453 12.0859 5.15419L7.71094 8.65419C7.64658 8.70571 7.56898 8.73801 7.48707 8.74735C7.40517 8.75669 7.32229 8.7427 7.24798 8.70699C7.17368 8.67127 7.11098 8.6153 7.06711 8.5455C7.02323 8.47571 6.99997 8.39494 7 8.3125V6.57519C6.55327 6.60763 6.11235 6.69582 5.6875 6.83769V26.6875H22.3125V23.45C21.8814 23.5482 21.4419 23.6054 21 23.6206ZM11.8125 6.5625H16.1875V7.4375H11.8125V6.5625ZM10.9375 8.3125H17.0625V9.1875H10.9375V8.3125ZM7.4375 10.9375H20.5625V11.8125H7.4375V10.9375ZM7.4375 12.6875H20.5625V13.5625H7.4375V12.6875ZM7.4375 14.4375H20.5625V15.3125H7.4375V14.4375ZM7.4375 16.1875H20.5625V17.0625H7.4375V16.1875Z" fill="#EC8C56"/>
<path d="M26.6158 16.0334C26.3316 17.0715 25.7768 18.0155 25.008 18.7687C23.8412 19.923 22.2646 20.568 20.6234 20.5624H20.5625C20.4465 20.5624 20.3352 20.5164 20.2532 20.4343C20.1711 20.3523 20.125 20.241 20.125 20.1249V18.847L16.863 21.4567L20.125 24.3923V23.1874C20.125 23.0714 20.1711 22.9601 20.2532 22.8781C20.3352 22.796 20.4465 22.7499 20.5625 22.7499H20.7537C21.7793 22.7575 22.789 22.4973 23.6832 21.9951C24.5773 21.4928 25.3249 20.7658 25.8519 19.8861C26.5524 18.7319 26.8229 17.3675 26.6158 16.0334Z" fill="#EC8C56"/>
<path d="M19.6875 2.80615V4.81209H21.6934L19.6875 2.80615Z" fill="#EC8C56"/>
</svg>
