<svg width="21" height="20" viewBox="0 0 21 20" fill="none" xmlns="http://www.w3.org/2000/svg">
<path d="M13.8332 1.66667H7.1665C3.83317 1.66667 2.1665 3.33334 2.1665 6.66667V17.5C2.1665 17.9583 2.5415 18.3333 2.99984 18.3333H13.8332C17.1665 18.3333 18.8332 16.6667 18.8332 13.3333V6.66667C18.8332 3.33334 17.1665 1.66667 13.8332 1.66667ZM9.75817 13.8833C9.54984 14.0917 9.1665 14.2833 8.88317 14.325L7.14984 14.5667C7.08317 14.575 7.0165 14.5833 6.95817 14.5833C6.6665 14.5833 6.39984 14.4833 6.20817 14.2917C5.97484 14.0583 5.87484 13.7167 5.93317 13.35L6.17484 11.6167C6.2165 11.3333 6.40817 10.9417 6.6165 10.7417L9.75817 7.6C9.80817 7.75 9.87484 7.90001 9.94984 8.06667C10.0248 8.21667 10.0998 8.36667 10.1832 8.50834C10.2498 8.625 10.3248 8.74167 10.3915 8.82501C10.4748 8.95001 10.5582 9.05834 10.6165 9.11667C10.6498 9.16667 10.6832 9.20001 10.6915 9.21667C10.8748 9.42501 11.0665 9.625 11.2498 9.775C11.2998 9.825 11.3332 9.85001 11.3415 9.85834C11.4498 9.94167 11.5498 10.0333 11.6498 10.0917C11.7582 10.175 11.8748 10.25 11.9915 10.3167C12.1332 10.4 12.2832 10.4833 12.4415 10.5583C12.5998 10.6333 12.7498 10.6917 12.8998 10.7417L9.75817 13.8833ZM14.2915 9.35834L13.6415 10.0083C13.5998 10.05 13.5415 10.075 13.4832 10.075C13.4665 10.075 13.4332 10.075 13.4165 10.0667C11.9832 9.65834 10.8415 8.51667 10.4332 7.08334C10.4082 7.00834 10.4332 6.925 10.4915 6.86667L11.1498 6.20834C12.2248 5.13334 13.2415 5.15834 14.2915 6.20834C14.8248 6.74167 15.0915 7.25834 15.0832 7.79167C15.0832 8.31667 14.8248 8.825 14.2915 9.35834Z" fill="white"/>
</svg>
