<svg width="20" height="19" viewBox="0 0 20 19" fill="none" xmlns="http://www.w3.org/2000/svg">
<path d="M9.99544 14.2867V11.9611" stroke="#A0ABB8" stroke-width="1.5" stroke-linecap="round" stroke-linejoin="round"/>
<path fill-rule="evenodd" clip-rule="evenodd" d="M15.6738 3.88608C17.223 3.88608 18.4697 5.14191 18.4697 6.69108V9.84441C16.2147 11.1644 13.2355 11.9619 9.99051 11.9619C6.74551 11.9619 3.77551 11.1644 1.52051 9.84441V6.68191C1.52051 5.13274 2.77634 3.88608 4.32551 3.88608H15.6738Z" stroke="#A0ABB8" stroke-width="1.5" stroke-linecap="round" stroke-linejoin="round"/>
<path d="M13.2038 3.8819V3.5464C13.2038 2.42807 12.2963 1.52057 11.1779 1.52057H8.81294C7.69461 1.52057 6.78711 2.42807 6.78711 3.5464V3.8819" stroke="#A0ABB8" stroke-width="1.5" stroke-linecap="round" stroke-linejoin="round"/>
<path d="M1.54321 13.193L1.71646 15.4929C1.8338 17.043 3.12538 18.2411 4.67913 18.2411H15.3115C16.8653 18.2411 18.1569 17.043 18.2742 15.4929L18.4475 13.193" stroke="#A0ABB8" stroke-width="1.5" stroke-linecap="round" stroke-linejoin="round"/>
</svg>
