<svg width="43" height="49" viewBox="0 0 43 49" fill="none" xmlns="http://www.w3.org/2000/svg">
<mask id="mask0_1628_44677" style="mask-type:alpha" maskUnits="userSpaceOnUse" x="0" y="0" width="43" height="49">
<path d="M39.2439 48.2303H3.62034C1.72194 48.2303 0.182983 46.6913 0.182983 44.7929V3.5446C0.182983 1.6462 1.72194 0.107239 3.62034 0.107239H26.7444L42.6812 16.0441V44.7929C42.6812 46.6913 41.1423 48.2303 39.2439 48.2303Z" fill="url(#paint0_linear_1628_44677)"/>
</mask>
<g mask="url(#mask0_1628_44677)">
<path d="M39.2423 48.2302H3.61876C1.72036 48.2302 0.181396 46.6912 0.181396 44.7928V3.54454C0.181396 1.64614 1.72036 0.107178 3.61876 0.107178H26.7428L42.6797 16.044V44.7928C42.6797 46.6912 41.1407 48.2302 39.2423 48.2302Z" fill="url(#paint1_linear_1628_44677)"/>
<g filter="url(#filter0_f_1628_44677)">
<rect x="7.52527" y="23.3875" width="27.8114" height="13.1245" fill="#3F3F46" fill-opacity="0.07" style="mix-blend-mode:darken"/>
</g>
<path d="M11.9018 33.8243C11.7454 33.8243 11.6138 33.7708 11.5068 33.6638C11.3998 33.5568 11.3463 33.4252 11.3463 33.2688V26.1961H8.82829C8.68017 26.1961 8.55674 26.1468 8.458 26.048C8.35925 25.9493 8.30988 25.8258 8.30988 25.6777C8.30988 25.5296 8.35925 25.4062 8.458 25.3074C8.55674 25.2004 8.68017 25.147 8.82829 25.147H14.9752C15.1233 25.147 15.2468 25.2004 15.3455 25.3074C15.4525 25.4062 15.506 25.5296 15.506 25.6777C15.506 25.8258 15.4525 25.9493 15.3455 26.048C15.2468 26.1468 15.1233 26.1961 14.9752 26.1961H12.4695V33.2688C12.4695 33.4252 12.4119 33.5568 12.2967 33.6638C12.1898 33.7708 12.0581 33.8243 11.9018 33.8243ZM18.0306 33.8243C17.8907 33.8243 17.7672 33.7749 17.6603 33.6761C17.5615 33.5692 17.5122 33.4457 17.5122 33.3058C17.5122 33.1742 17.5492 33.059 17.6232 32.9602L20.4745 29.4548L17.6479 25.974C17.5739 25.8752 17.5368 25.76 17.5368 25.6283C17.5368 25.472 17.5862 25.3444 17.685 25.2457C17.7919 25.1387 17.9236 25.0852 18.0799 25.0852C18.1705 25.0852 18.2569 25.1058 18.3391 25.147C18.4214 25.1881 18.4873 25.2416 18.5366 25.3074L21.1411 28.6154L23.7455 25.2827C23.836 25.1511 23.9718 25.0852 24.1528 25.0852C24.3009 25.0852 24.4285 25.1387 24.5355 25.2457C24.6424 25.3444 24.6959 25.4679 24.6959 25.616C24.6959 25.7312 24.663 25.8341 24.5972 25.9246L21.7459 29.4424L24.5972 32.9479C24.6712 33.0302 24.7083 33.1372 24.7083 33.2688C24.7083 33.4252 24.6548 33.5568 24.5478 33.6638C24.4491 33.7708 24.3174 33.8243 24.1528 33.8243C23.9718 33.8243 23.8237 33.7461 23.7085 33.5897L21.067 30.2694L18.4626 33.6021C18.3391 33.7502 18.1951 33.8243 18.0306 33.8243ZM30.2643 33.8243C30.1079 33.8243 29.9763 33.7708 29.8693 33.6638C29.7623 33.5568 29.7088 33.4252 29.7088 33.2688V26.1961H27.1908C27.0427 26.1961 26.9192 26.1468 26.8205 26.048C26.7218 25.9493 26.6724 25.8258 26.6724 25.6777C26.6724 25.5296 26.7218 25.4062 26.8205 25.3074C26.9192 25.2004 27.0427 25.147 27.1908 25.147H33.3377C33.4859 25.147 33.6093 25.2004 33.708 25.3074C33.815 25.4062 33.8685 25.5296 33.8685 25.6777C33.8685 25.8258 33.815 25.9493 33.708 26.048C33.6093 26.1468 33.4859 26.1961 33.3377 26.1961H30.8321V33.2688C30.8321 33.4252 30.7745 33.5568 30.6592 33.6638C30.5523 33.7708 30.4206 33.8243 30.2643 33.8243Z" fill="white"/>
<path d="M11.5068 33.6638L11.2858 33.8848L11.5068 33.6638ZM11.3463 26.1961H11.6588V25.8836H11.3463V26.1961ZM8.458 26.048L8.23703 26.269L8.23703 26.269L8.458 26.048ZM8.458 25.3074L8.67913 25.5286L8.68761 25.5194L8.458 25.3074ZM15.3455 25.3074L15.1159 25.5194L15.1244 25.5286L15.1336 25.537L15.3455 25.3074ZM15.3455 26.048L15.1334 25.8182L15.1246 25.8271L15.3455 26.048ZM12.4696 26.1961V25.8836H12.1571V26.1961H12.4696ZM12.2967 33.6638L12.084 33.4347L12.0758 33.4428L12.2967 33.6638ZM11.9018 33.5118C11.8252 33.5118 11.774 33.4891 11.7277 33.4428L11.2858 33.8848C11.4535 34.0525 11.6656 34.1367 11.9018 34.1367V33.5118ZM11.7277 33.4428C11.6815 33.3966 11.6588 33.3454 11.6588 33.2688H11.0338C11.0338 33.5049 11.1181 33.717 11.2858 33.8848L11.7277 33.4428ZM11.6588 33.2688V26.1961H11.0338V33.2688H11.6588ZM11.3463 25.8836H8.82829V26.5086H11.3463V25.8836ZM8.82829 25.8836C8.75747 25.8836 8.71527 25.8634 8.67896 25.8271L8.23703 26.269C8.39821 26.4302 8.60288 26.5086 8.82829 26.5086V25.8836ZM8.67896 25.8271C8.64264 25.7907 8.62236 25.7485 8.62236 25.6777H7.99739C7.99739 25.9031 8.07585 26.1078 8.23703 26.269L8.67896 25.8271ZM8.62236 25.6777C8.62236 25.6069 8.64264 25.5647 8.67896 25.5284L8.23703 25.0865C8.07585 25.2476 7.99739 25.4523 7.99739 25.6777H8.62236ZM8.68761 25.5194C8.72604 25.4777 8.76566 25.4594 8.82829 25.4594V24.8345C8.59469 24.8345 8.38744 24.9231 8.22838 25.0955L8.68761 25.5194ZM8.82829 25.4594H14.9752V24.8345H8.82829V25.4594ZM14.9752 25.4594C15.0379 25.4594 15.0775 25.4777 15.1159 25.5194L15.5751 25.0955C15.4161 24.9231 15.2088 24.8345 14.9752 24.8345V25.4594ZM15.1336 25.537C15.1752 25.5755 15.1935 25.6151 15.1935 25.6777H15.8185C15.8185 25.4441 15.7298 25.2369 15.5575 25.0778L15.1336 25.537ZM15.1935 25.6777C15.1935 25.7403 15.1752 25.78 15.1336 25.8184L15.5575 26.2776C15.7298 26.1186 15.8185 25.9113 15.8185 25.6777H15.1935ZM15.1246 25.8271C15.0883 25.8634 15.0461 25.8836 14.9752 25.8836V26.5086C15.2006 26.5086 15.4053 26.4302 15.5665 26.269L15.1246 25.8271ZM14.9752 25.8836H12.4696V26.5086H14.9752V25.8836ZM12.1571 26.1961V33.2688H12.782V26.1961H12.1571ZM12.1571 33.2688C12.1571 33.3377 12.136 33.3866 12.0841 33.4348L12.5094 33.8928C12.6879 33.7271 12.782 33.5126 12.782 33.2688H12.1571ZM12.0758 33.4428C12.0296 33.4891 11.9783 33.5118 11.9018 33.5118V34.1367C12.1379 34.1367 12.35 34.0525 12.5177 33.8848L12.0758 33.4428ZM17.6603 33.6761L17.4307 33.8881L17.4391 33.8973L17.4483 33.9058L17.6603 33.6761ZM17.6232 32.9602L17.3806 32.7629L17.3733 32.7727L17.6232 32.9602ZM20.4745 29.4548L20.717 29.6519L20.8772 29.4549L20.7171 29.2578L20.4745 29.4548ZM17.6479 25.974L17.3978 26.1616L17.4053 26.1709L17.6479 25.974ZM17.685 25.2457L17.464 25.0247V25.0247L17.685 25.2457ZM18.3391 25.147L18.4789 24.8675L18.3391 25.147ZM18.5366 25.3074L18.2866 25.495L18.2911 25.5007L18.5366 25.3074ZM21.1411 28.6154L20.8955 28.8087L21.142 29.1217L21.3873 28.8078L21.1411 28.6154ZM23.7455 25.2827L23.9917 25.4751L23.9976 25.4676L24.003 25.4598L23.7455 25.2827ZM24.5355 25.2457L24.3143 25.4668L24.3235 25.4753L24.5355 25.2457ZM24.5972 25.9246L24.8399 26.1213L24.8451 26.115L24.8499 26.1084L24.5972 25.9246ZM21.7459 29.4424L21.5031 29.2456L21.3434 29.4428L21.5035 29.6396L21.7459 29.4424ZM24.5972 32.9479L24.3548 33.1451L24.3597 33.1511L24.3649 33.1569L24.5972 32.9479ZM24.5478 33.6638L24.3267 33.4427L24.3182 33.4518L24.5478 33.6638ZM23.7085 33.5897L23.9602 33.4042L23.953 33.3952L23.7085 33.5897ZM21.067 30.2694L21.3115 30.0749L21.0648 29.7647L20.8208 30.077L21.067 30.2694ZM18.4626 33.6021L18.7028 33.8022L18.7088 33.7945L18.4626 33.6021ZM18.0306 33.5118C17.9727 33.5118 17.9241 33.4944 17.8722 33.4465L17.4483 33.9058C17.6104 34.0554 17.8087 34.1367 18.0306 34.1367V33.5118ZM17.8899 33.4642C17.842 33.4123 17.8246 33.3637 17.8246 33.3058H17.1997C17.1997 33.5277 17.281 33.726 17.4307 33.8881L17.8899 33.4642ZM17.8246 33.3058C17.8246 33.237 17.8425 33.1887 17.8732 33.1477L17.3733 32.7727C17.2558 32.9293 17.1997 33.1114 17.1997 33.3058H17.8246ZM17.8657 33.1574L20.717 29.6519L20.2321 29.2576L17.3808 32.7631L17.8657 33.1574ZM20.7171 29.2578L17.8905 25.777L17.4053 26.1709L20.232 29.6517L20.7171 29.2578ZM17.8979 25.7865C17.8672 25.7455 17.8493 25.6972 17.8493 25.6283H17.2244C17.2244 25.8228 17.2805 26.0049 17.3979 26.1614L17.8979 25.7865ZM17.8493 25.6283C17.8493 25.544 17.873 25.4996 17.9059 25.4667L17.464 25.0247C17.2994 25.1893 17.2244 25.4 17.2244 25.6283H17.8493ZM17.9059 25.4667C17.9521 25.4204 18.0034 25.3977 18.0799 25.3977V24.7728C17.8438 24.7728 17.6317 24.857 17.464 25.0247L17.9059 25.4667ZM18.0799 25.3977C18.1211 25.3977 18.1598 25.4066 18.1994 25.4265L18.4789 24.8675C18.354 24.805 18.2198 24.7728 18.0799 24.7728V25.3977ZM18.1994 25.4265C18.2435 25.4485 18.2697 25.4723 18.2867 25.4949L18.7866 25.1199C18.7049 25.0109 18.5994 24.9277 18.4789 24.8675L18.1994 25.4265ZM18.2911 25.5007L20.8955 28.8087L21.3866 28.4221L18.7822 25.1141L18.2911 25.5007ZM21.3873 28.8078L23.9917 25.4751L23.4993 25.0903L20.8948 28.423L21.3873 28.8078ZM24.003 25.4598C24.0267 25.4252 24.0588 25.3977 24.1528 25.3977V24.7728C23.8848 24.7728 23.6453 24.8769 23.488 25.1057L24.003 25.4598ZM24.1528 25.3977C24.2161 25.3977 24.2647 25.4169 24.3145 25.4667L24.7564 25.0247C24.5922 24.8606 24.3858 24.7728 24.1528 24.7728V25.3977ZM24.3235 25.4753C24.3651 25.5137 24.3834 25.5534 24.3834 25.616H25.0084C25.0084 25.3824 24.9197 25.1751 24.7474 25.0161L24.3235 25.4753ZM24.3834 25.616C24.3834 25.6672 24.3702 25.7053 24.3445 25.7408L24.8499 26.1084C24.9558 25.9628 25.0084 25.7952 25.0084 25.616H24.3834ZM24.3544 25.7278L21.5031 29.2456L21.9886 29.6392L24.8399 26.1213L24.3544 25.7278ZM21.5035 29.6396L24.3548 33.1451L24.8396 32.7507L21.9883 29.2452L21.5035 29.6396ZM24.3649 33.1569C24.3778 33.1713 24.3958 33.1989 24.3958 33.2688H25.0208C25.0208 33.0754 24.9646 32.889 24.8294 32.7388L24.3649 33.1569ZM24.3958 33.2688C24.3958 33.3454 24.3731 33.3966 24.3268 33.4428L24.7688 33.8848C24.9365 33.717 25.0208 33.5049 25.0208 33.2688H24.3958ZM24.3182 33.4518C24.2866 33.486 24.2427 33.5118 24.1528 33.5118V34.1367C24.392 34.1367 24.6115 34.0555 24.7774 33.8758L24.3182 33.4518ZM24.1528 33.5118C24.0792 33.5118 24.0213 33.4876 23.96 33.4044L23.4569 33.7751C23.626 34.0046 23.8644 34.1367 24.1528 34.1367V33.5118ZM23.953 33.3952L21.3115 30.0749L20.8225 30.4639L23.4639 33.7843L23.953 33.3952ZM20.8208 30.077L18.2164 33.4097L18.7088 33.7945L21.3132 30.4618L20.8208 30.077ZM18.2225 33.402C18.1471 33.4925 18.0861 33.5118 18.0306 33.5118V34.1367C18.3042 34.1367 18.5312 34.0079 18.7026 33.8021L18.2225 33.402ZM29.8693 33.6638L29.6483 33.8848L29.8693 33.6638ZM29.7088 26.1961H30.0213V25.8836H29.7088V26.1961ZM26.8205 26.048L26.5995 26.269V26.269L26.8205 26.048ZM26.8205 25.3074L27.0416 25.5286L27.0501 25.5194L26.8205 25.3074ZM33.708 25.3074L33.4784 25.5194L33.4869 25.5286L33.4961 25.537L33.708 25.3074ZM33.708 26.048L33.4959 25.8182L33.4871 25.8271L33.708 26.048ZM30.8321 26.1961V25.8836H30.5196V26.1961H30.8321ZM30.6593 33.6638L30.4465 33.4347L30.4383 33.4428L30.6593 33.6638ZM30.2643 33.5118C30.1877 33.5118 30.1365 33.4891 30.0902 33.4428L29.6483 33.8848C29.8161 34.0525 30.0281 34.1367 30.2643 34.1367V33.5118ZM30.0902 33.4428C30.044 33.3966 30.0213 33.3454 30.0213 33.2688H29.3963C29.3963 33.5049 29.4806 33.717 29.6483 33.8848L30.0902 33.4428ZM30.0213 33.2688V26.1961H29.3963V33.2688H30.0213ZM29.7088 25.8836H27.1908V26.5086H29.7088V25.8836ZM27.1908 25.8836C27.12 25.8836 27.0778 25.8634 27.0415 25.8271L26.5995 26.269C26.7607 26.4302 26.9654 26.5086 27.1908 26.5086V25.8836ZM27.0415 25.8271C27.0051 25.7907 26.9849 25.7485 26.9849 25.6777H26.3599C26.3599 25.9031 26.4384 26.1078 26.5995 26.269L27.0415 25.8271ZM26.9849 25.6777C26.9849 25.6069 27.0051 25.5647 27.0415 25.5284L26.5995 25.0865C26.4384 25.2476 26.3599 25.4523 26.3599 25.6777H26.9849ZM27.0501 25.5194C27.0885 25.4777 27.1282 25.4594 27.1908 25.4594V24.8345C26.9572 24.8345 26.7499 24.9231 26.5909 25.0955L27.0501 25.5194ZM27.1908 25.4594H33.3377V24.8345H27.1908V25.4594ZM33.3377 25.4594C33.4004 25.4594 33.44 25.4777 33.4784 25.5194L33.9376 25.0955C33.7786 24.9231 33.5713 24.8345 33.3377 24.8345V25.4594ZM33.4961 25.537C33.5377 25.5755 33.556 25.6151 33.556 25.6777H34.181C34.181 25.4441 34.0923 25.2369 33.92 25.0778L33.4961 25.537ZM33.556 25.6777C33.556 25.7403 33.5377 25.78 33.4961 25.8184L33.92 26.2776C34.0923 26.1186 34.181 25.9113 34.181 25.6777H33.556ZM33.4871 25.8271C33.4508 25.8634 33.4086 25.8836 33.3377 25.8836V26.5086C33.5632 26.5086 33.7678 26.4302 33.929 26.269L33.4871 25.8271ZM33.3377 25.8836H30.8321V26.5086H33.3377V25.8836ZM30.5196 26.1961V33.2688H31.1445V26.1961H30.5196ZM30.5196 33.2688C30.5196 33.3377 30.4985 33.3866 30.4466 33.4348L30.8719 33.8928C31.0504 33.7271 31.1445 33.5126 31.1445 33.2688H30.5196ZM30.4383 33.4428C30.3921 33.4891 30.3408 33.5118 30.2643 33.5118V34.1367C30.5004 34.1367 30.7125 34.0525 30.8802 33.8848L30.4383 33.4428Z" fill="white"/>
<g filter="url(#filter1_d_1628_44677)">
<path d="M42.6803 16.044H30.1808C28.2824 16.044 26.7434 14.5051 26.7434 12.6067V0.107178L42.6803 16.044Z" fill="url(#paint2_linear_1628_44677)"/>
</g>
</g>
<defs>
<filter id="filter0_f_1628_44677" x="1.43177" y="17.294" width="39.9984" height="25.3115" filterUnits="userSpaceOnUse" color-interpolation-filters="sRGB">
<feFlood flood-opacity="0" result="BackgroundImageFix"/>
<feBlend mode="normal" in="SourceGraphic" in2="BackgroundImageFix" result="shape"/>
<feGaussianBlur stdDeviation="3.04675" result="effect1_foregroundBlur_1628_44677"/>
</filter>
<filter id="filter1_d_1628_44677" x="23.1498" y="-3.64267" width="23.7491" height="23.749" filterUnits="userSpaceOnUse" color-interpolation-filters="sRGB">
<feFlood flood-opacity="0" result="BackgroundImageFix"/>
<feColorMatrix in="SourceAlpha" type="matrix" values="0 0 0 0 0 0 0 0 0 0 0 0 0 0 0 0 0 0 127 0" result="hardAlpha"/>
<feOffset dx="0.312487" dy="0.156244"/>
<feGaussianBlur stdDeviation="1.95305"/>
<feColorMatrix type="matrix" values="0 0 0 0 0 0 0 0 0 0 0 0 0 0 0 0 0 0 0.33 0"/>
<feBlend mode="normal" in2="BackgroundImageFix" result="effect1_dropShadow_1628_44677"/>
<feBlend mode="normal" in="SourceGraphic" in2="effect1_dropShadow_1628_44677" result="shape"/>
</filter>
<linearGradient id="paint0_linear_1628_44677" x1="21.4321" y1="0.107239" x2="21.4321" y2="48.2303" gradientUnits="userSpaceOnUse">
<stop stop-color="#FF7979"/>
<stop offset="1" stop-color="#E85555"/>
</linearGradient>
<linearGradient id="paint1_linear_1628_44677" x1="21.4305" y1="0.107178" x2="21.4305" y2="48.2302" gradientUnits="userSpaceOnUse">
<stop stop-color="#B4B6BC"/>
<stop offset="0.0730828" stop-color="#B1B3B9"/>
<stop offset="1" stop-color="#8D8F94"/>
</linearGradient>
<linearGradient id="paint2_linear_1628_44677" x1="34.7118" y1="0.107178" x2="34.7118" y2="16.044" gradientUnits="userSpaceOnUse">
<stop stop-color="#979CAB"/>
<stop offset="1" stop-color="#797C88"/>
</linearGradient>
</defs>
</svg>
