<svg width="16" height="14" viewBox="0 0 16 14" fill="none" xmlns="http://www.w3.org/2000/svg">
<path d="M9.17676 0.380493C5.4502 0.380493 2.42676 3.40393 2.42676 7.13049H0.176758L3.09473 10.0485L3.16504 10.1539L6.18848 7.13049H3.93848C3.93848 4.21252 6.29395 1.89221 9.17676 1.89221C12.0947 1.89221 14.4502 4.21252 14.4502 7.13049C14.4502 10.0485 12.0947 12.3688 9.17676 12.3688C7.73535 12.3688 6.43457 11.7711 5.48535 10.8219L4.43066 11.9117C5.62598 13.1071 7.31348 13.8805 9.17676 13.8805C12.9033 13.8805 15.9268 10.8571 15.9268 7.13049C15.9268 3.40393 12.9033 0.380493 9.17676 0.380493ZM8.43848 4.14221V7.86877L11.6377 9.76721L12.2002 8.81799L9.56348 7.23596V4.14221H8.43848Z" fill="#7E7E8F"/>
</svg>
