<svg width="28" height="28" viewBox="0 0 28 28" fill="none" xmlns="http://www.w3.org/2000/svg">
<path d="M6.461 11.6668C6.66651 11.1888 6.98249 10.7664 7.383 10.4343C7.78351 10.1021 8.2571 9.86977 8.76488 9.75626L9.30825 9.63508C9.67181 9.55403 10.0069 9.37685 10.2786 9.12205C10.5503 8.86725 10.7487 8.54417 10.8529 8.18656C10.9571 7.82895 10.9633 7.44991 10.871 7.08905C10.7787 6.72819 10.5912 6.39873 10.3281 6.13508C9.90991 5.71461 9.41254 5.38123 8.86472 5.15422C8.31689 4.9272 7.7295 4.81106 7.1365 4.81251H4.74119C2.54346 7.02055 1.31053 10.0097 1.3125 13.125H4.24988C4.72079 13.1254 5.18144 12.9874 5.57456 12.7282C5.96768 12.4689 6.27593 12.0998 6.461 11.6668Z" fill="#2775FF"/>
<path d="M3.22998 19.5514C4.28828 21.1857 5.73347 22.5337 7.43742 23.4758V19.7312C6.07482 19.3042 4.62404 19.2422 3.22998 19.5514Z" fill="#2775FF"/>
<path d="M22.75 22.312H23.625V23.1866H22.75V22.312Z" fill="#2775FF"/>
<path d="M24.2642 17.0625H21.7809C21.3339 17.0632 20.8937 16.9531 20.4995 16.7422C20.1054 16.5313 19.7696 16.226 19.5221 15.8537C19.2808 15.4895 18.9172 15.2235 18.4971 15.1036C18.0769 14.9838 17.6277 15.018 17.2305 15.2001L15.7294 15.8813C15.1931 16.1232 14.5958 16.1966 14.0168 16.0916C13.4378 15.9866 12.9044 15.7082 12.4871 15.2933L11.6537 14.4594C11.3696 14.1752 11.1478 13.8349 11.0025 13.4603C10.8572 13.0856 10.7915 12.6848 10.8097 12.2833C10.8279 11.8819 10.9296 11.4886 11.1082 11.1286C11.2868 10.7686 11.5384 10.4498 11.8471 10.1925C11.9733 10.0877 12.0749 9.95638 12.1445 9.80786C12.2141 9.65934 12.2502 9.49728 12.25 9.33323C12.2517 8.81832 12.4203 8.31784 12.7304 7.90681C13.0406 7.49579 13.4756 7.19636 13.9703 7.05342L14.1728 6.99567C14.4705 6.91092 14.7266 6.7194 14.892 6.45772C15.0574 6.19605 15.1205 5.88259 15.0693 5.5773C15.0211 5.28547 14.91 5.0076 14.7438 4.76292C14.5776 4.51824 14.3603 4.3126 14.1068 4.16023C13.6751 3.90009 13.3178 3.53313 13.0692 3.09473C12.8206 2.65633 12.6891 2.16127 12.6875 1.6573V1.32349C10.1402 1.41522 7.69184 2.33269 5.71157 3.93755H7.1365C7.8444 3.9356 8.54564 4.07407 9.19966 4.34494C9.85368 4.61582 10.4475 5.01371 10.9467 5.51561C11.3211 5.89008 11.588 6.35826 11.7195 6.8712C11.851 7.38414 11.8423 7.92298 11.6942 8.43139C11.5462 8.93979 11.2642 9.39908 10.8779 9.76123C10.4916 10.1234 10.015 10.3751 9.49813 10.49L8.95475 10.6107C8.58248 10.6939 8.23523 10.8641 7.94152 11.1075C7.6478 11.3508 7.416 11.6604 7.26513 12.0107C7.01278 12.6013 6.59245 13.1047 6.05638 13.4584C5.5203 13.8121 4.89211 14.0004 4.24988 14H1.34619C1.47366 15.6719 1.95537 17.2974 2.75932 18.7688C4.29549 18.3723 5.90901 18.3874 7.4375 18.8125V18.375C7.4375 18.259 7.4836 18.1477 7.56564 18.0657C7.64769 17.9836 7.75897 17.9375 7.875 17.9375H23.9111C24.0402 17.6488 24.1592 17.3574 24.2642 17.0625Z" fill="#2775FF"/>
<path d="M18.8125 8.3125C18.6965 8.3125 18.5852 8.35859 18.5031 8.44064C18.4211 8.52269 18.375 8.63397 18.375 8.75C18.375 8.86603 18.4211 8.97731 18.5031 9.05936C18.5852 9.14141 18.6965 9.1875 18.8125 9.1875V8.3125Z" fill="#2775FF"/>
<path d="M11.375 22.312H12.25V23.1866H11.375V22.312Z" fill="#2775FF"/>
<path d="M20.125 10.5C20.125 10.384 20.0789 10.2727 19.9969 10.1906C19.9148 10.1086 19.8035 10.0625 19.6875 10.0625V10.9375C19.8035 10.9375 19.9148 10.8914 19.9969 10.8094C20.0789 10.7273 20.125 10.616 20.125 10.5Z" fill="#2775FF"/>
<path d="M14.5548 3.40992C14.9173 3.62721 15.2283 3.92071 15.4662 4.2701C15.7041 4.61948 15.8632 5.0164 15.9324 5.43336C16.0188 5.95071 15.9116 6.48174 15.6314 6.9251C15.3511 7.36845 14.9174 7.69307 14.413 7.83698L14.21 7.89473C13.898 7.98504 13.6236 8.17401 13.428 8.43334C13.2324 8.69268 13.1261 9.0084 13.125 9.33323C13.1254 9.62553 13.0613 9.91432 12.9373 10.179C12.8133 10.4437 12.6324 10.6777 12.4075 10.8645C12.1925 11.044 12.0172 11.2664 11.8928 11.5173C11.7684 11.7683 11.6976 12.0425 11.6849 12.3223C11.6723 12.6021 11.718 12.8815 11.8192 13.1428C11.9204 13.404 12.0749 13.6412 12.2728 13.8395L13.1066 14.6729C13.3975 14.9625 13.7695 15.1568 14.1733 15.23C14.5771 15.3032 14.9937 15.2519 15.3676 15.0829L16.8691 14.4008C17.4554 14.1322 18.1183 14.0819 18.7384 14.259C19.3585 14.436 19.8949 14.8287 20.251 15.3664C20.4184 15.6189 20.6457 15.8261 20.9127 15.9694C21.1796 16.1127 21.4779 16.1877 21.7809 16.1875H24.5346C24.9944 14.4729 25.0618 12.6768 24.7319 10.9325C24.402 9.18828 23.6832 7.54082 22.6289 6.1126C21.5747 4.68439 20.2121 3.51215 18.6424 2.68302C17.0728 1.8539 15.3365 1.3892 13.5625 1.32349V1.6573C13.5637 2.01001 13.6556 2.35648 13.8294 2.66341C14.0031 2.97034 14.2529 3.22742 14.5548 3.40992ZM19.25 5.68755C20.0288 5.68755 20.79 5.91848 21.4376 6.35113C22.0851 6.78379 22.5898 7.39874 22.8878 8.11823C23.1858 8.83771 23.2638 9.62941 23.1118 10.3932C22.9599 11.157 22.5849 11.8586 22.0342 12.4093C21.4836 12.9599 20.782 13.335 20.0182 13.4869C19.2544 13.6388 18.4627 13.5608 17.7432 13.2628C17.0237 12.9648 16.4088 12.4601 15.9761 11.8126C15.5434 11.1651 15.3125 10.4038 15.3125 9.62504C15.3137 8.58111 15.7289 7.58026 16.4671 6.84209C17.2052 6.10392 18.2061 5.6887 19.25 5.68755Z" fill="#2775FF"/>
<path d="M19.25 12.6875C19.8557 12.6875 20.4478 12.5079 20.9514 12.1714C21.4551 11.8349 21.8476 11.3566 22.0794 10.797C22.3112 10.2374 22.3718 9.6216 22.2536 9.02754C22.1355 8.43347 21.8438 7.88779 21.4155 7.45949C20.9872 7.03119 20.4415 6.73951 19.8475 6.62135C19.2534 6.50318 18.6376 6.56383 18.078 6.79562C17.5184 7.02741 17.0401 7.41994 16.7036 7.92357C16.3671 8.42719 16.1875 9.0193 16.1875 9.625C16.1884 10.4369 16.5114 11.2154 17.0855 11.7895C17.6596 12.3636 18.4381 12.6866 19.25 12.6875ZM17.5 8.75C17.5 8.4019 17.6383 8.06806 17.8844 7.82192C18.1306 7.57578 18.4644 7.4375 18.8125 7.4375V7H19.6875V7.4375C20.0356 7.4375 20.3694 7.57578 20.6156 7.82192C20.8617 8.06806 21 8.4019 21 8.75H20.125C20.125 8.63397 20.0789 8.52269 19.9969 8.44064C19.9148 8.35859 19.8035 8.3125 19.6875 8.3125V9.1875C20.0356 9.1875 20.3694 9.32578 20.6156 9.57192C20.8617 9.81806 21 10.1519 21 10.5C21 10.8481 20.8617 11.1819 20.6156 11.4281C20.3694 11.6742 20.0356 11.8125 19.6875 11.8125V12.25H18.8125V11.8125C18.4644 11.8125 18.1306 11.6742 17.8844 11.4281C17.6383 11.1819 17.5 10.8481 17.5 10.5H18.375C18.375 10.616 18.4211 10.7273 18.5031 10.8094C18.5852 10.8914 18.6965 10.9375 18.8125 10.9375V10.0625C18.4644 10.0625 18.1306 9.92422 17.8844 9.67808C17.6383 9.43194 17.5 9.0981 17.5 8.75Z" fill="#2775FF"/>
<path d="M18.375 23.625C18.375 23.509 18.3289 23.3977 18.2469 23.3156C18.1648 23.2336 18.0535 23.1875 17.9375 23.1875V24.0625C18.0535 24.0625 18.1648 24.0164 18.2469 23.9344C18.3289 23.8523 18.375 23.741 18.375 23.625Z" fill="#2775FF"/>
<path d="M8.3125 18.8125V26.6875H26.6875V18.8125H8.3125ZM21.875 21.875C21.875 21.759 21.9211 21.6477 22.0031 21.5656C22.0852 21.4836 22.1965 21.4375 22.3125 21.4375H24.0625C24.1785 21.4375 24.2898 21.4836 24.3719 21.5656C24.4539 21.6477 24.5 21.759 24.5 21.875V23.625C24.5 23.741 24.4539 23.8523 24.3719 23.9344C24.2898 24.0164 24.1785 24.0625 24.0625 24.0625H22.3125C22.1965 24.0625 22.0852 24.0164 22.0031 23.9344C21.9211 23.8523 21.875 23.741 21.875 23.625V21.875ZM13.125 23.625C13.125 23.741 13.0789 23.8523 12.9969 23.9344C12.9148 24.0164 12.8035 24.0625 12.6875 24.0625H10.9375C10.8215 24.0625 10.7102 24.0164 10.6281 23.9344C10.5461 23.8523 10.5 23.741 10.5 23.625V21.875C10.5 21.759 10.5461 21.6477 10.6281 21.5656C10.7102 21.4836 10.8215 21.4375 10.9375 21.4375H12.6875C12.8035 21.4375 12.9148 21.4836 12.9969 21.5656C13.0789 21.6477 13.125 21.759 13.125 21.875V23.625ZM13.125 20.5625H10.0625V24.9375H13.125V25.8125H9.625C9.50897 25.8125 9.39769 25.7664 9.31564 25.6844C9.23359 25.6023 9.1875 25.491 9.1875 25.375V20.125C9.1875 20.009 9.23359 19.8977 9.31564 19.8156C9.39769 19.7336 9.50897 19.6875 9.625 19.6875H13.125V20.5625ZM17.5 26.25C16.8078 26.25 16.1311 26.0447 15.5555 25.6601C14.9799 25.2756 14.5313 24.7289 14.2664 24.0894C14.0015 23.4499 13.9322 22.7461 14.0673 22.0672C14.2023 21.3883 14.5356 20.7646 15.0251 20.2751C15.5146 19.7856 16.1383 19.4523 16.8172 19.3173C17.4961 19.1822 18.1999 19.2515 18.8394 19.5164C19.4789 19.7813 20.0256 20.2299 20.4101 20.8055C20.7947 21.3811 21 22.0578 21 22.75C20.9991 23.678 20.63 24.5677 19.9739 25.2239C19.3177 25.88 18.428 26.2491 17.5 26.25ZM25.8125 25.375C25.8125 25.491 25.7664 25.6023 25.6844 25.6844C25.6023 25.7664 25.491 25.8125 25.375 25.8125H21.875V24.9375H24.9375V20.5625H21.875V19.6875H25.375C25.491 19.6875 25.6023 19.7336 25.6844 19.8156C25.7664 19.8977 25.8125 20.009 25.8125 20.125V25.375Z" fill="#2775FF"/>
<path d="M14.875 22.7501C14.8757 23.3699 15.0958 23.9694 15.4961 24.4426C15.8965 24.9157 16.4514 25.2319 17.0625 25.3352V24.9376C16.7144 24.9376 16.3806 24.7993 16.1344 24.5531C15.8883 24.307 15.75 23.9732 15.75 23.6251H16.625C16.625 23.7411 16.6711 23.8524 16.7531 23.9344C16.8352 24.0165 16.9465 24.0626 17.0625 24.0626V23.1876C16.8901 23.1876 16.7195 23.1536 16.5602 23.0876C16.401 23.0217 16.2563 22.925 16.1344 22.8031C16.0125 22.6813 15.9159 22.5366 15.8499 22.3773C15.7839 22.2181 15.75 22.0474 15.75 21.8751C15.75 21.7027 15.7839 21.532 15.8499 21.3728C15.9159 21.2135 16.0125 21.0689 16.1344 20.947C16.2563 20.8251 16.401 20.7284 16.5602 20.6625C16.7195 20.5965 16.8901 20.5626 17.0625 20.5626V20.1644C16.4513 20.2677 15.8964 20.584 15.496 21.0573C15.0956 21.5305 14.8756 22.1302 14.875 22.7501Z" fill="#2775FF"/>
<path d="M17.9375 20.1639V20.5625C18.2856 20.5625 18.6194 20.7008 18.8656 20.9469C19.1117 21.1931 19.25 21.5269 19.25 21.875H18.375C18.375 21.759 18.3289 21.6477 18.2469 21.5656C18.1648 21.4836 18.0535 21.4375 17.9375 21.4375V22.3125C18.2856 22.3125 18.6194 22.4508 18.8656 22.6969C19.1117 22.9431 19.25 23.2769 19.25 23.625C19.25 23.9731 19.1117 24.3069 18.8656 24.5531C18.6194 24.7992 18.2856 24.9375 17.9375 24.9375V25.3348C18.5491 25.2322 19.1045 24.9162 19.5051 24.4428C19.9057 23.9695 20.1255 23.3695 20.1255 22.7493C20.1255 22.1292 19.9057 21.5292 19.5051 21.0559C19.1045 20.5825 18.5491 20.2665 17.9375 20.1639Z" fill="#2775FF"/>
<path d="M16.625 21.875C16.625 21.991 16.6711 22.1023 16.7531 22.1844C16.8352 22.2664 16.9465 22.3125 17.0625 22.3125V21.4375C16.9465 21.4375 16.8352 21.4836 16.7531 21.5656C16.6711 21.6477 16.625 21.759 16.625 21.875Z" fill="#2775FF"/>
</svg>
