<svg width="8" height="9" viewBox="0 0 8 9" fill="none" xmlns="http://www.w3.org/2000/svg">
<path d="M2.73424 0.775933C2.21251 0.767494 1.70365 0.938125 1.29247 1.25939C0.881301 1.58065 0.592657 2.03313 0.474654 2.54141C0.406903 2.86488 0.412205 3.19939 0.490173 3.52056C0.568141 3.84172 0.716809 4.14143 0.925335 4.39783C1.13386 4.65423 1.39699 4.86086 1.69552 5.00264C1.99405 5.14442 2.32047 5.21778 2.65096 5.21737V8.54846H3.76132V1.88629H4.87168V8.54846H5.98204V1.88629H7.0924V0.775933H2.73424ZM1.5406 2.99665C1.5406 2.70217 1.65758 2.41974 1.86582 2.21151C2.07405 2.00328 2.35647 1.88629 2.65096 1.88629V4.10701C2.35647 4.10701 2.07405 3.99003 1.86582 3.7818C1.65758 3.57356 1.5406 3.29114 1.5406 2.99665Z" fill="#7E7E8F"/>
</svg>
