<svg width="26" height="22" viewBox="0 0 26 22" fill="none" xmlns="http://www.w3.org/2000/svg">
<path fill-rule="evenodd" clip-rule="evenodd" d="M3.46667 3.38462H2.6C1.16393 3.38462 0 4.521 0 5.92308V14.3846C0 15.7867 1.16393 16.9231 2.6 16.9231H5.2V19.4615C5.2 20.8636 6.36393 22 7.8 22H18.2C19.6361 22 20.8 20.8636 20.8 19.4615V16.9231H23.4C24.8361 16.9231 26 15.7867 26 14.3846V5.92308C26 4.521 24.8361 3.38462 23.4 3.38462H22.5333V2.53846C22.5333 1.86492 22.2595 1.21931 21.7715 0.743767C21.2845 0.267383 20.6232 0 19.9333 0C16.6123 0 9.38773 0 6.06667 0C5.3768 0 4.71553 0.267383 4.22846 0.743767C3.74053 1.21931 3.46667 1.86492 3.46667 2.53846V3.38462ZM19.0667 12.6923V19.4615C19.0667 19.9286 18.6784 20.3077 18.2 20.3077H7.8C7.3216 20.3077 6.93333 19.9286 6.93333 19.4615V12.6923C6.93333 12.2252 7.3216 11.8462 7.8 11.8462H18.2C18.6784 11.8462 19.0667 12.2252 19.0667 12.6923ZM23.4 5.07692H2.6C2.1216 5.07692 1.73333 5.456 1.73333 5.92308V14.3846C1.73333 14.8517 2.1216 15.2308 2.6 15.2308H5.2V12.6923C5.2 11.2902 6.36393 10.1538 7.8 10.1538H18.2C19.6361 10.1538 20.8 11.2902 20.8 12.6923V15.2308H23.4C23.8784 15.2308 24.2667 14.8517 24.2667 14.3846V5.92308C24.2667 5.456 23.8784 5.07692 23.4 5.07692ZM5.2 3.38462V2.53846C5.2 2.31423 5.291 2.09846 5.45393 1.94023C5.616 1.78115 5.837 1.69231 6.06667 1.69231H19.9333C20.163 1.69231 20.384 1.78115 20.5461 1.94023C20.709 2.09846 20.8 2.31423 20.8 2.53846V3.38462H5.2Z" fill="#7E7E8F"/>
</svg>
