<svg width="20" height="20" viewBox="0 0 20 20" fill="none" xmlns="http://www.w3.org/2000/svg">
<path d="M13.6832 6.6251C15.7165 8.65843 15.7165 11.9584 13.6832 13.9918C11.6498 16.0251 8.34984 16.0251 6.3165 13.9918C4.28317 11.9584 4.28317 8.65843 6.3165 6.6251C8.34984 4.59176 11.6498 4.59176 13.6832 6.6251Z" fill="#9A9AAF"/>
<path d="M6.87486 18.6582C6.79986 18.6582 6.71653 18.6416 6.64153 18.6166C4.76653 17.8666 3.24986 16.5416 2.2332 14.7916C1.24986 13.0832 0.858196 11.1499 1.11653 9.18322C1.1582 8.84156 1.4832 8.59989 1.81653 8.64156C2.1582 8.68322 2.39986 8.99989 2.3582 9.34156C2.14153 11.0332 2.47486 12.6999 3.31653 14.1666C4.1832 15.6666 5.49153 16.8082 7.09986 17.4499C7.41653 17.5832 7.57486 17.9416 7.44986 18.2666C7.3582 18.5082 7.11653 18.6582 6.87486 18.6582Z" fill="#9A9AAF"/>
<path d="M4.87517 4.35822C4.69184 4.35822 4.5085 4.27489 4.3835 4.11655C4.16684 3.84989 4.21684 3.45822 4.49184 3.24155C6.07517 1.99989 7.9835 1.34155 10.0002 1.34155C11.9668 1.34155 13.8418 1.97489 15.4168 3.17489C15.6918 3.38322 15.7418 3.77489 15.5335 4.04989C15.3252 4.32489 14.9335 4.37489 14.6585 4.16655C13.3002 3.13322 11.6918 2.59155 10.0002 2.59155C8.26684 2.59155 6.62517 3.15822 5.2585 4.22489C5.14184 4.31655 5.0085 4.35822 4.87517 4.35822Z" fill="#9A9AAF"/>
<path d="M13.1252 18.6584C12.8752 18.6584 12.6419 18.5084 12.5419 18.2668C12.4169 17.9501 12.5669 17.5834 12.8919 17.4501C14.5002 16.8001 15.8086 15.6668 16.6752 14.1668C17.5252 12.7001 17.8586 11.0334 17.6336 9.3501C17.5919 9.00844 17.8336 8.69177 18.1752 8.6501C18.5086 8.60844 18.8336 8.8501 18.8752 9.19177C19.1252 11.1501 18.7419 13.0918 17.7586 14.8001C16.7502 16.5501 15.2252 17.8668 13.3502 18.6251C13.2836 18.6418 13.2086 18.6584 13.1252 18.6584Z" fill="#9A9AAF"/>
</svg>
