<svg width="22" height="22" viewBox="0 0 22 22" fill="none" xmlns="http://www.w3.org/2000/svg">
<path d="M19.25 6.41683V15.5835C19.25 18.3335 17.875 20.1668 14.6667 20.1668H7.33333C4.125 20.1668 2.75 18.3335 2.75 15.5835V6.41683C2.75 3.66683 4.125 1.8335 7.33333 1.8335H14.6667C17.875 1.8335 19.25 3.66683 19.25 6.41683Z" stroke="#8B8B93" stroke-width="1.5" stroke-miterlimit="10" stroke-linecap="round" stroke-linejoin="round"/>
<path d="M14.2082 1.8335V9.03848C14.2082 9.44182 13.7315 9.64348 13.4381 9.37765L11.3115 7.41602C11.1374 7.25102 10.8623 7.25102 10.6881 7.41602L8.56153 9.37765C8.2682 9.64348 7.7915 9.44182 7.7915 9.03848V1.8335H14.2082Z" stroke="#8B8B93" stroke-width="1.5" stroke-miterlimit="10" stroke-linecap="round" stroke-linejoin="round"/>
<path d="M12.146 12.8335H16.0418" stroke="#8B8B93" stroke-width="1.5" stroke-miterlimit="10" stroke-linecap="round" stroke-linejoin="round"/>
<path d="M8.25 16.5H16.0417" stroke="#8B8B93" stroke-width="1.5" stroke-miterlimit="10" stroke-linecap="round" stroke-linejoin="round"/>
</svg>
