<svg width="36" height="18" viewBox="0 0 36 18" fill="none" xmlns="http://www.w3.org/2000/svg">
<path d="M36 3.22045V10.2782C36 12.0568 34.5582 13.4986 32.7796 13.4986H4.93844C3.9646 13.4986 3.04298 13.9392 2.43167 14.6973L0.2045 17.4589C0.136411 17.5433 0 17.4951 0 17.3866V3.22045C0 1.44184 1.44184 0 3.22045 0H32.7796C34.5582 0 36 1.44184 36 3.22045Z" fill="#C6CBD9"/>
<path fill-rule="evenodd" clip-rule="evenodd" d="M7.82097 10.3514C9.98074 10.3514 11.7315 8.60067 11.7315 6.4409C11.7315 4.28113 9.98074 2.53036 7.82097 2.53036C5.6612 2.53036 3.91043 4.28113 3.91043 6.4409C3.91043 8.60067 5.6612 10.3514 7.82097 10.3514ZM7.82097 10.4665C10.0442 10.4665 11.8465 8.66416 11.8465 6.4409C11.8465 4.21764 10.0442 2.41534 7.82097 2.41534C5.59771 2.41534 3.79541 4.21764 3.79541 6.4409C3.79541 8.66416 5.59771 10.4665 7.82097 10.4665Z" fill="white"/>
<path fill-rule="evenodd" clip-rule="evenodd" d="M4.62695 8.89124C5.36283 7.93338 6.51989 7.31598 7.82106 7.31598C9.12235 7.31598 10.2793 7.93338 11.0152 8.89124C10.2793 9.84909 9.12235 10.4665 7.82106 10.4665C6.51989 10.4665 5.36283 9.84909 4.62695 8.89124Z" fill="white"/>
<path d="M9.39657 5.44871C9.39657 6.28649 8.7174 6.96555 7.87962 6.96555C7.04185 6.96555 6.36279 6.28649 6.36279 5.44871C6.36279 4.61094 7.04185 3.93188 7.87962 3.93188C8.7174 3.93188 9.39657 4.61094 9.39657 5.44871Z" fill="white"/>
<path d="M31.4569 5.40574H15.4122C15.2851 5.40574 15.1821 5.3028 15.1821 5.17571C15.1821 5.04862 15.2851 4.94568 15.4122 4.94568H31.4569C31.584 4.94568 31.6869 5.04862 31.6869 5.17571C31.6869 5.3028 31.584 5.40574 31.4569 5.40574Z" fill="white"/>
<path d="M28.0064 8.28114H15.4122C15.2851 8.28114 15.1821 8.1782 15.1821 8.05111C15.1821 7.92401 15.2851 7.82108 15.4122 7.82108H28.0064C28.1335 7.82108 28.2364 7.92401 28.2364 8.05111C28.2364 8.1782 28.1335 8.28114 28.0064 8.28114Z" fill="white"/>
</svg>
