<svg width="20" height="20" viewBox="0 0 20 20" fill="none" xmlns="http://www.w3.org/2000/svg">
<path d="M14.408 3.45018L14.3497 6.60851C14.3413 7.04185 14.6163 7.61685 14.9663 7.87518L17.033 9.44185C18.358 10.4418 18.1413 11.6668 16.558 12.1668L13.8663 13.0085C13.4163 13.1502 12.9413 13.6418 12.8247 14.1002L12.183 16.5502C11.6747 18.4835 10.408 18.6752 9.35799 16.9752L7.89132 14.6002C7.62466 14.1668 6.99132 13.8418 6.49132 13.8668L3.70799 14.0085C1.71632 14.1085 1.14966 12.9585 2.44966 11.4418L4.09966 9.52518C4.40799 9.16685 4.54966 8.50018 4.40799 8.05018L3.55799 5.35018C3.06632 3.76685 3.94966 2.89185 5.52466 3.40851L7.98299 4.21685C8.39966 4.35018 9.02466 4.25851 9.37466 4.00018L11.9413 2.15018C13.333 1.15851 14.4413 1.74185 14.408 3.45018Z" fill="#9A9AAF"/>
<path d="M17.8664 17.0586L15.3414 14.5336C15.0998 14.2919 14.6998 14.2919 14.4581 14.5336C14.2164 14.7753 14.2164 15.1753 14.4581 15.4169L16.9831 17.9419C17.1081 18.0669 17.2664 18.1253 17.4248 18.1253C17.5831 18.1253 17.7414 18.0669 17.8664 17.9419C18.1081 17.7003 18.1081 17.3003 17.8664 17.0586Z" fill="#9A9AAF"/>
</svg>
