<svg width="22" height="22" viewBox="0 0 22 22" fill="none" xmlns="http://www.w3.org/2000/svg">
<path d="M11.9261 2.67646L17.3344 5.07813C18.8927 5.76563 18.8927 6.9023 17.3344 7.5898L11.9261 9.99146C11.3119 10.2665 10.3036 10.2665 9.68939 9.99146L4.28105 7.5898C2.72272 6.9023 2.72272 5.76563 4.28105 5.07813L9.68939 2.67646C10.3036 2.40146 11.3119 2.40146 11.9261 2.67646Z" stroke="#8B8B93" stroke-width="1.5" stroke-linecap="round" stroke-linejoin="round"/>
<path d="M2.75 10.0835C2.75 10.8535 3.3275 11.7427 4.03333 12.0543L10.2575 14.8227C10.7342 15.0335 11.275 15.0335 11.7425 14.8227L17.9667 12.0543C18.6725 11.7427 19.25 10.8535 19.25 10.0835" stroke="#8B8B93" stroke-width="1.5" stroke-linecap="round" stroke-linejoin="round"/>
<path d="M2.75 14.6665C2.75 15.519 3.25417 16.289 4.03333 16.6373L10.2575 19.4057C10.7342 19.6165 11.275 19.6165 11.7425 19.4057L17.9667 16.6373C18.7458 16.289 19.25 15.519 19.25 14.6665" stroke="#8B8B93" stroke-width="1.5" stroke-linecap="round" stroke-linejoin="round"/>
</svg>
