<svg width="32" height="32" viewBox="0 0 32 32" fill="none" xmlns="http://www.w3.org/2000/svg">
<path d="M16 31.8689C24.8366 31.8689 32 24.7348 32 15.9344C32 7.13409 24.8366 0 16 0C7.16344 0 0 7.13409 0 15.9344C0 24.7348 7.16344 31.8689 16 31.8689Z" fill="white"/>
<path d="M16 0C7.16379 0 0 7.13443 0 15.9344C0 22.6885 4.21399 28.459 10.1663 30.7803C10.0214 29.5213 9.90288 27.5803 10.2189 26.2033C10.5086 24.9574 12.0889 18.282 12.0889 18.282C12.0889 18.282 11.6148 17.3246 11.6148 15.9213C11.6148 13.7049 12.9053 12.0525 14.5119 12.0525C15.8815 12.0525 16.5399 13.0754 16.5399 14.2951C16.5399 15.659 15.6708 17.7049 15.2099 19.6066C14.828 21.1934 16.0132 22.4918 17.5802 22.4918C20.4247 22.4918 22.6107 19.5016 22.6107 15.2C22.6107 11.3836 19.8584 8.72131 15.921 8.72131C11.3646 8.72131 8.69136 12.118 8.69136 15.6328C8.69136 16.9967 9.21811 18.4656 9.87654 19.2656C10.0082 19.423 10.0214 19.5672 9.98189 19.7246C9.86337 20.2229 9.58683 21.3115 9.53416 21.5344C9.46831 21.823 9.29712 21.8885 8.99424 21.7443C6.99259 20.8131 5.74156 17.9148 5.74156 15.5672C5.74156 10.5443 9.40247 5.92787 16.316 5.92787C21.8601 5.92787 26.1794 9.86229 26.1794 15.1344C26.1794 20.6295 22.7029 25.0492 17.8831 25.0492C16.2634 25.0492 14.7358 24.2098 14.2222 23.2131C14.2222 23.2131 13.4189 26.2557 13.2214 27.0033C12.8658 28.3934 11.8914 30.1246 11.2329 31.1869C12.7342 31.6459 14.3144 31.8951 15.9737 31.8951C24.8099 31.8951 31.9737 24.7607 31.9737 15.9607C32 7.13443 24.8362 0 16 0Z" fill="#E60019"/>
</svg>
