<svg width="46" height="46" viewBox="0 0 46 46" fill="none" xmlns="http://www.w3.org/2000/svg">
<circle cx="23" cy="23" r="23" fill="#EDF0F4"/>
<path d="M16.0738 22.883C16.0083 24.0197 16.8833 24.9928 18.02 25.0582C18.0609 25.0582 18.1018 25.0582 18.1426 25.0582C19.2875 25.0582 20.2115 24.1341 20.2033 22.9893C20.2033 21.8445 19.2793 20.9204 18.1345 20.9286C17.0387 20.9286 16.131 21.7872 16.0738 22.883Z" fill="#0033AD"/>
<path d="M8.37057 22.3515C8.00259 22.327 7.68367 22.6132 7.66731 22.9811C7.65096 23.3491 7.92899 23.6681 8.29697 23.6844C8.66496 23.7089 8.9757 23.4227 9.00023 23.0547C9.02476 22.6868 8.73855 22.376 8.37057 22.3515Z" fill="#0033AD"/>
<path d="M15.9429 10.8949C16.27 10.7314 16.4009 10.3225 16.2373 9.99541C16.0738 9.66832 15.6649 9.53748 15.3378 9.70102C15.0107 9.86457 14.8799 10.2653 15.0434 10.5924C15.207 10.9276 15.6077 11.0667 15.9429 10.8949C15.9429 10.8949 15.9348 10.8949 15.9429 10.8949Z" fill="#0033AD"/>
<path d="M18.0363 14.5502C18.5433 14.2967 18.7477 13.6752 18.4942 13.1682C18.2407 12.6612 17.6193 12.4568 17.1123 12.7103C16.6053 12.9638 16.4008 13.5853 16.6543 14.0923C16.9078 14.5993 17.5293 14.8037 18.0363 14.5502Z" fill="#0033AD"/>
<path d="M10.9874 17.0607C11.3799 17.3142 11.9032 17.2079 12.1649 16.8154C12.4184 16.4229 12.3121 15.8995 11.9196 15.6378C11.5271 15.3843 11.0037 15.4907 10.742 15.8832C10.4804 16.2757 10.5948 16.8072 10.9874 17.0607Z" fill="#0033AD"/>
<path d="M12.2386 21.9835C11.6662 21.9508 11.1837 22.3842 11.151 22.9566C11.1183 23.529 11.5517 24.0115 12.1241 24.0442C12.6966 24.0769 13.179 23.6435 13.2117 23.0711C13.2444 22.5068 12.811 22.0162 12.2386 21.9835Z" fill="#0033AD"/>
<path d="M11.1018 28.9098C10.6848 29.1224 10.5131 29.6294 10.7257 30.0546C10.9383 30.4716 11.4453 30.6434 11.8705 30.4308C12.2876 30.2181 12.4593 29.7111 12.2467 29.2859C12.0341 28.8689 11.5189 28.6971 11.1018 28.9098Z" fill="#0033AD"/>
<path d="M15.109 19.8492C15.6732 20.2172 16.4255 20.0618 16.7853 19.4976C17.1533 18.9333 16.9979 18.181 16.4337 17.8212C15.8695 17.4532 15.1171 17.6086 14.7573 18.1728C14.3893 18.7289 14.5447 19.4812 15.109 19.8492Z" fill="#0033AD"/>
<path d="M27.8246 14.4684C28.2989 14.7792 28.9449 14.6483 29.2556 14.1741C29.5664 13.6998 29.4355 13.0538 28.9613 12.743C28.487 12.4323 27.841 12.5631 27.5302 13.0374C27.2113 13.5199 27.3421 14.1577 27.8246 14.4684Z" fill="#0033AD"/>
<path d="M29.9345 10.8295C30.2453 11.0339 30.6541 10.944 30.8586 10.6333C31.063 10.3225 30.9731 9.91364 30.6623 9.7092C30.3516 9.50477 29.9427 9.59472 29.7383 9.89728C29.542 10.208 29.632 10.6251 29.9345 10.8295Z" fill="#0033AD"/>
<path d="M27.9799 20.9123C26.8432 20.8468 25.862 21.7218 25.8047 22.8585C25.7393 23.9951 26.6143 24.9764 27.7509 25.0337C27.7918 25.0337 27.8327 25.0337 27.8654 25.0337C29.0021 25.0337 29.9261 24.1096 29.9261 22.9648C29.9343 21.8772 29.0757 20.9695 27.9799 20.9123Z" fill="#0033AD"/>
<path d="M18.7151 19.702C19.0667 20.3971 19.7782 20.8386 20.5632 20.8386C21.6999 20.8386 22.6239 19.9146 22.6239 18.7698C22.6239 18.4508 22.5503 18.1319 22.4031 17.8375C21.8879 16.8154 20.645 16.4065 19.631 16.9217C18.6088 17.445 18.1999 18.688 18.7151 19.702Z" fill="#0033AD"/>
<path d="M34.8981 17.0607C35.3151 16.8481 35.4786 16.3329 35.266 15.9159C35.0534 15.4988 34.5382 15.3353 34.1212 15.5479C33.7041 15.7605 33.5406 16.2675 33.745 16.6845C33.9658 17.1016 34.4728 17.2733 34.8981 17.0607Z" fill="#0033AD"/>
<path d="M29.6647 17.7149C29.0678 18.0174 28.8225 18.7452 29.125 19.3422C29.4276 19.9391 30.1554 20.1845 30.7523 19.8819C31.3493 19.5793 31.5946 18.8515 31.292 18.2546C30.9895 17.6576 30.2617 17.4205 29.6647 17.7149Z" fill="#0033AD"/>
<path d="M22.9184 10.5188C23.3845 10.5433 23.7852 10.1835 23.8179 9.71739C23.8506 9.25128 23.4827 8.85058 23.0165 8.81787C22.5504 8.79334 22.1497 9.14497 22.117 9.61108C22.0925 10.0854 22.4523 10.4861 22.9184 10.5188Z" fill="#0033AD"/>
<path d="M22.91 15.8586C23.5806 15.8995 24.153 15.3843 24.1857 14.7138C24.2266 14.0432 23.7114 13.4708 23.0408 13.4381C22.3703 13.3972 21.7979 13.9124 21.7652 14.5829C21.7325 15.2535 22.2395 15.8259 22.91 15.8586Z" fill="#0033AD"/>
<path d="M16.3355 28.2556C16.9324 27.953 17.1777 27.2252 16.8752 26.6283C16.5726 26.0313 15.8448 25.786 15.2479 26.0886C14.6509 26.3911 14.4056 27.1189 14.7082 27.7159C15.0107 28.3128 15.7385 28.5581 16.3355 28.2556Z" fill="#0033AD"/>
<path d="M23.6951 17.6331C23.0736 18.5898 23.3353 19.8655 24.292 20.487C25.2488 21.1085 26.5245 20.8468 27.146 19.8901C27.7674 18.9333 27.5058 17.6576 26.549 17.0361C26.2137 16.8154 25.8212 16.7009 25.4205 16.7009C24.7254 16.7009 24.0794 17.0525 23.6951 17.6331Z" fill="#0033AD"/>
<path d="M27.2851 26.2685C26.7699 25.2463 25.5269 24.8374 24.5129 25.3526C23.4908 25.8678 23.0819 27.1107 23.5971 28.1247C24.1122 29.1469 25.3552 29.5558 26.3692 29.0406C27.3832 28.5336 27.8003 27.307 27.2933 26.2848C27.2933 26.2766 27.2933 26.2766 27.2851 26.2685Z" fill="#0033AD"/>
<path d="M30.8912 26.1213C30.327 25.7533 29.5746 25.9086 29.2148 26.4729C28.8469 27.0371 29.0022 27.7895 29.5665 28.1493C30.1307 28.5172 30.883 28.3619 31.2428 27.7976C31.6108 27.2416 31.4555 26.4892 30.8912 26.1213Z" fill="#0033AD"/>
<path d="M34.8488 23.022C34.8815 22.4496 34.4481 21.9672 33.8757 21.9344C33.3033 21.9017 32.8208 22.3351 32.7881 22.9076C32.7554 23.48 33.1888 23.9624 33.7612 23.9952C34.3255 24.0279 34.8161 23.5863 34.8488 23.022Z" fill="#0033AD"/>
<path d="M37.703 22.2861C37.335 22.2615 37.0161 22.5478 36.9997 22.9157C36.9834 23.2837 37.2614 23.6026 37.6294 23.619C37.9974 23.6435 38.3081 23.3573 38.3326 22.9893C38.349 22.6213 38.071 22.3106 37.703 22.2861Z" fill="#0033AD"/>
<path d="M35.0127 28.9097C34.6201 28.6562 34.0968 28.7625 33.8351 29.1551C33.5816 29.5476 33.6879 30.0709 34.0804 30.3326C34.4729 30.5861 34.9963 30.4798 35.258 30.0873C35.5197 29.6948 35.4052 29.1632 35.0127 28.9097Z" fill="#0033AD"/>
<path d="M16.0573 35.141C15.7466 34.9365 15.3377 35.0265 15.1332 35.329C14.9288 35.6398 15.0188 36.0486 15.3213 36.2531C15.6321 36.4575 16.0409 36.3676 16.2454 36.065C16.458 35.7624 16.368 35.3454 16.0573 35.141Z" fill="#0033AD"/>
<path d="M30.0572 35.0755C29.7301 35.2391 29.5992 35.6479 29.7628 35.975C29.9263 36.3021 30.3352 36.433 30.6623 36.2694C30.9894 36.1059 31.1202 35.7052 30.9567 35.3781C30.7931 35.0428 30.3925 34.9038 30.0572 35.0755C30.0572 35.0755 30.0654 35.0755 30.0572 35.0755Z" fill="#0033AD"/>
<path d="M22.3051 28.3373C22.9266 27.3806 22.6649 26.1049 21.7081 25.4752C20.7514 24.8538 19.4757 25.1154 18.846 26.0722C18.2164 27.029 18.4862 28.3046 19.443 28.9343C19.7783 29.1551 20.1708 29.2696 20.5715 29.2696C21.2747 29.2777 21.9207 28.9261 22.3051 28.3373Z" fill="#0033AD"/>
<path d="M18.1753 31.502C17.701 31.1912 17.055 31.3221 16.7442 31.7964C16.4335 32.2707 16.5643 32.9167 17.0386 33.2274C17.5129 33.5382 18.1589 33.4073 18.4697 32.933C18.7886 32.4587 18.6577 31.8127 18.1753 31.502Z" fill="#0033AD"/>
<path d="M22.9916 35.4517C22.5255 35.4272 22.1248 35.787 22.0921 36.2531C22.0594 36.7192 22.4274 37.1199 22.8935 37.1526C23.3596 37.1771 23.7603 36.8255 23.793 36.3594C23.8175 35.8851 23.4577 35.4844 22.9916 35.4517Z" fill="#0033AD"/>
<path d="M23 30.1118C22.3294 30.071 21.757 30.5861 21.7243 31.2567C21.6834 31.9272 22.1986 32.4997 22.8692 32.5324C23.5397 32.5651 24.1121 32.0581 24.1448 31.3875C24.1857 30.7252 23.6705 30.1446 23 30.1118Z" fill="#0033AD"/>
<path d="M27.9636 31.4202C27.4566 31.6819 27.2522 32.3034 27.5139 32.8104C27.7756 33.3174 28.397 33.5218 28.904 33.2602C29.411 33.0067 29.6155 32.3852 29.362 31.8782C29.1003 31.3712 28.4788 31.1586 27.9636 31.4202Z" fill="#0033AD"/>
</svg>
