<svg width="32" height="33" viewBox="0 0 32 33" fill="none" xmlns="http://www.w3.org/2000/svg">
<path d="M20.8668 21.5398C21.7948 21.4438 22.4988 20.6438 22.4668 19.6838C22.4348 18.7238 21.6348 17.9558 20.6748 17.9558H20.6108C19.6188 17.9878 18.8508 18.8198 18.8828 19.8118C18.9148 20.2918 19.1068 20.7078 19.3948 20.9958C18.3068 23.1398 16.6428 24.7078 14.1468 26.0198C12.4508 26.9158 10.6908 27.2358 8.93081 27.0118C7.49081 26.8198 6.37081 26.1798 5.66681 25.1238C4.64281 23.5558 4.54681 21.8598 5.41081 20.1638C6.01881 18.9478 6.97881 18.0518 7.58681 17.6038C7.45881 17.1878 7.26681 16.4838 7.17081 15.9718C2.53081 19.3318 3.01081 23.8758 4.41881 26.0198C5.47481 27.6198 7.61881 28.6118 9.98681 28.6118C10.6268 28.6118 11.2668 28.5478 11.9068 28.3878C16.0028 27.5878 19.1068 25.1558 20.8668 21.5398Z" fill="#764ABC"/>
<path d="M26.4987 17.5719C24.0667 14.7239 20.4827 13.1559 16.3867 13.1559H15.8747C15.5867 12.5799 14.9787 12.1959 14.3067 12.1959H14.2427C13.2507 12.2279 12.4827 13.0599 12.5147 14.0519C12.5467 15.0119 13.3467 15.7799 14.3067 15.7799H14.3707C15.0747 15.7479 15.6827 15.2999 15.9387 14.6919H16.5147C18.9467 14.6919 21.2507 15.3959 23.3307 16.7719C24.9307 17.8279 26.0827 19.2039 26.7227 20.8679C27.2667 22.2119 27.2347 23.5239 26.6587 24.6439C25.7627 26.3399 24.2587 27.2679 22.2747 27.2679C20.9947 27.2679 19.7787 26.8839 19.1387 26.5959C18.7867 26.9159 18.1467 27.4279 17.6987 27.7479C19.0747 28.3879 20.4827 28.7399 21.8267 28.7399C24.8987 28.7399 27.1707 27.0439 28.0347 25.3479C28.9627 23.4919 28.8987 20.2919 26.4987 17.5719Z" fill="#764ABC"/>
<path d="M10.2428 22.0838C10.2748 23.0438 11.0748 23.8118 12.0348 23.8118H12.0988C13.0908 23.7798 13.8588 22.9478 13.8268 21.9558C13.7948 20.9958 12.9948 20.2278 12.0348 20.2278H11.9708C11.9068 20.2278 11.8108 20.2278 11.7468 20.2598C10.4348 18.0838 9.89079 15.7158 10.0828 13.1558C10.2108 11.2358 10.8508 9.5718 11.9708 8.1958C12.8988 7.0118 14.6908 6.4358 15.9068 6.4038C19.2988 6.3398 20.7388 10.5638 20.8348 12.2598C21.2508 12.3558 21.9548 12.5798 22.4348 12.7398C22.0508 7.5558 18.8508 4.8678 15.7788 4.8678C12.8988 4.8678 10.2428 6.9478 9.18679 10.0198C7.71479 14.1158 8.67479 18.0518 10.4668 21.1558C10.3068 21.3798 10.2108 21.7318 10.2428 22.0838Z" fill="#764ABC"/>
</svg>
