<svg width="32" height="33" viewBox="0 0 32 33" fill="none" xmlns="http://www.w3.org/2000/svg">
<g clip-path="url(#clip0_1484_33290)">
<path d="M16 32.5001C24.8366 32.5001 32 25.3367 32 16.5001C32 7.66357 24.8366 0.500122 16 0.500122C7.16344 0.500122 0 7.66357 0 16.5001C0 25.3367 7.16344 32.5001 16 32.5001Z" fill="#D80027"/>
<path d="M15.3448 13.5742L16.6576 15.3832L18.7837 14.6938L17.4688 16.5013L18.7814 18.3103L16.6561 17.6183L15.3413 19.4258L15.3427 17.1908L13.2173 16.4988L15.3434 15.8094L15.3448 13.5742Z" fill="#F0F0F0"/>
<path d="M11.7621 21.0218C9.26483 21.0218 7.24033 18.9973 7.24033 16.5C7.24033 14.0028 9.26483 11.9783 11.7621 11.9783C12.5407 11.9783 13.2733 12.1752 13.913 12.5218C12.9095 11.5404 11.5372 10.9348 10.023 10.9348C6.94933 10.9348 4.45776 13.4264 4.45776 16.4999C4.45776 19.5735 6.94939 22.0651 10.023 22.0651C11.5373 22.0651 12.9096 21.4594 13.913 20.4781C13.2733 20.8248 12.5407 21.0218 11.7621 21.0218Z" fill="#F0F0F0"/>
</g>
<defs>
<clipPath id="clip0_1484_33290">
<rect width="32" height="32" fill="white" transform="translate(0 0.5)"/>
</clipPath>
</defs>
</svg>
