<svg width="9" height="12" viewBox="0 0 9 12" fill="none" xmlns="http://www.w3.org/2000/svg">
<path d="M6.15029 5.49159C6.15029 5.49159 4.15164 7.6568 4.15164 8.98923C4.14799 9.25534 4.1968 9.51957 4.29527 9.76682C4.39374 10.0141 4.53994 10.2395 4.72553 10.4302C5.10035 10.8155 5.61285 11.036 6.15029 11.0434C6.68773 11.0508 7.20607 10.8443 7.59131 10.4695C7.78205 10.2839 7.93438 10.0626 8.03958 9.81811C8.14479 9.57365 8.20081 9.31086 8.20445 9.04475V8.98923C8.20445 7.6568 6.15029 5.49159 6.15029 5.49159ZM5.33417 4.73822L5.70559 4.33626L4.42923 0.775894H3.31887L0.542969 8.54842H1.65333L2.44724 6.3277H4.08113C4.45792 5.76747 4.87603 5.23617 5.33195 4.73822H5.33417ZM3.87405 2.3304L4.90669 5.21734H2.84364L3.87405 2.3304Z" fill="#7E7E8F"/>
</svg>
