<svg width="22" height="22" viewBox="0 0 22 22" fill="none" xmlns="http://www.w3.org/2000/svg">
<path d="M1.83331 7.79166H11.9166" stroke="#7E7E8F" stroke-width="1.5" stroke-miterlimit="10" stroke-linecap="round" stroke-linejoin="round"/>
<path d="M5.5 15.125H7.33333" stroke="#7E7E8F" stroke-width="1.5" stroke-miterlimit="10" stroke-linecap="round" stroke-linejoin="round"/>
<path d="M9.625 15.125H13.2917" stroke="#7E7E8F" stroke-width="1.5" stroke-miterlimit="10" stroke-linecap="round" stroke-linejoin="round"/>
<path d="M20.1666 10.3859V14.7675C20.1666 17.985 19.3508 18.7917 16.0966 18.7917H5.90331C2.64915 18.7917 1.83331 17.985 1.83331 14.7675V7.23252C1.83331 4.01502 2.64915 3.20834 5.90331 3.20834H12.1733" stroke="#7E7E8F" stroke-width="1.5" stroke-linecap="round" stroke-linejoin="round"/>
<path d="M15.5834 2.97919H18.4525C19.085 2.97919 19.5984 3.55669 19.5984 4.12502C19.5984 4.75752 19.085 5.27085 18.4525 5.27085H15.5834V2.97919Z" stroke="#7E7E8F" stroke-width="1.5" stroke-miterlimit="10" stroke-linecap="round" stroke-linejoin="round"/>
<path d="M15.5834 5.27084H18.8559C19.58 5.27084 20.1667 5.78418 20.1667 6.41668C20.1667 7.04918 19.58 7.56251 18.8559 7.56251H15.5834V5.27084Z" stroke="#7E7E8F" stroke-width="1.5" stroke-miterlimit="10" stroke-linecap="round" stroke-linejoin="round"/>
<path d="M17.1967 7.5625V8.70833" stroke="#7E7E8F" stroke-width="1.5" stroke-miterlimit="10" stroke-linecap="round" stroke-linejoin="round"/>
<path d="M17.1967 1.83334V2.97918" stroke="#7E7E8F" stroke-width="1.5" stroke-miterlimit="10" stroke-linecap="round" stroke-linejoin="round"/>
<path d="M16.6742 2.97919H14.6667" stroke="#7E7E8F" stroke-width="1.5" stroke-miterlimit="10" stroke-linecap="round" stroke-linejoin="round"/>
<path d="M16.6742 7.5625H14.6667" stroke="#7E7E8F" stroke-width="1.5" stroke-miterlimit="10" stroke-linecap="round" stroke-linejoin="round"/>
</svg>
