<svg width="16" height="17" viewBox="0 0 16 17" fill="none" xmlns="http://www.w3.org/2000/svg">
<path d="M2 14.9333H14" stroke="#F1F1F1" stroke-width="1.5" stroke-linecap="round" stroke-linejoin="round"/>
<path d="M3.73332 5.85327H2.66667C2.3 5.85327 2 6.15327 2 6.51994V12.2666C2 12.6333 2.3 12.9333 2.66667 12.9333H3.73332C4.09998 12.9333 4.39998 12.6333 4.39998 12.2666V6.51994C4.39998 6.15327 4.09998 5.85327 3.73332 5.85327Z" stroke="#F1F1F1" stroke-width="1.5" stroke-linecap="round" stroke-linejoin="round"/>
<path d="M8.53332 3.72656H7.46667C7.1 3.72656 6.8 4.02656 6.8 4.39323V12.2666C6.8 12.6332 7.1 12.9332 7.46667 12.9332H8.53332C8.89999 12.9332 9.19999 12.6332 9.19999 12.2666V4.39323C9.19999 4.02656 8.89999 3.72656 8.53332 3.72656Z" stroke="#F1F1F1" stroke-width="1.5" stroke-linecap="round" stroke-linejoin="round"/>
<path d="M13.3333 1.59985H12.2667C11.9 1.59985 11.6 1.89985 11.6 2.26652V12.2665C11.6 12.6332 11.9 12.9332 12.2667 12.9332H13.3333C13.7 12.9332 14 12.6332 14 12.2665V2.26652C14 1.89985 13.7 1.59985 13.3333 1.59985Z" stroke="#F1F1F1" stroke-width="1.5" stroke-linecap="round" stroke-linejoin="round"/>
</svg>
