<svg width="16" height="15" viewBox="0 0 16 15" fill="none" xmlns="http://www.w3.org/2000/svg">
<path d="M5.23828 12C4.42969 12 3.76172 12.668 3.76172 13.5117C3.76172 14.3203 4.42969 14.9883 5.23828 14.9883C6.08203 14.9883 6.75 14.3203 6.75 13.5117C6.75 12.668 6.08203 12 5.23828 12ZM12.7617 12C11.918 12 11.25 12.668 11.25 13.5117C11.25 14.3203 11.918 14.9883 12.7617 14.9883C13.5703 14.9883 14.2383 14.3203 14.2383 13.5117C14.2383 12.668 13.5703 12 12.7617 12ZM11.6719 8.23828C12.2344 8.23828 12.7266 7.95703 12.9727 7.46484L15.6445 2.61328C15.9258 2.12109 15.5742 1.48828 15.0117 1.48828H3.90234L3.19922 0.0117188H0.738281V1.48828H2.25L4.95703 7.18359L3.9375 9.01172C3.375 10.0312 4.11328 11.2617 5.23828 11.2617H14.2383V9.75H5.23828L6.08203 8.23828H11.6719ZM4.60547 3H13.7461L11.6719 6.76172H6.39844L4.60547 3Z" fill="#9A9AAF"/>
</svg>
