<svg width="46" height="46" viewBox="0 0 46 46" fill="none" xmlns="http://www.w3.org/2000/svg">
<path d="M23 46C35.7459 46 46 35.7459 46 23C46 10.2541 35.7459 0 23 0C10.2541 0 0 10.2541 0 23C0 35.7459 10.2541 46 23 46Z" fill="#2775CA"/>
<path d="M29.3251 26.6416C29.3251 23.2875 27.3126 22.1375 23.2876 21.6584C20.4126 21.275 19.8376 20.5084 19.8376 19.1666C19.8376 17.8248 20.796 16.9625 22.7126 16.9625C24.4376 16.9625 25.396 17.5375 25.8751 18.975C25.971 19.2625 26.2585 19.4541 26.546 19.4541H28.0792C28.4626 19.4541 28.7501 19.1666 28.7501 18.7834V18.6875C28.3667 16.5791 26.6417 14.95 24.4376 14.7584V12.4584C24.4376 12.075 24.1501 11.7875 23.671 11.6916H22.2335C21.8501 11.6916 21.5626 11.9791 21.4667 12.4584V14.6625C18.5917 15.0459 16.771 16.9625 16.771 19.3584C16.771 22.5209 18.6876 23.7666 22.7126 24.2459C25.396 24.725 26.2585 25.3 26.2585 26.8334C26.2585 28.3668 24.9167 29.4209 23.096 29.4209C20.6042 29.4209 19.7417 28.3666 19.4542 26.9291C19.3585 26.5459 19.071 26.3541 18.7835 26.3541H17.1542C16.771 26.3541 16.4835 26.6416 16.4835 27.025V27.1209C16.8667 29.5166 18.4001 31.2416 21.5626 31.7209V34.0209C21.5626 34.4041 21.8501 34.6916 22.3292 34.7875H23.7667C24.1501 34.7875 24.4376 34.5 24.5335 34.0209V31.7209C27.4085 31.2416 29.3251 29.2291 29.3251 26.6416Z" fill="white"/>
<path fill-rule="evenodd" clip-rule="evenodd" d="M9.58345 18.3041C6.80413 25.6834 10.6375 34.0209 18.1125 36.7041C18.4 36.8959 18.6875 37.2791 18.6875 37.5666V38.9084C18.6875 39.1 18.6875 39.1959 18.5916 39.2916C18.4959 39.675 18.1125 39.8666 17.7291 39.675C12.3625 37.95 8.24163 33.8291 6.51663 28.4625C3.64163 19.3584 8.62504 9.6791 17.7291 6.8041C17.825 6.70842 18.0166 6.70842 18.1125 6.70842C18.4959 6.8041 18.6875 7.0916 18.6875 7.47501V8.8166C18.6875 9.29592 18.4959 9.58342 18.1125 9.77501C14.1834 11.2125 11.0209 14.2791 9.58345 18.3041ZM27.4084 7.18749C27.5041 6.80408 27.8875 6.61249 28.2709 6.80408C33.5416 8.52908 37.7584 12.65 39.4834 18.1125C42.3584 27.2166 37.375 36.8959 28.2709 39.7709C28.175 39.8666 27.9834 39.8666 27.8875 39.8666C27.5041 39.7709 27.3125 39.4834 27.3125 39.1V37.7584C27.3125 37.2791 27.5041 36.9916 27.8875 36.8C31.8166 35.3625 34.9791 32.2959 36.4166 28.2709C39.1959 20.8916 35.3625 12.5541 27.8875 9.8709C27.6 9.67908 27.3125 9.2959 27.3125 8.91249V7.5709C27.3125 7.37908 27.3125 7.2834 27.4084 7.18749Z" fill="white"/>
</svg>
