<svg width="43" height="49" viewBox="0 0 43 49" fill="none" xmlns="http://www.w3.org/2000/svg">
<mask id="mask0_1628_44599" style="mask-type:alpha" maskUnits="userSpaceOnUse" x="0" y="0" width="43" height="49">
<path d="M39.2447 48.8611H3.6212C1.7228 48.8611 0.183838 47.3222 0.183838 45.4238V4.17549C0.183838 2.27709 1.7228 0.738129 3.6212 0.738129H26.7453L42.6821 16.675V45.4238C42.6821 47.3222 41.1431 48.8611 39.2447 48.8611Z" fill="url(#paint0_linear_1628_44599)"/>
</mask>
<g mask="url(#mask0_1628_44599)">
<path d="M39.2464 48.8611H3.62291C1.72451 48.8611 0.185547 47.3222 0.185547 45.4238V4.17546C0.185547 2.27706 1.72451 0.738098 3.62291 0.738098H26.747L42.6838 16.6749V45.4238C42.6838 47.3222 41.1448 48.8611 39.2464 48.8611Z" fill="url(#paint1_linear_1628_44599)"/>
<g opacity="0.51" filter="url(#filter0_f_1628_44599)">
<rect x="7.68469" y="24.0184" width="27.8114" height="13.1245" fill="#E33CC8" style="mix-blend-mode:darken"/>
</g>
<path d="M10.2272 34.5169C9.62653 34.5169 9.07931 34.377 8.58558 34.0972C8.40454 33.9902 8.31403 33.838 8.31403 33.6405C8.31403 33.5088 8.35517 33.3936 8.43746 33.2949C8.52798 33.1879 8.64318 33.1344 8.78307 33.1344C8.86536 33.1344 8.93942 33.1509 9.00525 33.1838C9.38377 33.3648 9.76642 33.4553 10.1532 33.4553C10.5975 33.4553 10.9555 33.3278 11.227 33.0727C11.5068 32.8176 11.6467 32.3362 11.6467 31.6285V26.2839C11.6467 26.1276 11.7002 25.9959 11.8072 25.8889C11.9141 25.7737 12.0458 25.7161 12.2021 25.7161C12.3585 25.7161 12.4902 25.7737 12.5971 25.8889C12.7123 25.9959 12.7699 26.1276 12.7699 26.2839V31.5545C12.7699 32.6325 12.5272 33.3977 12.0417 33.8503C11.5644 34.2947 10.9596 34.5169 10.2272 34.5169ZM16.5201 34.4551C16.3637 34.4551 16.2321 34.4017 16.1251 34.2947C16.0181 34.1877 15.9646 34.0561 15.9646 33.8997V26.3456C15.9646 26.1893 16.0181 26.0576 16.1251 25.9507C16.2321 25.8354 16.3637 25.7778 16.5201 25.7778H19.3343C20.1161 25.7778 20.7538 25.9095 21.2475 26.1728C21.7413 26.4362 22.0951 26.7735 22.309 27.185C22.523 27.5964 22.63 28.0408 22.63 28.518C22.63 28.9953 22.523 29.4397 22.309 29.8511C22.0951 30.2626 21.7413 30.5999 21.2475 30.8633C20.7538 31.1266 20.1161 31.2582 19.3343 31.2582H17.0879V33.8997C17.0879 34.0561 17.0303 34.1877 16.9151 34.2947C16.8081 34.4017 16.6764 34.4551 16.5201 34.4551ZM19.2232 30.1967C20.0626 30.1967 20.6509 30.0363 20.9883 29.7153C21.3339 29.3944 21.5067 28.9953 21.5067 28.518C21.5067 28.0408 21.3339 27.6417 20.9883 27.3208C20.6509 26.9998 20.0626 26.8394 19.2232 26.8394H17.0879V30.1967H19.2232ZM28.9358 34.5169C28.0883 34.5169 27.3353 34.3317 26.677 33.9614C26.0187 33.5829 25.5085 33.0604 25.1465 32.3938C24.7844 31.7191 24.6033 30.9538 24.6033 30.098C24.6033 29.2257 24.7926 28.4522 25.1711 27.7775C25.5497 27.1027 26.064 26.5802 26.714 26.2099C27.3723 25.8396 28.1006 25.6544 28.8988 25.6544C29.5406 25.6544 30.1002 25.7326 30.5775 25.8889C31.063 26.0453 31.5279 26.2633 31.9723 26.5431C32.0381 26.576 32.0957 26.6336 32.1451 26.7159C32.1944 26.7982 32.2191 26.8887 32.2191 26.9875C32.2191 27.1274 32.1698 27.2467 32.071 27.3454C31.9805 27.4442 31.8571 27.4936 31.7007 27.4936C31.6102 27.4936 31.5238 27.473 31.4415 27.4318C31.0548 27.2014 30.668 27.0286 30.2812 26.9134C29.8945 26.7982 29.4748 26.7406 29.0222 26.7406C28.3968 26.7406 27.8332 26.8723 27.3312 27.1356C26.8292 27.3989 26.4343 27.7857 26.1463 28.2959C25.8665 28.7978 25.7266 29.3985 25.7266 30.098C25.7266 30.7398 25.8582 31.3159 26.1216 31.826C26.3931 32.328 26.7799 32.7271 27.2818 33.0233C27.792 33.3113 28.3927 33.4553 29.0839 33.4553C29.8575 33.4553 30.5775 33.2743 31.244 32.9122V30.6781H29.2074C29.0675 30.6781 28.9482 30.6287 28.8494 30.53C28.7507 30.4313 28.7013 30.3119 28.7013 30.172C28.7013 30.0322 28.7507 29.9128 28.8494 29.8141C28.9482 29.7153 29.0675 29.666 29.2074 29.666H31.639C31.8036 29.666 31.9435 29.7236 32.0587 29.8388C32.1739 29.954 32.2315 30.0939 32.2315 30.2584V33.0604C32.2315 33.2332 32.1862 33.3895 32.0957 33.5294C32.0134 33.6611 31.9023 33.7598 31.7624 33.8256C30.8408 34.2865 29.8986 34.5169 28.9358 34.5169Z" fill="white"/>
<path d="M8.58558 34.0972L8.42658 34.3663L8.43152 34.3691L8.58558 34.0972ZM8.43746 33.2949L8.1989 33.093L8.1974 33.0948L8.43746 33.2949ZM9.00525 33.1838L8.86548 33.4633L8.87042 33.4657L9.00525 33.1838ZM11.227 33.0727L11.0165 32.8418L11.0131 32.8449L11.227 33.0727ZM11.8072 25.8889L12.0283 26.1101L12.0362 26.1016L11.8072 25.8889ZM12.5971 25.8889L12.3681 26.1016L12.376 26.1101L12.3845 26.1179L12.5971 25.8889ZM12.0417 33.8503L12.2546 34.079L12.2548 34.0789L12.0417 33.8503ZM10.2272 34.2044C9.67725 34.2044 9.18362 34.0769 8.73964 33.8253L8.43152 34.3691C8.975 34.677 9.5758 34.8294 10.2272 34.8294V34.2044ZM8.74455 33.8282C8.65115 33.773 8.62651 33.719 8.62651 33.6405H8.00154C8.00154 33.9569 8.15793 34.2075 8.42661 34.3662L8.74455 33.8282ZM8.62651 33.6405C8.62651 33.58 8.64325 33.536 8.67752 33.4949L8.1974 33.0948C8.06709 33.2512 8.00154 33.4377 8.00154 33.6405H8.62651ZM8.67601 33.4967C8.70727 33.4598 8.73528 33.4469 8.78307 33.4469V32.8219C8.55108 32.8219 8.34868 32.916 8.19891 33.093L8.67601 33.4967ZM8.78307 33.4469C8.82263 33.4469 8.84796 33.4545 8.8655 33.4633L9.145 32.9043C9.03088 32.8472 8.90808 32.8219 8.78307 32.8219V33.4469ZM8.87042 33.4657C9.28741 33.6651 9.71589 33.7678 10.1532 33.7678V33.1429C9.81694 33.1429 9.48014 33.0645 9.14007 32.9019L8.87042 33.4657ZM10.1532 33.7678C10.6608 33.7678 11.1006 33.6202 11.441 33.3005L11.0131 32.8449C10.8103 33.0354 10.5343 33.1429 10.1532 33.1429V33.7678ZM11.4376 33.3036C11.8202 32.9548 11.9592 32.3546 11.9592 31.6285H11.3342C11.3342 32.3178 11.1934 32.6805 11.0165 32.8418L11.4376 33.3036ZM11.9592 31.6285V26.2839H11.3342V31.6285H11.9592ZM11.9592 26.2839C11.9592 26.2073 11.9819 26.1561 12.0281 26.1099L11.5862 25.668C11.4185 25.8357 11.3342 26.0478 11.3342 26.2839H11.9592ZM12.0362 26.1016C12.0844 26.0496 12.1332 26.0286 12.2021 26.0286V25.4036C11.9584 25.4036 11.7439 25.4978 11.5782 25.6763L12.0362 26.1016ZM12.2021 26.0286C12.2711 26.0286 12.3199 26.0496 12.3681 26.1016L12.8261 25.6763C12.6604 25.4978 12.4459 25.4036 12.2021 25.4036V26.0286ZM12.3845 26.1179C12.4364 26.1661 12.4575 26.215 12.4575 26.2839H13.0824C13.0824 26.0401 12.9882 25.8257 12.8098 25.6599L12.3845 26.1179ZM12.4575 26.2839V31.5545H13.0824V26.2839H12.4575ZM12.4575 31.5545C12.4575 32.5981 12.2206 33.2564 11.8286 33.6218L12.2548 34.0789C12.8338 33.5391 13.0824 32.6669 13.0824 31.5545H12.4575ZM11.8288 33.6216C11.4166 34.0054 10.8911 34.2044 10.2272 34.2044V34.8294C11.0281 34.8294 11.7123 34.584 12.2546 34.079L11.8288 33.6216ZM16.1251 34.2947L16.346 34.0737L16.1251 34.2947ZM16.1251 25.9507L16.3462 26.1718L16.3541 26.1633L16.1251 25.9507ZM22.309 27.185L22.0318 27.3291L22.309 27.185ZM22.309 29.8511L22.0318 29.707V29.707L22.309 29.8511ZM17.0879 31.2582V30.9458H16.7754V31.2582H17.0879ZM16.9151 34.2947L16.7023 34.0655L16.6941 34.0737L16.9151 34.2947ZM20.9883 29.7153L20.7757 29.4863L20.773 29.4889L20.9883 29.7153ZM20.9883 27.3208L20.7729 27.5472L20.7757 27.5497L20.9883 27.3208ZM17.0879 26.8394V26.5269H16.7754V26.8394H17.0879ZM17.0879 30.1967H16.7754V30.5092H17.0879V30.1967ZM16.5201 34.1427C16.4435 34.1427 16.3923 34.1199 16.346 34.0737L15.9041 34.5156C16.0719 34.6834 16.2839 34.7676 16.5201 34.7676V34.1427ZM16.346 34.0737C16.2998 34.0275 16.2771 33.9763 16.2771 33.8997H15.6521C15.6521 34.1358 15.7364 34.3479 15.9041 34.5156L16.346 34.0737ZM16.2771 33.8997V26.3456H15.6521V33.8997H16.2771ZM16.2771 26.3456C16.2771 26.2691 16.2998 26.2178 16.346 26.1716L15.9041 25.7297C15.7364 25.8974 15.6521 26.1095 15.6521 26.3456H16.2771ZM16.3541 26.1633C16.4023 26.1114 16.4512 26.0903 16.5201 26.0903V25.4654C16.2763 25.4654 16.0618 25.5595 15.8961 25.738L16.3541 26.1633ZM16.5201 26.0903H19.3343V25.4654H16.5201V26.0903ZM19.3343 26.0903C20.084 26.0903 20.6664 26.217 21.1005 26.4486L21.3946 25.8971C20.8412 25.602 20.1481 25.4654 19.3343 25.4654V26.0903ZM21.1005 26.4486C21.5502 26.6884 21.8525 26.9844 22.0318 27.3291L22.5863 27.0408C22.3377 26.5627 21.9323 26.1839 21.3946 25.8971L21.1005 26.4486ZM22.0318 27.3291C22.2219 27.6947 22.3175 28.0894 22.3175 28.518H22.9425C22.9425 27.9921 22.8241 27.4981 22.5863 27.0408L22.0318 27.3291ZM22.3175 28.518C22.3175 28.9467 22.2219 29.3414 22.0318 29.707L22.5863 29.9953C22.8241 29.538 22.9425 29.044 22.9425 28.518H22.3175ZM22.0318 29.707C21.8525 30.0517 21.5502 30.3477 21.1005 30.5875L21.3946 31.139C21.9323 30.8522 22.3377 30.4734 22.5863 29.9953L22.0318 29.707ZM21.1005 30.5875C20.6664 30.8191 20.084 30.9458 19.3343 30.9458V31.5707C20.1481 31.5707 20.8412 31.4341 21.3946 31.139L21.1005 30.5875ZM19.3343 30.9458H17.0879V31.5707H19.3343V30.9458ZM16.7754 31.2582V33.8997H17.4003V31.2582H16.7754ZM16.7754 33.8997C16.7754 33.9686 16.7543 34.0175 16.7024 34.0657L17.1277 34.5237C17.3062 34.3579 17.4003 34.1435 17.4003 33.8997H16.7754ZM16.6941 34.0737C16.6479 34.1199 16.5966 34.1427 16.5201 34.1427V34.7676C16.7562 34.7676 16.9683 34.6834 17.136 34.5156L16.6941 34.0737ZM19.2232 30.5092C20.0845 30.5092 20.7765 30.3481 21.2037 29.9418L20.773 29.4889C20.5253 29.7245 20.0407 29.8842 19.2232 29.8842V30.5092ZM21.201 29.9443C21.6111 29.5635 21.8192 29.081 21.8192 28.518H21.1943C21.1943 28.9096 21.0568 29.2254 20.7757 29.4864L21.201 29.9443ZM21.8192 28.518C21.8192 27.9551 21.6111 27.4726 21.201 27.0918L20.7757 27.5497C21.0568 27.8107 21.1943 28.1265 21.1943 28.518H21.8192ZM21.2037 27.0943C20.7765 26.688 20.0845 26.5269 19.2232 26.5269V27.1519C20.0407 27.1519 20.5253 27.3116 20.773 27.5472L21.2037 27.0943ZM19.2232 26.5269H17.0879V27.1519H19.2232V26.5269ZM16.7754 26.8394V30.1967H17.4003V26.8394H16.7754ZM17.0879 30.5092H19.2232V29.8842H17.0879V30.5092ZM26.677 33.9614L26.5212 34.2323L26.5238 34.2338L26.677 33.9614ZM25.1465 32.3938L24.8711 32.5416L24.8719 32.543L25.1465 32.3938ZM25.1711 27.7775L25.4437 27.9303L25.1711 27.7775ZM26.714 26.2099L26.5608 25.9375L26.5594 25.9383L26.714 26.2099ZM30.5775 25.8889L30.4802 26.1859L30.4817 26.1864L30.5775 25.8889ZM31.9723 26.5431L31.8058 26.8076L31.8188 26.8158L31.8325 26.8226L31.9723 26.5431ZM32.1451 26.7159L31.8771 26.8767V26.8767L32.1451 26.7159ZM32.071 27.3454L31.8498 27.1243L31.8407 27.1343L32.071 27.3454ZM31.4415 27.4318L31.2816 27.7003L31.2915 27.7062L31.3018 27.7113L31.4415 27.4318ZM30.2812 26.9134L30.3704 26.6139L30.2812 26.9134ZM27.3312 27.1356L27.4764 27.4123V27.4123L27.3312 27.1356ZM26.1463 28.2959L25.8741 28.1423L25.8733 28.1437L26.1463 28.2959ZM26.1216 31.826L25.8438 31.9694L25.8467 31.9747L26.1216 31.826ZM27.2818 33.0233L27.123 33.2925L27.1282 33.2955L27.2818 33.0233ZM31.244 32.9122L31.3932 33.1868L31.5565 33.0981V32.9122H31.244ZM31.244 30.6781H31.5565V30.3656H31.244V30.6781ZM32.0957 33.5294L31.8333 33.3596L31.8307 33.3638L32.0957 33.5294ZM31.7624 33.8256L31.6293 33.5428L31.6227 33.5461L31.7624 33.8256ZM28.9358 34.2044C28.1352 34.2044 27.4363 34.03 26.8302 33.6891L26.5238 34.2338C27.2344 34.6335 28.0413 34.8294 28.9358 34.8294V34.2044ZM26.8328 33.6905C26.2245 33.3408 25.7555 32.8604 25.421 32.2447L24.8719 32.543C25.2616 33.2604 25.8129 33.825 26.5212 34.2323L26.8328 33.6905ZM25.4218 32.2461C25.0869 31.6219 24.9158 30.9084 24.9158 30.098H24.2909C24.2909 30.9992 24.4819 31.8162 24.8711 32.5416L25.4218 32.2461ZM24.9158 30.098C24.9158 29.2723 25.0945 28.5527 25.4437 27.9303L24.8986 27.6246C24.4907 28.3517 24.2909 29.1791 24.2909 30.098H24.9158ZM25.4437 27.9303C25.7954 27.3033 26.2697 26.8226 26.8687 26.4814L26.5594 25.9383C25.8582 26.3377 25.3039 26.9021 24.8986 27.6246L25.4437 27.9303ZM26.8672 26.4822C27.4761 26.1397 28.1511 25.9669 28.8988 25.9669V25.3419C28.0501 25.3419 27.2686 25.5394 26.5608 25.9375L26.8672 26.4822ZM28.8988 25.9669C29.5163 25.9669 30.0417 26.0422 30.4802 26.1859L30.6748 25.592C30.1588 25.4229 29.565 25.3419 28.8988 25.3419V25.9669ZM30.4817 26.1864C30.9416 26.3345 31.3829 26.5413 31.8058 26.8076L32.1388 26.2787C31.673 25.9854 31.1843 25.7561 30.6733 25.5915L30.4817 26.1864ZM31.8325 26.8226C31.8326 26.8227 31.8335 26.8231 31.8353 26.8244C31.8371 26.8258 31.84 26.8281 31.8439 26.832C31.8517 26.8398 31.8633 26.8537 31.8771 26.8767L32.413 26.5552C32.3422 26.4371 32.2449 26.3301 32.112 26.2636L31.8325 26.8226ZM31.8771 26.8767C31.8965 26.909 31.9066 26.9437 31.9066 26.9875H32.5316C32.5316 26.8338 32.4924 26.6875 32.413 26.5552L31.8771 26.8767ZM31.9066 26.9875C31.9066 27.0447 31.8901 27.0844 31.85 27.1245L32.292 27.5664C32.4494 27.4089 32.5316 27.2101 32.5316 26.9875H31.9066ZM31.8407 27.1343C31.8194 27.1575 31.7855 27.1811 31.7007 27.1811V27.806C31.9286 27.806 32.1416 27.7308 32.3014 27.5566L31.8407 27.1343ZM31.7007 27.1811C31.6595 27.1811 31.6209 27.1722 31.5813 27.1523L31.3018 27.7113C31.4267 27.7738 31.5609 27.806 31.7007 27.806V27.1811ZM31.6014 27.1634C31.195 26.9213 30.7846 26.7373 30.3704 26.6139L30.192 27.2129C30.5514 27.3199 30.9145 27.4816 31.2816 27.7003L31.6014 27.1634ZM30.3704 26.6139C29.9515 26.4891 29.5014 26.4281 29.0222 26.4281V27.0531C29.4482 27.0531 29.8375 27.1073 30.192 27.2129L30.3704 26.6139ZM29.0222 26.4281C28.3516 26.4281 27.7373 26.5697 27.186 26.8589L27.4764 27.4123C27.9291 27.1748 28.4421 27.0531 29.0222 27.0531V26.4281ZM27.186 26.8589C26.6289 27.1511 26.1907 27.5815 25.8741 28.1423L26.4184 28.4495C26.6779 27.9898 27.0296 27.6467 27.4764 27.4123L27.186 26.8589ZM25.8733 28.1437C25.5625 28.7013 25.4141 29.3568 25.4141 30.098H26.0391C26.0391 29.4403 26.1704 28.8944 26.4192 28.448L25.8733 28.1437ZM25.4141 30.098C25.4141 30.7837 25.5551 31.4099 25.8439 31.9694L26.3993 31.6827C26.1614 31.2219 26.0391 30.6959 26.0391 30.098H25.4141ZM25.8467 31.9747C26.1459 32.5277 26.5732 32.968 27.123 33.2924L27.4407 32.7542C26.9865 32.4862 26.6404 32.1283 26.3964 31.6774L25.8467 31.9747ZM27.1282 33.2955C27.6931 33.6143 28.3486 33.7678 29.0839 33.7678V33.1429C28.4368 33.1429 27.891 33.0084 27.4354 32.7512L27.1282 33.2955ZM29.0839 33.7678C29.9085 33.7678 30.6799 33.5743 31.3932 33.1868L31.0949 32.6377C30.475 32.9743 29.8064 33.1429 29.0839 33.1429V33.7678ZM31.5565 32.9122V30.6781H30.9315V32.9122H31.5565ZM31.244 30.3656H29.2074V30.9906H31.244V30.3656ZM29.2074 30.3656C29.1502 30.3656 29.1104 30.3491 29.0704 30.309L28.6285 30.751C28.7859 30.9084 28.9848 30.9906 29.2074 30.9906V30.3656ZM29.0704 30.309C29.0304 30.269 29.0138 30.2292 29.0138 30.172H28.3888C28.3888 30.3946 28.471 30.5935 28.6285 30.751L29.0704 30.309ZM29.0138 30.172C29.0138 30.1149 29.0304 30.0751 29.0704 30.0351L28.6285 29.5931C28.471 29.7506 28.3888 29.9494 28.3888 30.172H29.0138ZM29.0704 30.0351C29.1104 29.995 29.1502 29.9785 29.2074 29.9785V29.3535C28.9848 29.3535 28.7859 29.4357 28.6285 29.5931L29.0704 30.0351ZM29.2074 29.9785H31.639V29.3535H29.2074V29.9785ZM31.639 29.9785C31.7216 29.9785 31.7818 30.0038 31.8377 30.0597L32.2796 29.6178C32.1052 29.4433 31.8855 29.3535 31.639 29.3535V29.9785ZM31.8377 30.0597C31.8936 30.1157 31.919 30.1758 31.919 30.2584H32.544C32.544 30.0119 32.4541 29.7923 32.2796 29.6178L31.8377 30.0597ZM31.919 30.2584V33.0604H32.544V30.2584H31.919ZM31.919 33.0604C31.919 33.1753 31.8899 33.2723 31.8333 33.3596L32.3581 33.6992C32.4826 33.5068 32.544 33.291 32.544 33.0604H31.919ZM31.8307 33.3638C31.7801 33.4448 31.7147 33.5027 31.6294 33.5429L31.8955 34.1084C32.0899 34.0169 32.2467 33.8774 32.3607 33.695L31.8307 33.3638ZM31.6227 33.5461C30.7413 33.9868 29.8467 34.2044 28.9358 34.2044V34.8294C29.9505 34.8294 30.9403 34.5861 31.9022 34.1051L31.6227 33.5461Z" fill="white"/>
<g filter="url(#filter1_d_1628_44599)">
<path d="M42.6844 16.6749H30.1849C28.2865 16.6749 26.7476 15.136 26.7476 13.2376V0.738098L42.6844 16.6749Z" fill="url(#paint2_linear_1628_44599)"/>
</g>
</g>
<defs>
<filter id="filter0_f_1628_44599" x="1.59119" y="17.9249" width="39.9984" height="25.3115" filterUnits="userSpaceOnUse" color-interpolation-filters="sRGB">
<feFlood flood-opacity="0" result="BackgroundImageFix"/>
<feBlend mode="normal" in="SourceGraphic" in2="BackgroundImageFix" result="shape"/>
<feGaussianBlur stdDeviation="3.04675" result="effect1_foregroundBlur_1628_44599"/>
</filter>
<filter id="filter1_d_1628_44599" x="23.154" y="-3.01175" width="23.7491" height="23.749" filterUnits="userSpaceOnUse" color-interpolation-filters="sRGB">
<feFlood flood-opacity="0" result="BackgroundImageFix"/>
<feColorMatrix in="SourceAlpha" type="matrix" values="0 0 0 0 0 0 0 0 0 0 0 0 0 0 0 0 0 0 127 0" result="hardAlpha"/>
<feOffset dx="0.312487" dy="0.156244"/>
<feGaussianBlur stdDeviation="1.95305"/>
<feColorMatrix type="matrix" values="0 0 0 0 0 0 0 0 0 0 0 0 0 0 0 0 0 0 0.33 0"/>
<feBlend mode="normal" in2="BackgroundImageFix" result="effect1_dropShadow_1628_44599"/>
<feBlend mode="normal" in="SourceGraphic" in2="effect1_dropShadow_1628_44599" result="shape"/>
</filter>
<linearGradient id="paint0_linear_1628_44599" x1="21.433" y1="0.738129" x2="21.433" y2="48.8612" gradientUnits="userSpaceOnUse">
<stop stop-color="#FF7979"/>
<stop offset="1" stop-color="#E85555"/>
</linearGradient>
<linearGradient id="paint1_linear_1628_44599" x1="21.4347" y1="0.738098" x2="21.4347" y2="48.8611" gradientUnits="userSpaceOnUse">
<stop stop-color="#ED81FF"/>
<stop offset="1" stop-color="#DC5DD7"/>
</linearGradient>
<linearGradient id="paint2_linear_1628_44599" x1="30.263" y1="-4.2617" x2="34.716" y2="16.6749" gradientUnits="userSpaceOnUse">
<stop stop-color="#F171BE"/>
<stop offset="1" stop-color="#D823D1"/>
</linearGradient>
</defs>
</svg>
