<svg width="16" height="16" viewBox="0 0 16 16" fill="none" xmlns="http://www.w3.org/2000/svg">
<path d="M7.99996 12.3333C10.3932 12.3333 12.3333 10.3932 12.3333 7.99999C12.3333 5.60676 10.3932 3.66666 7.99996 3.66666C5.60673 3.66666 3.66663 5.60676 3.66663 7.99999C3.66663 10.3932 5.60673 12.3333 7.99996 12.3333Z" stroke="#7E7E8F" stroke-width="1.5" stroke-linecap="round" stroke-linejoin="round"/>
<path d="M12.76 12.76L12.6734 12.6733M12.6734 3.32668L12.76 3.24001L12.6734 3.32668ZM3.24004 12.76L3.32671 12.6733L3.24004 12.76ZM8.00004 1.38668V1.33334V1.38668ZM8.00004 14.6667V14.6133V14.6667ZM1.38671 8.00001H1.33337H1.38671ZM14.6667 8.00001H14.6134H14.6667ZM3.32671 3.32668L3.24004 3.24001L3.32671 3.32668Z" stroke="#7E7E8F" stroke-width="2" stroke-linecap="round" stroke-linejoin="round"/>
</svg>
