<svg width="11" height="9" viewBox="0 0 11 9" fill="none" xmlns="http://www.w3.org/2000/svg">
<path d="M4.64557 4.79592L8.94705 1.80341L9.60184 2.52287L6.21858 6.52431L4.64557 4.79592ZM3.35194 5.0242L5.86986 7.79081C5.92199 7.84245 5.98448 7.88243 6.0532 7.90813C6.12193 7.93382 6.19532 7.94464 6.26854 7.93988C6.34176 7.93511 6.41313 7.91485 6.47794 7.88046C6.54275 7.84606 6.59952 7.79831 6.64451 7.74035L10.7814 2.84756C10.8638 2.757 10.9104 2.63955 10.9126 2.51713C10.9148 2.3947 10.8723 2.27566 10.7932 2.18223L9.39804 0.649291C9.31245 0.561726 9.19793 0.508293 9.07584 0.498964C8.95375 0.489635 8.83244 0.525047 8.73455 0.598592L3.47496 4.25769C3.41302 4.29703 3.36014 4.34907 3.3198 4.41037C3.27947 4.47166 3.2526 4.54082 3.24097 4.61326C3.22934 4.68571 3.23322 4.7598 3.25235 4.83064C3.27148 4.90148 3.30542 4.96745 3.35194 5.0242ZM0.690674 8.28628L3.80932 8.82607L4.6305 8.07871L2.94892 6.23107L0.690674 8.28628Z" fill="#7E7E8F"/>
</svg>
