<svg width="16" height="17" viewBox="0 0 16 17" fill="none" xmlns="http://www.w3.org/2000/svg">
<path d="M14.6668 7.88012V11.6001C14.6668 13.5668 13.0668 15.1668 11.1002 15.1668H4.90016C2.9335 15.1668 1.3335 13.5668 1.3335 11.6001V6.79346H14.4935C14.5935 7.09346 14.6468 7.40012 14.6602 7.72679C14.6668 7.77346 14.6668 7.83346 14.6668 7.88012Z" fill="#9A9AAF"/>
<path opacity="0.4" d="M14.4935 6.7935H1.3335V4.78016C1.3335 3.1535 2.6535 1.8335 4.28016 1.8335H5.8335C6.92016 1.8335 7.26016 2.18683 7.6935 2.76683L8.62683 4.00683C8.8335 4.28016 8.86016 4.32016 9.24683 4.32016H11.1068C12.6868 4.3135 14.0335 5.3535 14.4935 6.7935Z" fill="#9A9AAF"/>
</svg>
