<svg width="43" height="49" viewBox="0 0 43 49" fill="none" xmlns="http://www.w3.org/2000/svg">
<mask id="mask0_1628_44494" style="mask-type:alpha" maskUnits="userSpaceOnUse" x="0" y="0" width="43" height="49">
<path d="M39.2443 48.3691H3.62071C1.72231 48.3691 0.18335 46.8301 0.18335 44.9317V3.68341C0.18335 1.78501 1.72231 0.246048 3.62071 0.246048H26.7448L42.6816 16.1829V44.9317C42.6816 46.8301 41.1427 48.3691 39.2443 48.3691Z" fill="url(#paint0_linear_1628_44494)"/>
</mask>
<g mask="url(#mask0_1628_44494)">
<path d="M39.2432 48.369H3.61961C1.72121 48.369 0.182251 46.8301 0.182251 44.9317V3.68337C0.182251 1.78497 1.72121 0.246012 3.61961 0.246012H26.7437L42.6805 16.1829V44.9317C42.6805 46.8301 41.1416 48.369 39.2432 48.369Z" fill="url(#paint1_linear_1628_44494)"/>
<g filter="url(#filter0_f_1628_44494)">
<rect x="7.6814" y="23.5263" width="27.8114" height="13.1245" fill="#5552E9" fill-opacity="0.39" style="mix-blend-mode:darken"/>
</g>
<path d="M15.7996 34.0248C14.9521 34.0248 14.1991 33.8396 13.5408 33.4693C12.8825 33.0908 12.3723 32.5683 12.0103 31.9017C11.6482 31.227 11.4672 30.4617 11.4672 29.6059C11.4672 28.7336 11.6564 27.9601 12.0349 27.2854C12.4135 26.6106 12.9278 26.0881 13.5778 25.7178C14.2362 25.3475 14.9644 25.1623 15.7626 25.1623C16.4045 25.1623 16.964 25.2405 17.4413 25.3969C17.9268 25.5532 18.3917 25.7713 18.8361 26.051C18.9019 26.084 18.9595 26.1416 19.0089 26.2239C19.0583 26.3061 19.0829 26.3967 19.0829 26.4954C19.0829 26.6353 19.0336 26.7546 18.9348 26.8534C18.8443 26.9521 18.7209 27.0015 18.5645 27.0015C18.474 27.0015 18.3876 26.9809 18.3053 26.9398C17.9186 26.7094 17.5318 26.5365 17.145 26.4213C16.7583 26.3061 16.3386 26.2485 15.886 26.2485C15.2606 26.2485 14.697 26.3802 14.195 26.6435C13.6931 26.9068 13.2981 27.2936 13.0101 27.8038C12.7303 28.3057 12.5904 28.9065 12.5904 29.6059C12.5904 30.2477 12.7221 30.8238 12.9854 31.334C13.2569 31.8359 13.6437 32.235 14.1456 32.5312C14.6558 32.8193 15.2565 32.9633 15.9478 32.9633C16.7213 32.9633 17.4413 32.7822 18.1078 32.4202V30.186H16.0712C15.9313 30.186 15.812 30.1367 15.7132 30.0379C15.6145 29.9392 15.5651 29.8199 15.5651 29.68C15.5651 29.5401 15.6145 29.4208 15.7132 29.322C15.812 29.2233 15.9313 29.1739 16.0712 29.1739H18.5028C18.6674 29.1739 18.8073 29.2315 18.9225 29.3467C19.0377 29.4619 19.0953 29.6018 19.0953 29.7664V32.5683C19.0953 32.7411 19.05 32.8974 18.9595 33.0373C18.8772 33.169 18.7661 33.2677 18.6262 33.3336C17.7046 33.7944 16.7624 34.0248 15.7996 34.0248ZM22.7469 33.9631C22.5905 33.9631 22.4588 33.9096 22.3519 33.8026C22.2449 33.6956 22.1914 33.564 22.1914 33.4076V25.7918C22.1914 25.6355 22.2449 25.5038 22.3519 25.3969C22.4588 25.2817 22.5905 25.224 22.7469 25.224C22.9032 25.224 23.0349 25.2817 23.1418 25.3969C23.257 25.5038 23.3146 25.6355 23.3146 25.7918V33.4076C23.3146 33.564 23.257 33.6956 23.1418 33.8026C23.0349 33.9096 22.9032 33.9631 22.7469 33.9631ZM27.1306 33.9631C26.9743 33.9631 26.8426 33.9096 26.7357 33.8026C26.6287 33.6956 26.5752 33.564 26.5752 33.4076V25.8536C26.5752 25.6972 26.6287 25.5655 26.7357 25.4586C26.8426 25.3434 26.9743 25.2858 27.1306 25.2858H31.9322C32.0803 25.2858 32.2037 25.3393 32.3025 25.4462C32.4094 25.545 32.4629 25.6684 32.4629 25.8165C32.4629 25.9646 32.4094 26.0881 32.3025 26.1868C32.2037 26.2856 32.0803 26.3349 31.9322 26.3349H27.6984V29.0628H31.5001C31.6483 29.0628 31.7717 29.1163 31.8704 29.2233C31.9774 29.322 32.0309 29.4454 32.0309 29.5936C32.0309 29.7417 31.9774 29.8651 31.8704 29.9639C31.7717 30.0626 31.6483 30.112 31.5001 30.112H27.6984V33.4076C27.6984 33.564 27.6408 33.6956 27.5256 33.8026C27.4186 33.9096 27.287 33.9631 27.1306 33.9631Z" fill="white"/>
<path d="M13.5408 33.4693L13.385 33.7402L13.3876 33.7417L13.5408 33.4693ZM12.0103 31.9017L11.7349 32.0495L11.7357 32.0509L12.0103 31.9017ZM12.0349 27.2854L12.3075 27.4383L12.0349 27.2854ZM13.5778 25.7178L13.4246 25.4454L13.4232 25.4463L13.5778 25.7178ZM17.4413 25.3969L17.344 25.6938L17.3455 25.6943L17.4413 25.3969ZM18.8361 26.051L18.6696 26.3155L18.6826 26.3237L18.6963 26.3305L18.8361 26.051ZM19.0089 26.2239L18.7409 26.3846L18.7409 26.3846L19.0089 26.2239ZM18.9348 26.8534L18.7136 26.6322L18.7045 26.6422L18.9348 26.8534ZM18.3053 26.9398L18.1454 27.2082L18.1553 27.2141L18.1656 27.2193L18.3053 26.9398ZM17.145 26.4213L17.2343 26.1219L17.145 26.4213ZM14.195 26.6435L14.3402 26.9202V26.9202L14.195 26.6435ZM13.0101 27.8038L12.7379 27.6502L12.7371 27.6516L13.0101 27.8038ZM12.9854 31.334L12.7076 31.4773L12.7105 31.4826L12.9854 31.334ZM14.1456 32.5312L13.9868 32.8004L13.992 32.8034L14.1456 32.5312ZM18.1078 32.4202L18.257 32.6948L18.4203 32.606V32.4202H18.1078ZM18.1078 30.186H18.4203V29.8735H18.1078V30.186ZM18.9595 33.0373L18.6971 32.8675L18.6945 32.8717L18.9595 33.0373ZM18.6262 33.3336L18.4931 33.0507L18.4865 33.0541L18.6262 33.3336ZM15.7996 33.7123C14.999 33.7123 14.3001 33.5379 13.694 33.197L13.3876 33.7417C14.0982 34.1414 14.9051 34.3373 15.7996 34.3373V33.7123ZM13.6966 33.1984C13.0883 32.8487 12.6193 32.3683 12.2848 31.7526L11.7357 32.0509C12.1254 32.7683 12.6767 33.3329 13.3851 33.7402L13.6966 33.1984ZM12.2856 31.754C11.9507 31.1298 11.7796 30.4163 11.7796 29.6059H11.1547C11.1547 30.5071 11.3457 31.3242 11.7349 32.0495L12.2856 31.754ZM11.7796 29.6059C11.7796 28.7802 11.9583 28.0606 12.3075 27.4383L11.7624 27.1325C11.3545 27.8596 11.1547 28.687 11.1547 29.6059H11.7796ZM12.3075 27.4383C12.6592 26.8112 13.1335 26.3305 13.7325 25.9893L13.4232 25.4463C12.722 25.8456 12.1677 26.41 11.7624 27.1325L12.3075 27.4383ZM13.731 25.9901C14.3399 25.6477 15.0149 25.4748 15.7626 25.4748V24.8498C14.9139 24.8498 14.1324 25.0473 13.4246 25.4454L13.731 25.9901ZM15.7626 25.4748C16.3801 25.4748 16.9055 25.5502 17.344 25.6938L17.5386 25.0999C17.0226 24.9309 16.4288 24.8498 15.7626 24.8498V25.4748ZM17.3455 25.6943C17.8054 25.8424 18.2467 26.0492 18.6696 26.3155L19.0026 25.7866C18.5368 25.4933 18.0482 25.264 17.5371 25.0994L17.3455 25.6943ZM18.6963 26.3305C18.6964 26.3306 18.6973 26.331 18.6991 26.3324C18.7009 26.3337 18.7038 26.336 18.7077 26.3399C18.7156 26.3478 18.7271 26.3616 18.7409 26.3846L19.2768 26.0631C19.206 25.9451 19.1087 25.838 18.9758 25.7715L18.6963 26.3305ZM18.7409 26.3846C18.7603 26.4169 18.7704 26.4516 18.7704 26.4954H19.3954C19.3954 26.3417 19.3562 26.1954 19.2768 26.0631L18.7409 26.3846ZM18.7704 26.4954C18.7704 26.5526 18.7539 26.5924 18.7139 26.6324L19.1558 27.0743C19.3132 26.9169 19.3954 26.718 19.3954 26.4954H18.7704ZM18.7045 26.6422C18.6832 26.6654 18.6493 26.689 18.5645 26.689V27.314C18.7924 27.314 19.0054 27.2388 19.1652 27.0645L18.7045 26.6422ZM18.5645 26.689C18.5233 26.689 18.4847 26.6801 18.4451 26.6603L18.1656 27.2193C18.2905 27.2817 18.4247 27.314 18.5645 27.314V26.689ZM18.4652 26.6713C18.0588 26.4292 17.6484 26.2452 17.2343 26.1219L17.0558 26.7208C17.4152 26.8279 17.7783 26.9895 18.1454 27.2082L18.4652 26.6713ZM17.2343 26.1219C16.8153 25.9971 16.3652 25.9361 15.886 25.9361V26.561C16.312 26.561 16.7013 26.6152 17.0558 26.7208L17.2343 26.1219ZM15.886 25.9361C15.2154 25.9361 14.6011 26.0776 14.0498 26.3668L14.3402 26.9202C14.7929 26.6828 15.3059 26.561 15.886 26.561V25.9361ZM14.0498 26.3668C13.4927 26.6591 13.0545 27.0894 12.7379 27.6502L13.2822 27.9574C13.5417 27.4978 13.8934 27.1546 14.3402 26.9202L14.0498 26.3668ZM12.7371 27.6516C12.4263 28.2092 12.2779 28.8647 12.2779 29.6059H12.9029C12.9029 28.9482 13.0342 28.4023 13.283 27.9559L12.7371 27.6516ZM12.2779 29.6059C12.2779 30.2917 12.4189 30.9178 12.7077 31.4773L13.2631 31.1906C13.0252 30.7298 12.9029 30.2038 12.9029 29.6059H12.2779ZM12.7105 31.4826C13.0097 32.0356 13.4371 32.4759 13.9868 32.8004L14.3045 32.2621C13.8503 31.9941 13.5042 31.6362 13.2602 31.1853L12.7105 31.4826ZM13.992 32.8034C14.5569 33.1222 15.2124 33.2758 15.9478 33.2758V32.6508C15.3006 32.6508 14.7548 32.5163 14.2993 32.2591L13.992 32.8034ZM15.9478 33.2758C16.7723 33.2758 17.5437 33.0822 18.257 32.6948L17.9587 32.1456C17.3388 32.4823 16.6702 32.6508 15.9478 32.6508V33.2758ZM18.4203 32.4202V30.186H17.7953V32.4202H18.4203ZM18.1078 29.8735H16.0712V30.4985H18.1078V29.8735ZM16.0712 29.8735C16.014 29.8735 15.9742 29.857 15.9342 29.817L15.4923 30.2589C15.6497 30.4163 15.8486 30.4985 16.0712 30.4985V29.8735ZM15.9342 29.817C15.8942 29.7769 15.8776 29.7371 15.8776 29.68H15.2526C15.2526 29.9026 15.3348 30.1014 15.4923 30.2589L15.9342 29.817ZM15.8776 29.68C15.8776 29.6228 15.8942 29.583 15.9342 29.543L15.4923 29.101C15.3348 29.2585 15.2526 29.4574 15.2526 29.68H15.8776ZM15.9342 29.543C15.9742 29.5029 16.014 29.4864 16.0712 29.4864V28.8614C15.8486 28.8614 15.6497 28.9436 15.4923 29.101L15.9342 29.543ZM16.0712 29.4864H18.5028V28.8614H16.0712V29.4864ZM18.5028 29.4864C18.5855 29.4864 18.6456 29.5117 18.7015 29.5677L19.1434 29.1257C18.969 28.9513 18.7493 28.8614 18.5028 28.8614V29.4864ZM18.7015 29.5677C18.7574 29.6236 18.7828 29.6837 18.7828 29.7664H19.4078C19.4078 29.5199 19.3179 29.3002 19.1434 29.1257L18.7015 29.5677ZM18.7828 29.7664V32.5683H19.4078V29.7664H18.7828ZM18.7828 32.5683C18.7828 32.6832 18.7537 32.7802 18.6971 32.8676L19.2219 33.2071C19.3464 33.0147 19.4078 32.799 19.4078 32.5683H18.7828ZM18.6945 32.8717C18.6439 32.9527 18.5785 33.0107 18.4932 33.0508L18.7593 33.6163C18.9537 33.5248 19.1105 33.3853 19.2245 33.2029L18.6945 32.8717ZM18.4865 33.0541C17.6051 33.4947 16.7105 33.7123 15.7996 33.7123V34.3373C16.8143 34.3373 17.8041 34.094 18.766 33.6131L18.4865 33.0541ZM22.3519 33.8026L22.5728 33.5816L22.3519 33.8026ZM22.3519 25.3969L22.573 25.618L22.5809 25.6095L22.3519 25.3969ZM23.1418 25.3969L22.9129 25.6095L22.9207 25.618L22.9292 25.6258L23.1418 25.3969ZM23.1418 33.8026L22.9291 33.5735L22.9209 33.5816L23.1418 33.8026ZM22.7469 33.6506C22.6703 33.6506 22.619 33.6279 22.5728 33.5816L22.1309 34.0236C22.2986 34.1913 22.5107 34.2756 22.7469 34.2756V33.6506ZM22.5728 33.5816C22.5266 33.5354 22.5039 33.4842 22.5039 33.4076H21.8789C21.8789 33.6437 21.9632 33.8558 22.1309 34.0236L22.5728 33.5816ZM22.5039 33.4076V25.7918H21.8789V33.4076H22.5039ZM22.5039 25.7918C22.5039 25.7153 22.5266 25.664 22.5728 25.6178L22.1309 25.1759C21.9632 25.3436 21.8789 25.5557 21.8789 25.7918H22.5039ZM22.5809 25.6095C22.6291 25.5576 22.6779 25.5365 22.7469 25.5365V24.9116C22.5031 24.9116 22.2886 25.0057 22.1229 25.1842L22.5809 25.6095ZM22.7469 25.5365C22.8158 25.5365 22.8646 25.5576 22.9129 25.6095L23.3708 25.1842C23.2051 25.0057 22.9906 24.9116 22.7469 24.9116V25.5365ZM22.9292 25.6258C22.9811 25.6741 23.0022 25.7229 23.0022 25.7918H23.6271C23.6271 25.5481 23.5329 25.3336 23.3545 25.1679L22.9292 25.6258ZM23.0022 25.7918V33.4076H23.6271V25.7918H23.0022ZM23.0022 33.4076C23.0022 33.4765 22.9811 33.5254 22.9292 33.5736L23.3545 34.0316C23.5329 33.8659 23.6271 33.6514 23.6271 33.4076H23.0022ZM22.9209 33.5816C22.8747 33.6279 22.8234 33.6506 22.7469 33.6506V34.2756C22.983 34.2756 23.1951 34.1913 23.3628 34.0236L22.9209 33.5816ZM26.7357 33.8026L26.9566 33.5816L26.7357 33.8026ZM26.7357 25.4586L26.9568 25.6797L26.9646 25.6712L26.7357 25.4586ZM32.3025 25.4462L32.0728 25.6582L32.0813 25.6674L32.0905 25.6758L32.3025 25.4462ZM32.3025 26.1868L32.0903 25.957L32.0815 25.9659L32.3025 26.1868ZM27.6984 26.3349V26.0225H27.3859V26.3349H27.6984ZM27.6984 29.0628H27.3859V29.3753H27.6984V29.0628ZM31.8704 29.2233L31.6408 29.4352L31.6493 29.4444L31.6585 29.4529L31.8704 29.2233ZM31.8704 29.9639L31.6583 29.7341L31.6495 29.7429L31.8704 29.9639ZM27.6984 30.112V29.7995H27.3859V30.112H27.6984ZM27.5256 33.8026L27.3128 33.5735L27.3047 33.5816L27.5256 33.8026ZM27.1306 33.6506C27.0541 33.6506 27.0028 33.6279 26.9566 33.5816L26.5147 34.0236C26.6824 34.1913 26.8945 34.2756 27.1306 34.2756V33.6506ZM26.9566 33.5816C26.9104 33.5354 26.8877 33.4842 26.8877 33.4076H26.2627C26.2627 33.6437 26.347 33.8558 26.5147 34.0236L26.9566 33.5816ZM26.8877 33.4076V25.8536H26.2627V33.4076H26.8877ZM26.8877 25.8536C26.8877 25.777 26.9104 25.7257 26.9566 25.6795L26.5147 25.2376C26.347 25.4053 26.2627 25.6174 26.2627 25.8536H26.8877ZM26.9646 25.6712C27.0129 25.6193 27.0617 25.5983 27.1306 25.5983V24.9733C26.8868 24.9733 26.6724 25.0675 26.5067 25.2459L26.9646 25.6712ZM27.1306 25.5983H31.9322V24.9733H27.1306V25.5983ZM31.9322 25.5983C31.9948 25.5983 32.0344 25.6166 32.0728 25.6582L32.5321 25.2343C32.373 25.062 32.1658 24.9733 31.9322 24.9733V25.5983ZM32.0905 25.6758C32.1321 25.7143 32.1504 25.7539 32.1504 25.8165H32.7754C32.7754 25.5829 32.6867 25.3757 32.5144 25.2166L32.0905 25.6758ZM32.1504 25.8165C32.1504 25.8792 32.1321 25.9188 32.0905 25.9572L32.5144 26.4164C32.6867 26.2574 32.7754 26.0501 32.7754 25.8165H32.1504ZM32.0815 25.9659C32.0452 26.0022 32.003 26.0225 31.9322 26.0225V26.6474C32.1576 26.6474 32.3622 26.569 32.5234 26.4078L32.0815 25.9659ZM31.9322 26.0225H27.6984V26.6474H31.9322V26.0225ZM27.3859 26.3349V29.0628H28.0109V26.3349H27.3859ZM27.6984 29.3753H31.5001V28.7503H27.6984V29.3753ZM31.5001 29.3753C31.5628 29.3753 31.6024 29.3936 31.6408 29.4352L32.1001 29.0113C31.941 28.839 31.7338 28.7503 31.5001 28.7503V29.3753ZM31.6585 29.4529C31.7001 29.4913 31.7184 29.5309 31.7184 29.5936H32.3434C32.3434 29.36 32.2547 29.1527 32.0824 28.9936L31.6585 29.4529ZM31.7184 29.5936C31.7184 29.6562 31.7001 29.6958 31.6585 29.7342L32.0824 30.1935C32.2547 30.0344 32.3434 29.8272 32.3434 29.5936H31.7184ZM31.6495 29.7429C31.6132 29.7792 31.571 29.7995 31.5001 29.7995V30.4245C31.7256 30.4245 31.9302 30.346 32.0914 30.1848L31.6495 29.7429ZM31.5001 29.7995H27.6984V30.4245H31.5001V29.7995ZM27.3859 30.112V33.4076H28.0109V30.112H27.3859ZM27.3859 33.4076C27.3859 33.4765 27.3649 33.5254 27.313 33.5736L27.7383 34.0316C27.9167 33.8659 28.0109 33.6514 28.0109 33.4076H27.3859ZM27.3047 33.5816C27.2584 33.6279 27.2072 33.6506 27.1306 33.6506V34.2756C27.3668 34.2756 27.5788 34.1913 27.7466 34.0236L27.3047 33.5816Z" fill="white"/>
<g filter="url(#filter1_d_1628_44494)">
<path d="M42.6811 16.1829H30.1816C28.2832 16.1829 26.7443 14.6439 26.7443 12.7455V0.246012L42.6811 16.1829Z" fill="url(#paint2_linear_1628_44494)"/>
</g>
</g>
<defs>
<filter id="filter0_f_1628_44494" x="1.5879" y="17.4328" width="39.9984" height="25.3115" filterUnits="userSpaceOnUse" color-interpolation-filters="sRGB">
<feFlood flood-opacity="0" result="BackgroundImageFix"/>
<feBlend mode="normal" in="SourceGraphic" in2="BackgroundImageFix" result="shape"/>
<feGaussianBlur stdDeviation="3.04675" result="effect1_foregroundBlur_1628_44494"/>
</filter>
<filter id="filter1_d_1628_44494" x="23.1507" y="-3.50384" width="23.7491" height="23.749" filterUnits="userSpaceOnUse" color-interpolation-filters="sRGB">
<feFlood flood-opacity="0" result="BackgroundImageFix"/>
<feColorMatrix in="SourceAlpha" type="matrix" values="0 0 0 0 0 0 0 0 0 0 0 0 0 0 0 0 0 0 127 0" result="hardAlpha"/>
<feOffset dx="0.312487" dy="0.156244"/>
<feGaussianBlur stdDeviation="1.95305"/>
<feColorMatrix type="matrix" values="0 0 0 0 0 0 0 0 0 0 0 0 0 0 0 0 0 0 0.33 0"/>
<feBlend mode="normal" in2="BackgroundImageFix" result="effect1_dropShadow_1628_44494"/>
<feBlend mode="normal" in="SourceGraphic" in2="effect1_dropShadow_1628_44494" result="shape"/>
</filter>
<linearGradient id="paint0_linear_1628_44494" x1="21.4325" y1="0.246048" x2="21.4325" y2="48.3691" gradientUnits="userSpaceOnUse">
<stop stop-color="#FF7979"/>
<stop offset="1" stop-color="#E85555"/>
</linearGradient>
<linearGradient id="paint1_linear_1628_44494" x1="21.4314" y1="0.246012" x2="21.4314" y2="48.369" gradientUnits="userSpaceOnUse">
<stop stop-color="#A28AFF"/>
<stop offset="1" stop-color="#7655FB"/>
</linearGradient>
<linearGradient id="paint2_linear_1628_44494" x1="34.7127" y1="0.246012" x2="34.7127" y2="16.1829" gradientUnits="userSpaceOnUse">
<stop stop-color="#8A71F1"/>
<stop offset="1" stop-color="#5C39E9"/>
</linearGradient>
</defs>
</svg>
