<svg width="22" height="22" viewBox="0 0 22 22" fill="none" xmlns="http://www.w3.org/2000/svg">
<path d="M2.75916 10.285V14.4008C2.75916 18.5167 4.40916 20.1667 8.52499 20.1667H13.4658C17.5817 20.1667 19.2317 18.5167 19.2317 14.4008V10.285" stroke="#7E7E8F" stroke-width="1.5" stroke-linecap="round" stroke-linejoin="round"/>
<path d="M11 11C12.6775 11 13.915 9.63416 13.75 7.95666L13.145 1.83333H8.86416L8.24999 7.95666C8.08499 9.63416 9.32249 11 11 11Z" stroke="#7E7E8F" stroke-width="1.5" stroke-linecap="round" stroke-linejoin="round"/>
<path d="M16.7842 11C18.6358 11 19.9925 9.49666 19.8092 7.65416L19.5525 5.13333C19.2225 2.74999 18.3058 1.83333 15.9042 1.83333H13.1083L13.75 8.25916C13.9058 9.77166 15.2717 11 16.7842 11Z" stroke="#7E7E8F" stroke-width="1.5" stroke-linecap="round" stroke-linejoin="round"/>
<path d="M5.17001 11C6.68251 11 8.04835 9.77166 8.19501 8.25916L8.39668 6.23333L8.83668 1.83333H6.04085C3.63918 1.83333 2.72251 2.74999 2.39251 5.13333L2.14501 7.65416C1.96168 9.49666 3.31835 11 5.17001 11Z" stroke="#7E7E8F" stroke-width="1.5" stroke-linecap="round" stroke-linejoin="round"/>
<path d="M11 15.5833C9.46915 15.5833 8.70831 16.3442 8.70831 17.875V20.1667H13.2916V17.875C13.2916 16.3442 12.5308 15.5833 11 15.5833Z" stroke="#7E7E8F" stroke-width="1.5" stroke-linecap="round" stroke-linejoin="round"/>
</svg>
