<svg width="4" height="9" viewBox="0 0 4 9" fill="none" xmlns="http://www.w3.org/2000/svg">
<path d="M1.95699 2.99661H3.06735L1.84596 8.54842H0.735596L1.95699 2.99661ZM2.88969 0.775894C2.77989 0.775894 2.67255 0.808455 2.58125 0.869459C2.48995 0.930463 2.4188 1.01717 2.37678 1.11862C2.33475 1.22006 2.32376 1.33169 2.34518 1.43938C2.3666 1.54708 2.41948 1.646 2.49712 1.72365C2.57477 1.80129 2.67369 1.85417 2.78138 1.87559C2.88908 1.89701 3.00071 1.88601 3.10215 1.84399C3.2036 1.80197 3.29031 1.73081 3.35131 1.63952C3.41231 1.54822 3.44487 1.44088 3.44487 1.33107C3.44487 1.18383 3.38638 1.04262 3.28227 0.938503C3.17815 0.834386 3.03694 0.775894 2.88969 0.775894Z" fill="#7E7E8F"/>
</svg>
