<svg width="22" height="22" viewBox="0 0 22 22" fill="none" xmlns="http://www.w3.org/2000/svg">
<path d="M20.1666 11.9167V8.25C20.1666 3.66666 18.3333 1.83333 13.75 1.83333H8.24998C3.66665 1.83333 1.83331 3.66666 1.83331 8.25V13.75C1.83331 18.3333 3.66665 20.1667 8.24998 20.1667H11.9166" stroke="white" stroke-width="1.5" stroke-linecap="round" stroke-linejoin="round"/>
<path d="M6.71918 13.2825L8.90085 10.45C9.21252 10.0467 9.79002 9.97334 10.1934 10.285L11.8709 11.605C12.2742 11.9167 12.8517 11.8433 13.1633 11.4492L15.2809 8.7175" stroke="white" stroke-width="1.5" stroke-linecap="round" stroke-linejoin="round"/>
<path d="M17.8566 14.5017L18.1133 15.0242C18.2416 15.2808 18.5625 15.5192 18.8466 15.5742L19.195 15.6292C20.24 15.8033 20.4875 16.5733 19.7358 17.3342L19.415 17.655C19.2041 17.875 19.085 18.2967 19.1491 18.59L19.195 18.7825C19.4791 20.0475 18.81 20.5333 17.71 19.8733L17.4716 19.7358C17.1875 19.5708 16.7291 19.5708 16.445 19.7358L16.2066 19.8733C15.0975 20.5425 14.4283 20.0475 14.7216 18.7825L14.7675 18.59C14.8316 18.2967 14.7125 17.875 14.5016 17.655L14.1808 17.3342C13.4291 16.5733 13.6766 15.8033 14.7216 15.6292L15.07 15.5742C15.345 15.5283 15.675 15.2808 15.8033 15.0242L16.06 14.5017C16.555 13.5025 17.3616 13.5025 17.8566 14.5017Z" stroke="white" stroke-width="1.5" stroke-linecap="round" stroke-linejoin="round"/>
</svg>
