<svg width="22" height="22" viewBox="0 0 22 22" fill="none" xmlns="http://www.w3.org/2000/svg">
<path d="M4.09734 10.4685L2.50234 8.87354L0.916504 10.4685" stroke="#8B8B93" stroke-width="1.5" stroke-linecap="round" stroke-linejoin="round"/>
<path d="M17.9023 11.5317L19.4973 13.1267L21.0923 11.5317" stroke="#8B8B93" stroke-width="1.5" stroke-linecap="round" stroke-linejoin="round"/>
<path d="M19.4884 13.1267V11.0001C19.4884 6.30673 15.6842 2.51172 11.0001 2.51172C8.32339 2.51172 5.93089 3.75841 4.37256 5.69258" stroke="#8B8B93" stroke-width="1.5" stroke-linecap="round" stroke-linejoin="round"/>
<path d="M2.51172 8.87354V11.0002C2.51172 15.6935 6.31589 19.4886 11.0001 19.4886C13.6767 19.4886 16.0692 18.2419 17.6276 16.3077" stroke="#8B8B93" stroke-width="1.5" stroke-linecap="round" stroke-linejoin="round"/>
<path d="M8.25 7.79166H12.265C13.1542 7.79166 13.8692 8.59832 13.8692 9.39582C13.8692 10.285 13.1542 11 12.265 11H8.25V7.79166Z" stroke="#8B8B93" stroke-width="1.5" stroke-miterlimit="10" stroke-linecap="round" stroke-linejoin="round"/>
<path d="M8.25 11H12.8333C13.8417 11 14.6667 11.715 14.6667 12.6042C14.6667 13.4933 13.8417 14.2083 12.8333 14.2083H8.25V11Z" stroke="#8B8B93" stroke-width="1.5" stroke-miterlimit="10" stroke-linecap="round" stroke-linejoin="round"/>
<path d="M10.8167 14.2083V15.8125" stroke="#8B8B93" stroke-width="1.5" stroke-miterlimit="10" stroke-linecap="round" stroke-linejoin="round"/>
<path d="M10.8167 6.1875V7.79167" stroke="#8B8B93" stroke-width="1.5" stroke-miterlimit="10" stroke-linecap="round" stroke-linejoin="round"/>
</svg>
