<svg width="22" height="22" viewBox="0 0 22 22" fill="none" xmlns="http://www.w3.org/2000/svg">
<path d="M5.00504 16.9494V14.2727C5.00504 13.3836 5.70171 12.5861 6.69171 12.5861C7.58088 12.5861 8.37838 13.2827 8.37838 14.2727V16.8486C8.37838 18.6361 6.89338 20.1211 5.10588 20.1211C3.31838 20.1211 1.83338 18.6269 1.83338 16.8486V11.2019C1.73254 6.05023 5.80254 1.87939 10.9542 1.87939C16.1059 1.87939 20.1667 6.05023 20.1667 11.1011V16.7477C20.1667 18.5352 18.6817 20.0202 16.8942 20.0202C15.1067 20.0202 13.6217 18.5352 13.6217 16.7477V14.1719C13.6217 13.2827 14.3184 12.4852 15.3084 12.4852C16.1975 12.4852 16.995 13.1819 16.995 14.1719V16.9494" stroke="#8B8B93" stroke-width="1.5" stroke-linecap="round" stroke-linejoin="round"/>
</svg>
