<svg width="20" height="20" viewBox="0 0 20 20" fill="none" xmlns="http://www.w3.org/2000/svg">
<path d="M13.4501 2.4667L5.9251 4.9667C0.866764 6.65837 0.866764 9.4167 5.9251 11.1L8.15843 11.8417L8.9001 14.075C10.5834 19.1334 13.3501 19.1334 15.0334 14.075L17.5418 6.55837C18.6584 3.18337 16.8251 1.3417 13.4501 2.4667ZM13.7168 6.95004L10.5501 10.1334C10.4251 10.2584 10.2668 10.3167 10.1084 10.3167C9.9501 10.3167 9.79177 10.2584 9.66677 10.1334C9.4251 9.8917 9.4251 9.4917 9.66677 9.25004L12.8334 6.0667C13.0751 5.82504 13.4751 5.82504 13.7168 6.0667C13.9584 6.30837 13.9584 6.70837 13.7168 6.95004Z" fill="#9A9AAF"/>
</svg>
