<svg width="16" height="16" viewBox="0 0 16 16" fill="none" xmlns="http://www.w3.org/2000/svg">
<path d="M14.6668 10V6.00001C14.6668 2.66668 13.3335 1.33334 10.0002 1.33334H6.00016C2.66683 1.33334 1.3335 2.66668 1.3335 6.00001V10C1.3335 13.3333 2.66683 14.6667 6.00016 14.6667H10.0002C13.3335 14.6667 14.6668 13.3333 14.6668 10Z" stroke="#C6CBD9" stroke-width="1.5" stroke-linecap="round" stroke-linejoin="round"/>
<path d="M5.61308 11.4066C6.19114 11.4066 6.65975 10.938 6.65975 10.36C6.65975 9.78191 6.19114 9.31329 5.61308 9.31329C5.03502 9.31329 4.56641 9.78191 4.56641 10.36C4.56641 10.938 5.03502 11.4066 5.61308 11.4066Z" stroke="#C6CBD9" stroke-width="1.5" stroke-linecap="round" stroke-linejoin="round"/>
<path d="M10.4998 9.65998V5.56664C10.4998 4.6933 9.95315 4.57334 9.39982 4.72667L7.30652 5.29999C6.92652 5.40666 6.6665 5.70667 6.6665 6.14V6.87332V7.36664V10.3666" stroke="#C6CBD9" stroke-width="1.5" stroke-linecap="round" stroke-linejoin="round"/>
<path d="M9.45292 10.7067C10.031 10.7067 10.4996 10.238 10.4996 9.65998C10.4996 9.08193 10.031 8.61331 9.45292 8.61331C8.87486 8.61331 8.40625 9.08193 8.40625 9.65998C8.40625 10.238 8.87486 10.7067 9.45292 10.7067Z" stroke="#C6CBD9" stroke-width="1.5" stroke-linecap="round" stroke-linejoin="round"/>
<path d="M6.65967 7.35996L10.4997 6.31329" stroke="#C6CBD9" stroke-width="1.5" stroke-linecap="round" stroke-linejoin="round"/>
</svg>
