<svg width="16" height="16" viewBox="0 0 16 16" fill="none" xmlns="http://www.w3.org/2000/svg">
<path d="M11.6333 15.1667C10.88 15.1667 10.0867 14.9867 9.26666 14.64C8.46666 14.3 7.66 13.8334 6.87333 13.2667C6.09333 12.6934 5.33999 12.0534 4.62666 11.3534C3.92 10.64 3.28 9.88671 2.71333 9.11337C2.14 8.31337 1.67999 7.51337 1.35333 6.74004C1.00666 5.91337 0.833328 5.11337 0.833328 4.36004C0.833328 3.84004 0.926662 3.34671 1.10666 2.88671C1.29333 2.41337 1.59333 1.97337 1.99999 1.59337C2.51333 1.08671 3.1 0.833374 3.72666 0.833374C3.98666 0.833374 4.25333 0.893374 4.47999 1.00004C4.73999 1.12004 4.95999 1.30004 5.12 1.54004L6.66666 3.72004C6.80666 3.91337 6.91333 4.10004 6.98666 4.28671C7.07333 4.48671 7.12 4.68671 7.12 4.88004C7.12 5.13337 7.04666 5.38004 6.90666 5.61337C6.80666 5.79337 6.65333 5.98671 6.45999 6.18004L6.00666 6.65337C6.01333 6.67337 6.02 6.68671 6.02666 6.70004C6.10666 6.84004 6.26666 7.08004 6.57333 7.44004C6.89999 7.81337 7.20666 8.15337 7.51333 8.46671C7.90666 8.85337 8.23333 9.16004 8.54 9.41337C8.92 9.73337 9.16666 9.89337 9.31333 9.96671L9.3 10L9.78666 9.52004C9.99333 9.31337 10.1933 9.16004 10.3867 9.06004C10.7533 8.83337 11.22 8.79337 11.6867 8.98671C11.86 9.06004 12.0467 9.16004 12.2467 9.30004L14.46 10.8734C14.7067 11.04 14.8867 11.2534 14.9933 11.5067C15.0933 11.76 15.14 11.9934 15.14 12.2267C15.14 12.5467 15.0667 12.8667 14.9267 13.1667C14.7867 13.4667 14.6133 13.7267 14.3933 13.9667C14.0133 14.3867 13.6 14.6867 13.12 14.88C12.66 15.0667 12.16 15.1667 11.6333 15.1667ZM3.72666 1.83337C3.36 1.83337 3.01999 1.99337 2.69333 2.31337C2.38666 2.60004 2.17333 2.91337 2.03999 3.25337C1.89999 3.60004 1.83333 3.96671 1.83333 4.36004C1.83333 4.98004 1.98 5.65337 2.27333 6.34671C2.57333 7.05337 2.99333 7.78671 3.52666 8.52004C4.05999 9.25337 4.66666 9.96671 5.33333 10.64C6 11.3 6.72 11.9134 7.45999 12.4534C8.18 12.98 8.92 13.4067 9.65333 13.7134C10.7933 14.2 11.86 14.3134 12.74 13.9467C13.08 13.8067 13.38 13.5934 13.6533 13.2867C13.8067 13.12 13.9267 12.94 14.0267 12.7267C14.1067 12.56 14.1467 12.3867 14.1467 12.2134C14.1467 12.1067 14.1267 12 14.0733 11.88C14.0533 11.84 14.0133 11.7667 13.8867 11.68L11.6733 10.1067C11.54 10.0134 11.42 9.94671 11.3067 9.90004C11.16 9.84004 11.1 9.78004 10.8733 9.92004C10.74 9.98671 10.62 10.0867 10.4867 10.22L9.98 10.72C9.72 10.9734 9.32 11.0334 9.01333 10.92L8.83333 10.84C8.56 10.6934 8.24 10.4667 7.88666 10.1667C7.56666 9.89337 7.22 9.57337 6.79999 9.16004C6.47333 8.82671 6.14666 8.47337 5.80666 8.08004C5.49333 7.71337 5.26666 7.40004 5.12666 7.14004L5.04666 6.94004C5.00666 6.78671 4.99333 6.70004 4.99333 6.60671C4.99333 6.36671 5.08 6.15337 5.24666 5.98671L5.74666 5.46671C5.87999 5.33337 5.97999 5.20671 6.04666 5.09337C6.09999 5.00671 6.12 4.93337 6.12 4.86671C6.12 4.81337 6.1 4.73337 6.06666 4.65337C6.02 4.54671 5.94666 4.42671 5.85333 4.30004L4.30666 2.11337C4.24 2.02004 4.16 1.95337 4.06 1.90671C3.95333 1.86004 3.84 1.83337 3.72666 1.83337ZM9.3 10.0067L9.19333 10.46L9.37333 9.99337C9.34 9.98671 9.31333 9.99337 9.3 10.0067Z" fill="#64646F"/>
</svg>
