<svg width="16" height="16" viewBox="0 0 16 16" fill="none" xmlns="http://www.w3.org/2000/svg">
<path d="M8.00002 12.3333C10.3933 12.3333 12.3334 10.3932 12.3334 7.99996C12.3334 5.60673 10.3933 3.66663 8.00002 3.66663C5.60679 3.66663 3.66669 5.60673 3.66669 7.99996C3.66669 10.3932 5.60679 12.3333 8.00002 12.3333Z" stroke="#EC8C56" stroke-width="1.5" stroke-linecap="round" stroke-linejoin="round"/>
<path d="M12.76 12.76L12.6733 12.6734M12.6733 3.32671L12.76 3.24004L12.6733 3.32671ZM3.23998 12.76L3.32665 12.6734L3.23998 12.76ZM7.99998 1.38671V1.33337V1.38671ZM7.99998 14.6667V14.6134V14.6667ZM1.38665 8.00004H1.33331H1.38665ZM14.6666 8.00004H14.6133H14.6666ZM3.32665 3.32671L3.23998 3.24004L3.32665 3.32671Z" stroke="#EC8C56" stroke-width="2" stroke-linecap="round" stroke-linejoin="round"/>
</svg>
