<svg width="25" height="25" viewBox="0 0 25 25" fill="none" xmlns="http://www.w3.org/2000/svg">
<path d="M24.2035 15.4217C22.6266 21.7469 16.2202 25.5962 9.89424 24.0189C3.57095 22.442 -0.278434 16.0352 1.29916 9.71057C2.87536 3.38469 9.28175 -0.464989 15.6057 1.11191C21.9312 2.68881 25.7804 9.09629 24.2033 15.4218L24.2034 15.4217H24.2035Z" fill="#F3BA2F"/>
<path fill-rule="evenodd" clip-rule="evenodd" d="M12.7524 8.25203L9.69502 11.3094L9.69509 11.3092L7.91624 9.53032L12.7524 4.69421L17.59 9.53177L15.8111 11.3107L12.7524 8.25203ZM6.66007 10.7863L4.8811 12.5655L6.65995 14.3441L8.43892 12.5651L6.66007 10.7863ZM9.69502 13.8218L12.7523 16.8789L15.8111 13.8204L17.5909 15.5983L17.59 15.5993L12.7523 20.4368L7.91624 15.6006L7.91372 15.5981L9.69502 13.8218ZM18.8448 10.7873L17.0658 12.5663L18.8447 14.3451L20.6236 12.5661L18.8448 10.7873Z" fill="white"/>
<path d="M14.5566 12.5646H14.5574L12.7524 10.7595L11.4182 12.0932L11.265 12.2466L10.9489 12.5627L10.9464 12.5652L10.9489 12.5678L12.7524 14.3716L14.5575 12.5665L14.5584 12.5654L14.5567 12.5646" fill="white"/>
</svg>
