<svg width="20" height="20" viewBox="0 0 20 20" fill="none" xmlns="http://www.w3.org/2000/svg">
<path d="M17.5501 9.85008L17.4168 9.66674C17.1835 9.38341 16.9085 9.15841 16.5918 8.99174C16.1668 8.75008 15.6835 8.62508 15.1835 8.62508H4.80848C4.30848 8.62508 3.83348 8.75008 3.40014 8.99174C3.07514 9.16674 2.78348 9.40841 2.54181 9.70841C2.06681 10.3167 1.84181 11.0667 1.91681 11.8167L2.22514 15.7084C2.33348 16.8834 2.47514 18.3334 5.11681 18.3334H14.8835C17.5251 18.3334 17.6585 16.8834 17.7751 15.7001L18.0835 11.8251C18.1585 11.1251 17.9751 10.4251 17.5501 9.85008ZM11.9918 14.4501H8.00014C7.67514 14.4501 7.41681 14.1834 7.41681 13.8667C7.41681 13.5501 7.67514 13.2834 8.00014 13.2834H11.9918C12.3168 13.2834 12.5751 13.5501 12.5751 13.8667C12.5751 14.1917 12.3168 14.4501 11.9918 14.4501Z" fill="#2775FF"/>
<path d="M17.1185 7.01932C17.1639 7.40133 16.7468 7.66018 16.3779 7.55127C15.9986 7.43932 15.6021 7.38334 15.1916 7.38334H4.80826C4.39258 7.38334 3.98265 7.4436 3.5953 7.55908C3.23097 7.6677 2.81659 7.41841 2.81659 7.03822V5.55C2.81659 2.575 3.72492 1.66667 6.69992 1.66667H7.68326C8.87492 1.66667 9.24992 2.05001 9.73326 2.67501L10.7333 4.00834C10.9416 4.29167 10.9499 4.30834 11.3166 4.30834H13.2999C15.8457 4.30834 16.8755 4.97479 17.1185 7.01932Z" fill="#2775FF"/>
</svg>
