<svg width="26" height="26" viewBox="0 0 26 26" fill="none" xmlns="http://www.w3.org/2000/svg">
<path opacity="0.8" d="M12.8294 0C5.78007 0 0.0634766 5.71659 0.0634766 12.766C0.0634766 19.8153 5.78007 25.5319 12.8294 25.5319C19.8788 25.5319 25.5954 19.8153 25.5954 12.766C25.5954 5.71659 19.8788 0 12.8294 0ZM18.6582 9.95354C18.6639 10.0792 18.6666 10.2054 18.6666 10.3322C18.6666 14.2041 15.7194 18.669 10.3297 18.6692H10.3299H10.3297C8.67489 18.6692 7.13505 18.1841 5.83831 17.3529C6.06758 17.38 6.30095 17.3935 6.53723 17.3935C7.91013 17.3935 9.17356 16.9252 10.1765 16.1392C8.89384 16.1154 7.81234 15.2683 7.43912 14.104C7.61775 14.1383 7.80144 14.157 7.9898 14.157C8.25725 14.157 8.51633 14.1209 8.76254 14.0537C7.42178 13.7853 6.41178 12.6004 6.41178 11.1815C6.41178 11.1683 6.41178 11.1564 6.41217 11.1441C6.80702 11.3636 7.25855 11.4957 7.7393 11.5105C6.95253 10.9855 6.43535 10.0881 6.43535 9.07151C6.43535 8.53466 6.58047 8.03171 6.83215 7.59868C8.27712 9.37169 10.4366 10.5377 12.8719 10.6602C12.8216 10.4456 12.7957 10.222 12.7957 9.9921C12.7957 8.37454 14.1081 7.06222 15.7262 7.06222C16.5691 7.06222 17.3303 7.4185 17.865 7.98807C18.5326 7.85639 19.1594 7.61251 19.7257 7.27688C19.5066 7.9608 19.0422 8.53466 18.4371 8.89756C19.0299 8.82666 19.5948 8.66946 20.1198 8.4361C19.7276 9.02379 19.2303 9.53999 18.6582 9.95354Z" fill="#9A9AAF"/>
</svg>
