<svg width="16" height="17" viewBox="0 0 16 17" fill="none" xmlns="http://www.w3.org/2000/svg">
<path d="M14.6667 5.74526V2.71859C14.6667 1.77859 14.24 1.39859 13.18 1.39859H10.4867C9.42667 1.39859 9 1.77859 9 2.71859V5.73859C9 6.68526 9.42667 7.05859 10.4867 7.05859H13.18C14.24 7.06526 14.6667 6.68526 14.6667 5.74526Z" stroke="#9A9AAF" stroke-width="1.5" stroke-linecap="round" stroke-linejoin="round"/>
<path d="M14.6667 13.2452V10.5519C14.6667 9.49191 14.24 9.06525 13.18 9.06525H10.4867C9.42667 9.06525 9 9.49191 9 10.5519V13.2452C9 14.3052 9.42667 14.7319 10.4867 14.7319H13.18C14.24 14.7319 14.6667 14.3052 14.6667 13.2452Z" stroke="#9A9AAF" stroke-width="1.5" stroke-linecap="round" stroke-linejoin="round"/>
<path d="M6.99998 5.74526V2.71859C6.99998 1.77859 6.57331 1.39859 5.51331 1.39859H2.81998C1.75998 1.39859 1.33331 1.77859 1.33331 2.71859V5.73859C1.33331 6.68526 1.75998 7.05859 2.81998 7.05859H5.51331C6.57331 7.06526 6.99998 6.68526 6.99998 5.74526Z" stroke="#9A9AAF" stroke-width="1.5" stroke-linecap="round" stroke-linejoin="round"/>
<path d="M6.99998 13.2452V10.5519C6.99998 9.49191 6.57331 9.06525 5.51331 9.06525H2.81998C1.75998 9.06525 1.33331 9.49191 1.33331 10.5519V13.2452C1.33331 14.3052 1.75998 14.7319 2.81998 14.7319H5.51331C6.57331 14.7319 6.99998 14.3052 6.99998 13.2452Z" stroke="#9A9AAF" stroke-width="1.5" stroke-linecap="round" stroke-linejoin="round"/>
</svg>
