<svg width="32" height="32" viewBox="0 0 32 32" fill="none" xmlns="http://www.w3.org/2000/svg">
<path d="M0 16C0 7.16344 7.16344 0 16 0C24.8366 0 32 7.16344 32 16C32 24.8366 24.8366 32 16 32C7.16344 32 0 24.8366 0 16Z" fill="#DC4E41"/>
<path d="M13.0909 15.5428H17.8982C17.9418 15.7961 17.9782 16.0495 17.9782 16.3824C17.9782 19.2777 16.0291 21.3333 13.0909 21.3333C10.2764 21.3333 8 19.0678 8 16.2666C8 13.4655 10.2764 11.2 13.0909 11.2C14.4655 11.2 15.6145 11.6994 16.5018 12.5245L15.12 13.8491C14.7418 13.4872 14.08 13.0674 13.0909 13.0674C11.3527 13.0674 9.93455 14.5005 9.93455 16.2666C9.93455 18.0327 11.3527 19.4659 13.0909 19.4659C15.1055 19.4659 15.8618 18.0255 15.9782 17.28H13.0909V15.5428ZM24 15.5428V16.9904H22.5455V18.438H21.0909V16.9904H19.6364V15.5428H21.0909V14.0952H22.5455V15.5428H24Z" fill="white"/>
</svg>
