<svg width="18" height="20" viewBox="0 0 18 20" fill="none" xmlns="http://www.w3.org/2000/svg">
<path d="M17.9741 19.9387L9.12306 11.1302L0.271973 19.9387V3.04113C0.271973 2.40092 0.526297 1.78692 0.978997 1.33422C1.4317 0.881522 2.04569 0.627197 2.68591 0.627197L15.5602 0.627197C16.2004 0.627197 16.8144 0.881522 17.2671 1.33422C17.7198 1.78692 17.9741 2.40092 17.9741 3.04113V19.9387ZM9.12306 8.86032L16.3649 16.0643V3.04113C16.3649 2.82773 16.2801 2.62306 16.1292 2.47216C15.9783 2.32126 15.7736 2.23649 15.5602 2.23649H2.68591C2.4725 2.23649 2.26784 2.32126 2.11694 2.47216C1.96604 2.62306 1.88126 2.82773 1.88126 3.04113V16.0643L9.12306 8.86032Z" fill="#7E7E8F"/>
</svg>
