<svg width="16" height="16" viewBox="0 0 16 16" fill="none" xmlns="http://www.w3.org/2000/svg">
<path d="M11.3333 15.1667H4.66666C1.72666 15.1667 0.833328 14.2733 0.833328 11.3333V4.66668C0.833328 1.72668 1.72666 0.833344 4.66666 0.833344H5.66666C6.83333 0.833344 7.2 1.21334 7.66666 1.83334L8.66666 3.16668C8.88666 3.46001 8.92 3.50001 9.33333 3.50001H11.3333C14.2733 3.50001 15.1667 4.39334 15.1667 7.33334V11.3333C15.1667 14.2733 14.2733 15.1667 11.3333 15.1667ZM4.66666 1.83334C2.27999 1.83334 1.83333 2.28668 1.83333 4.66668V11.3333C1.83333 13.7133 2.27999 14.1667 4.66666 14.1667H11.3333C13.72 14.1667 14.1667 13.7133 14.1667 11.3333V7.33334C14.1667 4.95334 13.72 4.50001 11.3333 4.50001H9.33333C8.48 4.50001 8.2 4.20668 7.86666 3.76668L6.86666 2.43334C6.52 1.97334 6.41333 1.83334 5.66666 1.83334H4.66666Z" fill="white"/>
<path d="M13.3333 4.75334C13.06 4.75334 12.8333 4.52668 12.8333 4.25334V3.33334C12.8333 2.28001 12.3867 1.83334 11.3333 1.83334H5.33333C5.05999 1.83334 4.83333 1.60668 4.83333 1.33334C4.83333 1.06001 5.05999 0.833344 5.33333 0.833344H11.3333C12.9467 0.833344 13.8333 1.72001 13.8333 3.33334V4.25334C13.8333 4.52668 13.6067 4.75334 13.3333 4.75334Z" fill="white"/>
</svg>
