<svg width="33" height="14" viewBox="0 0 33 14" fill="none" xmlns="http://www.w3.org/2000/svg">
<path fill-rule="evenodd" clip-rule="evenodd" d="M17.8658 1.85629L15.565 2.35008V0.484646L17.8658 0V1.85629ZM8.51565 1.06072L6.27897 1.53622L6.2698 8.86079C6.2698 10.2141 7.28731 11.2109 8.64398 11.2109C9.39565 11.2109 9.94566 11.0737 10.2482 10.9091V9.05282C9.95482 9.1717 8.50648 9.59233 8.50648 8.23898V4.99276H10.2482V3.04503H8.50648L8.51565 1.06072ZM33 7.07766C33 4.73673 31.8633 2.88958 29.6908 2.88958C27.5091 2.88958 26.1891 4.73673 26.1891 7.05938C26.1891 9.8118 27.7475 11.2017 29.9841 11.2017C31.075 11.2017 31.9 10.9548 32.5233 10.6074V8.7785C31.9 9.08941 31.185 9.28144 30.2775 9.28144C29.3883 9.28144 28.6 8.97053 28.4991 7.8915H32.9816C32.9816 7.84115 32.9849 7.72682 32.9887 7.59506L32.9887 7.5947C32.9939 7.41546 33 7.20408 33 7.07766ZM28.4715 6.20896C28.4715 5.17566 29.104 4.74588 29.6815 4.74588C30.2406 4.74588 30.8365 5.17566 30.8365 6.20896H28.4715ZM3.09835 4.87391C2.61251 4.87391 2.31918 5.01108 2.31918 5.36771C2.31918 5.75708 2.82401 5.92837 3.45031 6.14087C4.47133 6.48729 5.81518 6.94324 5.82086 8.63222C5.82086 10.269 4.51002 11.2109 2.60335 11.2109C1.81501 11.2109 0.953338 11.0555 0.100834 10.6897V8.51334C0.870837 8.93398 1.84251 9.24488 2.60335 9.24488C3.11668 9.24488 3.48335 9.10772 3.48335 8.68708C3.48335 8.25577 2.9361 8.05863 2.27542 7.82062C1.26925 7.45815 0 7.00091 0 5.47744C0 3.8589 1.23751 2.8896 3.09835 2.8896C3.85918 2.8896 4.61086 3.00848 5.37169 3.31024V5.45915C4.67502 5.08423 3.79502 4.87391 3.09835 4.87391ZM13.0992 3.72172L12.9525 3.04504H10.9725V11.0463H13.2642V5.62373C13.805 4.91962 14.7217 5.04764 15.0059 5.14823V3.04504C14.7125 2.93531 13.64 2.73414 13.0992 3.72172ZM15.5648 3.04505H17.8657V11.0463H15.5648V3.04505ZM20.8539 3.60284C21.1748 3.31022 21.7523 2.88958 22.6506 2.88958C24.2548 2.88958 25.7673 4.33438 25.7765 6.98623C25.7765 9.88497 24.2823 11.2017 22.6414 11.2017C21.8348 11.2017 21.3489 10.8634 21.0189 10.6257L21.0098 13.2135L18.7181 13.6981V3.03589H20.7348L20.8539 3.60284ZM21.0191 8.7602C21.2391 8.99795 21.5599 9.18998 22.1007 9.18998C22.9441 9.18998 23.5124 8.27555 23.5124 7.05022C23.5124 5.85232 22.9349 4.91961 22.1007 4.91961C21.5782 4.91961 21.2482 5.10249 21.0099 5.36768L21.0191 8.7602Z" fill="#6461FC"/>
</svg>
