<svg width="16" height="16" viewBox="0 0 16 16" fill="none" xmlns="http://www.w3.org/2000/svg">
<path d="M6.66 15.1867C6.26 15.1867 5.88 14.9867 5.62 14.6333L4.82001 13.5667C4.82001 13.5733 4.78667 13.5533 4.77334 13.5533H4.52667C2.24667 13.5533 0.833336 12.9333 0.833336 9.86001V7.19334C0.833336 4.38667 2.54668 3.65334 3.98668 3.52667C4.14668 3.50667 4.33334 3.5 4.52667 3.5H8.79334C11.2067 3.5 12.4867 4.78001 12.4867 7.19334V9.86001C12.4867 10.0533 12.48 10.24 12.4533 10.42C12.3333 11.84 11.6 13.5533 8.79334 13.5533H8.52668L7.69999 14.6333C7.43999 14.9867 7.06 15.1867 6.66 15.1867ZM4.52667 4.5C4.37334 4.5 4.22667 4.50667 4.08667 4.52C2.54001 4.65333 1.83334 5.50001 1.83334 7.19334V9.86001C1.83334 12.1467 2.54001 12.5533 4.52667 12.5533H4.79334C5.09334 12.5533 5.43333 12.72 5.62 12.96L6.42001 14.0333C6.56667 14.2333 6.75334 14.2333 6.90001 14.0333L7.69999 12.9667C7.89333 12.7067 8.20001 12.5533 8.52668 12.5533H8.79334C10.4867 12.5533 11.3333 11.84 11.46 10.32C11.48 10.16 11.4867 10.0133 11.4867 9.86001V7.19334C11.4867 5.33334 10.6533 4.5 8.79334 4.5H4.52667Z" fill="white"/>
<path d="M6.66016 9.46001C6.28683 9.46001 5.99349 9.16001 5.99349 8.79335C5.99349 8.42668 6.29349 8.12668 6.66016 8.12668C7.02683 8.12668 7.32683 8.42668 7.32683 8.79335C7.32683 9.16001 7.03349 9.46001 6.66016 9.46001Z" fill="white"/>
<path d="M8.79329 9.46001C8.41996 9.46001 8.12663 9.16001 8.12663 8.79335C8.12663 8.42668 8.42662 8.12668 8.79329 8.12668C9.15996 8.12668 9.45996 8.42668 9.45996 8.79335C9.45996 9.16001 9.15996 9.46001 8.79329 9.46001Z" fill="white"/>
<path d="M4.53321 9.46001C4.15987 9.46001 3.86654 9.16001 3.86654 8.79335C3.86654 8.42668 4.16654 8.12668 4.53321 8.12668C4.89987 8.12668 5.19987 8.42668 5.19987 8.79335C5.19987 9.16001 4.89987 9.46001 4.53321 9.46001Z" fill="white"/>
<path d="M11.9601 10.86C11.8268 10.86 11.6934 10.8067 11.6001 10.7067C11.4934 10.6 11.4468 10.4467 11.4668 10.3C11.4868 10.16 11.4934 10.0133 11.4934 9.86002V7.19335C11.4934 5.33335 10.6601 4.50001 8.8001 4.50001H4.53342C4.38008 4.50001 4.23343 4.50668 4.09343 4.52001C3.94677 4.54001 3.79342 4.48667 3.68676 4.38667C3.58009 4.28 3.52008 4.13335 3.53342 3.98668C3.65342 2.54668 4.39342 0.833344 7.20008 0.833344H11.4668C13.8801 0.833344 15.1601 2.11335 15.1601 4.52668V7.19335C15.1601 10 13.4468 10.7333 12.0068 10.86C11.9868 10.86 11.9734 10.86 11.9601 10.86ZM4.61343 3.50001H8.79343C11.2068 3.50001 12.4868 4.78002 12.4868 7.19335V9.77335C13.6201 9.49335 14.1534 8.66002 14.1534 7.19335V4.52668C14.1534 2.66668 13.3201 1.83334 11.4601 1.83334H7.19343C5.72676 1.83334 4.9001 2.36668 4.61343 3.50001Z" fill="white"/>
</svg>
