<svg width="32" height="33" viewBox="0 0 32 33" fill="none" xmlns="http://www.w3.org/2000/svg">
<g clip-path="url(#clip0_1484_33218)">
<path d="M16 32.5C24.8366 32.5 32 25.3366 32 16.5C32 7.66344 24.8366 0.5 16 0.5C7.16344 0.5 0 7.66344 0 16.5C0 25.3366 7.16344 32.5 16 32.5Z" fill="#FFDA44"/>
<path d="M12.5223 14.4131H31.865C30.8423 6.56262 24.1297 0.5 16.0005 0.5C14.8058 0.5 13.6422 0.632062 12.5222 0.880312V14.4131H12.5223Z" fill="#0052B4"/>
<path d="M8.34812 14.413V2.44543C3.95474 4.84256 0.80968 9.2395 0.135742 14.4131H8.34812V14.413Z" fill="#0052B4"/>
<path d="M8.34805 18.5869H0.135742C0.80968 23.7605 3.95474 28.1574 8.34812 30.5545L8.34805 18.5869Z" fill="#0052B4"/>
<path d="M12.5222 18.587V32.1197C13.6422 32.3679 14.8058 32.5 16.0005 32.5C24.1297 32.5 30.8423 26.4374 31.865 18.5869H12.5222V18.587Z" fill="#0052B4"/>
</g>
<defs>
<clipPath id="clip0_1484_33218">
<rect width="32" height="32" fill="white" transform="translate(0 0.5)"/>
</clipPath>
</defs>
</svg>
