<svg width="33" height="30" viewBox="0 0 33 30" fill="none" xmlns="http://www.w3.org/2000/svg">
<g clip-path="url(#clip0_5897_1019)">
<path d="M27.9815 17.1633C26.8658 17.1691 25.8961 17.4378 25.0841 17.835C24.7862 17.245 24.4883 16.7193 24.4357 16.3338C24.3773 15.884 24.3072 15.6094 24.3773 15.072C24.4474 14.5346 24.7628 13.7693 24.757 13.7109C24.7511 13.6525 24.6869 13.3779 24.0443 13.3721C23.4017 13.3663 22.8468 13.4948 22.7825 13.6642C22.7183 13.8336 22.5956 14.2191 22.5138 14.6163C22.4028 15.2005 21.2287 17.2859 20.5569 18.3783C20.3408 17.9519 20.1538 17.578 20.1129 17.2801C20.0545 16.8303 19.9844 16.5557 20.0545 16.0183C20.1246 15.4809 20.4401 14.7157 20.4342 14.6572C20.4284 14.5988 20.3641 14.3243 19.7216 14.3184C19.079 14.3126 18.524 14.4411 18.4598 14.6105C18.3955 14.7799 18.3254 15.1771 18.1911 15.5627C18.0567 15.9482 16.497 19.4298 16.0881 20.3294C15.8778 20.7909 15.6967 21.1589 15.5682 21.4101C15.5682 21.4101 15.5624 21.4276 15.5449 21.4568C15.4339 21.6729 15.3696 21.7898 15.3696 21.7898C15.3696 21.7898 15.3696 21.7898 15.3696 21.7956C15.282 21.9533 15.1885 22.0994 15.1418 22.0994C15.1067 22.0994 15.0425 21.6788 15.1535 21.1063C15.3871 19.8971 15.9421 18.0161 15.9362 17.9519C15.9362 17.9168 16.0414 17.5897 15.5741 17.4203C15.1184 17.2509 14.9549 17.5313 14.914 17.5313C14.8731 17.5313 14.8439 17.6306 14.8439 17.6306C14.8439 17.6306 15.3521 15.5159 13.8742 15.5159C12.9512 15.5159 11.6778 16.5265 11.0469 17.4378C10.6496 17.654 9.80262 18.1154 8.89718 18.612C8.55253 18.8047 8.19619 18.9975 7.86322 19.1786C7.83986 19.1552 7.81649 19.126 7.79313 19.1027C6.00561 17.1925 2.6993 15.8431 2.8395 13.2786C2.89207 12.344 3.21336 9.89054 9.18925 6.91135C14.1078 4.48711 18.0217 5.15888 18.6993 6.64848C19.669 8.7748 16.6022 12.7237 11.52 13.2962C9.58064 13.5123 8.56421 12.7646 8.30718 12.4842C8.03847 12.1921 7.99758 12.1746 7.89827 12.233C7.73471 12.3206 7.83986 12.5835 7.89827 12.7354C8.05015 13.1326 8.6752 13.8336 9.73252 14.1782C10.6672 14.482 12.9395 14.6514 15.6909 13.5882C18.7694 12.3966 21.1761 9.0844 20.4693 6.30967C19.7624 3.49404 15.0892 2.56524 10.6672 4.13661C8.03847 5.07126 5.1878 6.54333 3.13742 8.45936C0.701492 10.7376 0.31595 12.7178 0.473671 13.5473C1.0403 16.4915 5.10017 18.4075 6.72412 19.827C6.64234 19.8737 6.5664 19.9146 6.50215 19.9497C5.69017 20.3527 2.59415 21.9709 1.82307 23.6824C0.946837 25.6218 1.96327 27.0121 2.63504 27.199C4.72047 27.7774 6.86432 26.7376 8.01511 25.0201C9.16589 23.3027 9.02569 21.0713 8.49411 20.049C8.48827 20.0373 8.48243 20.0256 8.47075 20.0139C8.68104 19.8913 8.89718 19.7627 9.10747 19.6401C9.52222 19.3947 9.93113 19.1669 10.2816 18.98C10.083 19.5232 9.93697 20.1717 9.86687 21.1063C9.77925 22.2045 10.2291 23.6299 10.819 24.1906C11.0819 24.436 11.3915 24.4418 11.5901 24.4418C12.2794 24.4418 12.589 23.8694 12.9337 23.1917C13.3543 22.3622 13.734 21.3984 13.734 21.3984C13.734 21.3984 13.2608 24.0037 14.546 24.0037C15.0133 24.0037 15.4864 23.3962 15.6967 23.0866C15.6967 23.0924 15.6967 23.0924 15.6967 23.0924C15.6967 23.0924 15.7084 23.0749 15.7318 23.034C15.7785 22.9581 15.8077 22.9113 15.8077 22.9113C15.8077 22.9113 15.8077 22.9055 15.8077 22.8997C15.9947 22.5725 16.4152 21.8307 17.0403 20.5981C17.8464 19.0092 18.6234 17.0231 18.6234 17.0231C18.6234 17.0231 18.6934 17.5079 18.933 18.314C19.0731 18.7872 19.3652 19.3071 19.5989 19.8095C19.412 20.0724 19.2951 20.2184 19.2951 20.2184C19.2951 20.2184 19.2951 20.2184 19.301 20.2242C19.1491 20.4228 18.9855 20.639 18.8044 20.8493C18.1677 21.6087 17.4083 22.4791 17.3032 22.7303C17.1805 23.0282 17.2097 23.2443 17.4434 23.4196C17.6128 23.5481 17.9165 23.5656 18.2261 23.5481C18.7986 23.5072 19.2017 23.367 19.4003 23.2794C19.7099 23.1684 20.0721 22.999 20.4109 22.7478C21.0359 22.2863 21.4156 21.6262 21.3806 20.7558C21.363 20.2768 21.2053 19.7978 21.0125 19.348C21.071 19.2662 21.1235 19.1844 21.1819 19.1027C22.1692 17.6598 22.9344 16.0767 22.9344 16.0767C22.9344 16.0767 23.0045 16.5616 23.244 17.3677C23.3608 17.7766 23.6003 18.2206 23.8106 18.6529C22.8818 19.4064 22.3094 20.2826 22.1049 20.8551C21.7369 21.9183 22.0231 22.3973 22.5664 22.5083C22.8117 22.5609 23.1622 22.444 23.4193 22.333C23.7464 22.2279 24.1319 22.0468 24.4999 21.7781C25.125 21.3166 25.7267 20.674 25.6916 19.8036C25.6741 19.4064 25.5689 19.015 25.4229 18.6353C26.2115 18.3082 27.2279 18.1271 28.5248 18.279C31.3053 18.6061 31.8545 20.3411 31.7493 21.0713C31.6442 21.8014 31.06 22.1987 30.8672 22.3213C30.6745 22.444 30.6102 22.4849 30.6277 22.5725C30.6511 22.701 30.7446 22.6952 30.9081 22.6718C31.1359 22.6309 32.3685 22.0818 32.4211 20.7383C32.5087 19.0209 30.8731 17.1457 27.9815 17.1633ZM6.53135 24.3951C5.60839 25.3998 4.32325 25.7795 3.7683 25.4583C3.17246 25.1136 3.40613 23.6299 4.53939 22.5667C5.22869 21.9183 6.1166 21.3166 6.7066 20.9486C6.84095 20.8668 7.03957 20.75 7.27907 20.6039C7.31996 20.5806 7.34333 20.5689 7.34333 20.5689C7.39006 20.5397 7.43679 20.5105 7.48352 20.4813C7.89827 22.0001 7.50105 23.3378 6.53135 24.3951ZM13.2491 19.827C12.9278 20.6098 12.2561 22.6134 11.8472 22.5024C11.4967 22.409 11.2805 20.8902 11.7771 19.3889C12.0282 18.6353 12.5598 17.7357 12.8694 17.3852C13.3718 16.8245 13.9267 16.6375 14.0611 16.8653C14.2305 17.1633 13.4477 19.3363 13.2491 19.827ZM18.7928 22.4791C18.6584 22.5492 18.5299 22.5959 18.4715 22.5609C18.4306 22.5375 18.5299 22.444 18.5299 22.444C18.5299 22.444 19.225 21.6963 19.4996 21.3575C19.6573 21.1589 19.8442 20.9252 20.0428 20.6623C20.0428 20.6857 20.0428 20.7149 20.0428 20.7383C20.0428 21.632 19.1783 22.2337 18.7928 22.4791ZM23.0688 21.5035C22.9695 21.4334 22.987 21.1998 23.32 20.4696C23.4485 20.1833 23.7522 19.7043 24.2721 19.2429C24.3305 19.4298 24.3714 19.6109 24.3656 19.7803C24.3597 20.9077 23.5536 21.3283 23.0688 21.5035Z" fill="#CD6799"/>
</g>
<defs>
<clipPath id="clip0_5897_1019">
<rect width="31.9815" height="29" fill="white" transform="translate(0.442932 0.867798)"/>
</clipPath>
</defs>
</svg>
