<svg width="17" height="17" viewBox="0 0 17 17" fill="none" xmlns="http://www.w3.org/2000/svg">
<path d="M8.28279 14.2971C8.15613 14.2971 8.02946 14.2505 7.92946 14.1505L3.88279 10.1038C3.68946 9.91047 3.68946 9.59047 3.88279 9.39714C4.07613 9.2038 4.39613 9.2038 4.58946 9.39714L8.28279 13.0905L11.9761 9.39714C12.1695 9.2038 12.4895 9.2038 12.6828 9.39714C12.8761 9.59047 12.8761 9.91047 12.6828 10.1038L8.63613 14.1505C8.53613 14.2505 8.40946 14.2971 8.28279 14.2971Z" fill="#7E7E8F"/>
<path d="M8.28271 14.1838C8.00938 14.1838 7.78271 13.9571 7.78271 13.6838V2.46381C7.78271 2.19047 8.00938 1.96381 8.28271 1.96381C8.55605 1.96381 8.78271 2.19047 8.78271 2.46381V13.6838C8.78271 13.9571 8.55605 14.1838 8.28271 14.1838Z" fill="#7E7E8F"/>
</svg>
