<svg width="16" height="16" viewBox="0 0 16 16" fill="none" xmlns="http://www.w3.org/2000/svg">
<path d="M5.66675 9.5C5.66675 10.78 6.72008 11.8333 8.00008 11.8333C9.28008 11.8333 10.3334 10.78 10.3334 9.5" stroke="white" stroke-width="1.5" stroke-miterlimit="10" stroke-linecap="round" stroke-linejoin="round"/>
<path d="M5.87329 1.33334L3.45996 3.75334" stroke="white" stroke-width="1.5" stroke-miterlimit="10" stroke-linecap="round" stroke-linejoin="round"/>
<path d="M10.1267 1.33334L12.54 3.75334" stroke="white" stroke-width="1.5" stroke-miterlimit="10" stroke-linecap="round" stroke-linejoin="round"/>
<path d="M1.33325 5.23333C1.33325 3.99999 1.99325 3.89999 2.81325 3.89999H13.1866C14.0066 3.89999 14.6666 3.99999 14.6666 5.23333C14.6666 6.66666 14.0066 6.56666 13.1866 6.56666H2.81325C1.99325 6.56666 1.33325 6.66666 1.33325 5.23333Z" stroke="white" stroke-width="1.5"/>
<path d="M2.33325 6.66666L3.27325 12.4267C3.48659 13.72 3.99992 14.6667 5.90659 14.6667H9.92659C11.9999 14.6667 12.3066 13.76 12.5466 12.5067L13.6666 6.66666" stroke="white" stroke-width="1.5" stroke-linecap="round"/>
</svg>
