<svg width="17" height="17" viewBox="0 0 17 17" fill="none" xmlns="http://www.w3.org/2000/svg">
<path d="M5.3335 4.79714H11.6668V3.46381C11.6668 2.13047 11.1668 1.46381 9.66683 1.46381H7.3335C5.8335 1.46381 5.3335 2.13047 5.3335 3.46381V4.79714Z" stroke="#7E7E8F" stroke-width="1.5" stroke-miterlimit="10" stroke-linecap="round" stroke-linejoin="round"/>
<path d="M11.1668 10.1305V12.7972C11.1668 14.1305 10.5002 14.7972 9.16683 14.7972H7.8335C6.50016 14.7972 5.8335 14.1305 5.8335 12.7972V10.1305H11.1668Z" stroke="#7E7E8F" stroke-width="1.5" stroke-miterlimit="10" stroke-linecap="round" stroke-linejoin="round"/>
<path d="M14.5 6.79718V10.1305C14.5 11.4638 13.8333 12.1305 12.5 12.1305H11.1667V10.1305H5.83333V12.1305H4.5C3.16667 12.1305 2.5 11.4638 2.5 10.1305V6.79718C2.5 5.46385 3.16667 4.79718 4.5 4.79718H12.5C13.8333 4.79718 14.5 5.46385 14.5 6.79718Z" stroke="#7E7E8F" stroke-width="1.5" stroke-miterlimit="10" stroke-linecap="round" stroke-linejoin="round"/>
<path d="M11.8332 10.1305H11.0265H5.1665" stroke="#7E7E8F" stroke-width="1.5" stroke-miterlimit="10" stroke-linecap="round" stroke-linejoin="round"/>
<path d="M5.1665 7.46381H7.1665" stroke="#7E7E8F" stroke-width="1.5" stroke-miterlimit="10" stroke-linecap="round" stroke-linejoin="round"/>
</svg>
