<svg width="25" height="24" viewBox="0 0 25 24" fill="none" xmlns="http://www.w3.org/2000/svg">
<path d="M12.7247 23.6345C19.2677 23.6345 24.5316 18.3706 24.5316 11.8276C24.5316 5.28456 19.2677 0.0206909 12.7247 0.0206909C6.18166 0.0206909 0.917786 5.28456 0.917786 11.8276C0.917786 18.3706 6.18166 23.6345 12.7247 23.6345Z" fill="#2775CA"/>
<path d="M15.9716 13.697C15.9716 11.9752 14.9385 11.3849 12.8723 11.1389C11.3965 10.9421 11.1013 10.5486 11.1013 9.85977C11.1013 9.17095 11.5933 8.72831 12.5772 8.72831C13.4627 8.72831 13.9547 9.02348 14.2006 9.76141C14.2498 9.909 14.3974 10.0074 14.545 10.0074H15.3321C15.5289 10.0074 15.6765 9.85977 15.6765 9.66306V9.61383C15.4796 8.53149 14.5941 7.69521 13.4627 7.59685V6.41616C13.4627 6.21934 13.3151 6.07176 13.0691 6.02252H12.3312C12.1344 6.02252 11.9868 6.17011 11.9376 6.41616V7.54762C10.4617 7.74444 9.52707 8.72831 9.52707 9.95824C9.52707 11.5817 10.5109 12.2211 12.5772 12.4672C13.9547 12.7131 14.3974 13.0083 14.3974 13.7955C14.3974 14.5826 13.7086 15.1238 12.774 15.1238C11.4948 15.1238 11.0521 14.5825 10.9045 13.8446C10.8553 13.6479 10.7078 13.5494 10.5602 13.5494H9.72378C9.52707 13.5494 9.37949 13.697 9.37949 13.8938V13.9431C9.57619 15.1729 10.3634 16.0584 11.9868 16.3044V17.4851C11.9868 17.6818 12.1344 17.8294 12.3803 17.8787H13.1183C13.3151 17.8787 13.4627 17.7311 13.5119 17.4851V16.3044C14.9878 16.0584 15.9716 15.0253 15.9716 13.697Z" fill="white"/>
<path fill-rule="evenodd" clip-rule="evenodd" d="M5.8374 9.41699C4.41065 13.2051 6.37851 17.4851 10.2158 18.8625C10.3633 18.961 10.5109 19.1577 10.5109 19.3053V19.9941C10.5109 20.0924 10.5109 20.1417 10.4617 20.1908C10.4126 20.3876 10.2158 20.486 10.0189 20.3876C7.26403 19.5021 5.14858 17.3866 4.26306 14.6317C2.7872 9.95821 5.3454 4.9894 10.0189 3.51353C10.0682 3.46442 10.1665 3.46442 10.2158 3.46442C10.4126 3.51353 10.5109 3.66112 10.5109 3.85794V4.54664C10.5109 4.79269 10.4126 4.94028 10.2158 5.03863C8.19878 5.77656 6.57533 7.35078 5.8374 9.41699ZM14.9877 3.71034C15.0368 3.51352 15.2336 3.41517 15.4305 3.51352C18.1361 4.39904 20.3008 6.51448 21.1863 9.31862C22.6622 13.9921 20.104 18.961 15.4305 20.4368C15.3812 20.4859 15.2829 20.4859 15.2336 20.4859C15.0368 20.4368 14.9385 20.2892 14.9385 20.0924V19.4037C14.9385 19.1577 15.0368 19.0101 15.2336 18.9117C17.2506 18.1738 18.8741 16.5996 19.612 14.5334C21.0387 10.7452 19.0709 6.46524 15.2336 5.08785C15.0861 4.98938 14.9385 4.79268 14.9385 4.59586V3.90716C14.9385 3.80869 14.9385 3.75957 14.9877 3.71034Z" fill="white"/>
</svg>
