<svg width="16" height="17" viewBox="0 0 16 17" fill="none" xmlns="http://www.w3.org/2000/svg">
<path d="M14.6667 6.16668C14.6667 8.56001 12.7267 10.5 10.3333 10.5C10.22 10.5 10.1 10.4934 9.98667 10.4867C9.82001 8.37335 8.12666 6.68 6.01333 6.51334C6.00666 6.4 6 6.28001 6 6.16668C6 3.77334 7.94 1.83334 10.3333 1.83334C12.7267 1.83334 14.6667 3.77334 14.6667 6.16668Z" stroke="#7E7E8F" stroke-width="1.5" stroke-linecap="round" stroke-linejoin="round"/>
<path d="M10 10.8333C10 13.2267 8.06001 15.1667 5.66668 15.1667C3.27334 15.1667 1.33334 13.2267 1.33334 10.8333C1.33334 8.44 3.27334 6.5 5.66668 6.5C5.78001 6.5 5.9 6.50666 6.01334 6.51333C8.12667 6.67999 9.82002 8.37334 9.98668 10.4867C9.99335 10.6 10 10.72 10 10.8333Z" stroke="#7E7E8F" stroke-width="1.5" stroke-linecap="round" stroke-linejoin="round"/>
<path d="M3.72667 1.83334H2.00001C1.63334 1.83334 1.33334 2.13334 1.33334 2.50001V4.22667C1.33334 4.82001 2.05334 5.12 2.47334 4.7L4.2 2.97334C4.61334 2.55334 4.32001 1.83334 3.72667 1.83334Z" stroke="#7E7E8F" stroke-width="1.5" stroke-linecap="round" stroke-linejoin="round"/>
<path d="M12.2733 15.1667H14C14.3667 15.1667 14.6667 14.8667 14.6667 14.5V12.7733C14.6667 12.18 13.9467 11.88 13.5267 12.3L11.8 14.0267C11.3867 14.4467 11.68 15.1667 12.2733 15.1667Z" stroke="#7E7E8F" stroke-width="1.5" stroke-linecap="round" stroke-linejoin="round"/>
</svg>
