<svg width="38" height="35" viewBox="0 0 38 35" fill="none" xmlns="http://www.w3.org/2000/svg">
<path d="M32.4584 3.83003H5.54175L7.91675 28.2233L19.0001 31.0931L30.0834 28.2233L32.4584 3.83003Z" fill="#0277BD"/>
<path d="M19 5.98238V28.8675L27.8667 26.5731L29.8458 5.98238H19Z" fill="#039BE5"/>
<path d="M26.2058 9.56963H19V12.4394H22.8776L22.6432 15.3092H19V18.179H22.4818L22.2474 21.4075L19 22.4105V25.4267L25.2526 23.5599L25.8099 15.3092L26.2058 9.56963Z" fill="white"/>
<path d="M19.0001 9.56963V12.4394H11.9558L11.7175 9.56963H19.0001ZM15.3568 15.3092L15.5183 18.179H19.0001V15.3092H15.3568ZM15.6759 19.6139H12.5092L12.7467 23.5599L19.0001 25.4267V22.4105L15.7527 21.4075L15.6759 19.6139Z" fill="#EEEEEE"/>
</svg>
