<svg width="38" height="35" viewBox="0 0 38 35" fill="none" xmlns="http://www.w3.org/2000/svg">
<path d="M34 18.9638C34 17.4761 32.1749 16.0661 29.3767 15.1918C30.0224 12.2804 29.7354 9.96407 28.4709 9.22248C28.1794 9.04852 27.8386 8.96613 27.4664 8.96613V9.98695C27.6726 9.98695 27.8386 10.0282 27.9776 10.106C28.5874 10.463 28.852 11.8226 28.6457 13.5713C28.5964 14.0016 28.5157 14.4548 28.417 14.9171C27.5381 14.6974 26.5785 14.528 25.5695 14.4182C24.9641 13.5713 24.3363 12.8022 23.704 12.1293C25.1659 10.7423 26.5381 9.98238 27.4709 9.98238V8.96155C26.2377 8.96155 24.6233 9.85878 22.991 11.4152C21.3587 9.86793 19.7444 8.97986 18.5112 8.97986V10.0007C19.4395 10.0007 20.8161 10.756 22.278 12.1339C21.6502 12.8068 21.0224 13.5713 20.426 14.4182C19.4126 14.528 18.4529 14.6974 17.574 14.9217C17.4709 14.464 17.3946 14.0199 17.3408 13.5942C17.13 11.8455 17.3901 10.4859 17.9955 10.1243C18.13 10.0419 18.3049 10.0053 18.5112 10.0053V8.98444C18.1345 8.98444 17.7937 9.06684 17.4978 9.24079C16.2377 9.98238 15.9552 12.2941 16.6054 15.1964C13.8161 16.0753 12 17.4807 12 18.9638C12 20.4516 13.8251 21.8615 16.6233 22.7359C15.9776 25.6473 16.2646 27.9636 17.5291 28.7052C17.8206 28.8791 18.1614 28.9615 18.5381 28.9615C19.7713 28.9615 21.3857 28.0643 23.0179 26.5079C24.6502 28.0552 26.2646 28.9432 27.4978 28.9432C27.8744 28.9432 28.2152 28.8608 28.5112 28.6869C29.7713 27.9453 30.0538 25.6336 29.4036 22.7313C32.1839 21.8569 34 20.447 34 18.9638ZM28.1614 15.9105C27.9955 16.501 27.7892 17.1099 27.5561 17.7187C27.3722 17.3525 27.1794 16.9863 26.9686 16.6201C26.7623 16.2538 26.5426 15.8968 26.3229 15.5489C26.9596 15.645 27.574 15.764 28.1614 15.9105ZM26.1076 20.7858C25.7578 21.4038 25.3991 21.9897 25.0269 22.5344C24.3587 22.594 23.6816 22.626 23 22.626C22.3229 22.626 21.6457 22.594 20.9821 22.539C20.6099 21.9943 20.2466 21.4129 19.8969 20.7995C19.5561 20.1998 19.2466 19.591 18.9641 18.9776C19.2422 18.3642 19.5561 17.7507 19.8924 17.1511C20.2422 16.5331 20.6009 15.9471 20.9731 15.4024C21.6413 15.3429 22.3184 15.3108 23 15.3108C23.6771 15.3108 24.3543 15.3429 25.0179 15.3978C25.3901 15.9426 25.7534 16.5239 26.1031 17.1373C26.4439 17.737 26.7534 18.3458 27.0359 18.9593C26.7534 19.5727 26.4439 20.1861 26.1076 20.7858ZM27.5561 20.1907C27.7982 20.8041 28.0045 21.4175 28.1749 22.0126C27.5874 22.1591 26.9686 22.2827 26.3274 22.3788C26.5471 22.0263 26.7668 21.6647 26.9731 21.2939C27.1794 20.9277 27.3722 20.5569 27.5561 20.1907ZM23.009 25.0751C22.5919 24.6356 22.1749 24.1458 21.7623 23.6102C22.1659 23.6285 22.5785 23.6423 22.9955 23.6423C23.417 23.6423 23.8341 23.6331 24.2422 23.6102C23.8386 24.1458 23.4215 24.6356 23.009 25.0751ZM19.6726 22.3788C19.0359 22.2827 18.4215 22.1637 17.8341 22.0172C18 21.4266 18.2063 20.8178 18.4395 20.209C18.6233 20.5752 18.8161 20.9414 19.0269 21.3076C19.2377 21.6738 19.4529 22.0309 19.6726 22.3788ZM22.9865 12.8526C23.4036 13.2921 23.8206 13.7819 24.2332 14.3175C23.8296 14.2992 23.417 14.2854 23 14.2854C22.5785 14.2854 22.1614 14.2946 21.7534 14.3175C22.157 13.7819 22.574 13.2921 22.9865 12.8526ZM19.6682 15.5489C19.4484 15.9014 19.2287 16.263 19.0224 16.6338C18.8161 17 18.6233 17.3662 18.4395 17.7324C18.1973 17.119 17.991 16.5056 17.8206 15.9105C18.4081 15.7686 19.0269 15.645 19.6682 15.5489ZM15.6099 21.2802C14.0224 20.5889 12.9955 19.6825 12.9955 18.9638C12.9955 18.2451 14.0224 17.3342 15.6099 16.6475C15.9955 16.4781 16.417 16.3271 16.852 16.1852C17.1076 17.0824 17.4439 18.0163 17.861 18.973C17.4484 19.9252 17.1166 20.8544 16.8655 21.7471C16.4215 21.6052 16 21.4495 15.6099 21.2802ZM18.0224 27.8217C17.4126 27.4646 17.148 26.1051 17.3543 24.3564C17.4036 23.9261 17.4843 23.4729 17.583 23.0105C18.4619 23.2303 19.4215 23.3996 20.4305 23.5095C21.0359 24.3564 21.6637 25.1254 22.296 25.7984C20.8341 27.1854 19.4619 27.9453 18.5291 27.9453C18.3274 27.9407 18.157 27.8995 18.0224 27.8217ZM28.6592 24.3335C28.87 26.0822 28.6099 27.4417 28.0045 27.8034C27.87 27.8858 27.6951 27.9224 27.4888 27.9224C26.5605 27.9224 25.1839 27.1671 23.722 25.7892C24.3498 25.1163 24.9776 24.3518 25.574 23.5049C26.5874 23.3951 27.5471 23.2257 28.426 23.0014C28.5291 23.4637 28.6099 23.9078 28.6592 24.3335ZM30.3857 21.2802C30 21.4495 29.5785 21.6006 29.1435 21.7425C28.8879 20.8453 28.5516 19.9114 28.1345 18.9547C28.5471 18.0025 28.8789 17.0732 29.13 16.1806C29.574 16.3225 29.9955 16.4781 30.3901 16.6475C31.9776 17.3387 33.0045 18.2451 33.0045 18.9638C33 19.6825 31.9731 20.5935 30.3857 21.2802Z" fill="#61DAFB"/>
<path d="M23 20.9615C24.1046 20.9615 25 20.0661 25 18.9615C25 17.857 24.1046 16.9615 23 16.9615C21.8954 16.9615 21 17.857 21 18.9615C21 20.0661 21.8954 20.9615 23 20.9615Z" fill="#61DAFB"/>
</svg>
