<svg width="12" height="7" viewBox="0 0 12 7" fill="none" xmlns="http://www.w3.org/2000/svg">
<path d="M5.07108 6.43806H2.85036C2.11415 6.43806 1.40809 6.1456 0.887505 5.62502C0.366923 5.10444 0.0744629 4.39838 0.0744629 3.66216C0.0744629 2.92595 0.366923 2.21989 0.887505 1.6993C1.40809 1.17872 2.11415 0.886261 2.85036 0.886261H5.07108V1.99662H2.85036C2.40864 1.99662 1.985 2.1721 1.67265 2.48445C1.3603 2.7968 1.18482 3.22043 1.18482 3.66216C1.18482 4.10389 1.3603 4.52753 1.67265 4.83988C1.985 5.15223 2.40864 5.3277 2.85036 5.3277H5.07108V6.43806ZM8.40217 0.886261H6.18145V1.99662H8.40217C8.84389 1.99662 9.26753 2.1721 9.57988 2.48445C9.89223 2.7968 10.0677 3.22043 10.0677 3.66216C10.0677 4.10389 9.89223 4.52753 9.57988 4.83988C9.26753 5.15223 8.84389 5.3277 8.40217 5.3277H6.18145V6.43806H8.40217C9.13838 6.43806 9.84444 6.1456 10.365 5.62502C10.8856 5.10444 11.1781 4.39838 11.1781 3.66216C11.1781 2.92595 10.8856 2.21989 10.365 1.6993C9.84444 1.17872 9.13838 0.886261 8.40217 0.886261ZM7.84699 3.10698H3.40554V4.21734H7.84699V3.10698Z" fill="#7E7E8F"/>
</svg>
