<svg width="32" height="32" viewBox="0 0 32 32" fill="none" xmlns="http://www.w3.org/2000/svg">
<path d="M16.1022 31.7281C24.7943 31.7281 31.8407 24.6818 31.8407 15.9897C31.8407 7.29757 24.7943 0.251221 16.1022 0.251221C7.41012 0.251221 0.36377 7.29757 0.36377 15.9897C0.36377 24.6818 7.41012 31.7281 16.1022 31.7281Z" fill="#DE5833"/>
<mask id="mask0_1606_84650" style="mask-type:alpha" maskUnits="userSpaceOnUse" x="0" y="0" width="32" height="32">
<path d="M31.9029 15.9459C31.9029 24.6585 24.8152 31.7472 16.1016 31.7472C7.38994 31.7472 0.302246 24.6582 0.302246 15.9459C0.302246 7.23424 7.39025 0.14624 16.1016 0.14624C24.8149 0.14624 31.9029 7.23424 31.9029 15.9459Z" fill="white"/>
</mask>
<g mask="url(#mask0_1606_84650)">
<path d="M22.5517 39.4332C21.9976 36.8839 18.7788 31.1135 17.5579 28.6735C16.3379 26.2329 15.1154 22.7935 15.672 20.5744C15.7729 20.1707 14.6148 17.095 14.9477 16.8775C17.5373 15.1886 18.2191 17.0618 19.256 16.3046C19.7896 15.9129 20.5145 16.6267 20.6988 15.9784C21.3628 13.6501 19.7739 9.59071 18 7.81656C17.42 7.23841 16.532 6.87502 15.5293 6.6821C15.1434 6.15502 14.5216 5.64825 13.6406 5.18087C12.6597 4.65871 10.5265 3.96918 9.42002 3.78548C8.65325 3.65933 8.48002 3.87379 8.15264 3.92733C8.45787 3.95441 9.90618 4.6701 10.188 4.71164C9.90618 4.9021 9.07818 4.70302 8.54987 4.93994C8.28372 5.06056 8.08464 5.51748 8.08649 5.73379C9.59725 5.58118 11.9554 5.72887 13.348 6.34918C12.2397 6.47533 10.5542 6.61594 9.82925 6.99687C7.72218 8.10702 6.79141 10.6999 7.34618 13.807C7.90125 16.907 10.3425 28.2224 11.1191 32.0006C11.896 35.7741 9.4551 38.2126 7.90218 38.8787L9.56618 38.9904L9.01202 40.211C11.0071 40.4323 13.2259 39.7683 13.2259 39.7683C12.7834 40.9883 9.7871 41.4335 9.7871 41.4335C9.7871 41.4335 11.2305 41.8759 13.5588 40.9883C15.8905 40.1012 17.332 39.5458 17.332 39.5458L18.4409 42.4298L20.5499 40.323L21.4376 42.5418C21.4419 42.5415 23.1065 41.9855 22.5517 39.4332Z" fill="#D5D7D8"/>
<path d="M23.222 38.9161C22.6697 36.3656 19.4509 30.5951 18.2287 28.1533C17.0072 25.7114 15.7872 22.2727 16.3426 20.0545C16.4457 19.6517 16.4475 18.0028 16.7823 17.7841C19.3703 16.0936 19.186 17.7274 20.2244 16.9702C20.7598 16.5791 21.1884 16.1068 21.3746 15.4588C22.0404 13.129 20.4497 9.07113 18.6752 7.29605C18.097 6.7179 17.2081 6.3539 16.2066 6.1619C15.8214 5.63328 15.2001 5.12774 14.3204 4.65974C12.6617 3.77913 10.6054 3.42713 8.70012 3.77267C9.00473 3.80036 9.70197 4.43051 9.98258 4.47205C9.55766 4.76005 8.42781 4.72282 8.4352 5.36313C9.94781 5.21174 11.6054 5.45082 12.9995 6.0699C11.8912 6.19605 10.8595 6.4699 10.1346 6.85236C8.02566 7.96098 7.4712 10.1791 8.02566 13.2874C8.58166 16.3942 11.0232 27.7099 11.7967 31.4801C12.5743 35.2524 10.1346 37.6917 8.58166 38.3582L10.2457 38.4687L9.6915 39.6911C11.6866 39.913 13.9053 39.2484 13.9053 39.2484C13.4629 40.4711 10.4666 40.9117 10.4666 40.9117C10.4666 40.9117 11.9084 41.3545 14.2383 40.4671C16.5709 39.5801 18.0133 39.0247 18.0133 39.0247L19.1223 41.9087L21.2309 39.8001L22.1204 42.0201C22.1155 42.0222 23.7783 41.4671 23.222 38.9161Z" fill="white"/>
<path d="M10.468 13.4436C10.468 12.7996 10.9889 12.2783 11.6339 12.2783C12.2769 12.2783 12.7985 12.7996 12.7985 13.4436C12.7985 14.0879 12.2769 14.6085 11.6339 14.6085C10.9889 14.6088 10.468 14.0879 10.468 13.4436Z" fill="#2D4F8E"/>
<path d="M11.8484 13.0551C11.8484 12.8875 11.9841 12.7527 12.1499 12.7527C12.317 12.7527 12.4527 12.8875 12.4527 13.0551C12.4527 13.2222 12.317 13.3579 12.1499 13.3579C11.9844 13.3582 11.8484 13.2222 11.8484 13.0551Z" fill="white"/>
<path d="M18.4207 12.7524C18.4207 12.2007 18.8702 11.7524 19.4213 11.7524C19.9754 11.7524 20.4231 12.2007 20.4231 12.7524C20.4231 13.3066 19.9754 13.7549 19.4213 13.7549C18.8702 13.7549 18.4207 13.3066 18.4207 12.7524Z" fill="#2D4F8E"/>
<path d="M19.6077 12.4195C19.6077 12.2771 19.7243 12.1602 19.8655 12.1602C20.0129 12.1602 20.1258 12.2771 20.1258 12.4195C20.1258 12.5638 20.0129 12.6786 19.8655 12.6786C19.7243 12.6786 19.6077 12.5638 19.6077 12.4195Z" fill="white"/>
<path d="M11.9648 10.0672C11.9648 10.0672 11.0867 9.66996 10.2328 10.2066C9.38052 10.7426 9.41191 11.2906 9.41191 11.2906C9.41191 11.2906 8.95868 10.2804 10.1667 9.78535C11.3759 9.29027 11.9648 10.0672 11.9648 10.0672Z" fill="url(#paint0_linear_1606_84650)"/>
<path d="M20.0241 9.98703C20.0241 9.98703 19.393 9.62641 18.9032 9.63257C17.8967 9.6458 17.6226 10.0904 17.6226 10.0904C17.6226 10.0904 17.7915 9.03041 19.0786 9.24303C19.7764 9.35903 20.0241 9.98703 20.0241 9.98703Z" fill="url(#paint1_linear_1606_84650)"/>
</g>
<path d="M15.2 17.937C15.3166 17.2321 17.1382 15.8986 18.428 15.818C19.7206 15.7364 20.1234 15.7549 21.2003 15.497C22.2803 15.2392 25.0573 14.5469 25.8259 14.1918C26.5963 13.8361 29.8579 14.3678 27.5585 15.6496C26.564 16.2063 23.8837 17.2284 21.9671 17.7995C20.0536 18.3721 18.8933 17.253 18.2563 18.1936C17.7499 18.942 18.1536 19.9666 20.4406 20.1792C23.5289 20.4653 26.4899 18.7881 26.8157 19.6792C27.1431 20.57 24.1619 21.6817 22.3465 21.717C20.5333 21.7512 16.8785 20.5183 16.3296 20.1364C15.78 19.7555 15.048 18.8656 15.2 17.937Z" fill="#FDD20A"/>
<path d="M16.598 27.2592C16.598 27.2592 12.2589 24.945 12.1882 25.8838C12.1149 26.8241 12.1882 30.6558 12.6937 30.9456C13.2002 31.2342 16.8156 29.0662 16.8156 29.0662L16.598 27.2592Z" fill="#65BC46"/>
<path d="M18.2605 27.1134C18.2605 27.1134 21.2251 24.8719 21.8771 25.0165C22.5266 25.1639 22.6716 29.7888 22.0928 30.01C21.514 30.2223 18.1211 28.8368 18.1211 28.8368L18.2605 27.1134Z" fill="#65BC46"/>
<path d="M15.5475 27.5044C15.5475 29.022 15.3294 29.6734 15.9814 29.818C16.6303 29.9635 17.8595 29.818 18.2946 29.5294C18.7284 29.2407 18.366 27.2897 18.2232 26.9247C18.0764 26.5635 15.5475 26.8534 15.5475 27.5044Z" fill="#43A244"/>
<path d="M15.8235 27.1669C15.8235 28.6848 15.6059 29.3361 16.257 29.4804C16.905 29.6278 18.1352 29.4804 18.5706 29.1918C19.0044 28.9023 18.6416 26.9521 18.4979 26.5869C18.3524 26.226 15.8235 26.5171 15.8235 27.1669Z" fill="#65BC46"/>
<defs>
<linearGradient id="paint0_linear_1606_84650" x1="9.32865" y1="10.4553" x2="11.965" y2="10.4553" gradientUnits="userSpaceOnUse">
<stop offset="0.0056" stop-color="#6176B9"/>
<stop offset="0.691" stop-color="#394A9F"/>
</linearGradient>
<linearGradient id="paint1_linear_1606_84650" x1="17.6227" y1="9.6526" x2="20.0241" y2="9.6526" gradientUnits="userSpaceOnUse">
<stop offset="0.0056" stop-color="#6176B9"/>
<stop offset="0.691" stop-color="#394A9F"/>
</linearGradient>
</defs>
</svg>
