<svg width="43" height="49" viewBox="0 0 43 49" fill="none" xmlns="http://www.w3.org/2000/svg">
<mask id="mask0_1628_44625" style="mask-type:alpha" maskUnits="userSpaceOnUse" x="0" y="0" width="43" height="49">
<path d="M39.2449 48.9842H3.62132C1.72292 48.9842 0.18396 47.4452 0.18396 45.5468V4.2985C0.18396 2.4001 1.72292 0.861145 3.62132 0.861145H26.7454L42.6822 16.798V45.5468C42.6822 47.4452 41.1433 48.9842 39.2449 48.9842Z" fill="url(#paint0_linear_1628_44625)"/>
</mask>
<g mask="url(#mask0_1628_44625)">
<path d="M39.2424 48.9841H3.61888C1.72048 48.9841 0.181519 47.4452 0.181519 45.5468V4.29847C0.181519 2.40007 1.72048 0.861115 3.61888 0.861115H26.7429L42.6798 16.798V45.5468C42.6798 47.4452 41.1408 48.9841 39.2424 48.9841Z" fill="url(#paint1_linear_1628_44625)"/>
<path d="M9.90228 34.5782C9.74593 34.5782 9.61427 34.5247 9.50729 34.4177C9.40032 34.3107 9.34683 34.1791 9.34683 34.0227V26.4687C9.34683 26.3123 9.40032 26.1806 9.50729 26.0737C9.61427 25.9585 9.74593 25.9009 9.90228 25.9009H12.7165C13.4983 25.9009 14.136 26.0325 14.6297 26.2958C15.1235 26.5592 15.4773 26.8966 15.6913 27.308C15.9052 27.7194 16.0122 28.1638 16.0122 28.6411C16.0122 29.1183 15.9052 29.5627 15.6913 29.9741C15.4773 30.3856 15.1235 30.723 14.6297 30.9863C14.136 31.2496 13.4983 31.3813 12.7165 31.3813H10.4701V34.0227C10.4701 34.1791 10.4125 34.3107 10.2973 34.4177C10.1903 34.5247 10.0586 34.5782 9.90228 34.5782ZM12.6054 30.3197C13.4448 30.3197 14.0331 30.1593 14.3705 29.8384C14.7161 29.5174 14.8889 29.1183 14.8889 28.6411C14.8889 28.1638 14.7161 27.7647 14.3705 27.4438C14.0331 27.1228 13.4448 26.9624 12.6054 26.9624H10.4701V30.3197H12.6054ZM21.2195 34.6399C20.1744 34.6399 19.1952 34.4424 18.2818 34.0474C18.1831 34.0063 18.1008 33.9404 18.0349 33.8499C17.9691 33.7512 17.9362 33.6483 17.9362 33.5413C17.9362 33.4014 17.9814 33.2821 18.072 33.1834C18.1707 33.0764 18.2941 33.0229 18.4423 33.0229C18.5245 33.0229 18.6027 33.0394 18.6768 33.0723C19.4338 33.4097 20.2444 33.5784 21.1084 33.5784C22.5484 33.5784 23.2685 33.1052 23.2685 32.1589C23.2685 31.912 23.1738 31.7063 22.9846 31.5417C22.8035 31.3772 22.5772 31.2496 22.3057 31.1591C22.0341 31.0603 21.6474 30.9451 21.1454 30.8135C20.4789 30.6407 19.9399 30.4761 19.5285 30.3197C19.117 30.1552 18.7632 29.9124 18.4669 29.5915C18.1707 29.2706 18.0226 28.8427 18.0226 28.3078C18.0226 27.8388 18.146 27.415 18.3929 27.0364C18.6398 26.6497 19.0018 26.3452 19.4791 26.123C19.9646 25.8926 20.5447 25.7774 21.2195 25.7774C22.1247 25.7774 22.9434 25.9132 23.6758 26.1848C23.9062 26.267 24.0214 26.4316 24.0214 26.6785C24.0214 26.8101 23.9761 26.9295 23.8856 27.0364C23.7951 27.1434 23.6758 27.1969 23.5277 27.1969C23.4783 27.1969 23.4125 27.1804 23.3302 27.1475C22.6883 26.9254 22.0259 26.8143 21.3429 26.8143C20.6928 26.8143 20.1621 26.9377 19.7506 27.1846C19.3474 27.4314 19.1458 27.777 19.1458 28.2214C19.1458 28.5176 19.2405 28.7604 19.4297 28.9496C19.6272 29.1307 19.87 29.2747 20.158 29.3817C20.4542 29.4804 20.8533 29.5874 21.3553 29.7026C22.0053 29.8589 22.5279 30.0153 22.9229 30.1716C23.3261 30.328 23.6676 30.5707 23.9473 30.8999C24.2354 31.229 24.3794 31.6734 24.3794 32.2329C24.3794 32.6938 24.2477 33.1093 23.9844 33.4796C23.7211 33.8417 23.3508 34.1256 22.8735 34.3313C22.3962 34.537 21.8449 34.6399 21.2195 34.6399ZM27.5295 34.5164C27.3731 34.5164 27.2415 34.463 27.1345 34.356C27.0275 34.249 26.974 34.1174 26.974 33.961V26.4687C26.974 26.3123 27.0275 26.1806 27.1345 26.0737C27.2415 25.9585 27.3731 25.9009 27.5295 25.9009H30.0105C30.9486 25.9009 31.7427 26.1107 32.3927 26.5304C33.051 26.9418 33.5448 27.4767 33.8739 28.135C34.2031 28.7933 34.3676 29.4845 34.3676 30.2087C34.3676 30.9328 34.2031 31.624 33.8739 32.2823C33.5448 32.9406 33.051 33.4796 32.3927 33.8993C31.7427 34.3107 30.9486 34.5164 30.0105 34.5164H27.5295ZM29.8747 33.4673C30.5495 33.4673 31.1419 33.3315 31.6521 33.0599C32.1623 32.7802 32.5573 32.3975 32.8371 31.912C33.1169 31.4183 33.2568 30.8505 33.2568 30.2087C33.2568 29.5668 33.1169 29.0031 32.8371 28.5176C32.5573 28.0239 32.1623 27.6413 31.6521 27.3697C31.1419 27.0899 30.5495 26.95 29.8747 26.95H28.0973V33.4673H29.8747Z" fill="white"/>
<path d="M9.50729 34.4177L9.72826 34.1967H9.72825L9.50729 34.4177ZM9.50729 26.0737L9.72841 26.2948L9.73628 26.2863L9.50729 26.0737ZM15.6913 27.308L15.414 27.4522L15.6913 27.308ZM15.6913 29.9741L15.414 29.83L15.414 29.83L15.6913 29.9741ZM10.4701 31.3813V31.0688H10.1576V31.3813H10.4701ZM10.2973 34.4177L10.0845 34.1886L10.0763 34.1967L10.2973 34.4177ZM14.3705 29.8384L14.1579 29.6094L14.1552 29.6119L14.3705 29.8384ZM14.3705 27.4438L14.1551 27.6702L14.1579 27.6728L14.3705 27.4438ZM10.4701 26.9624V26.6499H10.1576V26.9624H10.4701ZM10.4701 30.3197H10.1576V30.6322H10.4701V30.3197ZM9.90228 34.2657C9.82571 34.2657 9.77447 34.243 9.72826 34.1967L9.28633 34.6387C9.45406 34.8064 9.66615 34.8907 9.90228 34.8907V34.2657ZM9.72825 34.1967C9.68204 34.1505 9.65932 34.0993 9.65932 34.0227H9.03434C9.03434 34.2588 9.1186 34.4709 9.28633 34.6387L9.72825 34.1967ZM9.65932 34.0227V26.4687H9.03434V34.0227H9.65932ZM9.65932 26.4687C9.65932 26.3921 9.68204 26.3408 9.72826 26.2946L9.28633 25.8527C9.1186 26.0204 9.03434 26.2325 9.03434 26.4687H9.65932ZM9.73628 26.2863C9.7845 26.2344 9.83337 26.2134 9.90228 26.2134V25.5884C9.65849 25.5884 9.44403 25.6826 9.2783 25.861L9.73628 26.2863ZM9.90228 26.2134H12.7165V25.5884H9.90228V26.2134ZM12.7165 26.2134C13.4662 26.2134 14.0486 26.3401 14.4827 26.5716L14.7768 26.0201C14.2234 25.725 13.5303 25.5884 12.7165 25.5884V26.2134ZM14.4827 26.5716C14.9324 26.8114 15.2347 27.1074 15.414 27.4522L15.9685 27.1638C15.7199 26.6857 15.3145 26.3069 14.7768 26.0201L14.4827 26.5716ZM15.414 27.4522C15.6041 27.8177 15.6997 28.2125 15.6997 28.6411H16.3247C16.3247 28.1151 16.2063 27.6211 15.9685 27.1638L15.414 27.4522ZM15.6997 28.6411C15.6997 29.0697 15.6041 29.4644 15.414 29.83L15.9685 30.1183C16.2063 29.661 16.3247 29.167 16.3247 28.6411H15.6997ZM15.414 29.83C15.2347 30.1747 14.9324 30.4707 14.4827 30.7106L14.7768 31.262C15.3145 30.9752 15.7199 30.5964 15.9685 30.1183L15.414 29.83ZM14.4827 30.7106C14.0486 30.9421 13.4662 31.0688 12.7165 31.0688V31.6938C13.5303 31.6938 14.2234 31.5571 14.7768 31.262L14.4827 30.7106ZM12.7165 31.0688H10.4701V31.6938H12.7165V31.0688ZM10.1576 31.3813V34.0227H10.7826V31.3813H10.1576ZM10.1576 34.0227C10.1576 34.0916 10.1366 34.1405 10.0846 34.1887L10.5099 34.6467C10.6884 34.481 10.7826 34.2665 10.7826 34.0227H10.1576ZM10.0763 34.1967C10.0301 34.243 9.97885 34.2657 9.90228 34.2657V34.8907C10.1384 34.8907 10.3505 34.8064 10.5182 34.6387L10.0763 34.1967ZM12.6054 30.6322C13.4667 30.6322 14.1587 30.4711 14.5859 30.0648L14.1552 29.6119C13.9076 29.8475 13.4229 30.0073 12.6054 30.0073V30.6322ZM14.5832 30.0673C14.9933 29.6865 15.2014 29.204 15.2014 28.6411H14.5765C14.5765 29.0326 14.439 29.3484 14.1579 29.6094L14.5832 30.0673ZM15.2014 28.6411C15.2014 28.0781 14.9933 27.5956 14.5832 27.2148L14.1579 27.6728C14.439 27.9338 14.5765 28.2495 14.5765 28.6411H15.2014ZM14.5859 27.2174C14.1587 26.811 13.4667 26.6499 12.6054 26.6499V27.2749C13.4229 27.2749 13.9076 27.4347 14.1552 27.6702L14.5859 27.2174ZM12.6054 26.6499H10.4701V27.2749H12.6054V26.6499ZM10.1576 26.9624V30.3197H10.7826V26.9624H10.1576ZM10.4701 30.6322H12.6054V30.0073H10.4701V30.6322ZM18.2818 34.0474L18.4058 33.7606L18.402 33.759L18.2818 34.0474ZM18.0349 33.8499L17.7747 34.0234L17.7822 34.0337L18.0349 33.8499ZM18.072 33.1834L17.8423 32.9714L17.8416 32.9722L18.072 33.1834ZM18.6768 33.0723L18.804 32.7869L18.8037 32.7867L18.6768 33.0723ZM22.9846 31.5417L22.7743 31.773L22.7795 31.7775L22.9846 31.5417ZM22.3057 31.1591L22.1989 31.4529L22.2069 31.4555L22.3057 31.1591ZM21.1454 30.8135L21.2247 30.5112L21.2239 30.511L21.1454 30.8135ZM19.5285 30.3197L19.4124 30.6099L19.4175 30.6119L19.5285 30.3197ZM18.4669 29.5915L18.2373 29.8034L18.4669 29.5915ZM18.3929 27.0364L18.6546 27.2072L18.6563 27.2046L18.3929 27.0364ZM19.4791 26.123L19.611 26.4063L19.6131 26.4054L19.4791 26.123ZM23.6758 26.1848L23.5671 26.4778L23.5707 26.479L23.6758 26.1848ZM23.8856 27.0364L24.1242 27.2383L24.1242 27.2383L23.8856 27.0364ZM23.3302 27.1475L23.4462 26.8574L23.4394 26.8547L23.4324 26.8522L23.3302 27.1475ZM19.7506 27.1846L19.5899 26.9166L19.5875 26.9181L19.7506 27.1846ZM19.4297 28.9496L19.2085 29.1708L19.2186 29.18L19.4297 28.9496ZM20.158 29.3817L20.0491 29.6748L20.0592 29.6781L20.158 29.3817ZM21.3553 29.7026L21.4283 29.3987L21.4252 29.398L21.3553 29.7026ZM22.9229 30.1716L22.8078 30.4622L22.8099 30.463L22.9229 30.1716ZM23.9473 30.8999L23.7092 31.1023L23.7122 31.1057L23.9473 30.8999ZM23.9844 33.4796L24.2371 33.6634L24.239 33.6607L23.9844 33.4796ZM22.8735 34.3313L22.9972 34.6183L22.8735 34.3313ZM21.2195 34.3274C20.2149 34.3274 19.2781 34.1378 18.4058 33.7606L18.1578 34.3342C19.1123 34.747 20.1339 34.9524 21.2195 34.9524V34.3274ZM18.402 33.759C18.3587 33.7409 18.3214 33.7125 18.2877 33.6661L17.7822 34.0337C17.8801 34.1684 18.0074 34.2716 18.1616 34.3359L18.402 33.759ZM18.2949 33.6766C18.2594 33.6233 18.2487 33.58 18.2487 33.5413H17.6237C17.6237 33.7167 17.6788 33.879 17.7749 34.0233L18.2949 33.6766ZM18.2487 33.5413C18.2487 33.4758 18.2671 33.4329 18.3023 33.3945L17.8416 32.9722C17.6957 33.1313 17.6237 33.3271 17.6237 33.5413H18.2487ZM18.3016 33.3953C18.34 33.3537 18.3796 33.3354 18.4423 33.3354V32.7104C18.2087 32.7104 18.0014 32.7991 17.8423 32.9714L18.3016 33.3953ZM18.4423 33.3354C18.4815 33.3354 18.5164 33.343 18.5499 33.3578L18.8037 32.7867C18.6891 32.7358 18.5676 32.7104 18.4423 32.7104V33.3354ZM18.5496 33.3577C19.3484 33.7137 20.2024 33.8908 21.1084 33.8908V33.2659C20.2863 33.2659 19.5193 33.1056 18.804 32.7869L18.5496 33.3577ZM21.1084 33.8908C21.8527 33.8908 22.4653 33.7704 22.9001 33.4846C23.3578 33.1839 23.581 32.725 23.581 32.1589H22.956C22.956 32.5391 22.8192 32.79 22.5568 32.9623C22.2716 33.1498 21.8041 33.2659 21.1084 33.2659V33.8908ZM23.581 32.1589C23.581 31.8199 23.4459 31.5288 23.1896 31.3059L22.7795 31.7775C22.9018 31.8838 22.956 32.0041 22.956 32.1589H23.581ZM23.1948 31.3105C22.9766 31.1121 22.7104 30.9646 22.4045 30.8626L22.2069 31.4555C22.4441 31.5346 22.6305 31.6422 22.7744 31.7729L23.1948 31.3105ZM22.4125 30.8654C22.1275 30.7618 21.7299 30.6437 21.2247 30.5112L21.0661 31.1157C21.5649 31.2465 21.9408 31.3589 22.1989 31.4528L22.4125 30.8654ZM21.2239 30.511C20.563 30.3396 20.0361 30.1783 19.6395 30.0276L19.4175 30.6119C19.8438 30.7738 20.3948 30.9417 21.067 31.116L21.2239 30.511ZM19.6445 30.0296C19.2756 29.8821 18.9608 29.6658 18.6966 29.3795L18.2373 29.8034C18.5656 30.1591 18.9584 30.4283 19.4124 30.6099L19.6445 30.0296ZM18.6966 29.3795C18.465 29.1287 18.3351 28.7827 18.3351 28.3078H17.7101C17.7101 28.9027 17.8764 29.4125 18.2373 29.8034L18.6966 29.3795ZM18.3351 28.3078C18.3351 27.8969 18.4422 27.5329 18.6546 27.2071L18.1311 26.8657C17.8499 27.297 17.7101 27.7806 17.7101 28.3078H18.3351ZM18.6563 27.2046C18.8667 26.875 19.1795 26.6072 19.611 26.4063L19.3472 25.8397C18.8242 26.0832 18.4128 26.4244 18.1295 26.8683L18.6563 27.2046ZM19.6131 26.4054C20.0474 26.1992 20.5796 26.0899 21.2195 26.0899V25.4649C20.5099 25.4649 19.8818 25.586 19.3451 25.8407L19.6131 26.4054ZM21.2195 26.0899C22.0934 26.0899 22.8746 26.221 23.5672 26.4778L23.7844 25.8918C23.0123 25.6054 22.1559 25.4649 21.2195 25.4649V26.0899ZM23.5707 26.479C23.6384 26.5032 23.666 26.5306 23.679 26.5491C23.6922 26.5679 23.7089 26.6043 23.7089 26.6785H24.3339C24.3339 26.5058 24.2931 26.3365 24.191 26.1907C24.0888 26.0447 23.9436 25.9486 23.7809 25.8905L23.5707 26.479ZM23.7089 26.6785C23.7089 26.7313 23.6932 26.7801 23.6471 26.8346L24.1242 27.2383C24.2591 27.0788 24.3339 26.889 24.3339 26.6785H23.7089ZM23.6471 26.8346C23.6197 26.867 23.5899 26.8844 23.5277 26.8844V27.5094C23.7617 27.5094 23.9705 27.4199 24.1242 27.2383L23.6471 26.8346ZM23.5277 26.8844C23.536 26.8844 23.5337 26.8856 23.5171 26.8814C23.5013 26.8775 23.478 26.8701 23.4462 26.8574L23.2141 27.4377C23.3087 27.4755 23.4186 27.5094 23.5277 27.5094V26.8844ZM23.4324 26.8522C22.7575 26.6186 22.0605 26.5018 21.3429 26.5018V27.1268C21.9913 27.1268 22.6192 27.2321 23.228 27.4428L23.4324 26.8522ZM21.3429 26.5018C20.6556 26.5018 20.0642 26.632 19.5899 26.9166L19.9114 27.4525C20.26 27.2434 20.7301 27.1268 21.3429 27.1268V26.5018ZM19.5875 26.9181C19.0987 27.2173 18.8333 27.6601 18.8333 28.2214H19.4583C19.4583 27.894 19.5962 27.6455 19.9138 27.4511L19.5875 26.9181ZM18.8333 28.2214C18.8333 28.5908 18.9544 28.9162 19.2088 29.1706L19.6507 28.7287C19.5265 28.6045 19.4583 28.4445 19.4583 28.2214H18.8333ZM19.2186 29.18C19.4499 29.392 19.7288 29.5556 20.0492 29.6746L20.2668 29.0887C20.0111 28.9938 19.8046 28.8693 19.6409 28.7193L19.2186 29.18ZM20.0592 29.6781C20.369 29.7814 20.779 29.8909 21.2854 30.0072L21.4252 29.398C20.9276 29.2838 20.5394 29.1794 20.2568 29.0852L20.0592 29.6781ZM21.2822 30.0064C21.9251 30.161 22.4319 30.3134 22.8078 30.4622L23.0379 29.8811C22.6238 29.7172 22.0856 29.5568 21.4283 29.3988L21.2822 30.0064ZM22.8099 30.463C23.1647 30.6006 23.4632 30.8128 23.7093 31.1023L24.1854 30.6975C23.872 30.3287 23.4874 30.0554 23.0358 29.8803L22.8099 30.463ZM23.7122 31.1057C23.9377 31.3634 24.0669 31.7273 24.0669 32.2329H24.6918C24.6918 31.6194 24.533 31.0947 24.1825 30.6941L23.7122 31.1057ZM24.0669 32.2329C24.0669 32.6298 23.9549 32.9819 23.7297 33.2985L24.239 33.6607C24.5405 33.2367 24.6918 32.7577 24.6918 32.2329H24.0669ZM23.7317 33.2958C23.5063 33.6057 23.184 33.8572 22.7498 34.0443L22.9972 34.6183C23.5175 34.394 23.9358 34.0777 24.2371 33.6634L23.7317 33.2958ZM22.7498 34.0443C22.3187 34.2302 21.8108 34.3274 21.2195 34.3274V34.9524C21.8789 34.9524 22.4737 34.8439 22.9972 34.6183L22.7498 34.0443ZM27.1345 34.356L27.3555 34.135L27.1345 34.356ZM27.1345 26.0737L27.3556 26.2948L27.3635 26.2863L27.1345 26.0737ZM32.3927 26.5304L32.2232 26.7929L32.2271 26.7954L32.3927 26.5304ZM33.8739 28.135L33.5944 28.2747L33.8739 28.135ZM33.8739 32.2823L33.5944 32.1426L33.8739 32.2823ZM32.3927 33.8993L32.5598 34.1633L32.5607 34.1628L32.3927 33.8993ZM31.6521 33.0599L31.799 33.3358L31.8024 33.3339L31.6521 33.0599ZM32.8371 31.912L33.1078 32.0681L33.109 32.0661L32.8371 31.912ZM32.8371 28.5176L32.5652 28.6717L32.5663 28.6737L32.8371 28.5176ZM31.6521 27.3697L31.5019 27.6437L31.5053 27.6456L31.6521 27.3697ZM28.0973 26.95V26.6376H27.7848V26.95H28.0973ZM28.0973 33.4673H27.7848V33.7798H28.0973V33.4673ZM27.5295 34.204C27.4529 34.204 27.4017 34.1812 27.3555 34.135L26.9135 34.5769C27.0813 34.7447 27.2934 34.8289 27.5295 34.8289V34.204ZM27.3555 34.135C27.3093 34.0888 27.2865 34.0376 27.2865 33.961H26.6616C26.6616 34.1971 26.7458 34.4092 26.9135 34.5769L27.3555 34.135ZM27.2865 33.961V26.4687H26.6616V33.961H27.2865ZM27.2865 26.4687C27.2865 26.3921 27.3093 26.3408 27.3555 26.2946L26.9135 25.8527C26.7458 26.0204 26.6616 26.2325 26.6616 26.4687H27.2865ZM27.3635 26.2863C27.4117 26.2344 27.4606 26.2134 27.5295 26.2134V25.5884C27.2857 25.5884 27.0712 25.6826 26.9055 25.861L27.3635 26.2863ZM27.5295 26.2134H30.0105V25.5884H27.5295V26.2134ZM30.0105 26.2134C30.9013 26.2134 31.6335 26.4122 32.2232 26.7929L32.5622 26.2678C31.8518 25.8092 30.9958 25.5884 30.0105 25.5884V26.2134ZM32.2271 26.7954C32.8394 27.1781 33.2924 27.6707 33.5944 28.2747L34.1534 27.9952C33.7971 27.2826 33.2626 26.7056 32.5583 26.2654L32.2271 26.7954ZM33.5944 28.2747C33.9022 28.8904 34.0552 29.5339 34.0552 30.2087H34.6801C34.6801 29.4352 34.5039 28.6962 34.1534 27.9952L33.5944 28.2747ZM34.0552 30.2087C34.0552 30.8835 33.9022 31.5269 33.5944 32.1426L34.1534 32.4221C34.5039 31.7211 34.6801 30.9821 34.6801 30.2087H34.0552ZM33.5944 32.1426C33.2921 32.7472 32.8384 33.2446 32.2248 33.6358L32.5607 34.1628C33.2637 33.7146 33.7974 33.1341 34.1534 32.4221L33.5944 32.1426ZM32.2256 33.6352C31.6355 34.0087 30.9024 34.204 30.0105 34.204V34.8289C30.9947 34.8289 31.8498 34.6127 32.5598 34.1633L32.2256 33.6352ZM30.0105 34.204H27.5295V34.8289H30.0105V34.204ZM29.8747 33.7798C30.5921 33.7798 31.2365 33.6351 31.799 33.3358L31.5053 32.7841C31.0474 33.0279 30.5069 33.1548 29.8747 33.1548V33.7798ZM31.8024 33.3339C32.3608 33.0277 32.7983 32.6051 33.1078 32.068L32.5663 31.756C32.3163 32.1899 31.9639 32.5326 31.5019 32.786L31.8024 33.3339ZM33.109 32.0661C33.4187 31.5195 33.5692 30.8973 33.5692 30.2087H32.9443C32.9443 30.8037 32.815 31.3171 32.5652 31.758L33.109 32.0661ZM33.5692 30.2087C33.5692 29.5201 33.4187 28.9011 33.1078 28.3616L32.5663 28.6737C32.815 29.1052 32.9443 29.6135 32.9443 30.2087H33.5692ZM33.109 28.3636C32.7993 27.8172 32.3605 27.3928 31.799 27.0939L31.5053 27.6456C31.9641 27.8898 32.3153 28.2306 32.5652 28.6717L33.109 28.3636ZM31.8024 27.0957C31.2393 26.7869 30.5935 26.6376 29.8747 26.6376V27.2625C30.5054 27.2625 31.0446 27.3929 31.5019 27.6437L31.8024 27.0957ZM29.8747 26.6376H28.0973V27.2625H29.8747V26.6376ZM27.7848 26.95V33.4673H28.4098V26.95H27.7848ZM28.0973 33.7798H29.8747V33.1548H28.0973V33.7798Z" fill="white"/>
<g filter="url(#filter0_d_1628_44625)">
<path d="M42.6804 16.798H30.1809C28.2825 16.798 26.7435 15.259 26.7435 13.3606V0.861115L42.6804 16.798Z" fill="url(#paint2_linear_1628_44625)"/>
</g>
</g>
<defs>
<filter id="filter0_d_1628_44625" x="23.1499" y="-2.88873" width="23.7491" height="23.749" filterUnits="userSpaceOnUse" color-interpolation-filters="sRGB">
<feFlood flood-opacity="0" result="BackgroundImageFix"/>
<feColorMatrix in="SourceAlpha" type="matrix" values="0 0 0 0 0 0 0 0 0 0 0 0 0 0 0 0 0 0 127 0" result="hardAlpha"/>
<feOffset dx="0.312487" dy="0.156244"/>
<feGaussianBlur stdDeviation="1.95305"/>
<feColorMatrix type="matrix" values="0 0 0 0 0 0 0 0 0 0 0 0 0 0 0 0 0 0 0.33 0"/>
<feBlend mode="normal" in2="BackgroundImageFix" result="effect1_dropShadow_1628_44625"/>
<feBlend mode="normal" in="SourceGraphic" in2="effect1_dropShadow_1628_44625" result="shape"/>
</filter>
<linearGradient id="paint0_linear_1628_44625" x1="21.4331" y1="0.861145" x2="21.4331" y2="48.9842" gradientUnits="userSpaceOnUse">
<stop stop-color="#FF7979"/>
<stop offset="1" stop-color="#E85555"/>
</linearGradient>
<linearGradient id="paint1_linear_1628_44625" x1="21.4306" y1="0.861115" x2="21.4306" y2="48.9841" gradientUnits="userSpaceOnUse">
<stop stop-color="#9391FC"/>
<stop offset="1" stop-color="#5B59EF"/>
</linearGradient>
<linearGradient id="paint2_linear_1628_44625" x1="34.712" y1="0.861115" x2="34.712" y2="16.798" gradientUnits="userSpaceOnUse">
<stop stop-color="#7371F1"/>
<stop offset="1" stop-color="#504DE8"/>
</linearGradient>
</defs>
</svg>
