<svg width="13" height="12" viewBox="0 0 13 12" fill="none" xmlns="http://www.w3.org/2000/svg">
<g clip-path="url(#clip0_1606_92791)">
<path d="M6.5 12C5.31331 12 4.15328 11.6481 3.16658 10.9888C2.17989 10.3295 1.41085 9.39245 0.956726 8.29609C0.5026 7.19974 0.38378 5.99334 0.615291 4.82945C0.846802 3.66557 1.41825 2.59647 2.25736 1.75735C3.09648 0.918237 4.16558 0.346793 5.32946 0.115281C6.49335 -0.11623 7.69975 0.00259018 8.7961 0.456716C9.89246 0.910842 10.8295 1.67988 11.4888 2.66657C12.1481 3.65327 12.5 4.81331 12.5 5.99999C12.4983 7.59076 11.8656 9.11589 10.7407 10.2407C9.6159 11.3656 8.09077 11.9983 6.5 12ZM6.5 0.999993C5.5111 0.999993 4.5444 1.29324 3.72215 1.84265C2.89991 2.39205 2.25904 3.17295 1.88061 4.08658C1.50217 5.00021 1.40315 6.00554 1.59608 6.97544C1.789 7.94535 2.26521 8.83626 2.96447 9.53553C3.66373 10.2348 4.55465 10.711 5.52455 10.9039C6.49446 11.0968 7.49979 10.9978 8.41342 10.6194C9.32705 10.241 10.1079 9.60009 10.6574 8.77784C11.2068 7.9556 11.5 6.9889 11.5 5.99999C11.4985 4.67436 10.9713 3.40343 10.0339 2.46607C9.09656 1.5287 7.82564 1.00145 6.5 0.999993Z" fill="#9A9AAF"/>
<path d="M4.47349 7.799L3.94299 6.951L5.99999 5.6625V3H6.99999V6.2165L4.47349 7.799Z" fill="#9A9AAF"/>
</g>
<defs>
<clipPath id="clip0_1606_92791">
<rect width="12" height="12" fill="white" transform="translate(0.5 -3.8147e-06)"/>
</clipPath>
</defs>
</svg>
