<svg width="17" height="16" viewBox="0 0 17 16" fill="none" xmlns="http://www.w3.org/2000/svg">
<path d="M8.29742 0.449144C8.4479 -0.00982761 9.09718 -0.00982714 9.24765 0.449144L10.7758 5.11006C10.8431 5.31543 11.0348 5.45429 11.2509 5.45429H16.1864C16.6718 5.45429 16.8725 6.07639 16.4785 6.36005L12.4934 9.22944C12.3166 9.35676 12.2426 9.58392 12.3105 9.79097L13.8345 14.4393C13.9852 14.8992 13.4599 15.2836 13.0672 15.0008L9.0647 12.1189C8.89019 11.9933 8.65489 11.9933 8.48038 12.1189L4.47789 15.0008C4.08515 15.2836 3.55984 14.8992 3.71061 14.4393L5.23461 9.79097C5.3025 9.58392 5.22848 9.35676 5.05166 9.22944L1.06655 6.36005C0.672593 6.07639 0.873256 5.45429 1.35871 5.45429H6.29418C6.5103 5.45429 6.70196 5.31543 6.7693 5.11006L8.29742 0.449144Z" fill="#FEA73E"/>
</svg>
