<svg width="42" height="42" viewBox="0 0 42 42" fill="none" xmlns="http://www.w3.org/2000/svg">
<rect width="42" height="42" rx="10" fill="#313442"/>
<rect x="13" y="13" width="2.52632" height="2.52632" fill="#C4C4C4"/>
<rect x="13" y="16.3684" width="2.52632" height="2.52632" fill="#C4C4C4"/>
<rect x="13" y="19.7368" width="2.52632" height="2.52632" fill="#C4C4C4"/>
<rect x="13" y="23.1052" width="2.52632" height="2.52632" fill="#C4C4C4"/>
<rect x="16.3682" y="13" width="2.52632" height="2.52632" fill="#C4C4C4"/>
<rect x="16.3682" y="16.3684" width="2.52632" height="2.52632" fill="#C4C4C4"/>
<rect x="16.3682" y="19.7368" width="2.52632" height="2.52632" fill="#C4C4C4"/>
<rect x="16.3682" y="23.1052" width="2.52632" height="2.52632" fill="#C4C4C4"/>
<rect x="16.3682" y="26.4736" width="2.52632" height="2.52632" fill="#C4C4C4"/>
<rect x="19.7368" y="13" width="2.52632" height="2.52632" fill="#C4C4C4"/>
<rect x="19.7368" y="16.3684" width="2.52632" height="2.52632" fill="#C4C4C4"/>
<rect x="19.7368" y="19.7368" width="2.52632" height="2.52632" fill="#C4C4C4"/>
<rect x="19.7368" y="23.1052" width="2.52632" height="2.52632" fill="#C4C4C4"/>
<rect x="19.7368" y="26.4736" width="2.52632" height="2.52632" fill="#C4C4C4"/>
<rect x="19.7368" y="29.842" width="2.52632" height="2.52632" fill="#C4C4C4"/>
<rect x="23.1055" y="13" width="2.52632" height="2.52632" fill="#C4C4C4"/>
<rect x="23.1055" y="16.3684" width="2.52632" height="2.52632" fill="#C4C4C4"/>
<rect x="23.1055" y="19.7368" width="2.52632" height="2.52632" fill="#C4C4C4"/>
<rect x="23.1055" y="23.1052" width="2.52632" height="2.52632" fill="#C4C4C4"/>
<rect x="23.1055" y="26.4736" width="2.52632" height="2.52632" fill="#C4C4C4"/>
<rect x="26.4736" y="13" width="2.52632" height="2.52632" fill="#C4C4C4"/>
<rect x="26.4736" y="16.3684" width="2.52632" height="2.52632" fill="#C4C4C4"/>
<rect x="26.4736" y="19.7368" width="2.52632" height="2.52632" fill="#C4C4C4"/>
<rect x="26.4736" y="23.1052" width="2.52632" height="2.52632" fill="#C4C4C4"/>
</svg>
