<svg width="12" height="12" viewBox="0 0 12 12" fill="none" xmlns="http://www.w3.org/2000/svg">
<path fill-rule="evenodd" clip-rule="evenodd" d="M5.99995 10.3036L3.06917 11.9137C2.71839 12.1064 2.28453 11.9655 2.10012 11.5989C2.02669 11.453 2.00135 11.2858 2.02802 11.1232L2.58775 7.71286L0.216695 5.29762C-0.0670881 5.00855 -0.0728948 4.5338 0.203725 4.23725C0.313877 4.11915 0.458209 4.0423 0.614376 4.01859L3.8911 3.52102L5.35649 0.418164C5.53188 0.0467939 5.96215 -0.105681 6.31752 0.0776005C6.45903 0.150584 6.57358 0.270282 6.64342 0.418164L8.10881 3.52102L11.3855 4.01859C11.7777 4.07814 12.0494 4.45865 11.9924 4.86848C11.9698 5.03168 11.8962 5.18251 11.7832 5.29762L9.41215 7.71286L9.97188 11.1232C10.0389 11.5314 9.77655 11.919 9.38595 11.9891C9.23042 12.0169 9.07042 11.9905 8.93074 11.9137L5.99995 10.3036Z" fill="white"/>
<path fill-rule="evenodd" clip-rule="evenodd" d="M5.99995 10.3036L3.06917 11.9137C2.71839 12.1064 2.28453 11.9655 2.10012 11.5989C2.02669 11.453 2.00135 11.2858 2.02802 11.1232L2.58775 7.71286L0.216695 5.29762C-0.0670881 5.00855 -0.0728948 4.5338 0.203725 4.23725C0.313877 4.11915 0.458209 4.0423 0.614376 4.01859L3.8911 3.52102L5.35649 0.418164C5.53188 0.0467939 5.96215 -0.105681 6.31752 0.0776005C6.45903 0.150584 6.57358 0.270282 6.64342 0.418164L8.10881 3.52102L11.3855 4.01859C11.7777 4.07814 12.0494 4.45865 11.9924 4.86848C11.9698 5.03168 11.8962 5.18251 11.7832 5.29762L9.41215 7.71286L9.97188 11.1232C10.0389 11.5314 9.77655 11.919 9.38595 11.9891C9.23042 12.0169 9.07042 11.9905 8.93074 11.9137L5.99995 10.3036Z" fill="#4E5D78" fill-opacity="0.2"/>
</svg>
