<svg width="16" height="16" viewBox="0 0 16 16" fill="none" xmlns="http://www.w3.org/2000/svg">
<path d="M12 4.77333C11.96 4.76666 11.9133 4.76666 11.8733 4.77333C10.9533 4.74 10.22 3.98666 10.22 3.05333C10.22 2.1 10.9866 1.33333 11.94 1.33333C12.8933 1.33333 13.66 2.10666 13.66 3.05333C13.6533 3.98666 12.92 4.74 12 4.77333Z" stroke="#7E7E8F" stroke-width="1.5" stroke-linecap="round" stroke-linejoin="round"/>
<path d="M11.3132 9.62666C12.2265 9.78 13.2332 9.61999 13.9399 9.14666C14.8799 8.51999 14.8799 7.49333 13.9399 6.86666C13.2266 6.39333 12.2065 6.23333 11.2932 6.39333" stroke="#7E7E8F" stroke-width="1.5" stroke-linecap="round" stroke-linejoin="round"/>
<path d="M3.98007 4.77333C4.02007 4.76666 4.06674 4.76666 4.10674 4.77333C5.02674 4.74 5.76007 3.98666 5.76007 3.05333C5.76007 2.1 4.9934 1.33333 4.04007 1.33333C3.08674 1.33333 2.32007 2.10666 2.32007 3.05333C2.32674 3.98666 3.06007 4.74 3.98007 4.77333Z" stroke="#7E7E8F" stroke-width="1.5" stroke-linecap="round" stroke-linejoin="round"/>
<path d="M4.66663 9.62666C3.75329 9.78 2.74663 9.61999 2.03996 9.14666C1.09996 8.51999 1.09996 7.49333 2.03996 6.86666C2.75329 6.39333 3.77329 6.23333 4.68663 6.39333" stroke="#7E7E8F" stroke-width="1.5" stroke-linecap="round" stroke-linejoin="round"/>
<path d="M7.99997 9.75334C7.95997 9.74668 7.9133 9.74668 7.8733 9.75334C6.9533 9.72001 6.21997 8.96667 6.21997 8.03334C6.21997 7.08001 6.98664 6.31334 7.93997 6.31334C8.8933 6.31334 9.65997 7.08667 9.65997 8.03334C9.6533 8.96667 8.91997 9.72668 7.99997 9.75334Z" stroke="#7E7E8F" stroke-width="1.5" stroke-linecap="round" stroke-linejoin="round"/>
<path d="M6.05998 11.8533C5.11998 12.48 5.11998 13.5067 6.05998 14.1333C7.12665 14.8467 8.87331 14.8467 9.93998 14.1333C10.88 13.5067 10.88 12.48 9.93998 11.8533C8.87998 11.1467 7.12665 11.1467 6.05998 11.8533Z" stroke="#7E7E8F" stroke-width="1.5" stroke-linecap="round" stroke-linejoin="round"/>
</svg>
