<svg width="17" height="16" viewBox="0 0 17 16" fill="none" xmlns="http://www.w3.org/2000/svg">
<path d="M6.16671 12.6666H5.83337C3.16671 12.6666 1.83337 12 1.83337 8.66665V5.33331C1.83337 2.66665 3.16671 1.33331 5.83337 1.33331H11.1667C13.8334 1.33331 15.1667 2.66665 15.1667 5.33331V8.66665C15.1667 11.3333 13.8334 12.6666 11.1667 12.6666H10.8334C10.6267 12.6666 10.4267 12.7666 10.3 12.9333L9.30004 14.2666C8.86004 14.8533 8.14004 14.8533 7.70004 14.2666L6.70004 12.9333C6.59337 12.7866 6.34671 12.6666 6.16671 12.6666Z" stroke="#7E7E8F" stroke-miterlimit="10" stroke-linecap="round" stroke-linejoin="round"/>
<path d="M11.1643 7.33333H11.1703" stroke="#7E7E8F" stroke-width="1.33333" stroke-linecap="round" stroke-linejoin="round"/>
<path d="M8.49703 7.33333H8.50302" stroke="#7E7E8F" stroke-width="1.33333" stroke-linecap="round" stroke-linejoin="round"/>
<path d="M5.82967 7.33333H5.83566" stroke="#7E7E8F" stroke-width="1.33333" stroke-linecap="round" stroke-linejoin="round"/>
</svg>
