<svg width="43" height="49" viewBox="0 0 43 49" fill="none" xmlns="http://www.w3.org/2000/svg">
<mask id="mask0_1628_44703" style="mask-type:alpha" maskUnits="userSpaceOnUse" x="0" y="0" width="43" height="49">
<path d="M39.2435 48.3533H3.61998C1.72158 48.3533 0.182617 46.8144 0.182617 44.9159V3.66765C0.182617 1.76924 1.72158 0.230286 3.61998 0.230286H26.744L42.6809 16.1671V44.9159C42.6809 46.8144 41.1419 48.3533 39.2435 48.3533Z" fill="url(#paint0_linear_1628_44703)"/>
</mask>
<g mask="url(#mask0_1628_44703)">
<path d="M39.2428 48.3533H3.61924C1.72084 48.3533 0.181885 46.8144 0.181885 44.9159V3.66765C0.181885 1.76924 1.72084 0.230286 3.61924 0.230286H26.7433L42.6801 16.1671V44.9159C42.6801 46.8144 41.1412 48.3533 39.2428 48.3533Z" fill="url(#paint1_linear_1628_44703)"/>
<g opacity="0.82" filter="url(#filter0_f_1628_44703)">
<rect x="7.68103" y="23.5106" width="27.8114" height="13.1245" fill="#0F7D56" fill-opacity="0.27" style="mix-blend-mode:darken"/>
</g>
<path d="M10.1492 33.9473C10.0093 33.9473 9.88584 33.898 9.77887 33.7992C9.68012 33.6922 9.63075 33.5688 9.63075 33.4289C9.63075 33.2973 9.66778 33.1821 9.74184 33.0833L12.5931 29.5778L9.76652 26.097C9.69247 25.9983 9.65544 25.8831 9.65544 25.7514C9.65544 25.5951 9.70481 25.4675 9.80355 25.3688C9.91053 25.2618 10.0422 25.2083 10.1985 25.2083C10.2891 25.2083 10.3755 25.2289 10.4577 25.27C10.54 25.3112 10.6059 25.3647 10.6552 25.4305L13.2597 28.7385L15.8641 25.4058C15.9546 25.2741 16.0904 25.2083 16.2714 25.2083C16.4195 25.2083 16.5471 25.2618 16.6541 25.3688C16.761 25.4675 16.8145 25.591 16.8145 25.7391C16.8145 25.8543 16.7816 25.9571 16.7158 26.0477L13.8645 29.5655L16.7158 33.071C16.7898 33.1533 16.8269 33.2602 16.8269 33.3919C16.8269 33.5482 16.7734 33.6799 16.6664 33.7869C16.5677 33.8938 16.436 33.9473 16.2714 33.9473C16.0904 33.9473 15.9423 33.8692 15.8271 33.7128L13.1856 30.3925L10.5812 33.7252C10.4577 33.8733 10.3137 33.9473 10.1492 33.9473ZM20.2077 33.8856C19.9937 33.8856 19.8086 33.8116 19.6522 33.6634C19.5041 33.5071 19.43 33.3219 19.43 33.108V25.7761C19.43 25.6198 19.4835 25.4881 19.5905 25.3811C19.6975 25.2659 19.8291 25.2083 19.9855 25.2083C20.1418 25.2083 20.2735 25.2659 20.3805 25.3811C20.4957 25.4881 20.5533 25.6198 20.5533 25.7761V32.7624H24.5895C24.7459 32.7624 24.8775 32.82 24.9845 32.9352C25.0997 33.0422 25.1573 33.1738 25.1573 33.3302C25.1573 33.4865 25.0997 33.6182 24.9845 33.7252C24.8775 33.8321 24.7459 33.8856 24.5895 33.8856H20.2077ZM30.1214 34.0091C29.0763 34.0091 28.0971 33.8116 27.1837 33.4166C27.085 33.3754 27.0027 33.3096 26.9368 33.2191C26.871 33.1203 26.8381 33.0175 26.8381 32.9105C26.8381 32.7706 26.8834 32.6513 26.9739 32.5525C27.0726 32.4456 27.1961 32.3921 27.3442 32.3921C27.4265 32.3921 27.5046 32.4085 27.5787 32.4415C28.3357 32.7788 29.1463 32.9475 30.0103 32.9475C31.4504 32.9475 32.1704 32.4744 32.1704 31.5281C32.1704 31.2812 32.0757 31.0755 31.8865 30.9109C31.7055 30.7463 31.4792 30.6188 31.2076 30.5283C30.9361 30.4295 30.5493 30.3143 30.0473 30.1826C29.3808 30.0098 28.8418 29.8453 28.4304 29.6889C28.0189 29.5243 27.6651 29.2816 27.3689 28.9607C27.0726 28.6397 26.9245 28.2118 26.9245 27.677C26.9245 27.2079 27.0479 26.7841 27.2948 26.4056C27.5417 26.0189 27.9037 25.7144 28.381 25.4922C28.8665 25.2618 29.4466 25.1466 30.1214 25.1466C31.0266 25.1466 31.8453 25.2824 32.5777 25.5539C32.8081 25.6362 32.9233 25.8008 32.9233 26.0477C32.9233 26.1793 32.8781 26.2986 32.7875 26.4056C32.697 26.5126 32.5777 26.5661 32.4296 26.5661C32.3802 26.5661 32.3144 26.5496 32.2321 26.5167C31.5902 26.2945 30.9278 26.1834 30.2448 26.1834C29.5948 26.1834 29.064 26.3069 28.6526 26.5537C28.2493 26.8006 28.0477 27.1462 28.0477 27.5906C28.0477 27.8868 28.1424 28.1296 28.3316 28.3188C28.5291 28.4999 28.7719 28.6439 29.0599 28.7508C29.3561 28.8496 29.7552 28.9566 30.2572 29.0718C30.9073 29.2281 31.4298 29.3844 31.8248 29.5408C32.228 29.6971 32.5695 29.9399 32.8493 30.269C33.1373 30.5982 33.2813 31.0426 33.2813 31.6021C33.2813 32.0629 33.1496 32.4785 32.8863 32.8488C32.623 33.2109 32.2527 33.4948 31.7754 33.7005C31.2981 33.9062 30.7468 34.0091 30.1214 34.0091Z" fill="white"/>
<path d="M9.77887 33.7992L9.54925 34.0112L9.55773 34.0204L9.56691 34.0288L9.77887 33.7992ZM9.74184 33.0833L9.49923 32.886L9.49185 32.8958L9.74184 33.0833ZM12.5931 29.5778L12.8355 29.775L12.9958 29.578L12.8357 29.3808L12.5931 29.5778ZM9.76652 26.097L9.51635 26.2847L9.52395 26.294L9.76652 26.097ZM9.80355 25.3688L9.58259 25.1478L9.58259 25.1478L9.80355 25.3688ZM10.4577 25.27L10.5975 24.9905H10.5975L10.4577 25.27ZM10.6552 25.4305L10.4052 25.618L10.4097 25.6238L10.6552 25.4305ZM13.2597 28.7385L13.0141 28.9318L13.2606 29.2448L13.5059 28.9309L13.2597 28.7385ZM15.8641 25.4058L16.1103 25.5982L16.1162 25.5907L16.1216 25.5828L15.8641 25.4058ZM16.6541 25.3688L16.4329 25.5899L16.4421 25.5984L16.6541 25.3688ZM16.7158 26.0477L16.9585 26.2444L16.9637 26.2381L16.9685 26.2315L16.7158 26.0477ZM13.8645 29.5655L13.6217 29.3687L13.462 29.5658L13.6221 29.7627L13.8645 29.5655ZM16.7158 33.071L16.4734 33.2681L16.4783 33.2742L16.4835 33.28L16.7158 33.071ZM16.6664 33.7869L16.4453 33.5657L16.4368 33.5749L16.6664 33.7869ZM15.8271 33.7128L16.0788 33.5273L16.0716 33.5183L15.8271 33.7128ZM13.1856 30.3925L13.4301 30.1979L13.1834 29.8878L12.9394 30.2001L13.1856 30.3925ZM10.5812 33.7252L10.8214 33.9253L10.8274 33.9176L10.5812 33.7252ZM10.1492 33.6348C10.0913 33.6348 10.0427 33.6175 9.99082 33.5696L9.56691 34.0288C9.72902 34.1785 9.92727 34.2598 10.1492 34.2598V33.6348ZM10.0085 33.5873C9.96063 33.5354 9.94324 33.4868 9.94324 33.4289H9.31826C9.31826 33.6508 9.39961 33.8491 9.54925 34.0112L10.0085 33.5873ZM9.94324 33.4289C9.94324 33.3601 9.96112 33.3117 9.99183 33.2708L9.49185 32.8958C9.37443 33.0524 9.31826 33.2344 9.31826 33.4289H9.94324ZM9.98426 33.2805L12.8355 29.775L12.3507 29.3806L9.49942 32.8861L9.98426 33.2805ZM12.8357 29.3808L10.0091 25.9L9.52395 26.294L12.3505 29.7748L12.8357 29.3808ZM10.0165 25.9095C9.98581 25.8686 9.96792 25.8203 9.96792 25.7514H9.34295C9.34295 25.9459 9.39912 26.128 9.51654 26.2845L10.0165 25.9095ZM9.96792 25.7514C9.96792 25.6671 9.99161 25.6226 10.0245 25.5897L9.58259 25.1478C9.418 25.3124 9.34295 25.523 9.34295 25.7514H9.96792ZM10.0245 25.5897C10.0707 25.5435 10.122 25.5208 10.1985 25.5208V24.8958C9.96241 24.8958 9.75033 24.9801 9.58259 25.1478L10.0245 25.5897ZM10.1985 25.5208C10.2397 25.5208 10.2784 25.5297 10.318 25.5495L10.5975 24.9905C10.4726 24.9281 10.3384 24.8958 10.1985 24.8958V25.5208ZM10.318 25.5495C10.3621 25.5716 10.3883 25.5953 10.4052 25.618L10.9052 25.243C10.8235 25.134 10.718 25.0508 10.5975 24.9905L10.318 25.5495ZM10.4097 25.6238L13.0141 28.9318L13.5052 28.5452L10.9008 25.2372L10.4097 25.6238ZM13.5059 28.9309L16.1103 25.5982L15.6179 25.2134L13.0134 28.5461L13.5059 28.9309ZM16.1216 25.5828C16.1453 25.5483 16.1774 25.5208 16.2714 25.5208V24.8958C16.0034 24.8958 15.7639 25 15.6066 25.2288L16.1216 25.5828ZM16.2714 25.5208C16.3347 25.5208 16.3833 25.54 16.4331 25.5897L16.875 25.1478C16.7108 24.9836 16.5044 24.8958 16.2714 24.8958V25.5208ZM16.4421 25.5984C16.4837 25.6368 16.502 25.6764 16.502 25.7391H17.127C17.127 25.5055 17.0383 25.2982 16.866 25.1392L16.4421 25.5984ZM16.502 25.7391C16.502 25.7903 16.4888 25.8284 16.4631 25.8639L16.9685 26.2315C17.0744 26.0859 17.127 25.9183 17.127 25.7391H16.502ZM16.473 25.8509L13.6217 29.3687L14.1072 29.7622L16.9585 26.2444L16.473 25.8509ZM13.6221 29.7627L16.4734 33.2681L16.9582 32.8738L14.1069 29.3683L13.6221 29.7627ZM16.4835 33.28C16.4964 33.2944 16.5144 33.322 16.5144 33.3919H17.1393C17.1393 33.1985 17.0832 33.0121 16.948 32.8619L16.4835 33.28ZM16.5144 33.3919C16.5144 33.4685 16.4917 33.5197 16.4454 33.5659L16.8874 34.0078C17.0551 33.8401 17.1393 33.628 17.1393 33.3919H16.5144ZM16.4368 33.5749C16.4052 33.6091 16.3613 33.6348 16.2714 33.6348V34.2598C16.5106 34.2598 16.7301 34.1786 16.896 33.9988L16.4368 33.5749ZM16.2714 33.6348C16.1978 33.6348 16.1399 33.6106 16.0786 33.5274L15.5755 33.8982C15.7446 34.1277 15.983 34.2598 16.2714 34.2598V33.6348ZM16.0716 33.5183L13.4301 30.1979L12.9411 30.587L15.5825 33.9074L16.0716 33.5183ZM12.9394 30.2001L10.335 33.5327L10.8274 33.9176L13.4318 30.5849L12.9394 30.2001ZM10.3411 33.5251C10.2657 33.6156 10.2047 33.6348 10.1492 33.6348V34.2598C10.4228 34.2598 10.6498 34.131 10.8212 33.9252L10.3411 33.5251ZM19.6522 33.6634L19.4254 33.8784L19.4312 33.8845L19.4373 33.8903L19.6522 33.6634ZM19.5905 25.3811L19.8116 25.6022L19.8195 25.5938L19.5905 25.3811ZM20.3805 25.3811L20.1515 25.5938L20.1593 25.6022L20.1678 25.6101L20.3805 25.3811ZM20.5533 32.7624H20.2408V33.0749H20.5533V32.7624ZM24.9845 32.9352L24.7555 33.1478L24.7634 33.1563L24.7719 33.1642L24.9845 32.9352ZM24.9845 33.7252L24.7717 33.496L24.7635 33.5042L24.9845 33.7252ZM20.2077 33.5731C20.0743 33.5731 19.9659 33.5301 19.8671 33.4366L19.4373 33.8903C19.6513 34.093 19.9132 34.1981 20.2077 34.1981V33.5731ZM19.8791 33.4485C19.7855 33.3498 19.7425 33.2414 19.7425 33.108H19.1175C19.1175 33.4025 19.2227 33.6644 19.4254 33.8784L19.8791 33.4485ZM19.7425 33.108V25.7761H19.1175V33.108H19.7425ZM19.7425 25.7761C19.7425 25.6995 19.7652 25.6483 19.8115 25.6021L19.3695 25.1602C19.2018 25.3279 19.1175 25.54 19.1175 25.7761H19.7425ZM19.8195 25.5938C19.8677 25.5418 19.9166 25.5208 19.9855 25.5208V24.8958C19.7417 24.8958 19.5272 24.99 19.3615 25.1685L19.8195 25.5938ZM19.9855 25.5208C20.0544 25.5208 20.1033 25.5418 20.1515 25.5938L20.6095 25.1685C20.4437 24.99 20.2293 24.8958 19.9855 24.8958V25.5208ZM20.1678 25.6101C20.2198 25.6583 20.2408 25.7072 20.2408 25.7761H20.8658C20.8658 25.5323 20.7716 25.3179 20.5931 25.1521L20.1678 25.6101ZM20.2408 25.7761V32.7624H20.8658V25.7761H20.2408ZM20.5533 33.0749H24.5895V32.4499H20.5533V33.0749ZM24.5895 33.0749C24.6584 33.0749 24.7073 33.0959 24.7555 33.1478L25.2135 32.7226C25.0478 32.5441 24.8333 32.4499 24.5895 32.4499V33.0749ZM24.7719 33.1642C24.8238 33.2124 24.8448 33.2613 24.8448 33.3302H25.4698C25.4698 33.0864 25.3756 32.8719 25.1971 32.7062L24.7719 33.1642ZM24.8448 33.3302C24.8448 33.3991 24.8238 33.4479 24.7719 33.4962L25.1971 33.9541C25.3756 33.7884 25.4698 33.574 25.4698 33.3302H24.8448ZM24.7635 33.5042C24.7173 33.5504 24.6661 33.5731 24.5895 33.5731V34.1981C24.8256 34.1981 25.0377 34.1139 25.2055 33.9461L24.7635 33.5042ZM24.5895 33.5731H20.2077V34.1981H24.5895V33.5731ZM27.1837 33.4166L27.3078 33.1297L27.3039 33.1281L27.1837 33.4166ZM26.9368 33.2191L26.6766 33.3926L26.6841 33.4029L26.9368 33.2191ZM26.9739 32.5525L26.7443 32.3406L26.7435 32.3414L26.9739 32.5525ZM27.5787 32.4415L27.7059 32.156L27.7056 32.1559L27.5787 32.4415ZM31.8865 30.9109L31.6762 31.1422L31.6814 31.1467L31.8865 30.9109ZM31.2076 30.5283L31.1008 30.822L31.1088 30.8247L31.2076 30.5283ZM30.0473 30.1826L30.1266 29.8804L30.1258 29.8802L30.0473 30.1826ZM28.4304 29.6889L28.3143 29.9791L28.3194 29.981L28.4304 29.6889ZM27.3689 28.9607L27.1392 29.1726L27.3689 28.9607ZM27.2948 26.4056L27.5566 26.5763L27.5582 26.5737L27.2948 26.4056ZM28.381 25.4922L28.5129 25.7755L28.515 25.7745L28.381 25.4922ZM32.5777 25.5539L32.4691 25.8469L32.4726 25.8482L32.5777 25.5539ZM32.7875 26.4056L33.0261 26.6075L33.0261 26.6075L32.7875 26.4056ZM32.2321 26.5167L32.3482 26.2266L32.3413 26.2238L32.3343 26.2214L32.2321 26.5167ZM28.6526 26.5537L28.4918 26.2858L28.4894 26.2872L28.6526 26.5537ZM28.3316 28.3188L28.1105 28.54L28.1205 28.5492L28.3316 28.3188ZM29.0599 28.7508L28.951 29.0439L28.9611 29.0473L29.0599 28.7508ZM30.2572 29.0718L30.3303 28.7679L30.3271 28.7672L30.2572 29.0718ZM31.8248 29.5408L31.7098 29.8314L31.7118 29.8321L31.8248 29.5408ZM32.8493 30.269L32.6111 30.4715L32.6141 30.4748L32.8493 30.269ZM32.8863 32.8488L33.139 33.0326L33.141 33.0299L32.8863 32.8488ZM31.7754 33.7005L31.8991 33.9874L31.7754 33.7005ZM30.1214 33.6966C29.1168 33.6966 28.18 33.507 27.3077 33.1298L27.0597 33.7034C28.0142 34.1162 29.0359 34.3215 30.1214 34.3215V33.6966ZM27.3039 33.1281C27.2606 33.1101 27.2233 33.0817 27.1896 33.0353L26.6841 33.4029C26.7821 33.5375 26.9093 33.6408 27.0635 33.705L27.3039 33.1281ZM27.1968 33.0457C27.1614 32.9925 27.1506 32.9491 27.1506 32.9105H26.5256C26.5256 33.0858 26.5807 33.2482 26.6768 33.3924L27.1968 33.0457ZM27.1506 32.9105C27.1506 32.845 27.1691 32.8021 27.2042 32.7637L26.7435 32.3414C26.5977 32.5005 26.5256 32.6962 26.5256 32.9105H27.1506ZM27.2035 32.7645C27.2419 32.7229 27.2815 32.7046 27.3442 32.7046V32.0796C27.1106 32.0796 26.9033 32.1683 26.7443 32.3406L27.2035 32.7645ZM27.3442 32.7046C27.3834 32.7046 27.4183 32.7121 27.4518 32.727L27.7056 32.1559C27.591 32.105 27.4695 32.0796 27.3442 32.0796V32.7046ZM27.4515 32.7269C28.2503 33.0829 29.1044 33.26 30.0103 33.26V32.635C29.1882 32.635 28.4212 32.4748 27.7059 32.156L27.4515 32.7269ZM30.0103 33.26C30.7546 33.26 31.3672 33.1395 31.802 32.8538C32.2597 32.553 32.4829 32.0942 32.4829 31.5281H31.8579C31.8579 31.9083 31.7211 32.1591 31.4588 32.3315C31.1735 32.5189 30.706 32.635 30.0103 32.635V33.26ZM32.4829 31.5281C32.4829 31.1891 32.3478 30.8979 32.0915 30.6751L31.6814 31.1467C31.8037 31.253 31.8579 31.3733 31.8579 31.5281H32.4829ZM32.0967 30.6797C31.8785 30.4813 31.6123 30.3338 31.3064 30.2318L31.1088 30.8247C31.346 30.9038 31.5324 31.0114 31.6763 31.1421L32.0967 30.6797ZM31.3144 30.2346C31.0294 30.1309 30.6318 30.0129 30.1266 29.8804L29.9681 30.4849C30.4668 30.6157 30.8427 30.7281 31.1008 30.8219L31.3144 30.2346ZM30.1258 29.8802C29.4649 29.7088 28.938 29.5475 28.5414 29.3968L28.3194 29.981C28.7457 30.143 29.2968 30.3109 29.9689 30.4851L30.1258 29.8802ZM28.5464 29.3988C28.1775 29.2512 27.8627 29.0349 27.5985 28.7487L27.1392 29.1726C27.4675 29.5282 27.8603 29.7975 28.3143 29.9791L28.5464 29.3988ZM27.5985 28.7487C27.3669 28.4978 27.237 28.1518 27.237 27.677H26.612C26.612 28.2719 26.7784 28.7817 27.1392 29.1726L27.5985 28.7487ZM27.237 27.677C27.237 27.2661 27.3441 26.9021 27.5565 26.5763L27.0331 26.2349C26.7518 26.6662 26.612 27.1497 26.612 27.677H27.237ZM27.5582 26.5737C27.7686 26.2442 28.0814 25.9764 28.5129 25.7755L28.2491 25.2089C27.7261 25.4524 27.3148 25.7935 27.0314 26.2375L27.5582 26.5737ZM28.515 25.7745C28.9493 25.5684 29.4815 25.4591 30.1214 25.4591V24.8341C29.4118 24.8341 28.7837 24.9552 28.247 25.2099L28.515 25.7745ZM30.1214 25.4591C30.9953 25.4591 31.7765 25.5901 32.4691 25.8469L32.6863 25.2609C31.9142 24.9746 31.0579 24.8341 30.1214 24.8341V25.4591ZM32.4726 25.8482C32.5403 25.8724 32.5679 25.8997 32.5809 25.9183C32.5941 25.9371 32.6108 25.9735 32.6108 26.0477H33.2358C33.2358 25.875 33.195 25.7057 33.0929 25.5599C32.9907 25.4139 32.8455 25.3178 32.6828 25.2596L32.4726 25.8482ZM32.6108 26.0477C32.6108 26.1004 32.5951 26.1493 32.549 26.2038L33.0261 26.6075C33.161 26.448 33.2358 26.2582 33.2358 26.0477H32.6108ZM32.549 26.2038C32.5216 26.2361 32.4918 26.2536 32.4296 26.2536V26.8786C32.6636 26.8786 32.8724 26.789 33.0261 26.6075L32.549 26.2038ZM32.4296 26.2536C32.438 26.2536 32.4356 26.2547 32.419 26.2506C32.4032 26.2466 32.3799 26.2393 32.3482 26.2266L32.116 26.8068C32.2106 26.8447 32.3206 26.8786 32.4296 26.8786V26.2536ZM32.3343 26.2214C31.6594 25.9878 30.9624 25.8709 30.2448 25.8709V26.4959C30.8932 26.4959 31.5211 26.6013 32.1299 26.812L32.3343 26.2214ZM30.2448 25.8709C29.5575 25.8709 28.9661 26.0012 28.4918 26.2858L28.8133 26.8217C29.1619 26.6125 29.632 26.4959 30.2448 26.4959V25.8709ZM28.4894 26.2872C28.0006 26.5865 27.7353 27.0293 27.7353 27.5906H28.3602C28.3602 27.2631 28.4981 27.0147 28.8157 26.8202L28.4894 26.2872ZM27.7353 27.5906C27.7353 27.96 27.8563 28.2854 28.1107 28.5398L28.5526 28.0979C28.4285 27.9737 28.3602 27.8136 28.3602 27.5906H27.7353ZM28.1205 28.5492C28.3518 28.7612 28.6307 28.9248 28.9511 29.0438L29.1687 28.4579C28.913 28.3629 28.7065 28.2385 28.5428 28.0885L28.1205 28.5492ZM28.9611 29.0473C29.2709 29.1506 29.6809 29.2601 30.1873 29.3763L30.3271 28.7672C29.8295 28.653 29.4413 28.5486 29.1587 28.4544L28.9611 29.0473ZM30.1841 29.3756C30.827 29.5302 31.3339 29.6826 31.7098 29.8314L31.9398 29.2502C31.5257 29.0863 30.9875 28.926 30.3302 28.7679L30.1841 29.3756ZM31.7118 29.8321C32.0666 29.9697 32.3651 30.1819 32.6112 30.4714L33.0874 30.0667C32.7739 29.6979 32.3894 29.4246 31.9377 29.2494L31.7118 29.8321ZM32.6141 30.4748C32.8396 30.7325 32.9688 31.0965 32.9688 31.6021H33.5938C33.5938 30.9886 33.4349 30.4639 33.0844 30.0633L32.6141 30.4748ZM32.9688 31.6021C32.9688 31.999 32.8568 32.3511 32.6316 32.6677L33.141 33.0299C33.4425 32.6059 33.5938 32.1269 33.5938 31.6021H32.9688ZM32.6336 32.665C32.4082 32.9749 32.0859 33.2264 31.6517 33.4135L31.8991 33.9874C32.4195 33.7631 32.8377 33.4469 33.139 33.0326L32.6336 32.665ZM31.6517 33.4135C31.2206 33.5993 30.7127 33.6966 30.1214 33.6966V34.3215C30.7809 34.3215 31.3757 34.2131 31.8991 33.9874L31.6517 33.4135Z" fill="white"/>
<g filter="url(#filter1_d_1628_44703)">
<path d="M42.6807 16.1671H30.1813C28.2829 16.1671 26.7439 14.6282 26.7439 12.7298V0.230286L42.6807 16.1671Z" fill="url(#paint2_linear_1628_44703)"/>
</g>
</g>
<defs>
<filter id="filter0_f_1628_44703" x="1.58753" y="17.4171" width="39.9984" height="25.3115" filterUnits="userSpaceOnUse" color-interpolation-filters="sRGB">
<feFlood flood-opacity="0" result="BackgroundImageFix"/>
<feBlend mode="normal" in="SourceGraphic" in2="BackgroundImageFix" result="shape"/>
<feGaussianBlur stdDeviation="3.04675" result="effect1_foregroundBlur_1628_44703"/>
</filter>
<filter id="filter1_d_1628_44703" x="23.1503" y="-3.51956" width="23.7491" height="23.749" filterUnits="userSpaceOnUse" color-interpolation-filters="sRGB">
<feFlood flood-opacity="0" result="BackgroundImageFix"/>
<feColorMatrix in="SourceAlpha" type="matrix" values="0 0 0 0 0 0 0 0 0 0 0 0 0 0 0 0 0 0 127 0" result="hardAlpha"/>
<feOffset dx="0.312487" dy="0.156244"/>
<feGaussianBlur stdDeviation="1.95305"/>
<feColorMatrix type="matrix" values="0 0 0 0 0 0 0 0 0 0 0 0 0 0 0 0 0 0 0.33 0"/>
<feBlend mode="normal" in2="BackgroundImageFix" result="effect1_dropShadow_1628_44703"/>
<feBlend mode="normal" in="SourceGraphic" in2="effect1_dropShadow_1628_44703" result="shape"/>
</filter>
<linearGradient id="paint0_linear_1628_44703" x1="21.4317" y1="0.230286" x2="21.4317" y2="48.3533" gradientUnits="userSpaceOnUse">
<stop stop-color="#FF7979"/>
<stop offset="1" stop-color="#E85555"/>
</linearGradient>
<linearGradient id="paint1_linear_1628_44703" x1="21.431" y1="0.230286" x2="21.431" y2="48.3533" gradientUnits="userSpaceOnUse">
<stop offset="0.000265127" stop-color="#83CC70"/>
<stop offset="1" stop-color="#61A850"/>
</linearGradient>
<linearGradient id="paint2_linear_1628_44703" x1="34.7123" y1="0.230286" x2="34.7123" y2="16.1671" gradientUnits="userSpaceOnUse">
<stop stop-color="#3FAF43"/>
<stop offset="1" stop-color="#0E8312"/>
</linearGradient>
</defs>
</svg>
