<svg width="8" height="13" viewBox="0 0 8 13" fill="none" xmlns="http://www.w3.org/2000/svg">
<path d="M4.192 0.719999C5.28 0.719999 6.14933 1.01867 6.8 1.616C7.46133 2.21333 7.792 3.02933 7.792 4.064C7.792 5.14133 7.45067 5.952 6.768 6.496C6.08533 7.04 5.17867 7.312 4.048 7.312L3.984 8.576H2.4L2.32 6.064H2.848C3.88267 6.064 4.672 5.92533 5.216 5.648C5.77067 5.37067 6.048 4.84267 6.048 4.064C6.048 3.49867 5.88267 3.056 5.552 2.736C5.232 2.416 4.784 2.256 4.208 2.256C3.632 2.256 3.17867 2.41067 2.848 2.72C2.51733 3.02933 2.352 3.46133 2.352 4.016H0.64C0.64 3.376 0.784 2.80533 1.072 2.304C1.36 1.80267 1.77067 1.41333 2.304 1.136C2.848 0.858666 3.47733 0.719999 4.192 0.719999ZM3.168 12.112C2.83733 12.112 2.56 12 2.336 11.776C2.112 11.552 2 11.2747 2 10.944C2 10.6133 2.112 10.336 2.336 10.112C2.56 9.888 2.83733 9.776 3.168 9.776C3.488 9.776 3.76 9.888 3.984 10.112C4.208 10.336 4.32 10.6133 4.32 10.944C4.32 11.2747 4.208 11.552 3.984 11.776C3.76 12 3.488 12.112 3.168 12.112Z" fill="white"/>
</svg>
