<svg width="15" height="14" viewBox="0 0 15 14" fill="none" xmlns="http://www.w3.org/2000/svg">
<path d="M6.9165 1.16666H5.74984C2.83317 1.16666 1.6665 2.33333 1.6665 5.25V8.75C1.6665 11.6667 2.83317 12.8333 5.74984 12.8333H9.24984C12.1665 12.8333 13.3332 11.6667 13.3332 8.75V7.58333" stroke="#F1F1F1" stroke-width="1.5" stroke-linecap="round" stroke-linejoin="round"/>
<path d="M9.8566 1.76167L5.25993 6.35834C5.08493 6.53334 4.90993 6.8775 4.87493 7.12834L4.6241 8.88417C4.53076 9.52 4.97993 9.96334 5.61576 9.87584L7.3716 9.625C7.6166 9.59 7.96076 9.415 8.1416 9.24L12.7383 4.64334C13.5316 3.85 13.9049 2.92834 12.7383 1.76167C11.5716 0.595002 10.6499 0.968336 9.8566 1.76167Z" stroke="#F1F1F1" stroke-width="1.5" stroke-miterlimit="10" stroke-linecap="round" stroke-linejoin="round"/>
<path d="M9.19727 2.42083C9.5881 3.815 10.6789 4.90583 12.0789 5.3025" stroke="#F1F1F1" stroke-width="1.5" stroke-miterlimit="10" stroke-linecap="round" stroke-linejoin="round"/>
</svg>
