<svg width="33" height="30" viewBox="0 0 33 30" fill="none" xmlns="http://www.w3.org/2000/svg">
<g clip-path="url(#clip0_5897_1504)">
<path d="M29.9829 23.2186L17.0129 29.8678V24.6904L25.0929 20.6612L29.9829 23.2186ZM30.8709 22.4909V8.58905L26.1269 11.074V20.0114L30.8709 22.4909ZM2.90491 23.2186L15.8729 29.8678V24.6904L7.78791 20.6603L2.90491 23.2186ZM2.01691 22.4909V8.58905L6.76091 11.074V20.0114L2.01691 22.4909ZM2.57291 7.68642L15.8729 0.867798V5.87211L7.28291 10.1569L2.57291 7.68642ZM30.3129 7.68642L17.0129 0.867798V5.87211L25.6029 10.1523L30.3129 7.68642Z" fill="#8ED6FB"/>
<path d="M15.8729 23.7388L7.89893 19.7631V11.8932L15.8729 16.0656V23.7388ZM17.0129 23.7388L24.9879 19.7667V11.8914L17.0129 16.0656V23.7388ZM8.43893 10.9834L16.4429 6.99677L24.4469 10.9843L16.4429 15.1711L8.43893 10.9834Z" fill="#1C78C0"/>
</g>
<defs>
<clipPath id="clip0_5897_1504">
<rect width="32" height="29" fill="white" transform="translate(0.442932 0.867798)"/>
</clipPath>
</defs>
</svg>
