<svg width="20" height="20" viewBox="0 0 20 20" fill="none" xmlns="http://www.w3.org/2000/svg">
<path d="M10 12.9167C11.8417 12.9167 13.3333 11.425 13.3333 9.58334V5.00001C13.3333 3.15834 11.8417 1.66667 10 1.66667C8.15834 1.66667 6.66667 3.15834 6.66667 5.00001V9.58334C6.66667 11.425 8.15834 12.9167 10 12.9167Z" stroke="#C6CBD9" stroke-width="1.0625" stroke-linecap="round" stroke-linejoin="round"/>
<path d="M3.625 8.04167V9.45834C3.625 12.975 6.48333 15.8333 10 15.8333C13.5167 15.8333 16.375 12.975 16.375 9.45834V8.04167" stroke="#C6CBD9" stroke-width="1.0625" stroke-linecap="round" stroke-linejoin="round"/>
<path d="M8.84167 5.35833C9.59167 5.08333 10.4083 5.08333 11.1583 5.35833" stroke="#C6CBD9" stroke-width="1.0625" stroke-linecap="round" stroke-linejoin="round"/>
<path d="M9.33334 7.125C9.77501 7.00833 10.2333 7.00833 10.675 7.125" stroke="#C6CBD9" stroke-width="1.0625" stroke-linecap="round" stroke-linejoin="round"/>
<path d="M10 15.8333V18.3333" stroke="#C6CBD9" stroke-width="1.0625" stroke-linecap="round" stroke-linejoin="round"/>
</svg>
