<svg width="46" height="46" viewBox="0 0 46 46" fill="none" xmlns="http://www.w3.org/2000/svg">
<path d="M45.3067 28.5638C42.2349 40.8854 29.7552 48.384 17.4321 45.3114C5.1143 42.2396 -2.38435 29.7591 0.688816 17.4385C3.75928 5.11564 16.239 -2.38358 28.5582 0.688239C40.8803 3.76005 48.3785 16.2419 45.3064 28.564L45.3066 28.5638H45.3067Z" fill="#F3BA2F"/>
<path fill-rule="evenodd" clip-rule="evenodd" d="M23 14.5973L17.0443 20.553L17.0444 20.5528L13.5792 17.0875L23 7.66666L32.4239 17.0903L28.9586 20.5556L23 14.5973ZM11.1321 19.534L7.66663 23L11.1318 26.4647L14.5973 22.9993L11.1321 19.534ZM17.0443 25.4473L23 31.4027L28.9584 25.4445L32.4256 28.908L32.4239 28.9098L23 38.3333L13.5792 28.9125L13.5743 28.9076L17.0443 25.4473ZM34.8681 19.536L31.4027 23.0015L34.868 26.4667L38.3334 23.0012L34.8681 19.536Z" fill="white"/>
<path d="M26.5147 22.9982H26.5161L23 19.4818L20.4011 22.08L20.1025 22.3787L19.4867 22.9946L19.4818 22.9994L19.4867 23.0044L23 26.5182L26.5164 23.0019L26.5181 22.9999L26.5149 22.9982" fill="white"/>
</svg>
