<svg width="18" height="18" viewBox="0 0 18 18" fill="none" xmlns="http://www.w3.org/2000/svg">
<g clip-path="url(#clip0_1606_94250)">
<path d="M8.99989 18.006L8.47489 17.556C7.75114 16.95 1.43164 11.4923 1.43164 7.50001C1.43164 5.49279 2.22901 3.56777 3.64833 2.14845C5.06765 0.72913 6.99267 -0.0682373 8.99989 -0.0682373C11.0071 -0.0682373 12.9321 0.72913 14.3515 2.14845C15.7708 3.56777 16.5681 5.49279 16.5681 7.50001C16.5681 11.4923 10.2486 16.95 9.52789 17.559L8.99989 18.006ZM8.99989 1.56826C7.42724 1.57005 5.91952 2.19557 4.80748 3.30761C3.69545 4.41964 3.06993 5.92736 3.06814 7.50001C3.06814 10.008 6.95614 14.0145 8.99989 15.8483C11.0436 14.0138 14.9316 10.005 14.9316 7.50001C14.9299 5.92736 14.3043 4.41964 13.1923 3.30761C12.0803 2.19557 10.5725 1.57005 8.99989 1.56826V1.56826Z" fill="#A0ABB8"/>
<path d="M9 10.5C8.40666 10.5 7.82664 10.3241 7.33329 9.99441C6.83994 9.66477 6.45543 9.19623 6.22836 8.64805C6.0013 8.09987 5.94189 7.49667 6.05765 6.91473C6.1734 6.33279 6.45912 5.79824 6.87868 5.37868C7.29824 4.95912 7.83279 4.6734 8.41473 4.55765C8.99667 4.44189 9.59987 4.5013 10.1481 4.72836C10.6962 4.95543 11.1648 5.33994 11.4944 5.83329C11.8241 6.32664 12 6.90666 12 7.5C12 8.29565 11.6839 9.05871 11.1213 9.62132C10.5587 10.1839 9.79565 10.5 9 10.5ZM9 6C8.70333 6 8.41332 6.08797 8.16665 6.2528C7.91997 6.41762 7.72771 6.65189 7.61418 6.92598C7.50065 7.20007 7.47095 7.50167 7.52882 7.79264C7.5867 8.08361 7.72956 8.35088 7.93934 8.56066C8.14912 8.77044 8.4164 8.9133 8.70737 8.97118C8.99834 9.02906 9.29994 8.99935 9.57403 8.88582C9.84812 8.77229 10.0824 8.58003 10.2472 8.33336C10.412 8.08668 10.5 7.79667 10.5 7.5C10.5 7.10218 10.342 6.72065 10.0607 6.43934C9.77936 6.15804 9.39783 6 9 6V6Z" fill="#A0ABB8"/>
</g>
<defs>
<clipPath id="clip0_1606_94250">
<rect width="18" height="18" fill="white"/>
</clipPath>
</defs>
</svg>
