<svg width="27" height="26" viewBox="0 0 27 26" fill="none" xmlns="http://www.w3.org/2000/svg">
<g clip-path="url(#clip0_1453_24116)">
<path opacity="0.8" d="M13.3617 0C6.31229 0 0.595703 5.71659 0.595703 12.766C0.595703 19.8153 6.31229 25.5319 13.3617 25.5319C20.411 25.5319 26.1276 19.8153 26.1276 12.766C26.1276 5.71659 20.411 0 13.3617 0ZM9.65202 19.2985H6.54293V9.94477H9.65202V19.2985ZM8.09757 8.66751H8.07731C7.034 8.66751 6.35924 7.94931 6.35924 7.0517C6.35924 6.13384 7.05465 5.43551 8.11822 5.43551C9.18179 5.43551 9.8363 6.13384 9.85655 7.0517C9.85655 7.94931 9.18179 8.66751 8.09757 8.66751ZM20.8628 19.2985H17.754V14.2945C17.754 13.0369 17.3039 12.1792 16.179 12.1792C15.3201 12.1792 14.8086 12.7578 14.5838 13.3162C14.5016 13.5161 14.4815 13.7954 14.4815 14.075V19.2985H11.3726C11.3726 19.2985 11.4133 10.8223 11.3726 9.94477H14.4815V11.2692C14.8947 10.6318 15.6339 9.72524 17.2834 9.72524C19.329 9.72524 20.8628 11.0621 20.8628 13.9351V19.2985Z" fill="#9A9AAF"/>
</g>
<defs>
<clipPath id="clip0_1453_24116">
<rect width="25.5319" height="25.5319" fill="white" transform="translate(0.595703)"/>
</clipPath>
</defs>
</svg>
