<svg width="16" height="16" viewBox="0 0 16 16" fill="none" xmlns="http://www.w3.org/2000/svg">
<path fill-rule="evenodd" clip-rule="evenodd" d="M2.49829 13.5019C0.945231 11.9488 0.945231 9.4308 2.49829 7.87774L3.96546 6.41057C4.16803 6.208 4.49647 6.208 4.69904 6.41057C4.90161 6.61314 4.90161 6.94158 4.69904 7.14415L3.23187 8.61132C2.08396 9.75923 2.08396 11.6204 3.23188 12.7683C4.37979 13.9162 6.24093 13.9162 7.38884 12.7683L8.85601 11.3011C9.05858 11.0985 9.38702 11.0985 9.58959 11.3011C9.79216 11.5037 9.79216 11.8321 9.58959 12.0347L8.12243 13.5019C6.56936 15.0549 4.05135 15.0549 2.49829 13.5019Z" fill="#2775FF"/>
<path fill-rule="evenodd" clip-rule="evenodd" d="M13.502 2.49813C15.0551 4.05119 15.0551 6.5692 13.502 8.12226L12.0349 9.58943C11.8323 9.792 11.5039 9.792 11.3013 9.58943C11.0987 9.38686 11.0987 9.05842 11.3013 8.85585L12.7684 7.38868C13.9164 6.24077 13.9164 4.37963 12.7684 3.23171C11.6205 2.0838 9.7594 2.0838 8.61148 3.23171L7.14432 4.69888C6.94174 4.90145 6.61331 4.90145 6.41073 4.69888C6.20816 4.4963 6.20816 4.16787 6.41073 3.96529L7.8779 2.49813C9.43096 0.945068 11.949 0.945069 13.502 2.49813Z" fill="#2775FF"/>
<path fill-rule="evenodd" clip-rule="evenodd" d="M5.43262 10.5675C5.23005 10.365 5.23005 10.0365 5.43262 9.83396L9.83412 5.43246C10.0367 5.22989 10.3651 5.22989 10.5677 5.43246C10.7703 5.63503 10.7703 5.96347 10.5677 6.16604L6.16621 10.5675C5.96363 10.7701 5.6352 10.7701 5.43262 10.5675Z" fill="#2775FF"/>
</svg>
