<svg width="16" height="17" viewBox="0 0 16 17" fill="none" xmlns="http://www.w3.org/2000/svg">
<path d="M13.2667 9.01157H2.73334C1.73334 9.01157 1.33334 9.43823 1.33334 10.4982V13.1916C1.33334 14.2516 1.73334 14.6782 2.73334 14.6782H13.2667C14.2667 14.6782 14.6667 14.2516 14.6667 13.1916V10.4982C14.6667 9.43823 14.2667 9.01157 13.2667 9.01157Z" stroke="#9A9AAF" stroke-width="1.5" stroke-linecap="round" stroke-linejoin="round"/>
<path d="M13.2667 1.34491H2.73334C1.73334 1.34491 1.33334 1.77158 1.33334 2.83158V5.52491C1.33334 6.58491 1.73334 7.01158 2.73334 7.01158H13.2667C14.2667 7.01158 14.6667 6.58491 14.6667 5.52491V2.83158C14.6667 1.77158 14.2667 1.34491 13.2667 1.34491Z" stroke="#9A9AAF" stroke-width="1.5" stroke-linecap="round" stroke-linejoin="round"/>
</svg>
