<svg width="11" height="8" viewBox="0 0 11 8" fill="none" xmlns="http://www.w3.org/2000/svg">
<path d="M0.927985 2.8294C0.483841 2.8294 0.0952148 3.21802 0.0952148 3.66217C0.0952148 4.10631 0.483841 4.49494 0.927985 4.49494C1.37213 4.49494 1.76076 4.10631 1.76076 3.66217C1.76076 3.21802 1.37213 2.8294 0.927985 2.8294ZM0.927985 0.0534973C0.483841 0.0534973 0.0952148 0.442123 0.0952148 0.886268C0.0952148 1.33041 0.483841 1.71904 0.927985 1.71904C1.37213 1.71904 1.76076 1.33041 1.76076 0.886268C1.76076 0.442123 1.37213 0.0534973 0.927985 0.0534973ZM0.927985 5.6053C0.483841 5.6053 0.0952148 5.99393 0.0952148 6.43807C0.0952148 6.88221 0.483841 7.27084 0.927985 7.27084C1.37213 7.27084 1.76076 6.88221 1.76076 6.43807C1.76076 5.99393 1.37213 5.6053 0.927985 5.6053ZM2.87112 0.331087V1.44145H10.6436V0.331087H2.87112ZM2.87112 6.99325H10.6436V5.88289H2.87112V6.99325ZM2.87112 4.21735H10.6436V3.10699H2.87112V4.21735Z" fill="#7E7E8F"/>
</svg>
