<svg width="16" height="16" viewBox="0 0 16 16" fill="none" xmlns="http://www.w3.org/2000/svg">
<path d="M4.66667 8C2 8 2 9.19333 2 10.6667V11.3333C2 13.1733 2 14.6667 5.33333 14.6667H10.6667C13.3333 14.6667 14 13.1733 14 11.3333V10.6667C14 9.19333 14 8 11.3333 8C10.6667 8 10.48 8.14 10.1333 8.4L9.45333 9.12C8.66667 9.96 7.33333 9.96 6.54 9.12L5.86667 8.4C5.52 8.14 5.33333 8 4.66667 8Z" stroke="#7E7E8F" stroke-width="1.5" stroke-miterlimit="10" stroke-linecap="round" stroke-linejoin="round"/>
<path d="M12.6666 8V4C12.6666 2.52667 12.6666 1.33333 9.99992 1.33333H5.99992C3.33325 1.33333 3.33325 2.52667 3.33325 4V8" stroke="#7E7E8F" stroke-width="1.5" stroke-miterlimit="10" stroke-linecap="round" stroke-linejoin="round"/>
</svg>
