<svg width="33" height="30" viewBox="0 0 33 30" fill="none" xmlns="http://www.w3.org/2000/svg">
<g clip-path="url(#clip0_5897_1447)">
<path fill-rule="evenodd" clip-rule="evenodd" d="M16.4429 5.76779C12.1763 5.76779 9.5096 7.90113 8.44293 12.1678C10.0429 10.0345 11.9096 9.23446 14.0429 9.76779C15.2601 10.0718 16.13 10.9553 17.093 11.9325C18.6616 13.5248 20.4773 15.3678 24.4429 15.3678C28.7096 15.3678 31.3763 13.2345 32.4429 8.96779C30.8429 11.1011 28.9763 11.9011 26.8429 11.3678C25.6257 11.0638 24.7558 10.1802 23.7929 9.20305C22.2243 7.61075 20.4086 5.76779 16.4429 5.76779ZM8.44293 15.3678C4.17627 15.3678 1.5096 17.5011 0.442932 21.7678C2.04293 19.6345 3.9096 18.8345 6.04293 19.3678C7.26012 19.6724 8.13004 20.5553 9.09301 21.5325C10.6616 23.1248 12.4773 24.9678 16.4429 24.9678C20.7096 24.9678 23.3763 22.8345 24.4429 18.5678C22.8429 20.7011 20.9763 21.5011 18.8429 20.9678C17.6257 20.6638 16.7558 19.7802 15.7929 18.8031C14.2243 17.2108 12.4086 15.3678 8.44293 15.3678Z" fill="#06B6D4"/>
</g>
<defs>
<clipPath id="clip0_5897_1447">
<rect width="32" height="29" fill="white" transform="translate(0.442932 0.867798)"/>
</clipPath>
</defs>
</svg>
