<svg width="22" height="22" viewBox="0 0 22 22" fill="none" xmlns="http://www.w3.org/2000/svg">
<path d="M19.864 13.1085L19.4974 17.6918C19.3599 19.0943 19.2499 20.1668 16.7657 20.1668H5.23403C2.74987 20.1668 2.63987 19.0943 2.50237 17.6918L2.1357 13.1085C2.06237 12.3477 2.3007 11.6418 2.73153 11.101C2.7407 11.0918 2.7407 11.0918 2.74987 11.0827C3.25403 10.4685 4.01487 10.0835 4.86737 10.0835H17.1324C17.9849 10.0835 18.7365 10.4685 19.2315 11.0643C19.2407 11.0735 19.2499 11.0827 19.2499 11.0918C19.699 11.6327 19.9465 12.3385 19.864 13.1085Z" stroke="#8B8B93" stroke-width="1.5" stroke-miterlimit="10"/>
<path d="M3.2085 10.4775V5.75667C3.2085 2.64001 3.98766 1.86084 7.10433 1.86084H8.2685C9.43266 1.86084 9.6985 2.20917 10.1385 2.79584L11.3027 4.35417C11.596 4.73917 11.7702 4.97751 12.5493 4.97751H14.8868C18.0035 4.97751 18.7827 5.75667 18.7827 8.87334V10.5142" stroke="#8B8B93" stroke-width="1.5" stroke-miterlimit="10" stroke-linecap="round" stroke-linejoin="round"/>
<path d="M8.64404 15.5835H13.3557" stroke="#8B8B93" stroke-width="1.5" stroke-miterlimit="10" stroke-linecap="round" stroke-linejoin="round"/>
</svg>
