<svg width="20" height="20" viewBox="0 0 20 20" fill="none" xmlns="http://www.w3.org/2000/svg">
<path d="M12.9915 10.3333V13.725C12.9915 14.025 12.9582 14.3083 12.8832 14.5667C12.5748 15.7917 11.5582 16.5583 10.1582 16.5583H7.8915L5.37484 18.2333C4.99984 18.4917 4.49984 18.2167 4.49984 17.7667V16.5583C3.64984 16.5583 2.9415 16.275 2.44984 15.7833C1.94984 15.2833 1.6665 14.575 1.6665 13.725V10.3333C1.6665 8.75 2.64984 7.65833 4.1665 7.51667C4.27484 7.50833 4.38317 7.5 4.49984 7.5H10.1582C11.8582 7.5 12.9915 8.63333 12.9915 10.3333Z" fill="#9A9AAF"/>
<path d="M14.7915 13C15.8498 13 16.7415 12.65 17.3582 12.025C17.9832 11.4083 18.3332 10.5167 18.3332 9.45833V5.20833C18.3332 3.25 16.7498 1.66666 14.7915 1.66666H7.70817C5.74984 1.66666 4.1665 3.25 4.1665 5.20833V5.83333C4.1665 6.06666 4.34984 6.25 4.58317 6.25H10.1582C12.4165 6.25 14.2415 8.075 14.2415 10.3333V12.5833C14.2415 12.8167 14.4248 13 14.6582 13H14.7915Z" fill="#9A9AAF"/>
</svg>
