<svg width="154" height="125" viewBox="0 0 154 125" fill="none" xmlns="http://www.w3.org/2000/svg">
<path d="M50.3 29.7159C50.3 24.4855 54.6946 20.2456 60.1155 20.2456H128.137C133.558 20.2456 137.952 24.4855 137.952 29.7159V107.381H50.3V29.7159Z" fill="#4C71F9"/>
<path d="M50.3 29.6197C50.3 25.8721 52.3551 22.8338 56.239 22.8338H122.939C126.752 22.8338 129.843 25.8164 129.843 29.4956C129.843 54.4044 129.843 61.134 129.843 74.597H50.3V29.6197Z" fill="#809BFF"/>
<path d="M33.9936 67.5403C33.2827 62.6027 37.1129 58.1814 42.1015 58.1814H49.1578C53.6818 58.1814 57.3492 61.8488 57.3492 66.3729V107.33H39.7226L33.9936 67.5403Z" fill="#FC394A"/>
<path d="M153.915 67.5403C154.625 62.6027 150.795 58.1814 145.807 58.1814H138.75C134.226 58.1814 130.558 61.8488 130.558 66.3729V107.33H148.186L153.915 67.5403Z" fill="#4C71F9"/>
<path d="M33.9936 67.5403C33.2827 62.6027 37.1129 58.1814 42.1015 58.1814H49.1578C53.6818 58.1814 57.3492 61.8488 57.3492 66.3729V107.33H39.7226L33.9936 67.5403Z" fill="#4C71F9"/>
<path d="M53.085 107.33H57.3495V66.3729C57.3495 61.8488 53.6821 58.1814 49.158 58.1814H44.8936C49.4177 58.1814 53.085 61.8488 53.085 66.3729V107.33Z" fill="#1D51FE"/>
<path d="M134.823 107.33H130.558V66.3729C130.558 61.8488 134.226 58.1814 138.75 58.1814H143.014C138.49 58.1814 134.823 61.8488 134.823 66.3729V107.33Z" fill="#1D51FE"/>
<path d="M48.6433 113.464H60.9948L58.0786 124.486H48.6433V113.464Z" fill="#4C71F9"/>
<path d="M139.35 113.464H126.998L129.915 124.486H139.35V113.464Z" fill="#4C71F9"/>
<path d="M35.9915 108.231C35.9915 107.734 36.3946 107.332 36.892 107.332H151.144C151.642 107.332 152.046 107.734 152.046 108.231V113.292C152.046 113.79 151.642 114.194 151.144 114.194H36.892C36.3946 114.194 35.9915 113.79 35.9915 113.292V108.231Z" fill="#1D51FE"/>
<path d="M62.8138 76.6281C59.8035 76.6281 57.3633 79.0674 57.3633 82.0766V107.298H130.622V82.0766C130.622 79.0674 128.182 76.6281 125.172 76.6281H62.8138Z" fill="#809BFF"/>
<path d="M15.8572 73.4553L23.5783 66.5551C23.5783 66.5551 32.2677 68.7241 32.8842 70C32.579 70.2378 24.5659 80.6749 24.5659 80.6749L15.8572 73.4553Z" fill="#FFC6C7"/>
<path d="M22.6402 86.3021L24.0197 83.5016C22.7859 83.1665 21.7821 82.6637 20.3075 81.925L20.2777 81.9101C18.7867 81.1634 15.068 79.3336 12.4943 78.0964C9.9205 76.8592 7.74418 75.4926 5.34237 73.4782C3.42095 71.8668 1.70782 69.4675 1.09143 68.4692C1.01375 68.5258 0.686695 68.7713 0 69.301C0.955131 71.1021 2.49433 73.0804 5.12816 75.4299C7.76182 77.7796 12.7153 80.7642 15.0561 82.171C16.9286 83.2966 20.8925 85.3941 22.6402 86.3021Z" fill="#4C71F9"/>
<path d="M5.34262 73.4786C3.42121 71.8671 1.70803 69.4678 1.09164 68.4695C1.04935 68.5003 0.933184 68.5871 0.725342 68.7452C1.58207 70.2948 3.97089 72.7435 4.97887 73.7558C5.9867 74.7682 9.35868 76.9491 10.7757 77.7127C12.1927 78.4763 15.0786 79.7198 17.4763 81.036C19.3945 82.089 22.4793 83.4406 23.7821 83.9848L24.02 83.5021C22.7862 83.1667 21.7823 82.6639 20.3078 81.9253L20.2779 81.9104C18.787 81.1637 15.0681 79.3339 12.4943 78.0968C9.92059 76.8597 7.74444 75.4928 5.34262 73.4786Z" fill="white"/>
<path d="M12.4947 78.0969C9.92093 76.8598 7.74477 75.493 5.34296 73.4788C3.48352 71.9193 1.81913 69.6219 1.15503 68.5706C2.80146 67.3463 4.10106 67.9605 5.31102 68.5323L5.34248 68.547C6.56135 69.1229 9.12875 70.6722 11.3472 70.8643C13.5658 71.0566 17.6487 69.8906 18.1369 69.818C18.6251 69.7452 18.8855 70.0353 18.8908 70.2283C18.896 70.4213 19.426 74.6107 21.9365 76.2505C24.4469 77.8905 26.2237 77.6787 27.1431 77.624C25.6268 81.7294 24.2153 83.1917 23.6992 83.4095C22.606 83.0765 21.6527 82.5991 20.3081 81.9256L20.2782 81.9107C18.7873 81.1639 15.0684 79.3341 12.4947 78.0969Z" fill="#362DC8"/>
<path d="M84.7599 80.8486C81.4539 71.0141 93.1544 56.1915 93.1544 56.1915C93.1544 56.1915 65.828 41.5206 59.2916 39.1166C52.7555 36.7124 49.7387 35.959 46.088 39.262C35.0621 49.2379 26.0664 60.6553 21.9229 66.1528L32.5244 75.3669C34.5086 72.9489 44.834 63.3 49.7887 58.7039C51.3254 57.2784 53.6565 57.1723 55.3207 58.4466C62.9037 64.2528 82.9941 79.624 84.7599 80.8486Z" fill="#FFB902"/>
<path d="M38.2244 33.2046L49.1318 29.9486L51.3434 38.4548C51.3434 38.4548 45.142 42.2946 44.578 42.7566C42.8986 42.2108 38.2244 33.2046 38.2244 33.2046Z" fill="#FFC6C7"/>
<path d="M94.6231 49.7026C95.0504 51.0419 95.3951 52.1219 95.6355 52.8583L93.4287 56.5214C93.4287 56.5214 84.8459 51.9135 76.1499 47.4393L74.6722 37.2126C74.4854 35.9199 73.2378 35.0595 71.963 35.3445L49.7451 40.3091L44.4753 30.246C44.4753 30.246 63.656 21.7556 74.3052 18.178C79.3876 16.4705 83.3374 17.1929 85.3982 22.578C88.8294 31.5437 92.6271 43.447 94.6224 49.7005V49.7008L94.6231 49.7026Z" fill="#FBA600"/>
<path d="M71.9631 35.3445C73.2379 35.0597 74.4855 35.9201 74.6722 37.2128C73.9916 32.5022 74.3053 27.9236 77.4235 24.9904C71.902 26.92 71.4827 32.6972 71.9631 35.3445Z" fill="#EB9C03"/>
<path d="M38.5133 49.2855L41.0796 46.8516C39.9702 46.1217 39.1638 45.2923 37.9789 44.0743L37.9549 44.0496C36.7572 42.8181 33.7555 39.7795 31.6659 37.7066C29.5764 35.6336 27.9434 33.5525 26.3525 30.7381C25.0796 28.4865 24.3469 25.4938 24.1395 24.2788C24.0373 24.3123 23.6035 24.4612 22.687 24.7881C22.9022 26.9309 23.6348 29.4382 25.3205 32.6686C27.0064 35.899 30.7758 40.5063 32.5587 42.68C33.9848 44.4189 37.1227 47.8082 38.5133 49.2855Z" fill="#4C71F9"/>
<path d="M26.3511 30.7383C25.0783 28.4868 24.3454 25.494 24.1382 24.2789C24.0826 24.2972 23.9286 24.3496 23.6521 24.4464C23.8727 26.3009 25.269 29.556 25.8669 30.908C26.4649 32.2602 28.9685 35.5494 30.0846 36.7751C31.2006 38.0008 33.6037 40.178 35.4819 42.2766C36.9846 43.9557 39.5439 46.306 40.6358 47.2714L41.0782 46.8517C39.969 46.1219 39.1623 45.2926 37.9776 44.0744L37.9536 44.0498C36.7558 42.8182 33.7542 39.7798 31.6647 37.7068C29.575 35.6337 27.9421 33.5528 26.3511 30.7383Z" fill="white"/>
<path d="M31.6648 37.7073C29.5753 35.6343 27.9424 33.5533 26.3514 30.7388C25.1197 28.56 24.3936 25.6868 24.1602 24.4026C26.3385 23.6656 27.398 24.7015 28.3845 25.666L28.4101 25.6911C29.4038 26.6625 31.3567 29.0529 33.523 29.945C35.6891 30.837 40.3103 30.9236 40.8351 31.0023C41.3598 31.081 41.5023 31.4593 41.427 31.6585C41.3519 31.8576 40.1392 36.3116 41.9964 38.777C43.8538 41.2423 45.7412 41.5826 46.6951 41.8147C43.4455 45.5414 41.4057 46.5956 40.792 46.6568C39.8242 45.9732 39.0583 45.1858 37.978 44.075L37.954 44.0503C36.7561 42.8188 33.7545 39.7802 31.6648 37.7073Z" fill="#362DC8"/>
<path d="M101.321 28.3547C102.615 29.6491 103.995 31.2021 105.289 32.5822C104.507 33.6229 102.27 35.9468 102.27 35.9468C102.27 35.9468 101.802 35.5479 100.655 33.9183C96.6162 28.1771 98.8426 25.8765 101.321 28.3547Z" fill="#FFB4B5"/>
<path d="M105.293 32.5721C105.293 32.5721 117.323 42.6454 118.324 43.4857C116.987 44.841 111.294 48.672 110.033 49.5302C109.573 49.145 101.153 35.6459 101.153 35.6459L105.293 32.5721Z" fill="#1346F1"/>
<path d="M128 31.2584L129.958 26.4912C130.079 25.2336 129.947 23.8195 129.783 22.1856C129.107 15.4559 136.661 17.0358 137.873 22.5184C138.658 26.0685 137.369 31.8148 137.369 31.8148C136.343 31.8148 129.272 31.4173 128 31.2584Z" fill="#FFB4B5"/>
<path d="M95.5538 52.5917C98.9449 51.674 106.306 48.7788 111.946 45.1602C116.079 42.5089 123.847 37.2177 128.001 31.0201C129.669 31.0201 136.344 30.7817 137.413 31.7586C137.542 31.9019 137.662 32.0699 137.767 32.2598C138.285 33.2051 140.371 37.4454 140.002 42.9605C139.634 48.4756 137.969 60.0494 129.965 68.9968C116.597 83.9413 90.3466 87.4417 85.0409 81.1791C83.5756 79.4496 81.9029 71.5512 83.523 65.7566C85.7813 57.679 88.1135 54.6055 95.5538 52.5917Z" fill="#4C71F9"/>
<path d="M125.219 31.0995L137.413 30.7022L137.766 32.2597L126.332 33.2448L125.219 31.0995Z" fill="#1D51FE"/>
<path d="M126.809 32.6091C127.072 32.6091 127.286 32.3957 127.286 32.1324C127.286 31.8691 127.072 31.6557 126.809 31.6557C126.546 31.6557 126.332 31.8691 126.332 32.1324C126.332 32.3957 126.546 32.6091 126.809 32.6091Z" fill="white"/>
<path d="M121.136 15.9174C121.548 13.4107 121.361 10.9164 122.634 8.41063C134.039 0.985472 143.415 17.9891 138.489 25.3786C136.519 28.3325 129.74 29.4727 125.097 27.7393C118.38 25.2321 120.35 20.6902 121.136 15.9174Z" fill="#FFC6C7"/>
<path d="M138.446 29.3515C136.417 32.2729 135.76 26.6539 136.915 23.8057C137.875 21.4384 135.108 18.3483 133.202 19.4194C131.496 20.3778 129.131 18.307 128.117 16.3206C126.472 13.0982 128.135 7.05105 122.245 9.17858C118.386 9.35863 118.643 5.27472 120.291 3.72404C130.606 -5.98189 132.599 6.16114 139.171 7.81288C152.249 11.0997 140.475 26.4294 138.446 29.3515Z" fill="#7364DB"/>
<path d="M92.327 22.0007C92.0483 21.5092 92.2759 20.8851 92.8054 20.6882L95.8304 19.5639C96.303 19.3881 96.833 19.5858 97.0752 20.0279L102.134 29.264C102.324 29.611 102.261 30.0422 101.978 30.3196L99.6025 32.6558C99.2034 33.0483 98.5405 32.9555 98.2643 32.4686L92.327 22.0007Z" fill="#362DC8"/>
<path d="M92.6927 21.6449C92.5042 21.3122 92.6574 20.8898 93.0154 20.7553L96.0423 19.6185C96.4248 19.4748 96.8548 19.635 97.0499 19.9941L102.092 29.2715C102.287 29.6308 102.21 30.077 101.907 30.3508L99.5279 32.4963C99.2944 32.7067 98.9261 32.647 98.7711 32.3735L92.6927 21.6449Z" fill="#1D51FE"/>
<path d="M102.018 29.3864L96.8749 20.0495C96.7643 19.8486 96.5225 19.7604 96.3086 19.8426L95.9928 19.964C95.947 19.9816 95.9213 20.0302 95.9324 20.0781L95.978 20.2735C95.9926 20.3365 95.9594 20.4007 95.8995 20.4248L94.1404 21.1345C94.0671 21.1641 93.9832 21.1469 93.9276 21.0908L93.7386 20.9012C93.6851 20.8474 93.6245 20.794 93.5528 20.8192L93.2028 20.9716C92.934 21.0668 92.8163 21.3813 92.9565 21.6295L98.9052 32.1687C99.0309 32.3913 99.3324 32.4366 99.518 32.2608L101.925 29.9803C102.088 29.8264 102.126 29.5823 102.018 29.3864Z" fill="#EEF3FF"/>
<path d="M97.259 28.1134C98.6434 29.9002 99.2501 30.8567 100.717 32.7549C99.7375 33.7426 95.5405 38.8799 94.5053 35.9465C92.0895 27.4058 94.5052 24.559 97.259 28.1134Z" fill="#FFC6C7"/>
<path d="M100.717 32.7546L94.5054 35.9467C94.5054 35.9467 100.882 65.3904 113.601 65.7569C121.121 65.9735 134.588 57.6822 137.779 45.6091C139.313 39.8033 137.224 32.5985 129.954 35.879C124.161 38.4926 115.251 49.1711 114.355 49.9305C113.459 50.69 113.044 50.383 112.476 49.712C111.336 48.3673 100.717 32.7546 100.717 32.7546Z" fill="#1D51FE"/>
<path d="M101.712 5.43503H88.0968C87.2927 5.43503 86.6409 6.08689 86.6409 6.89099V12.7016C86.6409 13.5057 87.2927 14.1576 88.0968 14.1576H93.2976L95.1338 17.1417L96.7406 14.1576H101.712C102.516 14.1576 103.168 13.5057 103.168 12.7016V6.89099C103.168 6.08689 102.516 5.43503 101.712 5.43503Z" fill="#362DC8"/>
<path d="M89.6412 7.89979C89.1929 8.34792 89.1929 9.07463 89.6412 9.52293L91.4938 11.3755C91.6358 11.5176 91.8664 11.5176 92.0085 11.3755L93.8611 9.52293C94.3094 9.07463 94.3094 8.34792 93.8611 7.89979C93.413 7.45149 92.6862 7.45149 92.2381 7.89979L91.7512 8.3867L91.2641 7.89979C90.816 7.45149 90.0893 7.45149 89.6412 7.89979Z" fill="white"/>
<path d="M96.737 9.5357H97.2502V9.90677H96.737V10.487H96.346V9.90677H95.8313V9.5357H96.346V8.97983H96.737V9.5357Z" fill="white"/>
<path d="M99.4228 9.72554C99.2889 9.85696 99.1325 9.92275 98.9536 9.92275C98.7249 9.92275 98.5418 9.84457 98.4045 9.68819C98.267 9.53055 98.1982 9.3184 98.1982 9.05191C98.1982 8.88251 98.2349 8.72724 98.3085 8.58629C98.3831 8.44406 98.4868 8.33378 98.6195 8.25559C98.7522 8.17629 98.9014 8.13657 99.0673 8.13657C99.238 8.13657 99.3896 8.17915 99.5223 8.26449C99.655 8.34983 99.7581 8.47251 99.8315 8.63237C99.9051 8.7924 99.9423 8.97547 99.9436 9.18158V9.3718C99.9436 9.80309 99.8363 10.1419 99.6219 10.3884C99.4074 10.6348 99.1036 10.7664 98.7101 10.7829L98.5839 10.7847V10.3564L98.6977 10.3547C99.1444 10.3345 99.3861 10.1247 99.4228 9.72554ZM99.0797 9.52992C99.1627 9.52992 99.2339 9.50862 99.2931 9.46603C99.3535 9.42328 99.3991 9.3718 99.43 9.31141V9.0999C99.43 8.92573 99.3968 8.79065 99.3303 8.69467C99.2641 8.59868 99.1752 8.55069 99.0638 8.55069C98.9607 8.55069 98.876 8.59805 98.8097 8.69292C98.7433 8.78652 98.7101 8.90428 98.7101 9.0465C98.7101 9.18746 98.7422 9.30362 98.8061 9.39484C98.8712 9.48494 98.9625 9.52992 99.0797 9.52992Z" fill="white"/>
</svg>
