<svg width="267" height="275" viewBox="0 0 267 275" fill="none" xmlns="http://www.w3.org/2000/svg">
<g clip-path="url(#clip0_1628_51316)">
<path d="M68.015 141.999C68.5049 141.373 68.8514 140.647 69.03 139.873C69.2087 139.099 69.2152 138.295 69.049 137.518C68.8828 136.74 68.548 136.009 68.0683 135.375C67.5885 134.741 66.9753 134.22 66.272 133.849L65.8115 85.0382L56.6763 89.2248L58.6856 136.431C58.1386 137.653 58.0592 139.032 58.4625 140.308C58.8658 141.583 59.7237 142.667 60.8737 143.354C62.0237 144.04 63.3858 144.281 64.702 144.032C66.0182 143.782 67.197 143.059 68.015 141.999Z" fill="#9E616A"/>
<path d="M67.769 72.6804C67.769 72.6804 58.8824 68.3756 57.6535 76.4974C56.4245 84.6192 51.3694 105.757 51.3694 105.757L66.709 104.674L67.769 72.6804Z" fill="#9E616A"/>
<path d="M68.015 141.999C68.5049 141.373 68.8514 140.647 69.03 139.873C69.2087 139.099 69.2152 138.295 69.049 137.518C68.8828 136.74 68.548 136.009 68.0683 135.375C67.5885 134.741 66.9753 134.22 66.272 133.849L65.8115 85.0382L56.6763 89.2248L58.6856 136.431C58.1386 137.653 58.0592 139.032 58.4625 140.308C58.8658 141.583 59.7237 142.667 60.8737 143.354C62.0237 144.04 63.3858 144.281 64.702 144.032C66.0182 143.782 67.197 143.059 68.015 141.999Z" fill="#9E616A"/>
<path d="M67.769 72.6804C67.769 72.6804 58.8824 68.3756 57.6535 76.4974C56.4245 84.6192 51.3694 105.757 51.3694 105.757L66.709 104.674L67.769 72.6804Z" fill="#7364DB"/>
<path d="M42.0383 260.704C41.6795 260.721 41.3243 260.627 41.0208 260.435C40.7173 260.243 40.4802 259.962 40.3417 259.631C40.2031 259.301 40.1697 258.935 40.2461 258.585C40.3225 258.234 40.5049 257.915 40.7687 257.672C40.8129 257.497 40.8446 257.371 40.8887 257.195C40.8729 257.157 40.857 257.119 40.841 257.081C40.4796 256.228 39.8739 255.501 39.1 254.991C38.3261 254.481 37.4186 254.211 36.4915 254.215C35.5643 254.218 34.6588 254.495 33.8888 255.011C33.1187 255.526 32.5185 256.258 32.1634 257.113C30.7441 260.527 28.9371 263.946 28.4921 267.556C28.2962 269.151 28.3789 270.768 28.7365 272.336C25.403 265.074 23.672 257.181 23.6608 249.193C23.6601 247.188 23.7716 245.185 23.9949 243.193C24.1794 241.56 24.4353 239.938 24.7627 238.328C26.5494 229.593 30.3855 221.406 35.956 214.439C38.652 212.97 40.8324 210.711 42.2032 207.966C42.6999 206.979 43.0508 205.926 43.2453 204.839C42.9412 204.879 42.632 204.904 42.3279 204.924C42.2332 204.929 42.1335 204.934 42.0387 204.939L42.003 204.94C41.6687 204.955 41.3373 204.874 41.0485 204.705C40.7597 204.536 40.526 204.288 40.3753 203.989C40.2247 203.691 40.1637 203.355 40.1996 203.023C40.2354 202.691 40.3667 202.376 40.5775 202.117C40.7089 201.955 40.8402 201.794 40.9717 201.633C41.1712 201.384 41.3756 201.14 41.575 200.891C41.598 200.867 41.6197 200.842 41.6398 200.816C41.8692 200.532 42.0985 200.254 42.3279 199.97C41.9093 199.321 41.3462 198.777 40.6826 198.381C38.3841 197.037 35.2131 197.968 33.5527 200.044C31.8875 202.121 31.5734 205.033 32.1517 207.628C32.7205 209.835 33.6613 211.929 34.9339 213.821C34.8092 213.981 34.6795 214.135 34.5549 214.295C32.2763 217.22 30.2904 220.362 28.6256 223.675C29.0305 219.964 28.5472 216.21 27.2157 212.721C25.8662 209.47 23.3368 206.732 21.1093 203.921C18.4337 200.545 12.9473 202.019 12.4759 206.298C12.4713 206.34 12.4669 206.381 12.4625 206.423C12.7934 206.609 13.1173 206.807 13.4341 207.016C13.8322 207.282 14.1407 207.661 14.3191 208.105C14.4975 208.549 14.5375 209.036 14.434 209.502C14.3304 209.969 14.0881 210.394 13.7387 210.721C13.3894 211.048 12.9493 211.262 12.4761 211.334L12.4276 211.342C12.5455 212.533 12.7539 213.713 13.0509 214.872C13.9115 218.108 15.4324 221.132 17.5181 223.754C19.6038 226.376 22.2094 228.539 25.1715 230.108C25.366 230.208 25.5555 230.307 25.7499 230.402C24.0773 235.135 23.0281 240.066 22.6288 245.07C22.4027 248.022 22.416 250.988 22.6687 253.938L22.6537 253.833C22.0154 250.553 20.2632 247.593 17.6927 245.453C13.875 242.322 8.48127 241.168 4.36263 238.651C3.92491 238.37 3.41597 238.221 2.8958 238.219C2.37564 238.218 1.86596 238.365 1.42688 238.644C0.9878 238.922 0.63764 239.32 0.417687 239.791C0.197735 240.262 0.117172 240.786 0.185497 241.301C0.191021 241.337 0.19663 241.374 0.202335 241.41C0.816301 241.66 1.41409 241.948 1.99224 242.272C2.32309 242.458 2.64696 242.656 2.96384 242.865C3.36192 243.131 3.67039 243.51 3.8488 243.954C4.02722 244.398 4.06726 244.885 3.9637 245.352C3.86015 245.818 3.61782 246.243 3.26845 246.57C2.91909 246.897 2.47899 247.111 2.00582 247.184L1.95734 247.191C1.92243 247.196 1.89252 247.201 1.85767 247.206C2.90672 249.708 4.37909 252.01 6.2103 254.012C8.47246 256.437 11.2066 258.374 14.245 259.705C17.2835 261.036 20.5622 261.734 23.8802 261.755H23.8852C24.7859 265.664 26.0909 269.468 27.7792 273.107H41.6897C41.7396 272.953 41.7845 272.794 41.8293 272.639C40.5418 272.72 39.2491 272.643 37.9802 272.41C39.0123 271.145 40.0444 269.871 41.0765 268.606C41.0995 268.583 41.1211 268.558 41.1413 268.531C41.6648 267.884 42.1933 267.242 42.7168 266.595L42.7171 266.594C42.745 264.61 42.517 262.63 42.0387 260.704L42.0383 260.704Z" fill="#313442"/>
<path d="M247.121 260.704C246.762 260.721 246.407 260.627 246.103 260.435C245.8 260.243 245.563 259.962 245.424 259.631C245.286 259.301 245.252 258.935 245.329 258.585C245.405 258.234 245.587 257.915 245.851 257.672C245.895 257.497 245.927 257.371 245.971 257.195C245.955 257.157 245.94 257.119 245.924 257.081C245.562 256.228 244.956 255.501 244.182 254.991C243.409 254.481 242.501 254.211 241.574 254.215C240.647 254.218 239.741 254.495 238.971 255.011C238.201 255.526 237.601 256.258 237.246 257.113C235.827 260.527 234.02 263.946 233.575 267.556C233.379 269.151 233.461 270.768 233.819 272.336C230.485 265.074 228.754 257.181 228.743 249.193C228.743 247.188 228.854 245.185 229.077 243.193C229.262 241.56 229.518 239.938 229.845 238.328C231.632 229.593 235.468 221.406 241.038 214.439C243.735 212.97 245.915 210.711 247.286 207.966C247.782 206.979 248.133 205.926 248.328 204.839C248.024 204.879 247.715 204.904 247.41 204.924C247.316 204.929 247.216 204.934 247.121 204.939L247.085 204.94C246.751 204.955 246.42 204.874 246.131 204.705C245.842 204.536 245.608 204.288 245.458 203.989C245.307 203.691 245.246 203.355 245.282 203.023C245.318 202.691 245.449 202.376 245.66 202.117C245.791 201.955 245.923 201.794 246.054 201.633C246.254 201.384 246.458 201.14 246.658 200.891C246.681 200.867 246.702 200.842 246.722 200.816C246.952 200.532 247.181 200.254 247.41 199.97C246.992 199.321 246.429 198.777 245.765 198.381C243.467 197.037 240.296 197.968 238.635 200.044C236.97 202.121 236.656 205.033 237.234 207.628C237.803 209.835 238.744 211.929 240.016 213.821C239.892 213.981 239.762 214.135 239.637 214.295C237.359 217.22 235.373 220.362 233.708 223.675C234.113 219.964 233.63 216.21 232.298 212.721C230.949 209.47 228.419 206.732 226.192 203.921C223.516 200.545 218.03 202.019 217.558 206.298C217.554 206.34 217.549 206.381 217.545 206.423C217.876 206.609 218.2 206.807 218.517 207.016C218.915 207.282 219.223 207.661 219.402 208.105C219.58 208.549 219.62 209.036 219.516 209.502C219.413 209.969 219.171 210.394 218.821 210.721C218.472 211.048 218.032 211.262 217.559 211.334L217.51 211.342C217.628 212.533 217.836 213.713 218.133 214.872C218.994 218.108 220.515 221.132 222.601 223.754C224.686 226.376 227.292 228.539 230.254 230.108C230.448 230.208 230.638 230.307 230.832 230.402C229.16 235.135 228.111 240.066 227.711 245.07C227.485 248.022 227.499 250.988 227.751 253.938L227.736 253.833C227.098 250.553 225.346 247.593 222.775 245.453C218.958 242.322 213.564 241.168 209.445 238.651C209.007 238.37 208.498 238.221 207.978 238.219C207.458 238.218 206.948 238.365 206.509 238.644C206.07 238.922 205.72 239.32 205.5 239.791C205.28 240.262 205.2 240.786 205.268 241.301C205.274 241.337 205.279 241.374 205.285 241.41C205.899 241.66 206.497 241.948 207.075 242.272C207.406 242.458 207.729 242.656 208.046 242.865C208.444 243.131 208.753 243.51 208.931 243.954C209.11 244.398 209.15 244.885 209.046 245.352C208.943 245.818 208.7 246.243 208.351 246.57C208.002 246.897 207.562 247.111 207.088 247.184L207.04 247.191C207.005 247.196 206.975 247.201 206.94 247.206C207.989 249.708 209.462 252.01 211.293 254.012C213.555 256.437 216.289 258.374 219.328 259.705C222.366 261.036 225.645 261.734 228.963 261.755H228.968C229.868 265.664 231.173 269.468 232.862 273.107H246.772C246.822 272.953 246.867 272.794 246.912 272.639C245.624 272.72 244.332 272.643 243.063 272.41C244.095 271.145 245.127 269.871 246.159 268.606C246.182 268.583 246.204 268.558 246.224 268.531C246.747 267.884 247.276 267.242 247.799 266.595L247.8 266.594C247.828 264.61 247.6 262.63 247.121 260.704L247.121 260.704Z" fill="#313442"/>
<path d="M193.553 273.016C193.513 273.016 193.473 273.016 193.433 273.015C192.415 272.956 191.459 272.509 190.763 271.764C190.068 271.02 189.686 270.036 189.699 269.018C189.699 262.823 185.268 259.209 180.876 258.376C176.485 257.543 171.035 259.282 168.761 265.046L166.693 270.23C164.905 272.011 162.482 273.012 159.957 273.012C157.431 273.012 155.009 272.011 153.221 270.23L153.099 270.108L153.175 269.953L189.699 195.326V193.497C189.648 192.933 189.648 192.366 189.7 191.803L189.699 3.84749C189.699 3.33229 189.802 2.82233 190.003 2.34787C190.204 1.87341 190.499 1.44411 190.869 1.08544C191.24 0.726767 191.678 0.446037 192.159 0.259895C192.64 0.0737521 193.154 -0.0140137 193.67 0.00181658C194.688 0.0599195 195.644 0.507815 196.339 1.25228C197.035 1.99674 197.416 2.98041 197.404 3.99856V191.824C197.455 192.388 197.454 192.955 197.403 193.519L197.404 195.326L234.004 270.108L233.882 270.23C232.094 272.011 229.671 273.012 227.146 273.012C224.62 273.012 222.198 272.011 220.41 270.23L220.356 270.148L218.342 265.046C216.068 259.282 210.619 257.545 206.227 258.376C201.835 259.209 197.404 262.823 197.404 269.018V269.169C197.404 270.189 196.998 271.168 196.276 271.889C195.554 272.611 194.574 273.016 193.553 273.016L193.553 273.016Z" fill="#313442"/>
<path d="M260.41 136.77H126.693C124.946 136.768 123.271 136.074 122.035 134.841C120.8 133.607 120.105 131.934 120.103 130.19V36.8284C120.105 35.0836 120.8 33.4108 122.035 32.1771C123.271 30.9434 124.946 30.2494 126.693 30.2474H260.41C262.157 30.2494 263.832 30.9434 265.068 32.1772C266.303 33.4109 266.998 35.0836 267 36.8284V130.19C266.998 131.934 266.303 133.607 265.068 134.841C263.832 136.074 262.157 136.768 260.41 136.77ZM126.693 31.6999C125.331 31.7014 124.026 32.2422 123.063 33.2037C122.1 34.1651 121.559 35.4687 121.557 36.8284V130.19C121.559 131.549 122.101 132.853 123.063 133.814C124.026 134.776 125.331 135.316 126.693 135.318H260.41C261.772 135.316 263.077 134.776 264.04 133.814C265.002 132.853 265.544 131.549 265.546 130.19V36.8284C265.544 35.4687 265.003 34.1651 264.04 33.2037C263.077 32.2422 261.772 31.7014 260.41 31.6999H126.693Z" fill="#313442"/>
<path d="M213.322 36.8108H173.781C171.274 36.808 168.87 35.8122 167.098 34.042C165.325 32.2718 164.328 29.8717 164.325 27.3682V27.1965H222.777V27.3682C222.775 29.8717 221.777 32.2718 220.005 34.042C218.232 35.8122 215.829 36.808 213.322 36.8108Z" fill="#313442"/>
<path d="M213.494 141.881H173.953C171.446 141.879 169.043 140.883 167.27 139.113C165.497 137.342 164.5 134.942 164.497 132.439V132.267H222.95V132.439C222.947 134.942 221.95 137.342 220.177 139.113C218.404 140.883 216.001 141.879 213.494 141.881Z" fill="#313442"/>
<path d="M266.496 273.497C266.496 273.573 266.481 273.648 266.452 273.718C266.423 273.788 266.381 273.852 266.327 273.905C266.274 273.959 266.21 274.001 266.14 274.03C266.07 274.059 265.995 274.074 265.919 274.074H0.576947C0.423931 274.074 0.277196 274.013 0.168998 273.905C0.0607992 273.797 0 273.65 0 273.497C0 273.345 0.0607992 273.198 0.168998 273.09C0.277196 272.982 0.423931 272.921 0.576947 272.921H265.919C265.995 272.921 266.07 272.936 266.14 272.965C266.21 272.994 266.274 273.036 266.327 273.09C266.381 273.143 266.423 273.207 266.452 273.277C266.481 273.347 266.496 273.422 266.496 273.497Z" fill="#CCCCCC"/>
<path d="M89.3567 260.085H96.346L99.6709 233.163L89.3552 233.163L89.3567 260.085Z" fill="#9E616A"/>
<path d="M86.9898 256.642L98.0386 255.984V260.711L108.543 267.956C109.062 268.314 109.453 268.828 109.658 269.423C109.864 270.018 109.874 270.663 109.686 271.264C109.498 271.866 109.123 272.391 108.615 272.764C108.107 273.137 107.493 273.339 106.863 273.339H93.7088L91.4415 268.663L90.5563 273.339H85.5967L86.9898 256.642Z" fill="#2F2E41"/>
<path d="M65.5862 110.338L64.9016 113.596L64.3193 125.616L87.7094 122.453L89.5057 108.535L87.0229 104.461L65.5862 110.338Z" fill="#9E616A"/>
<path d="M53.9841 260.085H60.9734L64.2984 233.163L53.9827 233.163L53.9841 260.085Z" fill="#9E616A"/>
<path d="M50.1923 212.521L50.192 212.449L52.8083 200.252L54.4216 194.18L49.9372 158.628C48.8814 132.798 63.8869 120.382 64.005 120.26L64.3304 119.922L88.3952 119.334C101.343 127.081 99.8774 169.454 102.248 198.272C102.417 200.327 104.542 203.36 104.02 205.314C99.8767 220.821 101.09 237.59 97.9339 238.085L88.2561 237.951L83.2578 215.297L87.8717 198.019C85.8254 197.643 84.4113 187.652 84.4113 187.652C83.5197 186.595 80.4415 177.603 80.4415 177.603L76.3372 152.712L69.743 195.524L71.3311 205.568L70.0168 209.021L64.3888 237.532L64.329 237.991L53.7184 236.933L50.1923 212.521Z" fill="#2F2E41"/>
<path d="M51.6173 256.642L62.6661 255.984V260.711L73.1704 267.956C73.6893 268.314 74.0801 268.828 74.2857 269.423C74.4913 270.018 74.501 270.663 74.3133 271.264C74.1257 271.866 73.7506 272.391 73.2427 272.764C72.7348 273.137 72.1208 273.339 71.4903 273.339H58.3363L56.069 268.663L55.1837 273.339H50.2241L51.6173 256.642Z" fill="#2F2E41"/>
<path d="M84.8831 63.3321L90.7824 69.878L97.8683 83.2156L94.3876 99.6618L95.9094 107.379L98.1566 115.863C89.4978 120.646 79.2124 114.04 69.7634 111.106L60.4663 115.208L60.9579 103.917L61.21 75.4668C61.2197 74.3741 61.4542 73.2951 61.8989 72.2966C62.3436 71.2982 62.9891 70.4017 63.7952 69.6628C64.6014 68.9239 65.551 68.3583 66.5852 68.0012C67.6193 67.6441 68.7159 67.5031 69.8069 67.5869L76.034 63.0048L84.8831 63.3321Z" fill="#7364DB"/>
<path d="M83.2306 59.9056C90.1007 59.9056 95.67 54.3439 95.67 47.4832C95.67 40.6225 90.1007 35.0608 83.2306 35.0608C76.3606 35.0608 70.7913 40.6225 70.7913 47.4832C70.7913 54.3439 76.3606 59.9056 83.2306 59.9056Z" fill="#9E616A"/>
<path d="M97.8681 43.0001C97.649 44.2173 92.4123 44.8047 92.5699 42.6392C91.5511 44.678 90.0286 47.6368 91.9679 51.0259C91.2083 51.8522 90.7298 52.8971 90.6007 54.0114C90.4717 55.1256 90.6988 56.252 91.2496 57.2296C91.8014 58.1254 92.2637 59.0732 92.6299 60.0594C92.7037 60.2988 92.7565 60.5441 92.7875 60.7927C92.8188 61.0425 92.7821 61.2961 92.6814 61.5269C92.5807 61.7577 92.4197 61.9572 92.2152 62.1044C92.0108 62.2517 91.7704 62.3413 91.5193 62.3638C91.2683 62.3864 91.0157 62.341 90.7882 62.2326C85.5131 59.6524 76.314 60.0897 70.5429 61.6639C70.5814 60.5428 70.566 59.4242 70.4968 58.3081C70.2861 59.7038 69.7224 61.0227 68.8589 62.14C67.8707 62.4319 66.9019 62.7352 65.9637 63.0347C65.8207 63.081 65.6677 63.0877 65.5212 63.054C65.3746 63.0204 65.2399 62.9477 65.1314 62.8437C65.0229 62.7397 64.9447 62.6083 64.9051 62.4634C64.8655 62.3185 64.8659 62.1657 64.9064 62.021C65.0893 61.3583 65.1234 60.6635 65.0064 59.9861C64.768 58.5808 64.0605 57.3099 63.5607 55.9775C63.0609 54.6452 62.7763 53.1132 63.3877 51.8269C64.3373 49.8303 67.0134 49.2198 68.1937 47.35C69.5202 45.2497 68.4898 42.5121 68.6974 40.0356C68.9896 36.5338 71.8617 33.6887 75.0991 32.3141C80.7048 29.9336 87.7178 31.8615 91.9202 36.2616C92.5097 35.8642 93.1979 35.6376 93.9085 35.6071C94.6191 35.5766 95.3243 35.7433 95.9457 36.0888C97.1876 36.7531 98.0796 37.0987 98.6371 38.3926C99.1254 39.5291 98.0911 41.7791 97.8681 43.0001Z" fill="#2F2E41"/>
<path d="M92.5251 189.083L63.2587 159.857C62.9189 159.517 62.728 159.056 62.728 158.575C62.728 158.095 62.9189 157.634 63.2587 157.294L83.7203 136.86C84.0609 136.521 84.5224 136.33 85.0035 136.33C85.4846 136.33 85.9461 136.521 86.2867 136.86L115.553 166.087C115.893 166.427 116.084 166.888 116.084 167.368C116.084 167.848 115.893 168.309 115.553 168.649L95.0914 189.083C94.7508 189.422 94.2894 189.613 93.8083 189.613C93.3272 189.613 92.8657 189.422 92.5251 189.083Z" fill="#313442"/>
<path d="M93.8084 190.097C93.5064 190.098 93.2072 190.039 92.9281 189.924C92.649 189.808 92.3956 189.639 92.1825 189.425L62.9159 160.199C62.4851 159.768 62.2432 159.184 62.2432 158.575C62.2432 157.966 62.4851 157.382 62.9159 156.952L83.3777 136.518C83.8092 136.088 84.394 135.846 85.0037 135.846C85.6134 135.846 86.1982 136.088 86.6297 136.518L115.896 165.744C116.327 166.175 116.569 166.759 116.569 167.368C116.569 167.977 116.327 168.561 115.896 168.992L95.4342 189.425C95.2211 189.639 94.9677 189.808 94.6886 189.924C94.4096 190.039 94.1104 190.098 93.8084 190.097ZM85.0036 136.814C84.8289 136.814 84.6559 136.848 84.4945 136.914C84.3332 136.981 84.1866 137.079 84.0635 137.202L63.6015 157.636C63.3526 157.886 63.2128 158.223 63.2128 158.575C63.2128 158.927 63.3526 159.265 63.6015 159.514L92.868 188.741C93.1217 188.982 93.4583 189.116 93.8083 189.116C94.1584 189.116 94.495 188.982 94.7486 188.741L115.21 168.307C115.459 168.058 115.599 167.72 115.599 167.368C115.599 167.016 115.459 166.678 115.21 166.429L85.9438 137.202C85.8206 137.079 85.6741 136.981 85.5127 136.914C85.3513 136.848 85.1782 136.814 85.0036 136.814Z" fill="#E6E6E6"/>
<path d="M81.498 139.579C81.0081 138.952 80.6616 138.227 80.483 137.452C80.3043 136.678 80.2978 135.874 80.464 135.097C80.6302 134.32 80.965 133.588 81.4447 132.954C81.9245 132.32 82.5377 131.799 83.241 131.428L83.7015 82.6173L92.8367 86.8039L90.8274 134.01C91.3744 135.232 91.4537 136.611 91.0505 137.887C90.6472 139.163 89.7893 140.246 88.6393 140.933C87.4893 141.619 86.1272 141.86 84.811 141.611C83.4948 141.361 82.316 140.638 81.498 139.579Z" fill="#9E616A"/>
<path d="M81.7441 70.2595C81.7441 70.2595 90.6307 65.9547 91.8597 74.0765C93.0887 82.1983 98.1438 103.336 98.1438 103.336L82.8042 102.253L81.7441 70.2595Z" fill="#9E616A"/>
<path d="M81.498 139.579C81.0081 138.952 80.6616 138.227 80.483 137.452C80.3043 136.678 80.2978 135.874 80.464 135.097C80.6302 134.32 80.965 133.588 81.4447 132.954C81.9245 132.32 82.5377 131.799 83.241 131.428L83.7015 82.6173L92.8367 86.8039L90.8274 134.01C91.3744 135.232 91.4537 136.611 91.0505 137.887C90.6472 139.163 89.7893 140.246 88.6393 140.933C87.4893 141.619 86.1272 141.86 84.811 141.611C83.4948 141.361 82.316 140.638 81.498 139.579Z" fill="#9E616A"/>
<path d="M81.7441 70.2595C81.7441 70.2595 90.6307 65.9547 91.8597 74.0765C93.0887 82.1983 98.1438 103.336 98.1438 103.336L82.8042 102.253L81.7441 70.2595Z" fill="#7364DB"/>
</g>
<defs>
<clipPath id="clip0_1628_51316">
<rect width="267" height="275" fill="white"/>
</clipPath>
</defs>
</svg>
